<svg width="65" height="65" viewBox="0 0 65 65" fill="none" xmlns="http://www.w3.org/2000/svg">
<g clip-path="url(#clip0_83_12)">
<path d="M53.4895 0H11.5105C5.15343 0 0 5.28561 0 11.8057V53.1943C0 59.7144 5.15343 65 11.5105 65H53.4895C59.8466 65 65 59.7144 65 53.1943V11.8057C65 5.28561 59.8466 0 53.4895 0Z" fill="#330000"/>
<path d="M31.4979 39.0083H21.4248L19.3761 45.5375C19.349 45.6571 19.2817 45.7631 19.1859 45.8368C19.0901 45.9105 18.972 45.9471 18.8525 45.9402H13.7511C13.4596 45.9402 13.358 45.776 13.4461 45.4475L22.167 19.6827C22.2517 19.4141 22.339 19.11 22.4288 18.7702C22.542 18.1732 22.6003 17.5666 22.6029 16.9584C22.5977 16.9224 22.5995 16.8857 22.6082 16.8505C22.6169 16.8152 22.6324 16.7821 22.6536 16.753C22.6749 16.7239 22.7016 16.6994 22.7322 16.681C22.7627 16.6625 22.7965 16.6505 22.8317 16.6455C22.8569 16.6416 22.8826 16.6416 22.9079 16.6455H29.8407C30.044 16.6455 30.1596 16.7198 30.1901 16.8684L40.0879 45.4918C40.1756 45.789 40.0879 45.9389 39.8261 45.9389H34.1579C34.0606 45.95 33.9626 45.9244 33.8824 45.8668C33.8022 45.8092 33.7452 45.7237 33.722 45.6261L31.4979 39.0083ZM22.9956 33.3693H29.8839C29.7102 32.7723 29.5068 32.1015 29.2738 31.3568C29.0408 30.612 28.7939 29.8143 28.5329 28.9635L27.7475 26.4152C27.4857 25.5653 27.2459 24.745 27.0282 23.9542C26.8104 23.1634 26.6126 22.4422 26.4347 21.7904H26.3914C26.1458 22.998 25.84 24.1918 25.4751 25.3672C25.0684 26.7098 24.6541 28.0815 24.2322 29.4823C23.8102 30.8832 23.3981 32.1788 22.9956 33.3693Z" fill="#FF9A00"/>
<path d="M45.9734 21.3879C45.5287 21.4061 45.0852 21.3278 44.6719 21.1582C44.2587 20.9887 43.885 20.7316 43.5752 20.4038C43.2663 20.0617 43.0264 19.6603 42.8693 19.2227C42.7123 18.7852 42.6412 18.32 42.6602 17.8542C42.645 17.3938 42.7246 16.9354 42.8936 16.5087C43.0627 16.082 43.3174 15.6966 43.6413 15.3775C43.962 15.0618 44.3405 14.8142 44.7549 14.6491C45.1694 14.484 45.6115 14.4046 46.056 14.4155C47.1024 14.4155 47.9234 14.7362 48.519 15.3775C49.1232 16.0499 49.4431 16.9404 49.4086 17.8542C49.427 18.3219 49.3534 18.7887 49.1923 19.2267C49.0311 19.6647 48.7857 20.065 48.4707 20.4038C48.1429 20.7352 47.7519 20.9937 47.3221 21.1631C46.8924 21.3324 46.4333 21.409 45.9734 21.3879ZM42.9652 45.4921V24.1148C42.9652 23.8463 43.0808 23.7121 43.3134 23.7121H48.6753C48.9066 23.7121 49.0235 23.8424 49.0235 24.1148V45.4921C49.0235 45.7893 48.9079 45.9392 48.6753 45.9392H43.3579C43.0961 45.9405 42.9652 45.7906 42.9652 45.4921Z" fill="#FF9A00"/>
</g>
<defs>
<clipPath id="clip0_83_12">
<rect width="65" height="65" fill="white"/>
</clipPath>
</defs>
</svg>
