<?xml version="1.0" encoding="UTF-8"?>
<svg id="Layer_1" xmlns="http://www.w3.org/2000/svg" version="1.1" viewBox="0 0 37 38">
  <!-- Generator: Adobe Illustrator 30.1.0, SVG Export Plug-In . SVG Version: 2.1.1 Build 136)  -->
  <defs>
    <style>
      .st0 {
        fill: #d4be74;
      }
    </style>
  </defs>
  <path class="st0" d="M31.64,31.24c-.75-.75-1.77-2.14-2.32-3.06l-.66-1.09c-.15-.25-.27-.47-.38-.75-.53-1.32-.37-.91-.74-2.25l-.16-.58-.32-1.35c-.07-.3-.2-.54-.2-.86,0-.63-.18-1.86-.18-1.9v-.79c-.01-.57-.05-1.06.04-1.62l.13-.78c.12-.73.04-.73.23-1.44.05-.17.03-.44.09-.6.16-.43.32-.81.41-1.25.07-.33.18-.62.3-.93l.27-.69c.19-.48.38-.91.63-1.36l.59-1.06c.22-.39.4-.77.67-1.13l.9-1.21c.12-.16.36-.49.61-.3.29.23.62.52.86.81.04.05,1.19,1.7,1.17,1.66.28.55.51,1.05.83,1.57.22.36.41.79.56,1.19l.65,1.7c.18.46.42,1.78.5,2.33.03.26.14.52.23.78.1.29.06.63.07.95.01.54.08,1.07.06,1.6-.01.3-.03.57-.02.87.03.98.11.33-.12,1.36-.07.31-.06.62-.1.93-.05.47-.13.93-.21,1.39-.03.18-.13.42-.18.61l-.27.94c-.08.28-.2.59-.32.86l-.72,1.65c-.1.22-.23.41-.35.62-.4.68-.75,1.37-1.22,2l-.85,1.14c-.11.15-.32.17-.45.04h0ZM32.41,29.89c.18-.11.26-.3.37-.45.2-.29.39-.56.55-.87l.37-.69c.28-.53.58-1.03.79-1.59.11-.3.23-.6.38-.88.03-.07.05-.24.08-.32.2-.59.39-1.15.46-1.78.02-.21.11-.41.16-.61.13-.53.26-1.54.26-2.08v-.92c0-.23-.03-.46,0-.68.06-.39.03-.74,0-1.11l-.08-.84c-.06-.65-.16-1.29-.3-1.91-.25-1.03-.14-1.07-.51-2.16l-.32-.95c-.14-.41-.29-.87-.51-1.23l-.4-.67-.7-1.17c-.21-.35-.39-.68-.64-1-.06-.08-.82-1.02-.9-.87l-.55.59c-.45.48-1.26,1.78-1.54,2.35l-.63,1.31c-.11.23-.15.54-.28.76-.25.45-.32.93-.47,1.39-.15.47-.29.94-.37,1.45l-.13.81c-.05.32-.05.6-.13.93-.05.2-.06,1.27-.05,1.57.03.7-.4.61-.36.89.04.29.38.17.36.6-.02.41.04.79.09,1.19l.15,1.05c.09.61.31,1.19.46,1.79.14.56.28,1.1.57,1.61.12.21.16.45.24.67.15.4.38.77.58,1.15.1.19.32.32.51.41-.05.34.01.64.21.92l.62.9.7,1c.04.05.17.14.23.14.2,0,.14-.35.71-.7h0Z"/>
  <path class="st0" d="M18.51,9.76c-1.17.09-2.15-.19-2.95-.18-.25,0-.46.03-.69-.08-.67-.33-1.16-.07-2.24-.62-.08-.04-.26-.06-.35-.09-.96-.34-.83-.37-1.65-.72-1-.42-.93-.52-1.64-.94l-.74-.43c-.55-.32-1.06-.69-1.56-1.08l-.51-.41c-.07-.06-.16-.24-.16-.33,0-.09.13-.24.22-.28.76-.34.36-.39,1.13-.91.38-.26.72-.61,1.12-.83l.88-.48c.49-.26.6-.26,1.1-.54.91-.52.85-.29,1.65-.7.16-.08.32-.12.5-.17.79-.22,1.55-.44,2.37-.52C16.37.02,17.21.17,18.5.01c.56-.07,1.11.17,1.66.2.31.02.6.01.91.07l.65.13c.44.09.85.16,1.25.39.38-.05.68.17,1.02.29.32.11.64.2.95.37.23.12.45.25.68.36.27.12.58.15.82.32.3.22.58.41.9.57.58.28,1.06.68,1.58,1.06l.73.52c.25.18.52.42.58.74.06.29-.21.48-.41.62l-1,.68c-.42.29-.86.54-1.27.86-.51.24-.98.52-1.47.8l-.61.36c-.18.1-.27.13-.47.18-.52.12-1.01.38-1.53.55-.33.11-.64.15-.98.22l-.74.14c-.66.13-1.29.19-1.95.23l-1.31.1h0ZM17.99,9.22c.58.09,1.13.1,1.67-.01.5-.1,1.32-.06,2.05-.23l1.1-.27c.49-.12.99-.29,1.45-.49l1.5-.64.8-.41c.88-.45,2.02-1.22,2.64-1.99.06-.07.16-.17.17-.25,0-.07-.09-.21-.15-.26l-.56-.44-.84-.58c-.35-.24-.72-.44-1.08-.66l-.64-.39c-.61-.37-1.65-.77-2.34-1.03l-.99-.36-.65-.14c-.64-.14-1.26-.27-1.91-.38-.25-.04-.56,0-.82-.02l-1.13-.07c-.55-.03-1.09.03-1.66.06-.09,0-.29.1-.39.12-.28.03-.6.06-.9.11l-.71.13-.8.16c-.32.06-.7.15-.99.28l-.77.34-.65.26-.71.28c-.51.2-1.46.8-1.97,1.11l-.64.39c-.34.21-.61.5-.91.78-.07.06-.14.27-.13.36.02.24.97.96,1.22,1.13l.82.55c.36.24.75.33,1.15.49.16.06.33.33.54.4.49.16.91.42,1.38.62,1.46.61,2.62.8,4.19,1.02.56.08,1.09.11,1.67.02h0Z"/>
  <path class="st0" d="M6.64,29.12c-.53.7-.95,1.42-1.54,2.06-.11.12-.34.12-.49.06-.12-.05-.22-.21-.32-.35l-1.02-1.34-.53-.83c-.24-.37-.45-.78-.64-1.18l-.41-.85-.34-.68c-.22-.44-.32-.94-.49-1.4-.32-.85-.21-.91-.37-1.56-.22-.87-.35-1.71-.41-2.62-.01-.24-.09-.5-.08-.74l.04-1.37c.01-.37-.05-.72.04-1.1.04-.18-.03-.45,0-.62l.28-1.74c.03-.2.14-.44.19-.65l.2-.83c.08-.3.22-.58.32-.88l.36-1.08c.09-.26.16-.4.29-.63l.39-.68.69-1.2c.23-.4.44-.85.73-1.19.22-.26.42-.44.58-.75.12-.25.47-.81.77-.76.1.02.24.19.25.29.05.36.36.46.53.72l.82,1.22.46.8c.13.23.26.41.37.65.18.4.47.77.63,1.18.12.31.21.59.37.88.24.42.31.94.52,1.49.3.79.33,1.23.48,2.06.05.27.15.52.13.82-.01.22.03.43.07.64.19,1.01.13,2.69,0,3.72-.05.42.01.87-.07,1.28l-.15.76-.23.91c-.15.6-.42,1.58-.67,2.11l-.42.9c-.27.59-.24.65-.51,1.24-.21.47-.51.82-.83,1.24h0ZM4.69,30.41c.32.17.5-.24.61-.41.29-.41.57-.77.88-1.15.12-.32.37-.58.54-.88l.55-.98c.08-.15.23-.35.27-.5.11-.36.2-.69.37-1.02.13-.26.18-.49.27-.77l.29-.84c.27-.8.06-1.01.29-1.59.1-.26.17-.62.19-.92l.09-1.44c.04-.65.08-.83.03-1.55l-.06-.86c-.04-.54-.09-1.07-.17-1.6-.05-.31-.16-.6-.16-.92s-.08-.63-.19-.93l-.63-1.75c-.13-.36-.16-.73-.35-1.08-.45-.87-.92-1.71-1.43-2.54-.19-.31-1.04-1.54-1.29-1.54-.07,0-.23.08-.27.14-.24.33-.49.65-.69.99-.11.19-.15.4-.31.55-.14.13-.24.3-.32.48-.2.46-.48.73-.74,1.34l-.31.72c-.38.88-.53,1.15-.81,2.1-.32,1.1-.58,2.43-.64,3.58l-.08,1.49v.58c0,.46.03.93.08,1.38.04.28.02.52.07.8l.14.85c.06.35.07.58.15.91l.26,1.05c.08.31.22.57.32.88.18.57.41,1.13.65,1.68l.63,1.42c.11.25.38.62.57.8.82.79.36.72,1.21,1.51h0Z"/>
  <path class="st0" d="M20.15,37.64c-1.12.1-1.71.09-2.83,0l-.89-.06c-.46-.03-.9-.11-1.35-.21l-.78-.18c-.32-.07-.71-.09-1.01-.22l-1.43-.59c-.43-.18-.93-.31-1.21-.48l-1.76-1.09-.6-.37-.79-.5c-.5-.32-.93-.71-1.39-1.08-.16-.13-.3-.44-.12-.6.32-.29.63-.58.97-.83.48-.35.91-.74,1.41-1.05l1.51-.92c.18-.11.39-.18.59-.26l1.46-.65,1.78-.54c.41-.12.77-.2,1.21-.26l1.06-.15.78-.07c.68-.06,1.34-.2,2.02-.1.67.1.58-.09,1.5.05l1.37.21c.25.04.53.1.77.16l1.48.37c.24.06,1.28.56,1.95.73.67.18.7.54,1.75,1.02.21.1.39.43.61.47s.29.09.44.2l1.02.79c.25.19.47.38.76.53.17.09.36.29.28.52-.1.31-.35.52-.57.73l-.67.62c-.22.2-.44.39-.7.54l-1.15.71-.7.41c-.39.23-.77.49-1.19.65-.29.12-.55.21-.84.36-.19.1-.47.11-.66.19-.73.33-1.45.5-2.23.64-.62.11-1.22.25-1.85.31h0ZM20.12,37.24c.57-.01,1.75-.25,2.25-.46l.7-.13c.23-.04.45-.13.67-.22.29-.11.62-.17.89-.3l.79-.39c.35-.17.67-.41,1.04-.53.37-.12.68-.34,1-.57l.99-.7c.4-.28,1.49-.94,1.36-1.45-.11-.46-.5-.62-.82-.84l-.74-.49-.63-.4c-.33-.21-.68-.45-.97-.69-.33-.28-.63-.47-1.01-.64-.47-.22-.91-.41-1.43-.53-.22-.05-.47-.17-.69-.26-.47-.19-1.32-.41-1.83-.46l-.67-.07c-.15-.01-.36-.12-.5-.12-.52-.02-1.1-.19-1.48-.15l-1.29.11c-.29-.07-1.4-.09-1.56.22-.58-.2-1.09.04-1.64.17l-.76.18c-.21.05-.4.08-.59.16-.97.37-1.11.23-1.89.7-.48.05-.83.31-1.23.55l-.99.59c-.48.29-.97.55-1.38.91l-.96.85s-.11.16-.1.21c0,.05.07.15.11.19l1.14.94,1.04.71.67.46.67.29c.64.28,1.2.69,1.88.93l1.06.37.78.25c.18.06.39.17.56.21.56.15,1.12.28,1.7.31l1.77.09c.38.02.74.02,1.13.01l.96-.02h0Z"/>
  <path class="st0" d="M30.38,25.77c-.25-.44-.62-1.35-.77-1.83l-.38-1.23-.13-.51c-.07-.29-.13-.54-.18-.85-.05-.36-.15-.71-.24-1.08-.06-.23.02-.51.02-.76.01-.36.02-.73,0-1.08-.03-.31-.15-.56-.04-.88.06-.17,0-.44.04-.6.05-.24.1-.45.15-.69l.14-.64c.05-.25.04-.46.1-.7l.28-1.11.27-.62c.1-.23.17-.44.25-.67l.4-1.05c.12-.3.23-.53.41-.8.02-.03.22-.85.6-.92.55-.1.86.86,1.16,1.32.15.23.3.44.42.7.24.54.44,1.07.6,1.63l.37,1.29c.15.53.32,1.31.36,1.87.03.4.2.82.2,1.23v1.09c-.01.52.08,1.08,0,1.58l-.22,1.27c-.06.36-.08.79-.18,1.13l-.55,1.84-.24.47c-.39.78-.53,1.35-.91,2.01-.1.17-.24.35-.37.39-.2.05-.44.01-.58-.11l-.5-.43c-.15-.42-.25-.89-.47-1.28h0ZM31.69,26.91c.22-.09.34-.82.85-1.45.36-.45.31-1.1.5-1.61.22-.6.49-1.44.55-2.08l.1-1.04c.02-.21.09-.42.06-.64-.13-.92.24-.69.03-1.66-.07-.34,0-.71-.06-1.02l-.37-1.85c-.09-.45-.2-.88-.31-1.32-.26-1.03-.54-2-1.13-2.88,0-.25-.1-.8-.37-.75-.08.01-.23.13-.25.21-.21.62-.46,1.15-.8,1.7-.11.17-.16.43-.21.64l-.29,1.15c0,.1.06.33.04.41-.2.15-.29.36-.32.6-.03.36-.09.69-.13,1.05l-.11.8c-.04.26-.04.54-.05.8l-.02.64c0,.22,0,.46,0,.68l.02.92c0,.39.17.78.21,1.16.05.46.08.89.22,1.33.28.85.21.96.53,1.64.12.27,1.13,2.64,1.31,2.56h0Z"/>
  <path class="st0" d="M18.57,7.67l-1.09-.04c-.36-.01-.76.11-1.12.02-.48-.12-.92-.31-1.4-.37-.38-.05-.75-.1-1.11-.21-.36-.06-.7-.19-1.05-.31-.48-.16-.9-.36-1.34-.63-.37-.23-.77-.41-1.16-.61-.24-.12-.55-.23-.53-.57.02-.25.27-.47.51-.54.66-.19.52-.43,1.52-.85.27-.12.53-.23.82-.29.22-.05.36-.15.55-.3.11-.08.36-.08.51-.12.47-.12.91-.21,1.41-.26.46-.05.92-.29,1.39-.29l1.39-.02h1.57c.47.01.88.14,1.33.24.37.08.75.12,1.11.22l2.18.61c.28.08.43.2.7.34l.84.43.66.39c.17.1.5.38.34.64-.24.39-.73.6-1.12.81l-.72.38c-.17.09-.38.26-.56.3-.36.08-.66.16-1,.25l-.91.25c-.45.12-.91.23-1.38.3l-1.65.22c-.22.03-.45,0-.71,0h0ZM21.57,6.8l.96-.25c.26-.07.49-.13.74-.23l1.58-.65c.38-.16.72-.32,1.06-.6-.13-.25-.31-.39-.55-.49l-.81-.34-.74-.29-.84-.34c-.21-.09-.42-.15-.64-.21l-.8-.2c-.6-.15-1.19-.18-1.8-.26-.73-.09-1.25-.21-2.06-.04-.26.05-.56-.07-.83-.05-1.18.08-1.95.28-3.09.6-.28.08-.57.23-.84.35-.71.31-.55.06-1.57.65-.19.11-.51.28-.55.5-.06.27.26.45.45.49.27.05.47.15.68.3.31.23.69.31,1.06.45.57.21,1.14.37,1.73.52.23.06.46.15.69.19l.81.15c.32.06.64.06.97.09.96.1,1.31-.07,1.99-.08,1.05-.01,1.35,0,2.43-.27h0Z"/>
  <path class="st0" d="M4.51,27.62c-.1-.4-.35-.62-.53-.94-.2-.34-.32-.74-.5-1.1-.55-1.09-.81-1.8-1.06-2.99-.06-.28-.15-.54-.15-.83,0-1.03-.24-.66-.24-1.9,0-.66-.01-1.33.05-1.98l.07-.72c.27-2.83.32-1.63.63-3.2.05-.23.14-.51.22-.73l.55-1.49c.15-.4.85-1.83,1.24-1.82.3,0,.42.44.56.63.25.32.38.62.5,1.01.37,1.16.68,1.06.92,2.07l.45,1.88c.19.78.33,1.56.36,2.36l.03.93c.02.41.07.84,0,1.25l-.18,1.09c-.1.64-.1.98-.29,1.7-.13.48-.26.93-.43,1.4-.33.89-.86,2.2-1.31,3l-.32.55c-.05.08-.24.16-.32.13-.09-.03-.22-.16-.25-.29h0ZM5.35,25.78l.24-.55c.12-.26.22-.52.32-.8.21-.59.46-1.17.5-1.81,0-.13,0-.3.08-.39.17-.19.13-.37.17-.59.38-2.02.2-1.42.2-3.33v-.8c0-.22-.04-.51-.08-.73l-.1-.71c-.11-.8-.38-2.02-.67-2.74l-.34-.85c-.14-.35-.44-.78-.62-1.24-.05-.12-.15-.31-.28-.3-.11.01-.16.25-.21.33-.35.53-.53,1.12-.77,1.69-.16.39-.31.7-.28,1.16l-.27.62c-.1.23-.1.45-.16.69l-.35,1.56c-.06.26.04.57-.02.86-.08.44-.05.87-.02,1.31.01.17-.02.38.03.53.08.27.03.47,0,.74-.02.3.11.66.15.97l.15,1.19c.13,1.04.22.81.51,1.64.21.59.43,1.13.69,1.71l.38.86c.16.37.69-.94.73-1.03h0Z"/>
  <path class="st0" d="M20.63,35.43c-.51.17-1.5.07-1.98.08l-1.14.02-.92-.07c-.2-.01-.53.02-.7-.03-1.45-.47-2.74-.55-4.08-1.35-.42-.25-.82-.45-1.26-.64-.31-.14-.6-.34-.93-.43-.24-.07-.42-.22-.35-.52.05-.19.23-.37.41-.46.66-.32,1.15-.79,1.64-.99.24-.09.44-.12.64-.29.33-.28.44,0,.94-.39.58-.08,1.1-.2,1.66-.4.81-.29.83-.11,1.38-.29.58-.19,1.15-.12,1.75-.12l1.56.02c.3,0,.6.04.88.02.37-.02.62.06.94.2.25.11.6.1.87.15l.75.14,1.17.43c.26.09.49.16.72.28.49.25.95.49,1.43.77.68.4.93.31,1.2.6.19.19.15.48-.06.64l-.81.6c-.18.13-.98.48-1.37.71-.28.16-.58.28-.88.43-.49.25-1.01.35-1.53.47l-1.35.31c-.21.05-.41.06-.62.13h0ZM16.74,34.95c.34.03.65.07.97.07h1.84c.26.01.94-.12,1.39-.16.49-.05.96-.24,1.45-.34.69-.14,1.3-.42,1.93-.71.54-.24,1.06-.42,1.54-.79.32-.24.66-.15.67-.39,0-.06-.06-.22-.11-.25l-.79-.49c-.19-.12-.33-.19-.54-.27-.13-.05-.28-.18-.41-.24-1.14-.51-1.13-.56-2.41-.89-.32-.08-1.7-.3-2.09-.35-.77-.1-1.51-.2-2.28-.13l-.72.07c-1.12.1-1.43.11-2.48.42l-.66.19c-.78.23-.49.03-1.43.41l-.92.38c-.47.19-.88.61-1.36.93-.05.03-.12.14-.09.18.02.03.1.11.14.13l.61.31.92.45c.23.12.49.34.73.42l1.05.36.7.22c.27.08.61.07.85.2.27.13.47.15.76.18l.76.07Z"/>
  <path class="st0" d="M18.08,23.21c.2.2.51.2.71,0l3.18-3.18c.2-.2.2-.51,0-.71s-.51-.2-.71,0l-2.83,2.83-2.83-2.83c-.2-.2-.51-.2-.71,0-.2.2-.2.51,0,.71l3.18,3.18ZM18.44,13.42h-.5v9.43h1v-9.43h-.5Z"/>
</svg>