<svg width="41" height="40" viewBox="0 0 41 40" fill="none" xmlns="http://www.w3.org/2000/svg">
<mask id="mask0_281_518" style="mask-type:alpha" maskUnits="userSpaceOnUse" x="0" y="0" width="41" height="40">
<ellipse cx="20.1783" cy="19.5694" rx="19.5694" ry="20.1783" transform="rotate(-90 20.1783 19.5694)" fill="#D9D9D9"/>
</mask>
<g mask="url(#mask0_281_518)">
<path d="M32.3449 6.32124C31.5974 7.06677 30.2004 8.0886 29.2861 8.64233L28.1911 9.30502C27.9447 9.45401 27.7205 9.57965 27.4454 9.68973C26.128 10.2157 26.5396 10.0594 25.1976 10.4303L24.6141 10.5915L23.2641 10.9128C22.9603 10.9851 22.7264 11.1169 22.4042 11.1146C21.7719 11.1102 20.5469 11.2898 20.5073 11.2903L19.7185 11.297C19.1442 11.302 18.658 11.3442 18.1026 11.2536L17.3224 11.1269C16.5875 11.0073 16.5898 11.0891 15.887 10.9011C15.7161 10.8556 15.4444 10.8756 15.2839 10.815C14.8563 10.6549 14.4762 10.4931 14.0371 10.4047C13.7075 10.3385 13.4191 10.2257 13.1079 10.1028L12.4165 9.82983C11.9321 9.63858 11.5108 9.4479 11.0562 9.19549L9.99454 8.60452C9.59958 8.38492 9.22066 8.19979 8.86639 7.93627L7.65283 7.0323C7.49232 6.91277 7.16041 6.67482 7.35646 6.42465C7.58232 6.13611 7.87295 5.80254 8.1676 5.56848C8.21805 5.52845 9.8713 4.37709 9.82486 4.40099C10.3723 4.12246 10.8745 3.88897 11.3973 3.57374C11.7584 3.35581 12.1889 3.16734 12.5845 3.01668L14.283 2.36733C14.7428 2.19165 16.0595 1.94314 16.6081 1.87087C16.8643 1.83696 17.1303 1.72633 17.386 1.64182C17.6778 1.54509 18.012 1.58289 18.333 1.57622C18.8719 1.56454 19.4033 1.49672 19.9364 1.51451C20.2368 1.52451 20.5045 1.54008 20.8037 1.53118C21.7822 1.50228 21.1316 1.42444 22.1646 1.65127C22.4724 1.7191 22.7797 1.71187 23.0933 1.74745C23.5662 1.80193 24.0231 1.87309 24.4862 1.95593C24.6685 1.98873 24.9076 2.08213 25.095 2.13606L26.0334 2.40569C26.312 2.48575 26.621 2.60973 26.8939 2.72814L28.5437 3.44476C28.7638 3.54039 28.9582 3.67381 29.1657 3.79445C29.849 4.19029 30.538 4.54721 31.1663 5.01921L32.3019 5.87315C32.4481 5.98322 32.4756 6.19282 32.346 6.3218L32.3449 6.32124ZM30.9932 5.55458C30.8837 5.37223 30.6962 5.29162 30.5415 5.18155C30.2543 4.97751 29.9831 4.79461 29.6713 4.62949L28.9799 4.26312C28.4543 3.98459 27.9469 3.68382 27.3875 3.47145C27.0899 3.35803 26.789 3.23795 26.5092 3.09062C26.4439 3.05615 26.2685 3.03947 26.194 3.01446C25.6006 2.8132 25.04 2.62529 24.4152 2.55524C24.2036 2.53134 24.0093 2.44795 23.8012 2.39847C23.2715 2.27282 22.2563 2.14051 21.7203 2.13773L20.798 2.13328C20.5715 2.13217 20.3394 2.16552 20.1129 2.13328C19.726 2.07824 19.3757 2.10326 19.0003 2.13939L18.1622 2.22001C17.5098 2.28283 16.8695 2.37789 16.2544 2.52466C15.2249 2.77039 15.1893 2.66199 14.099 3.03392L13.1497 3.35748C12.7438 3.49591 12.2841 3.64935 11.9161 3.86728L11.2419 4.2659L10.0765 4.96306C9.72626 5.17265 9.39263 5.35556 9.07563 5.60073C8.99595 5.66188 8.05639 6.42186 8.20085 6.4997L8.78958 7.04508C9.26996 7.4904 10.5655 8.30764 11.141 8.5845L12.4521 9.21495C12.6819 9.32559 12.9892 9.36728 13.2133 9.49181C13.6616 9.74088 14.1408 9.81315 14.6075 9.9627C15.0741 10.1123 15.5505 10.2535 16.0578 10.3352L16.8638 10.4647C17.1836 10.5159 17.4645 10.5136 17.7901 10.5965C17.9885 10.6471 19.0616 10.6554 19.3626 10.6421C20.0625 10.6115 19.9731 11.0451 20.2477 11.0051C20.5377 10.9629 20.4127 10.6243 20.8519 10.6415C21.2652 10.6576 21.6424 10.6048 22.0425 10.547L23.0933 10.3952C23.7049 10.3068 24.2793 10.0822 24.8812 9.93157C25.4424 9.79092 25.9778 9.6497 26.4915 9.36339C26.7018 9.24608 26.938 9.20828 27.1662 9.121C27.5663 8.96755 27.9366 8.73795 28.3207 8.53614C28.511 8.43607 28.6446 8.21869 28.7311 8.02522C29.0734 8.0747 29.368 8.01522 29.6546 7.81619L30.5524 7.19352L31.5544 6.49358C31.6077 6.45633 31.6903 6.3268 31.6908 6.26509C31.6931 6.06161 31.3383 6.12721 30.9943 5.55403L30.9932 5.55458Z" fill="#FBFF00"/>
<path d="M10.8631 19.4544C10.9491 20.6213 10.6762 21.6026 10.6877 22.4032C10.6911 22.6578 10.7192 22.8618 10.604 23.097C10.2755 23.7713 10.5352 24.2584 9.98028 25.3336C9.94015 25.4114 9.91951 25.5904 9.88627 25.6844C9.54862 26.6395 9.51251 26.5161 9.16799 27.3316C8.74722 28.3285 8.64977 28.2629 8.2313 28.9756L7.79735 29.7139C7.47576 30.2615 7.10831 30.7746 6.71563 31.2694L6.30977 31.7809C6.25417 31.8515 6.06844 31.9449 5.97958 31.9416C5.89073 31.9382 5.74111 31.8076 5.7027 31.722C5.36219 30.9598 5.31461 31.3573 4.79353 30.5928C4.53328 30.2115 4.18704 29.8768 3.96748 29.4709L3.48939 28.5881C3.22685 28.1027 3.23086 27.9832 2.94538 27.4879C2.42315 26.5805 2.65417 26.6345 2.24315 25.8334C2.15946 25.6705 2.12105 25.5131 2.07003 25.3319C1.84761 24.5419 1.63035 23.7791 1.55067 22.9641C1.12073 21.5948 1.27895 20.7459 1.11844 19.4583C1.04793 18.8934 1.28354 18.3492 1.31793 17.7982C1.33685 17.4891 1.33169 17.1961 1.39188 16.8898L1.51971 16.2399C1.60627 15.7996 1.68137 15.3865 1.90838 14.9862C1.8608 14.6071 2.08207 14.308 2.20303 13.965C2.3171 13.6408 2.40481 13.3256 2.56933 13.0154C2.68971 12.788 2.82041 12.5629 2.92475 12.3316C3.04398 12.0664 3.07035 11.749 3.24232 11.5138C3.45787 11.2186 3.65277 10.9356 3.81041 10.6126C4.09245 10.0355 4.49487 9.55573 4.86748 9.03481L5.39143 8.30207C5.56971 8.05301 5.81334 7.78448 6.1292 7.72555C6.42385 7.67052 6.60672 7.9307 6.74831 8.13973L7.42703 9.14044C7.71538 9.56518 7.96474 10.0038 8.28633 10.408C8.52308 10.9206 8.80226 11.3865 9.08659 11.8752L9.44372 12.49C9.54862 12.6702 9.57671 12.7597 9.62372 12.9554C9.74869 13.4713 10.0015 13.9644 10.1735 14.4814C10.2812 14.8067 10.3254 15.1247 10.3902 15.4588L10.5329 16.196C10.6602 16.8537 10.7186 17.4847 10.7668 18.1424L10.8631 19.4522L10.8631 19.4544ZM10.3277 19.9664C10.4165 19.3871 10.428 18.8395 10.3145 18.2919C10.2096 17.7871 10.2577 16.976 10.08 16.2416L9.81461 15.1441C9.69709 14.6582 9.52168 14.1562 9.32276 13.6925L8.67958 12.192L8.27028 11.3881C7.82257 10.5097 7.05213 9.37227 6.28283 8.75295C6.21175 8.69568 6.10914 8.5945 6.03748 8.58727C5.96582 8.58005 5.82653 8.67956 5.78181 8.73627L5.33697 9.30055L4.75513 10.1434C4.51608 10.4892 4.31716 10.8644 4.09818 11.2241L3.70723 11.8663C3.33576 12.4761 2.93277 13.513 2.68169 14.2029L2.31997 15.1964L2.17838 15.8502C2.04022 16.4879 1.90952 17.1055 1.80175 17.7582C1.76048 18.0073 1.79545 18.3175 1.77997 18.5749L1.71175 19.7051C1.6785 20.2533 1.74328 20.7953 1.77022 21.363C1.77481 21.4547 1.87341 21.651 1.88545 21.7488C1.92041 22.0323 1.94105 22.3526 1.99608 22.6489L2.12908 23.3622L2.28615 24.1661C2.3492 24.4885 2.44035 24.8666 2.57105 25.1607L2.91443 25.9318L3.17124 26.5805L3.45099 27.2922C3.65048 27.7997 4.25181 28.7515 4.56595 29.2636L4.95576 29.899C5.16385 30.2381 5.45735 30.5072 5.73251 30.8113C5.79385 30.8791 6.00538 30.9498 6.09595 30.9425C6.33672 30.9231 7.05327 29.9741 7.2241 29.7211L7.77729 28.9011C8.02092 28.5403 8.10633 28.1528 8.26913 27.7464C8.33162 27.5907 8.59875 27.415 8.66754 27.2104C8.83206 26.7223 9.09174 26.3048 9.28951 25.8306C9.90117 24.3668 10.0909 23.2059 10.3082 21.6404C10.3861 21.0778 10.4205 20.548 10.3271 19.9681L10.3277 19.9664Z" fill="#FBFF00"/>
<path d="M30.2257 31.3177C30.9273 31.8464 31.6473 32.2723 32.2813 32.8583C32.3988 32.9672 32.4029 33.2029 32.3421 33.3519C32.2951 33.4676 32.1334 33.571 31.9953 33.6755L30.6516 34.6929L29.8221 35.2244C29.4506 35.4623 29.0448 35.6708 28.6458 35.8615L27.7962 36.2673L27.1141 36.6109C26.6767 36.8311 26.1734 36.9295 25.7165 37.1001C24.8692 37.4165 24.805 37.3086 24.1607 37.4682C23.2859 37.685 22.4541 37.8223 21.545 37.8779C21.3071 37.8924 21.0445 37.9674 20.8003 37.9596L19.4303 37.9174C19.0611 37.9057 18.7125 37.9669 18.3296 37.8779C18.1531 37.8368 17.8808 37.9074 17.7053 37.879L15.9621 37.5977C15.7661 37.566 15.5207 37.4626 15.312 37.4109L14.4837 37.2063C14.1804 37.1313 13.9024 36.9878 13.5992 36.8855L12.5203 36.5214C12.2647 36.4352 12.1162 36.3635 11.8909 36.2329L11.2139 35.8398L10.0129 35.1538C9.61511 34.9264 9.16338 34.7168 8.82402 34.4255C8.56663 34.2042 8.38835 34.0046 8.07192 33.8501C7.82141 33.7278 7.25906 33.3836 7.31294 33.0751C7.33014 32.9778 7.50269 32.8388 7.60759 32.8243C7.97103 32.7738 8.07192 32.4619 8.32587 32.2895L9.54116 31.465L10.3363 31.0069C10.5661 30.8746 10.7484 30.7501 10.9909 30.64C11.3893 30.4593 11.7562 30.1719 12.1678 30.0135C12.4773 29.8945 12.7617 29.8039 13.0489 29.6404C13.4713 29.3997 13.9838 29.328 14.5353 29.1201C15.3298 28.8204 15.7701 28.792 16.5955 28.6425C16.8701 28.593 17.1138 28.4957 17.4182 28.5146C17.6366 28.5285 17.8475 28.4846 18.0602 28.4446C19.072 28.2544 20.7493 28.3189 21.7852 28.4418C22.2042 28.4913 22.6571 28.4312 23.0652 28.5135L23.8236 28.6664L24.7339 28.8955C25.3336 29.0467 26.3173 29.3152 26.8475 29.5609L27.7435 29.9768C28.3293 30.2486 28.3907 30.2164 28.9863 30.4899C29.4535 30.7045 29.8026 30.9997 30.2257 31.3183L30.2257 31.3177ZM31.5143 33.273C31.6846 32.9517 31.2701 32.7771 31.1004 32.6587C30.6883 32.3724 30.3311 32.0844 29.9511 31.778C29.6272 31.6546 29.3709 31.4089 29.0757 31.2421L28.092 30.6884C27.9464 30.6067 27.7441 30.4582 27.5967 30.4143C27.2339 30.3053 26.9031 30.2192 26.5718 30.0446C26.3161 29.9106 26.0834 29.8695 25.8065 29.7739L24.9695 29.4853C24.1733 29.2107 23.9606 29.4281 23.3828 29.1962C23.1225 29.0917 22.7597 29.0261 22.4662 29.0072L21.0256 28.9144C20.3738 28.8721 20.1944 28.8326 19.4796 28.8838L18.6203 28.9455C18.0837 28.9838 17.5546 29.0344 17.0226 29.1117C16.7136 29.1568 16.4241 29.2735 16.0991 29.2735C15.7741 29.2735 15.4714 29.3547 15.1716 29.4631L13.4215 30.0969C13.0655 30.2258 12.6929 30.2609 12.3409 30.4449C11.4719 30.8991 10.6315 31.36 9.80198 31.8765C9.4953 32.0671 8.26052 32.9139 8.25823 33.1701C8.25765 33.2413 8.33848 33.3986 8.39982 33.4437C8.726 33.6822 9.05046 33.9379 9.38925 34.1353C9.57899 34.2459 9.78708 34.2876 9.94128 34.4499C10.0748 34.5906 10.2428 34.6896 10.424 34.7668C10.8814 34.9625 11.152 35.2444 11.7659 35.5118L12.4825 35.8237C13.3653 36.2084 13.6364 36.3557 14.5811 36.6326C15.6795 36.955 17.0066 37.2102 18.1582 37.2753L19.6487 37.3592L20.2328 37.3575C20.6908 37.3559 21.1592 37.3342 21.6103 37.2753C21.8895 37.2391 22.1297 37.2558 22.4129 37.2097L23.2595 37.0712C23.6058 37.0145 23.8362 37.0017 24.1727 36.9178L25.2229 36.6565C25.5371 36.5781 25.7916 36.4375 26.1057 36.3368C26.6795 36.1528 27.2367 35.9271 27.7853 35.6825L29.2064 35.0487C29.4558 34.9375 29.8244 34.6679 30.005 34.4805C30.7949 33.6599 30.729 34.123 31.5137 33.2724L31.5143 33.273Z" fill="#FBFF00"/>
<path d="M38.7458 17.8055C38.8456 18.9235 38.8335 19.5183 38.7544 20.6341L38.6914 21.5286C38.6587 21.9901 38.5842 22.4254 38.4798 22.8785L38.3004 23.6574C38.2259 23.982 38.2087 24.3629 38.082 24.6692L37.491 26.0985C37.3121 26.5311 37.1843 27.0325 37.0112 27.3111L35.9192 29.0718L35.546 29.6733L35.0444 30.4605C34.7268 30.9586 34.3335 31.3917 33.9604 31.8509C33.8302 32.0111 33.523 32.1489 33.363 31.9744C33.0718 31.6564 32.7783 31.345 32.5307 30.9998C32.1844 30.5178 31.7912 30.0875 31.4845 29.5849L30.5616 28.0716C30.4492 27.887 30.3856 27.6841 30.2967 27.484L29.6472 26.0257L29.1084 24.2422C28.984 23.8303 28.9112 23.4711 28.8481 23.0369L28.6939 21.9734L28.6251 21.1945C28.565 20.5152 28.4228 19.8519 28.5283 19.172C28.632 18.5021 28.4365 18.5921 28.5787 17.672L28.7902 16.3044C28.8286 16.057 28.8929 15.7751 28.9542 15.5311L29.3285 14.0472C29.3887 13.8099 29.8897 12.7641 30.0634 12.1014C30.2394 11.4321 30.6023 11.4037 31.0804 10.3546C31.1767 10.1434 31.5074 9.96492 31.555 9.74754C31.6026 9.53016 31.6439 9.45344 31.7557 9.30778L32.541 8.28428C32.7348 8.03133 32.9239 7.81173 33.069 7.5193C33.155 7.34473 33.3602 7.16238 33.5843 7.23743C33.891 7.34028 34.1054 7.58712 34.3123 7.81173L34.9343 8.48665C35.1355 8.70458 35.3213 8.93141 35.476 9.18325L36.1851 10.3357L36.5984 11.0368C36.8272 11.4243 37.084 11.8101 37.2462 12.2248C37.3614 12.5184 37.4526 12.7791 37.6039 13.0632C37.7031 13.2495 37.7117 13.5308 37.7983 13.722C38.1284 14.452 38.3016 15.1714 38.4363 15.9541C38.5429 16.5724 38.6902 17.17 38.747 17.8049L38.7458 17.8055ZM38.3497 17.8355C38.3394 17.2673 38.0986 16.082 37.8848 15.5806L37.7524 14.8778C37.7083 14.6438 37.6246 14.4314 37.5374 14.2057C37.4262 13.9188 37.3677 13.5869 37.2325 13.3145L36.8427 12.5278C36.6684 12.1759 36.4334 11.8585 36.3113 11.4854C36.1892 11.1124 35.9702 10.8044 35.7449 10.4853L35.0438 9.4918C34.7618 9.09263 34.1077 8.00631 33.5964 8.13084C33.1372 8.24259 32.9744 8.62786 32.7583 8.95587L32.2699 9.69695L31.8726 10.3241C31.6639 10.6532 31.4266 11.0023 31.179 11.2981C30.9027 11.6278 30.7141 11.9285 30.5404 12.3082C30.3237 12.7825 30.1334 13.2228 30.0124 13.737C29.9608 13.9577 29.8393 14.2062 29.7527 14.4247C29.5653 14.8967 29.3434 15.7423 29.2913 16.2521L29.223 16.9237C29.2081 17.0699 29.1078 17.2856 29.1021 17.4263C29.0815 17.9461 28.9146 18.5271 28.9479 18.9057L29.0608 20.2005C28.9886 20.4901 28.968 21.5981 29.2804 21.7633C29.0826 22.3437 29.3211 22.8485 29.4512 23.3994L29.6312 24.1616C29.6805 24.3707 29.7155 24.5608 29.7894 24.7543C30.1603 25.7233 30.0153 25.8645 30.4934 26.6445C30.5432 27.1232 30.8081 27.4779 31.0471 27.877L31.6387 28.8627C31.9253 29.3403 32.1867 29.8295 32.553 30.2454L33.398 31.2038C33.4399 31.2511 33.5568 31.3106 33.609 31.3044C33.6611 31.2983 33.762 31.2311 33.7953 31.1905L34.7342 30.0547L35.4462 29.0117L35.9083 28.3401L36.1995 27.6713C36.4769 27.0331 36.8925 26.4749 37.1264 25.7961L37.4916 24.7359L37.7369 23.9537C37.7931 23.7752 37.9032 23.5629 37.9496 23.3905C38.1009 22.8329 38.2334 22.2719 38.2632 21.6943L38.3543 19.9236C38.3738 19.5461 38.3738 19.182 38.3669 18.7967L38.3497 17.8338L38.3497 17.8355Z" fill="#FBFF00"/>
<path d="M26.875 7.57703C26.4399 7.83165 25.5215 8.20136 25.0446 8.34868L23.8184 8.72729L23.3059 8.85404C23.017 8.9252 22.7625 8.98636 22.461 9.03139C22.0964 9.08587 21.7519 9.17816 21.3856 9.26823C21.1522 9.32549 20.8805 9.25154 20.6266 9.24487C20.27 9.23487 19.8928 9.22208 19.5466 9.25266C19.2416 9.27934 18.9888 9.40721 18.6707 9.29658C18.4975 9.23653 18.2344 9.2938 18.0659 9.25766C17.8297 9.20707 17.6113 9.15703 17.3797 9.107L16.7434 8.96913C16.4906 8.91464 16.2825 8.93021 16.0423 8.86905L14.9342 8.5883L14.3123 8.31755C14.0841 8.21804 13.868 8.15077 13.6416 8.0646L12.5896 7.66209C12.2858 7.5459 12.0582 7.43193 11.7848 7.25236C11.759 7.23512 10.9335 7.02886 10.8659 6.64804C10.7684 6.10043 11.7309 5.78521 12.1872 5.49278C12.4217 5.34267 12.6315 5.19145 12.8917 5.07581C13.4312 4.83676 13.9591 4.63773 14.5255 4.47539L15.8107 4.10735C16.3456 3.95447 17.1172 3.79046 17.683 3.74988C18.0848 3.72097 18.505 3.54751 18.9103 3.5514L20.0006 3.56141C20.5222 3.56641 21.0794 3.47079 21.5839 3.55641L22.8525 3.77211C23.2136 3.83327 23.6396 3.85217 23.9795 3.95447L25.8173 4.50597L26.2914 4.74447C27.075 5.13864 27.6449 5.27151 28.2966 5.65011C28.4657 5.74851 28.6492 5.88583 28.6864 6.02204C28.7398 6.21773 28.6968 6.46291 28.5787 6.60023L28.1499 7.10114C27.7303 7.24957 27.2568 7.35243 26.8744 7.57592L26.875 7.57703ZM28.0175 6.27166C27.924 6.05039 27.2023 5.93476 26.5706 5.42551C26.1252 5.06692 25.4711 5.11362 24.9563 4.92793C24.3521 4.71056 23.5203 4.43536 22.876 4.37309L21.8344 4.27192C21.6252 4.25135 21.4159 4.17851 21.1981 4.2102C20.2786 4.34419 20.5125 3.9667 19.5374 4.1813C19.2021 4.25524 18.83 4.18018 18.513 4.243L16.6614 4.60937C16.2091 4.69888 15.7844 4.80896 15.3384 4.92237C14.3117 5.18256 13.3383 5.46498 12.4607 6.05373C12.2147 6.05873 11.6639 6.15602 11.7091 6.42788C11.7217 6.5046 11.8416 6.65304 11.9189 6.67917C12.5375 6.88932 13.0649 7.13783 13.6192 7.47807C13.7923 7.58426 14.0468 7.63707 14.2572 7.68989L15.4083 7.98009C15.5098 7.97564 15.7396 7.9156 15.8228 7.93839C15.9724 8.13576 16.1851 8.23249 16.4275 8.25473C16.7887 8.28753 17.1212 8.33979 17.48 8.38871L18.2768 8.49768C18.5382 8.53326 18.8186 8.53548 19.0782 8.54494L19.7151 8.56828C19.9375 8.57662 20.1731 8.56828 20.3996 8.56439L21.3225 8.54716C21.7129 8.53993 22.0981 8.37759 22.4816 8.33423C22.9448 8.28253 23.3747 8.25529 23.8127 8.11018C24.6645 7.82776 24.77 7.90059 25.4573 7.5837C25.7262 7.45972 28.0931 6.44901 28.018 6.27055L28.0175 6.27166Z" fill="#FBFF00"/>
<path d="M8.77702 19.3887L8.74091 20.4756C8.72887 20.8325 8.85384 21.2367 8.76384 21.5936C8.64346 22.0695 8.456 22.5148 8.39581 22.9952C8.34766 23.3793 8.29549 23.7418 8.18314 24.1082C8.12409 24.4707 7.99397 24.8053 7.87645 25.1539C7.71365 25.637 7.51301 26.054 7.24703 26.4904C7.02174 26.8596 6.83944 27.2571 6.63823 27.6468C6.51556 27.8847 6.40951 28.1977 6.06556 28.1761C5.81333 28.1599 5.5955 27.902 5.52957 27.6657C5.34442 27.0024 5.09563 27.1476 4.67601 26.1496C4.56079 25.8755 4.449 25.622 4.3825 25.3313C4.33263 25.1144 4.23289 24.9688 4.08499 24.7775C4.00072 24.6691 4.00531 24.4156 3.96575 24.2661C3.84079 23.7952 3.75595 23.3538 3.70722 22.8579C3.66193 22.3986 3.41945 21.9366 3.41314 21.4713L3.39423 20.0859L3.40569 18.5159C3.40913 18.0444 3.53582 17.6336 3.63556 17.1833C3.71811 16.8091 3.75595 16.4355 3.85913 16.0686L4.47308 13.8871C4.55161 13.6091 4.67601 13.4529 4.809 13.1921L5.23779 12.3526L5.62989 11.69C5.72964 11.5215 6.01282 11.1896 6.27422 11.3497C6.66403 11.5888 6.87785 12.0819 7.08193 12.4727L7.45741 13.1921C7.54626 13.3622 7.72167 13.5707 7.7618 13.7497C7.84206 14.1078 7.91772 14.4119 8.01231 14.7505L8.26683 15.66C8.3918 16.1075 8.50129 16.5723 8.56378 17.0365L8.78447 18.6821C8.81486 18.9067 8.78619 19.1313 8.7776 19.3887L8.77702 19.3887ZM7.90569 16.3911L7.6569 15.4359C7.58983 15.1791 7.53078 14.9423 7.43104 14.6999L6.78097 13.1232C6.62333 12.7413 6.46225 12.3988 6.18594 12.0658C5.9383 12.1981 5.79613 12.3799 5.69696 12.6134L5.35244 13.4228L5.05894 14.1584L4.71786 15.0017C4.63244 15.2124 4.56996 15.4187 4.51263 15.645L4.3097 16.4472C4.15836 17.0449 4.12569 17.6397 4.05002 18.2468C3.95887 18.9779 3.84021 19.5005 4.00817 20.3116C4.06263 20.574 3.9348 20.8753 3.95372 21.1411C4.03741 22.3258 4.23403 23.0902 4.55219 24.2272C4.63129 24.509 4.78435 24.8009 4.90187 25.0672C5.21199 25.7732 4.96206 25.6204 5.55652 26.6327C5.66887 26.824 5.83397 27.1387 6.05753 27.187C6.32467 27.2443 6.5104 26.9318 6.54766 26.7389C6.59925 26.4726 6.69384 26.2736 6.85091 26.0635C7.08537 25.7493 7.16505 25.3713 7.29976 25.0038C7.509 24.4317 7.66664 23.8663 7.82199 23.2737C7.88218 23.0435 7.96817 22.8145 8.01288 22.5788L8.16594 21.7732C8.22671 21.4546 8.22843 21.1344 8.26053 20.807C8.35569 19.8491 8.18658 19.501 8.17855 18.8167C8.16537 17.7676 8.18371 17.4624 7.90454 16.3911L7.90569 16.3911Z" fill="#FBFF00"/>
<path d="M28.7266 33.4526C28.3311 33.5487 28.1023 33.8028 27.7888 33.9835C27.4443 34.1814 27.0447 34.3004 26.6881 34.4816C25.6007 35.0353 24.8916 35.2888 23.6998 35.5457C23.4241 35.6052 23.1615 35.6958 22.8669 35.6947C21.8402 35.6908 22.2036 35.9376 20.9694 35.9382C20.3067 35.9382 19.6418 35.9504 18.9917 35.8898L18.2706 35.8226C15.4376 35.5574 16.6391 35.5057 15.0661 35.1904C14.8351 35.1443 14.5565 35.0531 14.3324 34.9703L12.8408 34.4177C12.4441 34.2709 11.0127 33.5704 11.023 33.1785C11.031 32.8783 11.461 32.7598 11.649 32.617C11.9723 32.3718 12.2647 32.2417 12.6545 32.1177C13.8113 31.7497 13.7121 31.4378 14.725 31.1943L16.6013 30.7434C17.378 30.5566 18.1634 30.4126 18.9602 30.3832L19.8906 30.3487C20.2987 30.3337 20.735 30.2803 21.1414 30.3459L22.2363 30.5221C22.8806 30.6261 23.2183 30.6183 23.936 30.8151C24.4164 30.9469 24.8698 31.0781 25.3347 31.2499C26.2215 31.5768 27.5371 32.1072 28.3339 32.5614L28.8888 32.8777C28.9674 32.9227 29.0448 33.1168 29.0213 33.2018C28.9955 33.2941 28.8596 33.4209 28.7266 33.4531L28.7266 33.4526ZM26.8876 32.612L26.335 32.369C26.0713 32.2534 25.8174 32.1527 25.5348 32.0527C24.9415 31.8425 24.3653 31.5907 23.7279 31.5501C23.5949 31.5418 23.4281 31.5534 23.3369 31.4711C23.1495 31.301 22.9689 31.3433 22.7453 31.301C20.7246 30.923 21.3289 31.1037 19.4199 31.1059L18.6174 31.1059C18.4007 31.107 18.1124 31.1493 17.8922 31.1809L17.1837 31.2816C16.3817 31.3955 15.1619 31.6635 14.4407 31.9543L13.5883 32.2984C13.2409 32.4385 12.8127 32.7337 12.3495 32.9166C12.2343 32.9622 12.0371 33.0617 12.0514 33.1951C12.0629 33.3041 12.3059 33.3519 12.3862 33.4047C12.9164 33.7533 13.504 33.9307 14.0784 34.1719C14.4654 34.3343 14.7755 34.4794 15.2404 34.4471L15.8595 34.7134C16.0871 34.8113 16.3124 34.8146 16.5543 34.8691L18.1129 35.2182C18.3743 35.2766 18.6868 35.1827 18.9682 35.236C19.4119 35.3205 19.8361 35.2861 20.2798 35.2577C20.4501 35.2466 20.6633 35.2744 20.8124 35.2305C21.0841 35.1499 21.2818 35.1999 21.5536 35.2216C21.8574 35.2455 22.2139 35.1148 22.5246 35.0759L23.7136 34.9264C24.7506 34.7963 24.5276 34.7073 25.3536 34.4166C25.9481 34.2075 26.4835 33.9874 27.063 33.7283L27.9189 33.3458C28.2841 33.1829 26.9788 32.6537 26.8865 32.6131L26.8876 32.612Z" fill="#FBFF00"/>
<path d="M36.536 17.3267C36.7079 17.8337 36.603 18.8239 36.6116 19.3053L36.6317 20.4484L36.5606 21.3679C36.5457 21.5642 36.5853 21.8949 36.5308 22.0634C36.0596 23.5128 35.9776 24.8037 35.1785 26.1385C34.9274 26.5577 34.7325 26.9552 34.537 27.3988C34.4018 27.7057 34.1994 27.9981 34.1105 28.3245C34.044 28.568 33.891 28.7481 33.5912 28.6708C33.4009 28.6219 33.2197 28.4435 33.1309 28.2606C32.8093 27.6018 32.3404 27.1103 32.1454 26.6161C32.0514 26.3776 32.0222 26.1757 31.8519 25.9801C31.567 25.6526 31.8445 25.5381 31.457 25.0449C31.3761 24.4695 31.2523 23.9403 31.0523 23.3804C30.7645 22.5732 30.9428 22.5521 30.7651 21.9995C30.5793 21.4213 30.6401 20.8459 30.6487 20.2516L30.6711 18.6921C30.6751 18.3964 30.7089 18.0945 30.6928 17.8098C30.6722 17.4424 30.753 17.1933 30.8975 16.8669C31.007 16.6195 30.9938 16.2649 31.0442 15.993L31.1818 15.2452L31.6112 14.0722C31.7058 13.8142 31.7746 13.5852 31.8949 13.3472C32.1414 12.8602 32.3879 12.3932 32.6648 11.9168C33.0621 11.233 32.9744 10.9867 33.2604 10.7148C33.4553 10.5297 33.7397 10.563 33.8979 10.7782L34.4958 11.5899C34.6305 11.7728 34.9767 12.5672 35.2014 12.9558C35.3648 13.2383 35.484 13.5401 35.6302 13.832C35.8761 14.324 35.9851 14.8461 36.1032 15.3648L36.4093 16.7118C36.4574 16.9242 36.466 17.1221 36.536 17.3278L36.536 17.3267ZM36.0516 21.2245C36.0848 20.8798 36.1238 20.5712 36.1255 20.2555L36.1375 18.4169C36.1393 18.1534 36.0068 17.4757 35.9616 17.0282C35.9117 16.5345 35.7174 16.0642 35.6176 15.5788C35.4749 14.8844 35.1957 14.2818 34.9068 13.6469C34.6632 13.111 34.4866 12.5895 34.1197 12.1114C33.8767 11.7945 33.9684 11.452 33.7328 11.4448C33.6743 11.4431 33.5126 11.5004 33.4805 11.5526L32.9944 12.3404C32.8781 12.5283 32.8018 12.6723 32.7273 12.8769C32.6803 13.0064 32.5461 13.1615 32.4883 13.2905C31.9769 14.4297 31.9293 14.4235 31.6003 15.7039C31.5177 16.0263 31.2988 17.4023 31.25 17.792C31.1537 18.557 31.0546 19.3026 31.1245 20.077L31.1898 20.7997C31.2907 21.9222 31.3022 22.233 31.6055 23.2815L31.7963 23.9408C32.0228 24.7231 31.8221 24.4345 32.2108 25.3741L32.5891 26.2892C32.7835 26.7595 33.1991 27.1687 33.5241 27.654C33.5568 27.7029 33.6646 27.7758 33.7087 27.7469C33.7437 27.7241 33.8222 27.6485 33.8434 27.6051L34.149 26.9908L34.603 26.074C34.7193 25.8394 34.9418 25.5848 35.0226 25.3457L35.378 24.2955L35.5993 23.5928C35.6835 23.3248 35.6738 22.9868 35.7959 22.7439C35.9306 22.4759 35.9507 22.2697 35.9782 21.9856L36.0516 21.2245Z" fill="#FBFF00"/>
<path d="M24.3144 19.8754C24.5097 19.6801 24.5097 19.3636 24.3144 19.1683L21.1324 15.9863C20.9372 15.7911 20.6206 15.7911 20.4253 15.9863C20.2301 16.1816 20.2301 16.4982 20.4253 16.6934L23.2538 19.5219L20.4253 22.3503C20.2301 22.5455 20.2301 22.8621 20.4253 23.0574C20.6206 23.2526 20.9372 23.2526 21.1324 23.0574L24.3144 19.8754ZM14.5293 19.5219L14.5293 20.0219L23.9609 20.0219L23.9609 19.5219L23.9609 19.0219L14.5293 19.0219L14.5293 19.5219Z" fill="#FBFF00"/>
</g>
</svg>
