<svg width="37" height="38" viewBox="0 0 37 38" fill="none" xmlns="http://www.w3.org/2000/svg">
<path d="M31.639 31.2396C30.8935 30.4921 29.8717 29.0951 29.3179 28.1808L28.6553 27.0859C28.5063 26.8394 28.3806 26.6152 28.2705 26.3401C27.7446 25.0227 27.9008 25.4343 27.53 24.0924L27.3688 23.5088L27.0474 22.1588C26.9752 21.855 26.8434 21.6211 26.8456 21.2989C26.8501 20.6666 26.6705 19.4416 26.67 19.402L26.6633 18.6133C26.6583 18.0389 26.616 17.5528 26.7067 16.9973L26.8334 16.2171C26.9529 15.4822 26.8712 15.4845 27.0591 14.7817C27.1047 14.6108 27.0847 14.3391 27.1453 14.1786C27.3054 13.751 27.4672 13.3709 27.5556 12.9318C27.6217 12.6022 27.7346 12.3138 27.8575 12.0026L28.1304 11.3112C28.3217 10.8268 28.5124 10.4055 28.7648 9.95091L29.3557 8.88926C29.5753 8.49429 29.7605 8.11537 30.024 7.76111L30.928 6.54754C31.0475 6.38703 31.2854 6.05512 31.5356 6.25117C31.8242 6.47703 32.1577 6.76767 32.3918 7.06232C32.4318 7.11276 33.5832 8.76601 33.5593 8.71958C33.8378 9.26703 34.0713 9.76919 34.3865 10.292C34.6045 10.6531 34.7929 11.0836 34.9436 11.4792L35.5929 13.1777C35.7686 13.6375 36.0171 14.9542 36.0894 15.5028C36.1233 15.7591 36.2339 16.025 36.3184 16.2807C36.4152 16.5725 36.3774 16.9067 36.3841 17.2277C36.3957 17.7666 36.4635 18.298 36.4458 18.8311C36.4358 19.1315 36.4202 19.3992 36.4291 19.6984C36.458 20.677 36.5358 20.0263 36.309 21.0593C36.2412 21.3671 36.2484 21.6744 36.2128 21.988C36.1583 22.4609 36.0872 22.9178 36.0043 23.381C35.9715 23.5633 35.8781 23.8023 35.8242 23.9898L35.5546 24.9282C35.4745 25.2068 35.3505 25.5157 35.2321 25.7886L34.5155 27.4384C34.4199 27.6585 34.2865 27.8529 34.1658 28.0604C33.77 28.7437 33.4131 29.4327 32.9411 30.061L32.0871 31.1966C31.977 31.3428 31.7674 31.3703 31.6385 31.2408L31.639 31.2396ZM32.4057 29.8879C32.588 29.7784 32.6686 29.591 32.7787 29.4362C32.9828 29.149 33.1657 28.8778 33.3308 28.566L33.6971 27.8746C33.9757 27.349 34.2764 26.8417 34.4888 26.2822C34.6022 25.9847 34.7223 25.6837 34.8696 25.404C34.9041 25.3386 34.9208 25.1632 34.9458 25.0887C35.1471 24.4954 35.335 23.9347 35.405 23.3099C35.4289 23.0983 35.5123 22.904 35.5618 22.6959C35.6874 22.1662 35.8198 21.151 35.8225 20.615L35.827 19.6927C35.8281 19.4663 35.7947 19.2341 35.827 19.0077C35.882 18.6207 35.857 18.2705 35.8209 17.895L35.7403 17.0569C35.6774 16.4045 35.5824 15.7642 35.4356 15.1491C35.1899 14.1196 35.2983 14.084 34.9264 12.9937L34.6028 12.0444C34.4644 11.6386 34.3109 11.1788 34.093 10.8108L33.6944 10.1366L32.9972 8.97123C32.7876 8.62098 32.6047 8.28735 32.3595 7.97034C32.2984 7.89066 31.5384 6.95111 31.4606 7.09557L30.9152 7.68429C30.4699 8.16467 29.6526 9.46021 29.3758 10.0358L28.7453 11.3468C28.6347 11.5766 28.593 11.8839 28.4685 12.108C28.2194 12.5563 28.1471 13.0356 27.9976 13.5022C27.848 13.9688 27.7068 14.4452 27.6251 14.9525L27.4955 15.7585C27.4444 16.0784 27.4466 16.3592 27.3638 16.6849C27.3132 16.8832 27.3049 17.9563 27.3182 18.2573C27.3488 18.9572 26.9151 18.8678 26.9552 19.1424C26.9974 19.4324 27.336 19.3075 27.3188 19.7466C27.3026 20.1599 27.3554 20.5371 27.4133 20.9372L27.565 21.988C27.6534 22.5996 27.878 23.174 28.0287 23.7759C28.1694 24.3371 28.3106 24.8726 28.5969 25.3862C28.7142 25.5966 28.752 25.8327 28.8393 26.0609C28.9927 26.461 29.2223 26.8313 29.4241 27.2154C29.5242 27.4057 29.7416 27.5393 29.935 27.6259C29.8856 27.9681 29.9451 28.2627 30.1441 28.5494L30.7667 29.4471L31.4667 30.4491C31.5039 30.5024 31.6335 30.585 31.6952 30.5855C31.8987 30.5878 31.8331 30.233 32.4062 29.889L32.4057 29.8879Z" fill="#FBFF00"/>
<path d="M18.5059 9.75773C17.3389 9.84372 16.3577 9.57086 15.5571 9.58232C15.3025 9.58576 15.0985 9.61385 14.8633 9.49863C14.1889 9.17016 13.7019 9.42984 12.6267 8.87493C12.5489 8.83481 12.3699 8.81417 12.2759 8.78092C11.3208 8.44328 11.4442 8.40716 10.6286 8.06264C9.63181 7.64188 9.69742 7.54442 8.98469 7.12595L8.24639 6.692C7.69878 6.37041 7.18564 6.00296 6.69084 5.61029L6.17937 5.20443C6.10877 5.14882 6.01537 4.96309 6.0187 4.87424C6.02204 4.78538 6.15269 4.63576 6.2383 4.59736C7.00051 4.25685 6.60301 4.20927 7.36743 3.68819C7.74882 3.42793 8.0835 3.08169 8.48934 2.86214L9.37219 2.38405C9.85753 2.1215 9.97706 2.12551 10.4724 1.84004C11.3797 1.31781 11.3258 1.54883 12.1269 1.13781C12.2898 1.05411 12.4471 1.0157 12.6284 0.964686C13.4184 0.742266 14.1811 0.525005 14.9962 0.445323C16.3655 0.0153875 17.2144 0.173603 18.502 0.0130941C19.0668 -0.0574154 19.6111 0.17819 20.162 0.212585C20.4711 0.231502 20.7641 0.226342 21.0705 0.286533L21.7204 0.414368C22.1607 0.500928 22.5737 0.576023 22.974 0.803029C23.3532 0.75545 23.6523 0.976723 23.9953 1.09768C24.3194 1.21176 24.6346 1.29946 24.9449 1.46398C25.1722 1.58437 25.3974 1.71507 25.6287 1.8194C25.8939 1.93863 26.2113 1.965 26.4465 2.13698C26.7417 2.35252 27.0247 2.54742 27.3477 2.70507C27.9247 2.9871 28.4045 3.38952 28.9255 3.76213L29.6582 4.28608C29.9073 4.46436 30.1758 4.70799 30.2347 5.02385C30.2898 5.3185 30.0296 5.50137 29.8205 5.64296L28.8198 6.32169C28.3951 6.61003 27.9564 6.85939 27.5523 7.18098C27.0397 7.41774 26.5738 7.69691 26.0851 7.98124L25.4702 8.33837C25.2901 8.44328 25.2006 8.47137 25.0049 8.51837C24.489 8.64334 23.9959 8.89614 23.4788 9.06812C23.1536 9.17589 22.8356 9.22003 22.5015 9.2848L21.7643 9.42754C21.1066 9.5548 20.4756 9.61328 19.8179 9.66143L18.5081 9.75773H18.5059ZM17.9938 9.22232C18.5731 9.31117 19.1207 9.32264 19.6684 9.20914C20.1732 9.10423 20.9843 9.15238 21.7187 8.97468L22.8161 8.70926C23.302 8.59175 23.8041 8.41633 24.2677 8.21742L25.7682 7.57423L26.5721 7.16493C27.4505 6.71723 28.588 5.94678 29.2073 5.17748C29.2646 5.1064 29.3658 5.00379 29.373 4.93213C29.3802 4.86048 29.2807 4.72118 29.224 4.67646L28.6597 4.23163L27.8169 3.64978C27.4711 3.41073 27.0958 3.21182 26.7361 2.99284L26.094 2.60188C25.4841 2.23042 24.4473 1.82742 23.7574 1.57634L22.7639 1.21462L22.1101 1.07303C21.4724 0.934877 20.8547 0.804176 20.2021 0.696405C19.953 0.655131 19.6428 0.6901 19.3854 0.674623L18.2551 0.606406C17.707 0.573158 17.1649 0.637935 16.5973 0.664877C16.5056 0.669463 16.3093 0.768062 16.2115 0.7801C15.9279 0.815068 15.6077 0.835705 15.3114 0.890737L14.5981 1.02373L13.7942 1.1808C13.4718 1.24386 13.0937 1.335 12.7996 1.4657L12.0285 1.80908L11.3797 2.0659L10.6681 2.34564C10.1605 2.54513 9.20874 3.14647 8.69671 3.46061L8.06126 3.85041C7.72213 4.0585 7.45305 4.35201 7.14895 4.62717C7.08112 4.6885 7.01052 4.90003 7.01774 4.9906C7.0372 5.23137 7.98621 5.94793 8.23916 6.11876L9.05919 6.67194C9.42 6.91557 9.80749 7.00098 10.2139 7.16379C10.3696 7.22627 10.5452 7.49341 10.7498 7.5622C11.2379 7.72672 11.6555 7.9864 12.1297 8.18417C13.5935 8.79582 14.7543 8.98557 16.3199 9.20283C16.8825 9.28079 17.4123 9.31519 17.9922 9.22175L17.9938 9.22232Z" fill="#FBFF00"/>
<path d="M6.64248 29.1203C6.11378 29.822 5.68792 30.542 5.10195 31.176C4.99298 31.2935 4.75726 31.2975 4.60827 31.2368C4.49263 31.1898 4.38922 31.0281 4.2847 30.89L3.26732 29.5463L2.73583 28.7168C2.49789 28.3453 2.2894 27.9395 2.09871 27.5405L1.69287 26.6909L1.3493 26.0087C1.12914 25.5714 1.03074 25.0681 0.86006 24.6112C0.543726 23.7639 0.65158 23.6997 0.492023 23.0554C0.275203 22.1806 0.137883 21.3488 0.082288 20.4396C0.0678334 20.2018 -0.00721893 19.9392 0.000564353 19.695L0.0428161 18.3249C0.0544911 17.9558 -0.00666376 17.6072 0.082288 17.2243C0.123428 17.0477 0.0528234 16.7754 0.0811767 16.6L0.362487 14.8568C0.394176 14.6607 0.497582 14.4154 0.549285 14.2067L0.753874 13.3784C0.828927 13.0751 0.972362 12.7971 1.07466 12.4939L1.4388 11.415C1.52498 11.1593 1.59669 11.0109 1.72734 10.7856L2.1204 10.1086L2.80644 8.90762C3.03382 8.50979 3.24341 8.05807 3.53473 7.71871C3.756 7.46132 3.95558 7.28304 4.11014 6.96661C4.23245 6.7161 4.57658 6.15374 4.88513 6.20763C4.98242 6.22482 5.12141 6.39737 5.13586 6.50227C5.18645 6.86571 5.49834 6.9666 5.67069 7.22055L6.49516 8.43584L6.95326 9.23093C7.08557 9.46081 7.21011 9.6431 7.32018 9.88558C7.50087 10.284 7.78829 10.6509 7.94674 11.0625C8.06571 11.372 8.15633 11.6563 8.31978 11.9435C8.56051 12.366 8.63222 12.8785 8.84015 13.43C9.1398 14.2245 9.16816 14.6647 9.31771 15.4902C9.36719 15.7648 9.46448 16.0084 9.44558 16.3128C9.43168 16.5312 9.4756 16.7422 9.51562 16.9549C9.70576 17.9667 9.64127 19.644 9.5184 20.6798C9.46893 21.0989 9.52897 21.5517 9.44669 21.9599L9.2938 22.7183L9.06475 23.6286C8.91353 24.2282 8.64501 25.2119 8.39928 25.7422L7.98343 26.6382C7.71157 27.224 7.74382 27.2854 7.47029 27.881C7.25569 28.3482 6.96049 28.6973 6.64193 29.1203H6.64248ZM4.68721 30.409C5.00855 30.5793 5.18312 30.1648 5.30153 29.9951C5.58785 29.583 5.87583 29.2258 6.18216 28.8458C6.30558 28.5219 6.55131 28.2656 6.71809 27.9704L7.27182 26.9867C7.35354 26.8411 7.50198 26.6387 7.5459 26.4914C7.65486 26.1286 7.74104 25.7978 7.9156 25.4665C8.04959 25.2108 8.09073 24.9781 8.18635 24.7012L8.47489 23.8642C8.74953 23.068 8.53215 22.8553 8.76398 22.2775C8.8685 22.0172 8.9341 21.6544 8.953 21.3609L9.04585 19.9203C9.0881 19.2685 9.12757 19.0891 9.07643 18.3742L9.01472 17.5149C8.97636 16.9784 8.92576 16.4493 8.84849 15.9173C8.80345 15.6083 8.68671 15.3188 8.68671 14.9938C8.68671 14.6688 8.60554 14.3661 8.49713 14.0663L7.86335 12.3162C7.73437 11.9602 7.69934 11.5876 7.51532 11.2356C7.06111 10.3665 6.60023 9.52616 6.08375 8.69667C5.89306 8.38998 5.04635 7.1552 4.79006 7.15291C4.7189 7.15234 4.56157 7.23317 4.51654 7.2945C4.27803 7.62068 4.0223 7.94514 3.82493 8.28393C3.7143 8.47367 3.6726 8.68176 3.51027 8.83597C3.36961 8.96953 3.27065 9.13749 3.19338 9.31864C2.99768 9.77609 2.71582 10.0467 2.44841 10.6606L2.13652 11.3772C1.7518 12.26 1.60448 12.5311 1.32761 13.4758C1.00516 14.5742 0.749983 15.9012 0.684937 17.0529L0.600988 18.5433L0.602656 19.1275C0.604324 19.5855 0.626006 20.0539 0.684937 20.505C0.721074 20.7842 0.704395 21.0244 0.750539 21.3075L0.88897 22.1542C0.945677 22.5005 0.958463 22.7309 1.04241 23.0674L1.30371 24.1176C1.3821 24.4317 1.52275 24.6863 1.62338 25.0004C1.8074 25.5742 2.03311 26.1314 2.27773 26.68L2.91151 28.1011C3.0227 28.3505 3.29234 28.7191 3.47969 28.8996C4.30027 29.6896 3.83717 29.6237 4.68777 30.4084L4.68721 30.409Z" fill="#FBFF00"/>
<path d="M20.1548 37.6405C19.0368 37.7403 18.4419 37.7282 17.3261 37.6491L16.4316 37.5861C15.9702 37.5534 15.5349 37.4789 15.0818 37.3745L14.3029 37.1951C13.9782 37.1206 13.5974 37.1034 13.2911 36.9767L11.8617 36.3857C11.4292 36.2068 10.9277 36.079 10.6492 35.9059L8.88851 34.8138L8.28697 34.4407L7.49975 33.9391C7.00162 33.6215 6.56853 33.2282 6.10932 32.855C5.94921 32.7249 5.81133 32.4177 5.9859 32.2577C6.3039 31.9665 6.61523 31.673 6.96048 31.4254C7.44249 31.0791 7.87279 30.6859 8.37537 30.3792L9.88866 29.4563C10.0732 29.3439 10.2762 29.2803 10.4763 29.1914L11.9346 28.5419L13.718 28.0031C14.13 27.8787 14.4891 27.8059 14.9233 27.7428L15.9869 27.5886L16.7657 27.5198C17.4451 27.4596 18.1084 27.3175 18.7883 27.4229C19.4582 27.5267 19.3681 27.3312 20.2882 27.4734L21.6559 27.6849C21.9033 27.7233 22.1851 27.7875 22.4292 27.8489L23.913 28.2232C24.1504 28.2834 25.1962 28.7844 25.8588 28.9581C26.5282 29.1341 26.5566 29.497 27.6056 29.9751C27.8169 30.0714 27.9953 30.4021 28.2127 30.4497C28.4301 30.4973 28.5068 30.5386 28.6525 30.6503L29.676 31.4357C29.9289 31.6294 30.1485 31.8186 30.441 31.9636C30.6155 32.0496 30.7979 32.2549 30.7228 32.479C30.62 32.7857 30.3731 33.0001 30.1485 33.207L29.4736 33.829C29.2557 34.0302 29.0289 34.2159 28.777 34.3707L27.6245 35.0798L26.9235 35.4931C26.536 35.7219 26.1502 35.9787 25.7354 36.1409C25.4419 36.2561 25.1811 36.3473 24.8971 36.4986C24.7108 36.5978 24.4295 36.6064 24.2382 36.6929C23.5083 37.0231 22.7889 37.1963 22.0061 37.331C21.3879 37.4376 20.7903 37.5849 20.1554 37.6417L20.1548 37.6405ZM20.1248 37.2444C20.693 37.2341 21.8782 36.9933 22.3797 36.7795L23.0824 36.6471C23.3165 36.6029 23.5289 36.5192 23.7546 36.4321C24.0414 36.3209 24.3733 36.2624 24.6458 36.1271L25.4324 35.7373C25.7843 35.5631 26.1018 35.328 26.4748 35.2059C26.8479 35.0838 27.1559 34.8649 27.475 34.6396L28.4685 33.9385C28.8676 33.6564 29.954 33.0024 29.8294 32.491C29.7177 32.0319 29.3324 31.8691 29.0044 31.6529L28.2633 31.1645L27.6362 30.7673C27.3071 30.5586 26.958 30.3213 26.6622 30.0737C26.3325 29.7973 26.0317 29.6087 25.652 29.4351C25.1778 29.2184 24.7375 29.028 24.2232 28.9071C24.0025 28.8555 23.754 28.734 23.5355 28.6474C23.0635 28.46 22.2179 28.2381 21.7081 28.1859L21.0365 28.1177C20.8903 28.1028 20.6746 28.0025 20.534 27.9968C20.0142 27.9761 19.4332 27.8093 19.0546 27.8426L17.7598 27.9555C17.4701 27.8833 16.3621 27.8626 16.197 28.1751C15.6166 27.9773 15.1118 28.2158 14.5609 28.3459L13.7986 28.5259C13.5896 28.5752 13.3995 28.6101 13.206 28.6841C12.237 29.055 12.0958 28.91 11.3158 29.388C10.8371 29.4379 10.4824 29.7028 10.0832 29.9418L9.09754 30.5334C8.61998 30.82 8.13075 31.0814 7.7149 31.4477L6.75645 32.2927C6.70919 32.3345 6.6497 32.4515 6.65582 32.5036C6.66193 32.5558 6.7292 32.6567 6.76979 32.69L7.90559 33.6289L8.94855 34.3409L9.62014 34.8029L10.2889 35.0942C10.9272 35.3716 11.4853 35.7872 12.1642 36.0211L13.2244 36.3863L14.0066 36.6316C14.185 36.6878 14.3974 36.7978 14.5697 36.8443C15.1274 36.9956 15.6883 37.128 16.2659 37.1578L18.0366 37.249C18.4141 37.2685 18.7783 37.2685 19.1636 37.2616L20.1265 37.2444H20.1248Z" fill="#FBFF00"/>
<path d="M30.3831 25.7697C30.1285 25.3346 29.7588 24.4163 29.6115 23.9393L29.2329 22.7131L29.1061 22.2007C29.0349 21.9117 28.9738 21.6572 28.9288 21.3557C28.8743 20.9911 28.782 20.6466 28.6919 20.2803C28.6347 20.047 28.7086 19.7752 28.7153 19.5213C28.7253 19.1647 28.7381 18.7875 28.7075 18.4413C28.6808 18.1363 28.5529 17.8835 28.6636 17.5654C28.7236 17.3923 28.6663 17.1291 28.7025 16.9606C28.7531 16.7244 28.8031 16.506 28.8531 16.2744L28.991 15.6381C29.0455 15.3853 29.0299 15.1772 29.0911 14.937L29.3718 13.8289L29.6426 13.207C29.7421 12.9788 29.8094 12.7627 29.8955 12.5363L30.2981 11.4844C30.4142 11.1805 30.5282 10.953 30.7078 10.6795C30.725 10.6537 30.9313 9.82825 31.3121 9.7606C31.8597 9.66315 32.1749 10.6256 32.4674 11.0819C32.6175 11.3164 32.7687 11.5262 32.8843 11.7865C33.1234 12.3259 33.3224 12.8539 33.4848 13.4202L33.8528 14.7054C34.0057 15.2403 34.1697 16.0119 34.2103 16.5777C34.2392 16.9795 34.4126 17.3997 34.4087 17.805L34.3987 18.8953C34.3937 19.417 34.4894 19.9742 34.4037 20.4786L34.188 21.7472C34.1269 22.1084 34.108 22.5343 34.0057 22.8742L33.4542 24.7121L33.2157 25.1861C32.8215 25.9698 32.6886 26.5396 32.31 27.1913C32.2116 27.3605 32.0743 27.5439 31.9381 27.5812C31.7424 27.6345 31.4972 27.5915 31.3599 27.4734L30.859 27.0446C30.7106 26.625 30.6077 26.1515 30.3842 25.7691L30.3831 25.7697ZM31.6885 26.9122C31.9098 26.8187 32.0254 26.097 32.5346 25.4653C32.8932 25.0199 32.8465 24.3658 33.0322 23.851C33.2496 23.2468 33.5248 22.415 33.587 21.7707L33.6882 20.7291C33.7088 20.5199 33.7816 20.3107 33.7499 20.0928C33.616 19.1733 33.9934 19.4072 33.7788 18.4321C33.7049 18.0968 33.78 17.7247 33.7171 17.4077L33.3508 15.5561C33.2613 15.1038 33.1512 14.6791 33.0378 14.2331C32.7776 13.2064 32.4952 12.233 31.9064 11.3554C31.9014 11.1095 31.8041 10.5586 31.5323 10.6039C31.4555 10.6165 31.3071 10.7363 31.281 10.8137C31.0708 11.4322 30.8223 11.9596 30.4821 12.5139C30.3759 12.687 30.3231 12.9416 30.2703 13.1519L29.9801 14.303C29.9845 14.4045 30.0445 14.6344 30.0218 14.7175C29.8244 14.8671 29.7277 15.0798 29.7054 15.3223C29.6726 15.6834 29.6204 16.0159 29.5714 16.3747L29.4625 17.1716C29.4269 17.433 29.4247 17.7133 29.4152 17.973L29.3919 18.6098C29.3835 18.8323 29.3919 19.0679 29.3958 19.2943L29.413 20.2172C29.4202 20.6076 29.5826 20.9928 29.6259 21.3763C29.6776 21.8395 29.7049 22.2694 29.85 22.7074C30.1324 23.5593 30.0596 23.6647 30.3764 24.3521C30.5004 24.6209 31.5111 26.9878 31.6896 26.9128L31.6885 26.9122Z" fill="#FBFF00"/>
<path d="M18.5715 7.67171L17.4846 7.63559C17.1277 7.62355 16.7235 7.74852 16.3666 7.65852C15.8907 7.53814 15.4454 7.35069 14.965 7.2905C14.5809 7.24234 14.2184 7.19018 13.852 7.07782C13.4895 7.01878 13.1549 6.88865 12.8063 6.77113C12.3232 6.60833 11.9062 6.4077 11.4698 6.14171C11.1006 5.91642 10.7031 5.73413 10.3134 5.53292C10.0755 5.41024 9.76247 5.30419 9.78415 4.96024C9.80027 4.70802 10.0582 4.49018 10.2945 4.42426C10.9578 4.2391 10.8127 3.99031 11.8106 3.57069C12.0847 3.45547 12.3382 3.34369 12.6289 3.27719C12.8458 3.22732 12.9914 3.12757 13.1827 2.97967C13.2911 2.89541 13.5446 2.89999 13.6941 2.86044C14.165 2.73547 14.6064 2.65063 15.1024 2.6019C15.5616 2.55662 16.0236 2.31413 16.4889 2.30783L17.8743 2.28891L19.4443 2.30037C19.9158 2.30381 20.3266 2.4305 20.7769 2.53025C21.1511 2.61279 21.5247 2.65063 21.8916 2.75381L24.0731 3.36776C24.3511 3.4463 24.5073 3.57069 24.7681 3.70369L25.6076 4.13247L26.2702 4.52458C26.4387 4.62432 26.7706 4.90751 26.6105 5.16891C26.3714 5.55872 25.8783 5.77254 25.4875 5.97661L24.7681 6.35209C24.598 6.44094 24.3895 6.61636 24.2105 6.65648C23.8524 6.73674 23.5483 6.81241 23.2098 6.90699L22.3002 7.16152C21.8527 7.28648 21.3879 7.39598 20.9237 7.45846L19.2781 7.67916C19.0535 7.70954 18.8289 7.68088 18.5715 7.67228V7.67171ZM21.5691 6.80037L22.5243 6.55158C22.7811 6.48451 23.018 6.42547 23.2603 6.32572L24.837 5.67566C25.219 5.51801 25.5614 5.35693 25.8944 5.08063C25.7621 4.83298 25.5803 4.69082 25.3468 4.59165L24.5374 4.24712L23.8018 3.95362L22.9585 3.61254C22.7478 3.52712 22.5415 3.46464 22.3152 3.40732L21.513 3.20439C20.9154 3.05305 20.3205 3.02037 19.7134 2.9447C18.9823 2.85356 18.4597 2.7349 17.6486 2.90286C17.3862 2.95732 17.0849 2.82948 16.8191 2.8484C15.6344 2.93209 14.87 3.12872 13.7331 3.44687C13.4512 3.52598 13.1593 3.67904 12.893 3.79655C12.187 4.10668 12.3398 3.85674 11.3275 4.4512C11.1362 4.56356 10.8215 4.72865 10.7732 4.95222C10.7159 5.21935 11.0284 5.40508 11.2213 5.44235C11.4876 5.49394 11.6866 5.58852 11.8968 5.74559C12.2109 5.98005 12.5889 6.05973 12.9564 6.19445C13.5285 6.40368 14.0939 6.56133 14.6865 6.71668C14.9167 6.77687 15.1457 6.86285 15.3814 6.90757L16.187 7.06063C16.5056 7.12139 16.8258 7.12311 17.1532 7.15521C18.1111 7.25037 18.4592 7.08126 19.1435 7.07324C20.1926 7.06005 20.4978 7.0784 21.5691 6.79922V6.80037Z" fill="#FBFF00"/>
<path d="M4.50759 27.6213C4.41141 27.2258 4.15735 26.997 3.97666 26.6835C3.77874 26.3389 3.65977 25.9394 3.47853 25.5828C2.92481 24.4954 2.67129 23.7863 2.41445 22.5945C2.35496 22.3188 2.26434 22.0562 2.26545 21.7616C2.26934 20.7349 2.0225 21.0983 2.02195 19.8641C2.02195 19.2014 2.00972 18.5365 2.07031 17.8864L2.13758 17.1653C2.40277 14.3323 2.45447 15.5338 2.7697 13.9608C2.81584 13.7298 2.90702 13.4512 2.98985 13.227L3.54247 11.7355C3.68924 11.3388 4.38973 9.90737 4.78168 9.91769C5.08189 9.92571 5.20031 10.3556 5.34318 10.5437C5.58836 10.867 5.71845 11.1593 5.84243 11.5492C6.21046 12.706 6.52235 12.6068 6.76586 13.6197L7.21673 15.496C7.40353 16.2727 7.54752 17.0581 7.57699 17.8549L7.61145 18.7853C7.62646 19.1934 7.67984 19.6296 7.61423 20.0361L7.438 21.131C7.33404 21.7753 7.34182 22.113 7.14501 22.8307C7.01325 23.311 6.88205 23.7645 6.71026 24.2294C6.38336 25.1162 5.85299 26.4318 5.39878 27.2286L5.08244 27.7835C5.03741 27.8621 4.84339 27.9395 4.75833 27.9159C4.66604 27.8902 4.53928 27.7543 4.50704 27.6213H4.50759ZM5.34819 25.7823L5.59114 25.2297C5.70677 24.966 5.8074 24.7121 5.90747 24.4295C6.11762 23.8361 6.36947 23.26 6.41005 22.6226C6.41839 22.4896 6.40671 22.3228 6.489 22.2316C6.65912 22.0442 6.61686 21.8636 6.65912 21.64C7.03716 19.6193 6.85648 20.2235 6.85425 18.3146V17.5121C6.85314 17.2954 6.81089 17.007 6.7792 16.7869L6.67857 16.0784C6.5646 15.2764 6.29664 14.0565 6.00588 13.3354L5.66174 12.483C5.52164 12.1356 5.22644 11.7074 5.04353 11.2442C4.99794 11.129 4.89843 10.9318 4.765 10.9461C4.65603 10.9576 4.60822 11.2006 4.5554 11.2809C4.20682 11.8111 4.02948 12.3987 3.7882 12.9731C3.62586 13.36 3.48076 13.6702 3.513 14.1351L3.2467 14.7542C3.14885 14.9818 3.14552 15.207 3.09104 15.449L2.7419 17.0076C2.68353 17.269 2.77748 17.5814 2.72411 17.8629C2.63961 18.3066 2.67407 18.7308 2.70243 19.1745C2.71355 19.3447 2.68575 19.558 2.72967 19.707C2.81028 19.9788 2.76025 20.1765 2.73856 20.4482C2.71466 20.7521 2.84531 21.1086 2.88422 21.4193L3.03377 22.6082C3.16387 23.6452 3.25282 23.4223 3.54358 24.2483C3.75261 24.8428 3.97277 25.3782 4.23184 25.9577L4.61434 26.8136C4.77723 27.1788 5.30649 25.8735 5.34708 25.7812L5.34819 25.7823Z" fill="#FBFF00"/>
<path d="M20.6334 35.4306C20.1264 35.6026 19.1363 35.4977 18.6548 35.5063L17.5118 35.5264L16.5922 35.4553C16.396 35.4404 16.0652 35.4799 15.8967 35.4255C14.4474 34.9543 13.1565 34.8723 11.8216 34.0732C11.4025 33.8221 11.005 33.6272 10.5613 33.4317C10.2544 33.2964 9.962 33.0941 9.63565 33.0052C9.39215 32.9387 9.21202 32.7857 9.2893 32.4859C9.33822 32.2955 9.51668 32.1144 9.69959 32.0255C10.3584 31.704 10.8498 31.235 11.3441 31.0401C11.5826 30.9461 11.7844 30.9169 11.9801 30.7466C12.3075 30.4617 12.4221 30.7392 12.9152 30.3517C13.4906 30.2708 14.0199 30.147 14.5797 29.9469C15.3869 29.6592 15.4081 29.8375 15.9607 29.6598C16.5389 29.474 17.1143 29.5348 17.7086 29.5434L19.268 29.5657C19.5638 29.5698 19.8657 29.6036 20.1503 29.5875C20.5178 29.5669 20.7669 29.6477 21.0932 29.7922C21.3406 29.9017 21.6953 29.8885 21.9672 29.9389L22.7149 30.0765L23.888 30.5059C24.1459 30.6005 24.375 30.6692 24.6129 30.7896C25.0999 31.0361 25.5669 31.2826 26.0434 31.5595C26.7272 31.9568 26.9735 31.869 27.2453 32.1551C27.4305 32.35 27.3971 32.6343 27.182 32.7926L26.3703 33.3904C26.1874 33.5252 25.3929 33.8714 25.0043 34.0961C24.7219 34.2595 24.42 34.3787 24.1281 34.5249C23.6361 34.7708 23.1141 34.8797 22.5954 34.9978L21.2483 35.3039C21.0359 35.3521 20.838 35.3607 20.6323 35.4306H20.6334ZM16.7357 34.9462C17.0804 34.9795 17.3889 35.0185 17.7047 35.0202L19.5432 35.0322C19.8067 35.034 20.4844 34.9015 20.932 34.8562C21.4257 34.8064 21.896 34.612 22.3813 34.5123C23.0757 34.3696 23.6784 34.0904 24.3133 33.8015C24.8492 33.5578 25.3707 33.3813 25.8488 33.0144C26.1657 32.7713 26.5081 32.8631 26.5154 32.6275C26.517 32.569 26.4598 32.4073 26.4075 32.3752L25.6197 31.8891C25.4318 31.7727 25.2878 31.6965 25.0832 31.622C24.9537 31.575 24.7986 31.4408 24.6696 31.3829C23.5305 30.8716 23.5366 30.824 22.2562 30.495C21.9338 30.4124 20.5578 30.1934 20.1681 30.1447C19.4031 30.0484 18.6576 29.9492 17.8832 30.0192L17.1604 30.0845C16.038 30.1854 15.7272 30.1969 14.6787 30.5001L14.0193 30.691C13.2371 30.9175 13.5256 30.7168 12.5861 31.1055L11.671 31.4838C11.2006 31.6782 10.7915 32.0938 10.3061 32.4188C10.2572 32.4515 10.1844 32.5592 10.2133 32.6034C10.2361 32.6383 10.3117 32.7169 10.3551 32.7381L10.9694 33.0436L11.8861 33.4976C12.1207 33.614 12.3754 33.8364 12.6144 33.9173L13.6646 34.2727L14.3673 34.494C14.6353 34.5782 14.9733 34.5685 15.2163 34.6906C15.4842 34.8253 15.6905 34.8454 15.9746 34.8729L16.7357 34.9462Z" fill="#FBFF00"/>
<path d="M18.0849 23.2091C18.2801 23.4044 18.5967 23.4044 18.792 23.2091L21.9739 20.0271C22.1692 19.8319 22.1692 19.5153 21.9739 19.32C21.7787 19.1248 21.4621 19.1248 21.2668 19.32L18.4384 22.1485L15.61 19.32C15.4147 19.1248 15.0981 19.1248 14.9029 19.32C14.7076 19.5153 14.7076 19.8319 14.9029 20.0271L18.0849 23.2091ZM18.4384 13.424L17.9384 13.424L17.9384 22.8556L18.4384 22.8556L18.9384 22.8556L18.9384 13.424L18.4384 13.424Z" fill="#FBFF00"/>
</svg>
