<?xml version="1.0" encoding="UTF-8"?>
<svg id="Layer_1" xmlns="http://www.w3.org/2000/svg" xmlns:xlink="http://www.w3.org/1999/xlink" version="1.1" viewBox="0 0 41 40">
  <!-- Generator: Adobe Illustrator 30.1.0, SVG Export Plug-In . SVG Version: 2.1.1 Build 136)  -->
  <defs>
    <style>
      .st0 {
        mask: url(#mask);
      }

      .st1 {
        fill: #d9d9d9;
      }

      .st2 {
        fill: #d4be74;
      }
    </style>
    <mask id="mask" x="0" y="0" width="40.36" height="39.14" maskUnits="userSpaceOnUse">
      <g id="mask0_281_518">
        <ellipse class="st1" cx="20.18" cy="19.57" rx="20.18" ry="19.57"/>
      </g>
    </mask>
  </defs>
  <g class="st0">
    <g>
      <path class="st2" d="M32.34,6.32c-.75.75-2.14,1.77-3.06,2.32l-1.1.66c-.25.15-.47.27-.75.38-1.32.53-.91.37-2.25.74l-.58.16-1.35.32c-.3.07-.54.2-.86.2-.63,0-1.86.18-1.9.18h-.79c-.57.01-1.06.05-1.62-.04l-.78-.13c-.73-.12-.73-.04-1.44-.23-.17-.05-.44-.03-.6-.09-.43-.16-.81-.32-1.25-.41-.33-.07-.62-.18-.93-.3l-.69-.27c-.48-.19-.91-.38-1.36-.63l-1.06-.59c-.39-.22-.77-.4-1.13-.67l-1.21-.9c-.16-.12-.49-.36-.3-.61.23-.29.52-.62.81-.86.05-.04,1.7-1.19,1.66-1.17.55-.28,1.05-.51,1.57-.83.36-.22.79-.41,1.19-.56l1.7-.65c.46-.18,1.78-.42,2.33-.5.26-.03.52-.14.78-.23.29-.1.63-.06.95-.07.54-.01,1.07-.08,1.6-.06.3,0,.57.03.87.02.98-.03.33-.11,1.36.12.31.07.62.06.93.1.47.05.93.13,1.39.21.18.03.42.13.61.18l.94.27c.28.08.59.2.86.32l1.65.72c.22.1.41.23.62.35.68.4,1.37.75,2,1.22l1.14.85c.15.11.17.32.04.45h0ZM30.99,5.55c-.11-.18-.3-.26-.45-.37-.29-.2-.56-.39-.87-.55l-.69-.37c-.53-.28-1.03-.58-1.59-.79-.3-.11-.6-.23-.88-.38-.07-.03-.24-.05-.32-.08-.59-.2-1.15-.39-1.78-.46-.21-.02-.41-.11-.61-.16-.53-.13-1.54-.26-2.08-.26h-.92c-.23,0-.46.03-.69,0-.39-.06-.74-.03-1.11,0l-.84.08c-.65.06-1.29.16-1.91.3-1.03.25-1.07.14-2.16.51l-.95.32c-.41.14-.87.29-1.23.51l-.67.4-1.17.7c-.35.21-.68.39-1,.64-.08.06-1.02.82-.87.9l.59.55c.48.45,1.78,1.26,2.35,1.54l1.31.63c.23.11.54.15.76.28.45.25.93.32,1.39.47.47.15.94.29,1.45.37l.81.13c.32.05.6.05.93.13.2.05,1.27.06,1.57.05.7-.03.61.4.89.36.29-.04.17-.38.6-.36.41.02.79-.04,1.19-.09l1.05-.15c.61-.09,1.19-.31,1.79-.46.56-.14,1.1-.28,1.61-.57.21-.12.45-.16.67-.24.4-.15.77-.38,1.15-.58.19-.1.32-.32.41-.51.34.05.64-.01.92-.21l.9-.62,1-.7c.05-.04.14-.17.14-.23,0-.2-.35-.14-.7-.71h0Z"/>
      <path class="st2" d="M10.86,19.45c.09,1.17-.19,2.15-.18,2.95,0,.25.03.46-.08.69-.33.67-.07,1.16-.62,2.24-.04.08-.06.26-.09.35-.34.96-.37.83-.72,1.65-.42,1-.52.93-.94,1.64l-.43.74c-.32.55-.69,1.06-1.08,1.56l-.41.51c-.06.07-.24.16-.33.16-.09,0-.24-.13-.28-.22-.34-.76-.39-.36-.91-1.13-.26-.38-.61-.72-.83-1.12l-.48-.88c-.26-.49-.26-.6-.54-1.1-.52-.91-.29-.85-.7-1.65-.08-.16-.12-.32-.17-.5-.22-.79-.44-1.55-.52-2.37-.43-1.37-.27-2.22-.43-3.51-.07-.56.17-1.11.2-1.66.02-.31.01-.6.07-.91l.13-.65c.09-.44.16-.85.39-1.25-.05-.38.17-.68.29-1.02.11-.32.2-.64.37-.95.12-.23.25-.45.36-.68.12-.27.15-.58.32-.82.22-.3.41-.58.57-.9.28-.58.68-1.06,1.06-1.58l.52-.73c.18-.25.42-.52.74-.58.29-.06.48.21.62.41l.68,1c.29.42.54.86.86,1.27.24.51.52.98.8,1.47l.36.61c.1.18.13.27.18.47.12.52.38,1.01.55,1.53.11.33.15.64.22.98l.14.74c.13.66.19,1.29.23,1.95l.1,1.31h0ZM10.33,19.97c.09-.58.1-1.13-.01-1.67-.1-.5-.06-1.32-.23-2.05l-.27-1.1c-.12-.49-.29-.99-.49-1.45l-.64-1.5-.41-.8c-.45-.88-1.22-2.02-1.99-2.64-.07-.06-.17-.16-.25-.17-.07,0-.21.09-.26.15l-.44.56-.58.84c-.24.35-.44.72-.66,1.08l-.39.64c-.37.61-.77,1.65-1.03,2.34l-.36.99-.14.65c-.14.64-.27,1.26-.38,1.91-.04.25,0,.56-.02.82l-.07,1.13c-.03.55.03,1.09.06,1.66,0,.09.1.29.12.39.03.28.06.6.11.9l.13.71.16.8c.06.32.15.7.28.99l.34.77.26.65.28.71c.2.51.8,1.46,1.11,1.97l.39.64c.21.34.5.61.78.91.06.07.27.14.36.13.24-.02.96-.97,1.13-1.22l.55-.82c.24-.36.33-.75.49-1.15.06-.16.33-.33.4-.54.16-.49.42-.91.62-1.38.61-1.46.8-2.62,1.02-4.19.08-.56.11-1.09.02-1.67h0Z"/>
      <path class="st2" d="M30.23,31.32c.7.53,1.42.95,2.06,1.54.12.11.12.34.06.49-.05.12-.21.22-.35.32l-1.34,1.02-.83.53c-.37.24-.78.45-1.18.64l-.85.41-.68.34c-.44.22-.94.32-1.4.49-.85.32-.91.21-1.56.37-.87.22-1.71.35-2.62.41-.24.01-.5.09-.74.08l-1.37-.04c-.37-.01-.72.05-1.1-.04-.18-.04-.45.03-.62,0l-1.74-.28c-.2-.03-.44-.14-.65-.19l-.83-.2c-.3-.07-.58-.22-.88-.32l-1.08-.36c-.26-.09-.4-.16-.63-.29l-.68-.39-1.2-.69c-.4-.23-.85-.44-1.19-.73-.26-.22-.44-.42-.75-.58-.25-.12-.81-.47-.76-.78.02-.1.19-.24.29-.25.36-.05.46-.36.72-.53l1.22-.82.8-.46c.23-.13.41-.26.65-.37.4-.18.77-.47,1.18-.63.31-.12.59-.21.88-.37.42-.24.93-.31,1.49-.52.79-.3,1.23-.33,2.06-.48.27-.05.52-.15.82-.13.22.01.43-.03.64-.07,1.01-.19,2.69-.13,3.73,0,.42.05.87-.01,1.28.07l.76.15.91.23c.6.15,1.58.42,2.11.67l.9.42c.59.27.65.24,1.24.51.47.21.82.51,1.24.83h0ZM31.51,33.27c.17-.32-.24-.5-.41-.61-.41-.29-.77-.57-1.15-.88-.32-.12-.58-.37-.88-.54l-.98-.55c-.15-.08-.35-.23-.5-.27-.36-.11-.69-.2-1.02-.37-.26-.13-.49-.18-.77-.27l-.84-.29c-.8-.27-1.01-.06-1.59-.29-.26-.1-.62-.17-.92-.19l-1.44-.09c-.65-.04-.83-.08-1.55-.03l-.86.06c-.54.04-1.07.09-1.6.17-.31.05-.6.16-.92.16s-.63.08-.93.19l-1.75.63c-.36.13-.73.16-1.08.35-.87.45-1.71.92-2.54,1.43-.31.19-1.54,1.04-1.54,1.29,0,.07.08.23.14.27.33.24.65.49.99.69.19.11.4.15.55.31.13.14.3.24.48.32.46.2.73.48,1.34.74l.72.31c.88.38,1.15.53,2.1.81,1.1.32,2.43.58,3.58.64l1.49.08h.58c.46,0,.93-.02,1.38-.08.28-.04.52-.02.8-.07l.85-.14c.35-.06.58-.07.91-.15l1.05-.26c.31-.08.57-.22.88-.32.57-.18,1.13-.41,1.68-.65l1.42-.63c.25-.11.62-.38.8-.57.79-.82.72-.36,1.51-1.21h0Z"/>
      <path class="st2" d="M38.75,17.81c.1,1.12.09,1.71,0,2.83l-.06.89c-.03.46-.11.9-.21,1.35l-.18.78c-.07.32-.09.71-.22,1.01l-.59,1.43c-.18.43-.31.93-.48,1.21l-1.09,1.76-.37.6-.5.79c-.32.5-.71.93-1.08,1.39-.13.16-.44.3-.6.12-.29-.32-.58-.63-.83-.97-.35-.48-.74-.91-1.05-1.41l-.92-1.51c-.11-.18-.18-.39-.26-.59l-.65-1.46-.54-1.78c-.12-.41-.2-.77-.26-1.21l-.15-1.06-.07-.78c-.06-.68-.2-1.34-.1-2.02.1-.67-.09-.58.05-1.5l.21-1.37c.04-.25.1-.53.16-.77l.37-1.48c.06-.24.56-1.28.73-1.95.18-.67.54-.7,1.02-1.75.1-.21.43-.39.47-.61.05-.22.09-.29.2-.44l.79-1.02c.19-.25.38-.47.53-.76.09-.17.29-.36.52-.28.31.1.52.35.73.57l.62.67c.2.22.39.44.54.7l.71,1.15.41.7c.23.39.49.77.65,1.19.12.29.21.55.36.84.1.19.11.47.19.66.33.73.5,1.45.64,2.23.11.62.25,1.22.31,1.85h0ZM38.35,17.84c-.01-.57-.25-1.75-.46-2.25l-.13-.7c-.04-.23-.13-.45-.22-.67-.11-.29-.17-.62-.3-.89l-.39-.79c-.17-.35-.41-.67-.53-1.04-.12-.37-.34-.68-.57-1l-.7-.99c-.28-.4-.94-1.49-1.45-1.36-.46.11-.62.5-.84.83l-.49.74-.4.63c-.21.33-.45.68-.69.97-.28.33-.46.63-.64,1.01-.22.47-.41.91-.53,1.43-.05.22-.17.47-.26.69-.19.47-.41,1.32-.46,1.83l-.07.67c-.01.15-.12.36-.12.5-.02.52-.19,1.1-.15,1.48l.11,1.29c-.07.29-.09,1.4.22,1.56-.2.58.04,1.09.17,1.64l.18.76c.05.21.08.4.16.59.37.97.23,1.11.7,1.89.05.48.31.83.55,1.23l.59.99c.29.48.55.97.91,1.38l.84.96s.16.11.21.1c.05,0,.15-.07.19-.11l.94-1.14.71-1.04.46-.67.29-.67c.28-.64.69-1.2.93-1.88l.37-1.06.25-.78c.06-.18.17-.39.21-.56.15-.56.28-1.12.31-1.7l.09-1.77c.02-.38.02-.74.01-1.13l-.02-.96h0Z"/>
      <path class="st2" d="M26.88,7.58c-.44.25-1.35.62-1.83.77l-1.23.38-.51.13c-.29.07-.54.13-.84.18-.36.05-.71.15-1.08.24-.23.06-.51-.02-.76-.02-.36-.01-.73-.02-1.08,0-.31.03-.56.15-.88.04-.17-.06-.44,0-.6-.04-.24-.05-.45-.1-.69-.15l-.64-.14c-.25-.05-.46-.04-.7-.1l-1.11-.28-.62-.27c-.23-.1-.44-.17-.67-.25l-1.05-.4c-.3-.12-.53-.23-.8-.41-.03-.02-.85-.22-.92-.6-.1-.55.86-.86,1.32-1.16.23-.15.44-.3.7-.42.54-.24,1.07-.44,1.63-.6l1.29-.37c.53-.15,1.31-.32,1.87-.36.4-.03.82-.2,1.23-.2h1.09c.52.02,1.08-.08,1.58,0l1.27.22c.36.06.79.08,1.13.18l1.84.55.47.24c.78.39,1.35.53,2.01.91.17.1.35.24.39.37.05.2.01.44-.11.58l-.43.5c-.42.15-.89.25-1.28.47h0ZM28.02,6.27c-.09-.22-.82-.34-1.45-.85-.45-.36-1.1-.31-1.61-.5-.6-.22-1.44-.49-2.08-.55l-1.04-.1c-.21-.02-.42-.09-.64-.06-.92.13-.69-.24-1.66-.03-.34.07-.71,0-1.02.06l-1.85.37c-.45.09-.88.2-1.32.31-1.03.26-2,.54-2.88,1.13-.25,0-.8.1-.75.37.01.08.13.23.21.25.62.21,1.15.46,1.7.8.17.11.43.16.64.21l1.15.29c.1,0,.33-.06.41-.04.15.2.36.29.6.32.36.03.69.09,1.05.13l.8.11c.26.04.54.04.8.05l.64.02c.22,0,.46,0,.68,0l.92-.02c.39,0,.78-.17,1.16-.21.46-.05.89-.08,1.33-.22.85-.28.96-.21,1.64-.53.27-.12,2.64-1.13,2.56-1.31h0Z"/>
      <path class="st2" d="M8.78,19.39l-.04,1.09c-.01.36.11.76.02,1.12-.12.48-.31.92-.37,1.4-.05.38-.1.75-.21,1.11-.06.36-.19.7-.31,1.05-.16.48-.36.9-.63,1.34-.23.37-.41.77-.61,1.16-.12.24-.23.55-.57.53-.25-.02-.47-.27-.54-.51-.19-.66-.43-.52-.85-1.52-.12-.27-.23-.53-.29-.82-.05-.22-.15-.36-.3-.55-.08-.11-.08-.36-.12-.51-.12-.47-.21-.91-.26-1.41-.05-.46-.29-.92-.29-1.39l-.02-1.39v-1.57c.01-.47.14-.88.24-1.33.08-.37.12-.75.22-1.11l.61-2.18c.08-.28.2-.43.34-.7l.43-.84.39-.66c.1-.17.38-.5.64-.34.39.24.6.73.81,1.12l.38.72c.09.17.26.38.3.56.08.36.16.66.25,1l.25.91c.12.45.23.91.3,1.38l.22,1.65c.03.22,0,.45,0,.71h0ZM7.91,16.39l-.25-.96c-.07-.26-.13-.49-.23-.74l-.65-1.58c-.16-.38-.32-.72-.6-1.06-.25.13-.39.31-.49.55l-.34.81-.29.74-.34.84c-.09.21-.15.42-.21.64l-.2.8c-.15.6-.18,1.19-.26,1.8-.09.73-.21,1.25-.04,2.06.05.26-.07.56-.05.83.08,1.18.28,1.95.6,3.09.08.28.23.57.35.84.31.71.06.55.65,1.57.11.19.28.51.5.55.27.06.45-.26.49-.45.05-.27.15-.47.3-.68.23-.31.31-.69.45-1.06.21-.57.37-1.14.52-1.73.06-.23.15-.46.19-.69l.15-.81c.06-.32.06-.64.09-.97.1-.96-.07-1.31-.08-1.99-.01-1.05,0-1.35-.27-2.43h0Z"/>
      <path class="st2" d="M28.73,33.45c-.4.1-.62.35-.94.53-.34.2-.74.32-1.1.5-1.09.55-1.8.81-2.99,1.06-.28.06-.54.15-.83.15-1.03,0-.66.24-1.9.24-.66,0-1.33.01-1.98-.05l-.72-.07c-2.83-.27-1.63-.32-3.2-.63-.23-.05-.51-.14-.73-.22l-1.49-.55c-.4-.15-1.83-.85-1.82-1.24,0-.3.44-.42.63-.56.32-.25.62-.38,1.01-.5,1.16-.37,1.06-.68,2.07-.92l1.88-.45c.78-.19,1.56-.33,2.36-.36l.93-.03c.41-.01.84-.07,1.25,0l1.09.18c.64.1.98.1,1.7.29.48.13.93.26,1.4.43.89.33,2.2.86,3,1.31l.55.32c.08.04.16.24.13.32-.03.09-.16.22-.29.25h0ZM26.89,32.61l-.55-.24c-.26-.12-.52-.22-.8-.32-.59-.21-1.17-.46-1.81-.5-.13,0-.3,0-.39-.08-.19-.17-.37-.13-.59-.17-2.02-.38-1.42-.2-3.33-.2h-.8c-.22,0-.5.04-.73.08l-.71.1c-.8.11-2.02.38-2.74.67l-.85.34c-.35.14-.78.44-1.24.62-.12.05-.31.15-.3.28.01.11.25.16.33.21.53.35,1.12.53,1.69.77.39.16.7.31,1.16.28l.62.27c.23.1.45.1.69.16l1.56.35c.26.06.57-.04.86.02.44.08.87.05,1.31.02.17-.01.38.02.53-.03.27-.08.47-.03.74,0,.3.02.66-.11.97-.15l1.19-.15c1.04-.13.81-.22,1.64-.51.59-.21,1.13-.43,1.71-.69l.86-.38c.37-.16-.94-.69-1.03-.73h0Z"/>
      <path class="st2" d="M36.54,17.33c.17.51.07,1.5.08,1.98l.02,1.14-.07.92c-.01.2.02.53-.03.7-.47,1.45-.55,2.74-1.35,4.08-.25.42-.45.82-.64,1.26-.14.31-.34.6-.43.93-.07.24-.22.42-.52.35-.19-.05-.37-.23-.46-.41-.32-.66-.79-1.15-.99-1.64-.09-.24-.12-.44-.29-.64-.28-.33,0-.44-.39-.94-.08-.58-.2-1.1-.4-1.66-.29-.81-.11-.83-.29-1.38-.19-.58-.12-1.15-.12-1.75l.02-1.56c0-.3.04-.6.02-.88-.02-.37.06-.62.2-.94.11-.25.1-.6.15-.87l.14-.75.43-1.17c.09-.26.16-.49.28-.72.25-.49.49-.95.77-1.43.4-.68.31-.93.6-1.2.19-.19.48-.15.64.06l.6.81c.13.18.48.98.71,1.37.16.28.28.58.43.88.25.49.35,1.01.47,1.53l.31,1.35c.05.21.06.41.13.62h0ZM36.05,21.22c.03-.34.07-.65.07-.97v-1.84c.01-.26-.12-.94-.16-1.39-.05-.49-.24-.96-.34-1.45-.14-.69-.42-1.3-.71-1.93-.24-.54-.42-1.06-.79-1.54-.24-.32-.15-.66-.39-.67-.06,0-.22.06-.25.11l-.49.79c-.12.19-.19.33-.27.54-.05.13-.18.28-.24.41-.51,1.14-.56,1.13-.89,2.41-.08.32-.3,1.7-.35,2.09-.1.76-.2,1.51-.13,2.28l.07.72c.1,1.12.11,1.43.42,2.48l.19.66c.23.78.03.49.41,1.43l.38.92c.19.47.61.88.94,1.36.03.05.14.12.18.09.03-.02.11-.1.13-.14l.31-.61.45-.92c.12-.23.34-.49.42-.73l.36-1.05.22-.7c.08-.27.07-.61.2-.85.13-.27.15-.47.18-.76l.07-.76Z"/>
      <path class="st2" d="M24.31,19.88c.2-.2.2-.51,0-.71l-3.18-3.18c-.2-.2-.51-.2-.71,0-.2.2-.2.51,0,.71l2.83,2.83-2.83,2.83c-.2.2-.2.51,0,.71.2.2.51.2.71,0l3.18-3.18ZM14.53,19.52v.5h9.43v-1h-9.43v.5Z"/>
    </g>
  </g>
</svg>