<svg width="43" height="67" viewBox="0 0 43 67" fill="none" xmlns="http://www.w3.org/2000/svg">
<g clip-path="url(#clip0_79_1900)">
<path fill-rule="evenodd" clip-rule="evenodd" d="M3.13152 24.6779C3.46963 24.4596 3.7809 24.2723 4.07742 24.0621C5.45131 23.0825 6.73934 21.9937 8.03005 20.9103C8.14946 20.8106 8.16422 20.692 8.18166 20.556C8.23131 20.1679 8.26887 19.7771 8.35608 19.3971C8.51306 18.7058 8.84446 18.0995 9.32479 17.5888C9.76486 17.5793 10.4183 17.741 11.3937 18.1022C11.9411 17.5807 12.5247 17.0619 13.0681 16.5013C13.9389 15.6066 14.7332 14.6445 15.408 13.5881C15.4885 13.4614 15.6254 13.3617 15.7555 13.2795C16.1258 13.0464 16.5069 12.8294 16.8933 12.6017V10.1237C16.3606 9.8663 15.8266 9.5685 15.2631 9.34886C14.8633 9.1939 14.7117 8.95 14.7372 8.5498C14.7519 8.3059 14.7667 8.06335 14.7841 7.79116C14.9599 7.69684 15.1223 7.59038 15.2994 7.51897C15.9514 7.25621 16.5123 6.90047 16.9684 6.33048C17.4984 5.66751 18.2336 5.22553 18.9515 4.77952C19.1675 4.64477 19.413 4.53427 19.4532 4.20279C19.3888 4.05187 19.3083 3.874 19.2372 3.69478C19.0172 3.14231 19.0776 2.61275 19.3902 2.11552C19.5203 1.90936 19.676 1.71936 19.8262 1.52667C20.1496 1.11299 20.4877 0.710089 20.8003 0.288324C20.9291 0.114498 21.0821 0.0228682 21.286 0.0093933C21.4322 -3.914e-05 21.5785 -3.914e-05 21.7247 0.00535083C21.9475 0.0120883 22.1246 0.106413 22.2359 0.305842C22.4989 0.780159 22.8464 1.18845 23.2033 1.59404C23.3723 1.78539 23.5159 2.00099 23.6474 2.22063C23.9305 2.6936 23.9452 3.19352 23.752 3.70287C23.6863 3.874 23.6085 4.03974 23.5427 4.19605C23.591 4.46555 23.7748 4.6003 23.9707 4.7337C24.4336 5.05036 24.9153 5.34681 25.346 5.70389C25.7203 6.01247 26.049 6.38034 26.3751 6.74281C26.5267 6.9126 26.685 7.04195 26.8916 7.13358C27.2364 7.2872 27.5692 7.46911 27.914 7.62272C28.1595 7.73187 28.2642 7.9057 28.2534 8.16981C28.24 8.48647 28.291 8.80852 28.1394 9.13596C27.4659 9.45397 26.7735 9.78141 26.0852 10.1062V12.5748C26.4341 12.7917 26.7709 13.0127 27.1184 13.2121C27.38 13.3617 27.5705 13.5638 27.7409 13.8131C28.8223 15.3843 30.1023 16.7749 31.5607 17.9998C31.5983 18.0308 31.6399 18.0564 31.6761 18.082C32.0048 17.9715 32.3241 17.8488 32.6515 17.7599C32.9789 17.671 33.3143 17.6184 33.6497 17.5497C34.542 18.4498 34.8197 19.5534 34.868 20.7635C36.4861 22.1406 38.1068 23.5299 39.9262 24.7197C40.0738 23.7684 40.5031 23.0299 41.2571 22.4923C41.7603 22.1325 42.3037 21.8792 42.9182 21.8388C43.047 21.9789 42.9933 22.1204 42.9665 22.2417C42.7451 23.1997 42.7987 24.1645 42.8766 25.1307C42.9316 25.8206 42.89 26.5011 42.6834 27.1654C42.5331 27.6478 42.2621 28.0467 41.8394 28.331C41.5456 28.5277 41.2464 28.715 40.9512 28.905C40.8077 28.8713 40.6789 28.8417 40.5595 28.8134C40.538 28.8255 40.5259 28.8309 40.5165 28.839C40.5071 28.8457 40.4924 28.8511 40.4897 28.8619C40.1959 29.7041 39.894 30.5436 39.6122 31.3898C37.169 38.6797 34.7298 45.971 32.2772 53.2987C32.9292 53.6827 33.5786 54.064 34.2428 54.4535C34.1649 55.7363 34.0898 57.0029 34.0133 58.2763C33.1801 58.5202 32.363 57.9003 31.9364 56.6741C31.8062 56.6472 31.6868 56.7078 31.5634 56.7482C29.9614 57.2738 28.566 58.1523 27.3022 59.2573C26.5079 59.9512 25.8022 60.7274 25.2131 61.6086C25.13 61.7326 24.9918 61.8323 24.8589 61.9078C24.5195 62.0991 24.1666 62.2676 23.8218 62.4495C23.7265 62.5007 23.6367 62.564 23.524 62.6354C23.5548 63.9088 23.1013 65.0272 22.3929 66.0554C22.1514 66.4044 21.9112 66.7574 21.5772 67.004C21.1398 66.8369 20.489 65.9974 20.0449 65.0623C19.6934 64.3211 19.6008 63.8994 19.5163 62.6341C19.2896 62.5061 19.0494 62.3322 18.7837 62.2258C18.2068 61.9994 17.8204 61.5992 17.4488 61.1033C15.9125 59.0592 13.9322 57.5972 11.5131 56.7536C11.399 56.7132 11.2823 56.6863 11.1374 56.6418C11.0905 56.7685 11.0435 56.8884 11.0006 57.011C10.6933 57.8815 10.0158 58.3545 9.10341 58.3288C9.06852 58.3288 9.03364 58.3113 8.97729 58.2979C8.96924 58.2197 8.94643 58.1375 8.94911 58.0567C8.984 57.0622 8.91557 56.0731 8.80689 55.0868C8.78408 54.8698 8.80421 54.6475 8.80421 54.413C9.48445 54.0438 10.166 53.6746 10.8557 53.3C8.1441 45.0924 5.44595 36.9266 2.73438 28.7204C2.58143 28.7676 2.44055 28.7999 2.31175 28.8538C2.16148 28.9158 2.0367 28.9077 1.90253 28.8093C1.74555 28.6935 1.5765 28.5951 1.40878 28.494C0.681586 28.0574 0.330061 27.3877 0.225409 26.5671C0.161008 26.0672 0.158324 25.57 0.19455 25.0647C0.237484 24.4798 0.24151 23.8896 0.229434 23.3035C0.224067 23.0003 0.148933 22.6998 0.0992898 22.398C0.0724559 22.2336 0.0362301 22.0692 0.00537109 21.9061C0.523266 21.7849 1.38598 22.1352 2.03536 22.7079C2.57472 23.1836 2.86587 23.697 3.13689 24.6833L3.13152 24.6779ZM18.2323 31.2591C17.8244 31.3103 17.4595 31.3332 17.1026 31.4046C16.3472 31.5528 15.7045 31.8951 15.2631 32.5581C15.0283 32.9098 14.9478 33.2844 15.0203 33.7088C15.3664 35.7597 15.7019 37.8119 16.0373 39.8642C16.2667 41.2642 16.4868 42.6656 16.7162 44.0656C17.0221 45.9373 17.3347 47.8063 17.6433 49.6766C17.7171 50.1199 17.7882 50.5646 17.862 51.0133H25.0589C25.1501 50.4891 25.244 49.9838 25.3258 49.4785C25.6304 47.6082 25.9256 45.7352 26.2328 43.8649C26.4851 42.3328 26.7521 40.8034 27.0083 39.2713C27.3236 37.3902 27.6336 35.5091 27.9502 33.6266C27.9972 33.3517 27.9676 33.0957 27.8523 32.841C27.6188 32.329 27.2445 31.9557 26.7507 31.7064C26.2785 31.4679 25.7713 31.3413 25.2413 31.3157C25.0763 31.3076 24.9126 31.2833 24.7355 31.2645C24.8053 30.9128 24.8804 30.6055 24.9247 30.2943C25.1004 29.06 24.7771 27.8499 23.5132 27.1331C22.7954 26.7261 22.0548 26.3502 21.4671 25.7236C21.0056 26.2154 20.4649 26.5442 19.9148 26.8609C19.6505 27.0131 19.3875 27.1667 19.1366 27.3392C18.4148 27.8391 18.0485 28.5412 18.0029 29.4157C17.9707 30.0315 18.0485 30.6338 18.2336 31.2631L18.2323 31.2591ZM31.0079 52.0132C31.075 51.8541 31.1287 51.745 31.1689 51.6305C31.44 50.8718 31.715 50.1132 31.9766 49.3505C33.5437 44.7731 35.1082 40.1943 36.6712 35.6142C36.7423 35.4067 36.8081 35.1951 36.8564 34.9822C37.055 34.1023 36.7665 33.3544 36.0353 32.8303C35.9494 32.7683 35.8689 32.6996 35.7817 32.6281C36.0393 32.0891 36.1547 31.5421 36.1439 30.9721C36.1252 29.9736 35.6743 29.0896 35.4154 28.1302C35.3362 28.176 35.2812 28.203 35.2316 28.2367C34.1515 28.9576 33.6162 29.9992 33.4592 31.2658C33.4471 31.3709 33.4283 31.476 33.4122 31.5892C33.262 31.6013 33.1399 31.6054 33.0205 31.6189C32.2248 31.7159 31.4789 32.2508 31.4024 33.1483C31.3917 33.2695 31.3581 33.3895 31.3366 33.5094C31.0334 35.3056 30.7342 37.1032 30.4297 38.8994C30.1492 40.5514 29.8594 42.2007 29.5844 43.8527C29.2154 46.0599 28.8572 48.2685 28.4963 50.477C28.4547 50.7384 28.4238 51.0025 28.3849 51.2949C29.2704 51.5375 30.1251 51.7706 31.0066 52.0118L31.0079 52.0132ZM14.5909 51.303C14.5748 51.1265 14.5695 50.9931 14.548 50.861C14.281 49.1821 14.0167 47.5018 13.743 45.8241C13.417 43.8325 13.0815 41.8423 12.7501 39.8507C12.3771 37.6192 11.9961 35.3891 11.6312 33.1563C11.4769 32.2091 10.7577 31.7186 10.0413 31.6162C9.90037 31.596 9.75816 31.5704 9.60789 31.5448C9.48713 30.0989 8.95985 28.9104 7.64901 28.1289C7.45446 28.8498 7.25724 29.5289 7.09086 30.2148C6.89632 31.0233 6.95535 31.8183 7.30822 32.5823C7.32164 32.6106 7.30822 32.651 7.30822 32.6915C7.20759 32.7615 7.10562 32.8276 7.00902 32.9003C6.5998 33.2103 6.36098 33.6172 6.28048 34.1279C6.21608 34.5389 6.26975 34.9323 6.40392 35.3204C6.63871 36.0023 6.87485 36.6841 7.10428 37.3686C8.69151 42.0983 10.2787 46.8294 11.8646 51.5591C11.9143 51.7059 11.9706 51.8515 12.0337 52.0253C12.8924 51.7827 13.7215 51.5496 14.5909 51.3044V51.303ZM26.7185 29.6785C27.2726 29.9614 27.7758 30.2188 28.2789 30.4748C28.4507 29.8307 29.1389 25.3557 29.1161 25.0337C28.6734 24.9569 23.5508 24.9757 23.2596 25.0633C23.7091 25.3422 24.1411 25.6131 24.5772 25.8799C25.6197 26.5159 26.2798 27.4336 26.5522 28.6261C26.6327 28.9818 26.6675 29.3483 26.7172 29.6798L26.7185 29.6785ZM14.6379 30.4937C15.192 30.2121 15.7207 29.9426 16.256 29.6704C16.2748 29.4939 16.2976 29.312 16.3164 29.13C16.4465 27.8526 17.0208 26.8231 18.0565 26.0726C18.4698 25.7721 18.926 25.5322 19.362 25.2627C19.4693 25.1967 19.574 25.1253 19.739 25.0161H13.7792C14.069 26.8609 14.3548 28.6813 14.6392 30.4951L14.6379 30.4937ZM31.7861 23.701C31.7539 23.6997 31.7217 23.6956 31.6895 23.6929C31.5433 23.8802 31.5272 24.1147 31.4856 24.337C31.2213 25.7802 30.9623 27.2233 30.706 28.6679C30.427 30.2458 30.1492 31.8237 29.8782 33.4016C29.6099 34.9687 29.3523 36.5372 29.0893 38.1043C28.8639 39.4437 28.6385 40.7818 28.4131 42.1212C28.1501 43.6776 27.8898 45.2339 27.6269 46.7889C27.3532 48.4046 27.0781 50.0202 26.8071 51.6372C26.7709 51.8541 26.7521 52.0738 26.7387 52.2934C26.736 52.3473 26.7883 52.4066 26.8218 52.478C27.0258 52.3285 27.0446 52.1223 27.0781 51.9377C27.2378 51.0484 27.3854 50.155 27.5329 49.2629C27.8093 47.5988 28.079 45.9333 28.3581 44.2691C28.7673 41.8207 29.1792 39.3737 29.5938 36.9266C29.9319 34.9256 30.278 32.9259 30.6188 30.9249C30.9985 28.6948 31.3769 26.4661 31.7526 24.236C31.7821 24.0608 31.7767 23.8802 31.7875 23.7023L31.7861 23.701ZM16.0655 52.4632C16.2828 52.3244 16.2359 52.1843 16.2157 52.0536C16.1084 51.3529 16.0051 50.6508 15.8897 49.9515C15.6106 48.251 15.3275 46.5504 15.0444 44.8499C14.815 43.4754 14.5816 42.1023 14.3548 40.7266C14.0744 39.0382 13.8034 37.3484 13.5203 35.66C13.2184 33.8638 12.9138 32.0676 12.5985 30.2741C12.2349 28.203 11.8579 26.1346 11.4836 24.0662C11.4567 23.9166 11.4017 23.7711 11.3561 23.6121C11.1696 23.7064 11.2005 23.8331 11.2206 23.9503C11.3185 24.554 11.4178 25.1576 11.5198 25.7613C11.7787 27.2921 12.039 28.8228 12.298 30.3549C12.5516 31.8506 12.8038 33.3463 13.0574 34.8407C13.3874 36.7811 13.7215 38.7215 14.0489 40.6632C14.3119 42.2304 14.5695 43.8002 14.8271 45.3687C15.0847 46.9372 15.3396 48.507 15.5972 50.0755C15.7059 50.7384 15.8199 51.4014 15.938 52.0644C15.9595 52.1897 16.0145 52.3083 16.0641 52.4632H16.0655ZM13.4478 55.8481C13.4934 55.9936 13.5283 56.1095 13.5659 56.2241C13.7591 56.8237 14.1321 57.2751 14.6808 57.5756C14.7801 57.6295 14.9156 57.6753 15.0216 57.6524C15.9769 57.4557 16.7202 56.9409 16.9228 55.8346C16.951 55.6837 16.9792 55.5315 17.006 55.3846C17.1106 55.3846 17.171 55.3846 17.2314 55.3846C18.9635 55.4007 20.6957 55.429 22.4278 55.4277C23.5011 55.4277 24.5745 55.3832 25.6479 55.3563C25.7673 55.3536 25.8988 55.3751 26.0195 55.2377C25.6143 55.2108 25.2507 55.1676 24.8871 55.1663C22.35 55.1595 19.8128 55.1609 17.2757 55.1636C17.12 55.1636 16.9644 55.1946 16.786 55.2148C16.637 56.3723 16.0923 57.1727 14.8928 57.3896C14.175 57.007 13.8275 56.348 13.6155 55.5867C12.5059 55.7565 11.4447 55.9465 10.378 56.2591C10.2828 56.9153 9.98893 57.4624 9.46298 57.8747C10.0278 57.7548 10.3981 57.2536 10.6477 56.3103C11.5909 56.2887 12.4966 56.0368 13.4492 55.8454L13.4478 55.8481ZM11.9478 23.325C12.1276 23.3399 12.3074 23.3628 12.4872 23.3668C13.8168 23.3938 15.1451 23.4355 16.4747 23.4342C20.7668 23.4288 25.0589 23.4072 29.3523 23.3911C29.8393 23.3897 30.3277 23.3803 30.8161 23.3682C30.9006 23.3668 30.9851 23.3358 31.0696 23.317C29.9265 23.0946 13.8128 23.0865 11.9491 23.325H11.9478ZM28.2481 55.5422C28.2843 55.5382 28.3192 55.5341 28.3541 55.5315C28.393 55.1191 28.4507 54.7095 28.4641 54.2958C28.4761 53.967 28.456 53.6342 28.4104 53.3081C28.346 52.8419 27.9958 52.5522 27.5276 52.5427C27.333 52.5387 27.1385 52.5575 26.9426 52.5575C23.2824 52.5575 19.6223 52.5575 15.9622 52.5575C15.7542 52.5575 15.5462 52.5495 15.341 52.5629C14.9988 52.5818 14.7815 52.7839 14.654 53.0871C14.6084 53.1976 14.5789 53.3243 14.5789 53.4442C14.5722 53.9091 14.5775 54.3753 14.5856 54.8402C14.5883 54.9615 14.6191 55.0827 14.6352 55.204C14.65 55.3118 14.6621 55.4196 14.6768 55.5274C14.7546 55.4627 14.7748 55.4075 14.7788 55.3495C14.807 54.8981 14.8579 54.4454 14.8553 53.994C14.8526 53.2528 15.1558 52.796 16.0628 52.8014C19.4787 52.8243 22.8947 52.8082 26.3107 52.8068C26.6273 52.8068 26.9453 52.8014 27.2619 52.8163C27.6805 52.8351 28.0052 53.0965 28.1085 53.5008C28.1501 53.6638 28.1635 53.8377 28.1729 54.0074C28.2024 54.5195 28.2239 55.0315 28.2494 55.5449L28.2481 55.5422ZM32.8313 25.6117C32.6649 25.9998 31.9753 29.9561 32.0075 30.297C32.2168 30.3185 32.3134 30.2148 32.3577 30.0153C32.6636 28.6247 33.4552 27.5912 34.6694 26.8716C34.7352 26.8326 34.7902 26.7773 34.8868 26.7032C34.1837 26.3286 33.5182 25.9769 32.8313 25.6104V25.6117ZM8.17361 26.7099C8.39097 26.8649 8.54929 26.9794 8.70895 27.0899C9.34357 27.5279 9.83061 28.0992 10.2036 28.7716C10.4317 29.1799 10.5846 29.6165 10.6933 30.0692C10.7456 30.2875 10.7537 30.2848 11.0341 30.2565C10.7832 28.7218 10.5256 27.1897 10.2049 25.6131C9.50994 25.989 8.86056 26.3394 8.17361 26.7099ZM38.8998 28.8713C38.1498 28.4765 37.436 28.1019 36.6672 27.6977C36.6954 27.8297 36.7021 27.889 36.7209 27.9443C36.843 28.3296 36.9704 28.7123 37.0912 29.0964C37.338 29.8833 37.5339 30.677 37.4816 31.5111C37.4668 31.7415 37.4346 31.9706 37.4105 32.201C37.4977 32.2926 37.5769 32.3762 37.6694 32.4759C38.084 31.2631 38.4852 30.0854 38.8998 28.8727V28.8713ZM13.8302 20.4145C13.9751 20.4212 14.12 20.432 14.2663 20.4347C16.0212 20.4616 17.7761 20.5128 19.5311 20.5088C22.456 20.5034 25.3835 20.463 28.3071 20.432C28.5862 20.4293 28.8639 20.3889 29.1416 20.366C27.2243 20.1436 14.6003 20.176 13.8289 20.4145H13.8302ZM5.4701 32.4584C5.72368 32.2845 5.74112 32.1053 5.70221 31.8964C5.58548 31.2753 5.61366 30.6527 5.76661 30.0436C5.93701 29.3712 6.14229 28.7069 6.32878 28.0386C6.35159 27.9523 6.35562 27.8607 6.37574 27.7287C5.63378 28.0979 4.95086 28.4576 4.27733 28.8646C4.6785 30.076 5.06893 31.2523 5.4701 32.4584ZM2.04877 28.0291C2.06487 28.0507 2.08232 28.0709 2.09842 28.0925C2.37883 27.9523 2.66595 27.823 2.93966 27.6707C5.14541 26.4472 7.34847 25.2169 9.55153 23.988C9.73266 23.887 9.91111 23.7805 10.0842 23.6687C10.1379 23.6336 10.1741 23.573 10.2519 23.4841C10.1325 23.4706 10.06 23.4423 10.001 23.4611C9.88562 23.4975 9.77426 23.5541 9.6696 23.6148C7.37396 24.9272 5.07832 26.2424 2.78402 27.5589C2.53178 27.7044 2.29296 27.8728 2.04743 28.0305L2.04877 28.0291ZM32.787 23.511C32.8796 23.6889 33.0688 23.7589 33.2338 23.8533C34.4735 24.5594 35.7092 25.2722 36.957 25.9634C38.1404 26.6197 39.3358 27.253 40.5286 27.893C40.6225 27.9443 40.7124 28.0372 40.8828 27.9833C40.75 27.8944 40.652 27.8216 40.5487 27.761C38.3913 26.5011 36.2325 25.2412 34.0724 23.9867C33.745 23.798 33.4069 23.6309 33.0688 23.4598C32.9775 23.414 32.8662 23.3358 32.7897 23.511H32.787ZM18.3383 12.5882C18.3088 12.5734 18.2779 12.5586 18.2484 12.5451C18.0257 12.9911 17.7976 13.4345 17.5816 13.8832C17.0462 14.9895 16.4237 16.0365 15.5798 16.9366C15.1276 17.4176 14.6621 17.8852 14.2045 18.3622C13.8745 18.7058 13.5458 19.0508 13.2238 19.4025C13.158 19.4753 13.048 19.5534 13.1365 19.6922C13.5874 19.4065 13.9671 19.0454 14.3387 18.6735C15.4228 17.5874 16.3459 16.372 17.2073 15.1053C17.5521 14.5987 17.8486 14.0651 18.0633 13.4897C18.1733 13.196 18.2471 12.8887 18.3383 12.5882ZM22.3701 11.3378V9.75446C22.193 9.64127 22.032 9.55368 21.8898 9.44184C21.7475 9.33 21.6228 9.19525 21.5101 9.08879C21.2136 9.32191 20.913 9.55907 20.5695 9.82992C20.5695 10.028 20.5601 10.2827 20.5722 10.5387C20.583 10.8015 20.5199 11.0696 20.6084 11.3378H22.3701ZM25.7968 50.3773C26.1175 49.5311 27.6349 40.9273 27.5598 40.4409C26.8889 43.749 26.1295 47.0234 25.7968 50.3773ZM8.91289 18.943C8.46744 19.7192 8.40036 20.5883 8.52245 22.239C6.83594 23.2051 5.11857 24.1484 3.45353 25.1832C4.00362 25.0485 8.31583 22.7416 8.71163 22.3912C8.76128 21.254 8.60027 20.0843 8.91289 18.9444V18.943ZM29.4784 55.5759C29.3737 55.8212 29.2919 56.0085 29.2141 56.1985C29.0276 56.6539 28.7136 57.007 28.3084 57.2751C28.2172 57.3357 28.0763 57.3775 27.9744 57.356C27.4216 57.2333 26.905 57.0258 26.4958 56.6094C26.4435 56.5569 26.3871 56.507 26.3321 56.4558C26.3133 56.4747 26.2932 56.4936 26.2731 56.5124C26.4046 56.6822 26.52 56.8709 26.6716 57.0204C27.0419 57.3802 27.5115 57.5567 28.0052 57.6551C28.1219 57.678 28.2722 57.6295 28.3795 57.5675C28.9229 57.2455 29.3147 56.7941 29.4985 56.1756C29.5294 56.0745 29.5683 55.9761 29.6085 55.8616C30.0929 55.9546 30.5464 56.0408 30.9985 56.1297C31.8465 56.2955 32.0598 56.3076 32.4462 56.1742C31.4198 55.9667 30.4699 55.7754 29.4784 55.5759ZM32.0357 22.495C29.6676 22.5691 27.3183 22.5893 24.9743 22.7483C25.0696 22.778 25.1662 22.778 25.2614 22.778C27.4189 22.7861 29.5763 22.7941 31.7324 22.8022C31.7807 22.8022 31.8304 22.8009 31.8787 22.7968C32.19 22.7766 32.2396 22.751 32.3 22.4505C32.3604 22.1527 32.3926 21.8468 32.4288 21.545C32.4368 21.4709 32.4154 21.3927 32.4087 21.3159C32.198 21.6771 32.1336 22.0705 32.0357 22.495ZM20.2744 61.6935C20.3012 61.6787 20.3267 61.6652 20.3522 61.6504C19.951 60.5158 19.6116 59.357 19.044 58.283C18.6536 57.5433 18.184 56.8614 17.6165 56.2497C17.4729 56.0947 17.3079 55.9559 17.1549 55.8104C17.1066 56.0354 17.2448 56.1459 17.3495 56.2685C17.9157 56.9315 18.4054 57.6484 18.7757 58.438C19.1447 59.2222 19.4774 60.024 19.8343 60.815C19.9698 61.1141 20.1268 61.4025 20.273 61.6949L20.2744 61.6935ZM26.0021 56.0058C25.9739 55.9788 25.9471 55.9519 25.9202 55.9263C25.77 56.0637 25.6143 56.1958 25.4721 56.3413C24.9207 56.9019 24.4806 57.546 24.0915 58.2251C23.5172 59.2249 23.1375 60.307 22.7713 61.3944C22.7417 61.4793 22.7256 61.5696 22.7015 61.6572C22.8102 61.5723 22.8746 61.4712 22.9256 61.3621C23.1214 60.9416 23.3214 60.5239 23.5025 60.0968C24.0888 58.7317 24.7972 57.4435 25.7753 56.317C25.8598 56.22 25.9283 56.1095 26.0034 56.0044L26.0021 56.0058ZM29.3308 19.5723C29.1779 19.5372 29.0678 19.4968 28.9565 19.4887C28.7257 19.4739 28.4936 19.4672 28.2628 19.4712C26.5575 19.4995 24.8495 19.5265 23.1443 19.5628C22.6572 19.5736 22.1715 19.6154 21.6858 19.6424C21.9501 19.6963 22.2158 19.6963 22.4788 19.6976C23.5159 19.7057 24.5517 19.7205 25.5888 19.7232C26.6863 19.7259 27.7825 19.7178 28.8787 19.7097C29.0169 19.7084 29.1711 19.7461 29.3308 19.5723ZM18.4389 56.1284C19.7632 56.0974 21.0378 56.1405 22.3057 55.9883C20.8754 55.9317 19.4465 55.7848 17.9854 55.9303C18.7556 56.8978 19.417 57.9152 19.9671 59.0039C19.6411 57.961 19.1889 56.9854 18.4403 56.1284H18.4389ZM25.1058 11.7474V10.0496C24.918 9.85148 24.7368 9.66148 24.5852 9.50113C24.3961 9.68304 24.223 9.84878 24.0284 10.0347V11.42C24.3907 11.5291 24.7328 11.6329 25.1058 11.746V11.7474ZM17.8714 10.121C17.8929 10.6411 17.862 11.1734 17.8982 11.742C18.2846 11.6302 18.6174 11.5345 18.9515 11.4388V9.95119C18.9099 9.98757 18.8683 10.0226 18.8267 10.059C18.6858 9.87843 18.5436 9.69921 18.392 9.50517C18.2417 9.68169 18.0633 9.89325 17.8714 10.1196V10.121ZM37.0241 23.8937C37.0335 23.8748 37.0429 23.8546 37.0509 23.8357C36.1976 23.3021 35.3456 22.7685 34.4735 22.2215C34.4856 22.0705 34.4923 21.9129 34.5138 21.7566C34.6372 20.8551 34.5406 19.9765 34.2548 19.1155C34.2347 19.0522 34.1864 18.9956 34.1515 18.9363C34.2615 19.5372 34.2924 20.1328 34.2844 20.7325C34.279 21.1488 34.2911 21.5652 34.2642 21.9816C34.2441 22.305 34.3608 22.5112 34.6439 22.6594C35.4006 23.0542 36.1466 23.4638 36.8993 23.8667C36.9355 23.887 36.9825 23.887 37.0241 23.895V23.8937ZM15.8508 43.8986C16.1809 46.1974 16.3969 48.5178 17.0328 50.7654C16.8571 48.4396 16.3271 46.1758 15.8508 43.8986ZM18.5932 7.36805C19.2668 7.51358 23.2019 7.53109 24.3249 7.3923C23.8138 7.14302 19.1876 7.12415 18.5932 7.36805ZM30.062 20.2312C30.4726 19.7192 30.8912 19.23 31.444 18.8716C31.9981 18.5118 32.5884 18.2598 33.2512 18.1668C33.2164 18.497 33.1801 18.7867 33.1546 19.0778C33.1292 19.3607 33.1157 19.6437 33.0969 19.9267C33.1211 19.9307 33.1453 19.9334 33.1694 19.9375C33.321 19.3877 33.4605 18.8366 33.5424 18.2706C33.5531 18.1965 33.5115 18.1129 33.4901 18.0119C33.2727 18.0388 33.0795 18.055 32.889 18.086C32.0129 18.2315 31.232 18.5751 30.6094 19.2287C30.3411 19.5116 30.117 19.8243 30.062 20.2299V20.2312ZM12.9447 20.2865C12.7381 18.9565 10.6987 17.9176 9.54483 18.0833C9.47506 18.4296 9.67497 19.5804 9.90977 19.9172C9.86281 19.3392 9.81585 18.7624 9.76889 18.183C11.1146 18.4027 12.1276 19.1303 12.9447 20.2865ZM10.9898 22.4465C10.8557 21.9546 10.7215 21.4588 10.5873 20.9629C10.5283 21.5477 10.6061 22.1069 10.798 22.6863C12.2591 22.7941 13.7014 22.6796 15.1451 22.6109C13.7658 22.5085 12.3879 22.4155 10.9898 22.4465ZM26.481 17.481C25.5123 16.0203 24.6161 14.5232 23.9426 12.9008C24.278 14.7105 25.2091 16.1914 26.481 17.481ZM18.7234 6.43558C20.5078 6.57976 22.2923 6.56225 24.0767 6.41941C22.2923 6.21325 20.5065 6.2119 18.7234 6.43558ZM29.8326 19.6585C29.8281 19.5328 29.6448 19.2848 29.2825 18.9147C29.0598 18.6883 28.8317 18.4673 28.6117 18.2396C28.3822 18.0025 28.1582 17.7613 27.9354 17.5187C27.7221 17.2842 27.5209 17.039 27.2995 16.8113C27.0781 16.5822 26.9117 16.2992 26.6018 16.0809C27.0459 17.0915 29.041 19.2853 29.8326 19.6585ZM24.0096 12.1126C22.9376 11.9414 21.8643 11.9441 20.7923 11.9616C20.2086 11.9724 19.625 12.0223 19.0413 12.06C18.9582 12.0654 18.8763 12.1018 18.7945 12.122C20.544 12.2231 22.2802 12.2756 24.0096 12.1112V12.1126ZM14.6594 52.7219C14.2461 52.7017 10.4317 53.866 9.77828 54.2082C9.94331 54.1853 10.0372 54.1813 10.1271 54.1584C10.7966 53.9845 11.4675 53.8121 12.1343 53.6275C12.8347 53.4334 13.5337 53.2272 14.2327 53.0197C14.387 52.9739 14.5587 52.9348 14.6607 52.7219H14.6594ZM22.3634 60.9848C23.0195 59.4432 23.6876 57.9057 24.6416 56.5165C23.4703 57.7952 22.6116 59.2344 22.3634 60.9848ZM33.0178 54.1112C32.0558 53.684 28.8102 52.7085 28.3863 52.7233C28.4171 52.7826 28.4305 52.8553 28.4708 52.8769C28.6076 52.9537 28.7499 53.0346 28.8988 53.075C30.1895 53.4253 31.4829 53.7676 32.7749 54.1099C32.8393 54.126 32.9131 54.1112 33.0191 54.1112H33.0178ZM29.5428 29.1678C29.7347 28.1868 29.9305 27.257 30.0942 26.3205C30.2177 25.6239 30.3049 24.9205 30.4015 24.2211C30.4176 24.1012 30.4431 23.9692 30.3559 23.8384C30.1318 24.2481 29.4878 28.4792 29.5441 29.1678H29.5428ZM20.5239 12.8537C20.1952 12.6974 19.2171 12.6731 18.7891 12.7634C18.3638 13.6339 17.9291 14.5219 17.4944 15.4126C18.0968 14.6647 18.6254 13.8778 18.9501 12.979C19.4841 12.9372 20.0047 12.8955 20.5239 12.8537ZM37.1838 25.322C37.0845 25.2547 36.9879 25.1846 36.8872 25.1199C36.258 24.7237 35.6354 24.3195 34.9968 23.9382C34.5379 23.6633 34.0616 23.4167 33.5894 23.1647C33.4847 23.1081 33.3733 23.0178 33.1761 23.1229C34.4641 23.9974 35.8192 24.6483 37.1838 25.3207V25.322ZM33.1452 20.5128C33.113 20.5047 33.0808 20.4967 33.05 20.4886C33.0151 20.6489 32.9749 20.8093 32.9453 20.971C32.8501 21.4871 32.7588 22.0045 32.6649 22.5219C32.6045 22.8575 32.4033 23.0623 32.0813 23.1566C31.9592 23.193 31.8384 23.2348 31.7177 23.2738C31.7177 23.2994 31.7204 23.325 31.7217 23.3507C31.8841 23.3641 32.0451 23.3695 32.2047 23.3951C32.5281 23.4463 32.7092 23.2711 32.8326 23.007C32.885 22.8979 32.9252 22.778 32.9427 22.6607C32.9977 22.2727 33.0473 21.8846 33.0835 21.4965C33.1144 21.1704 33.1265 20.8416 33.1466 20.5142L33.1452 20.5128ZM15.6026 45.5897C15.7609 47.1029 15.9541 48.6107 16.3794 50.0782C16.3526 48.5434 15.938 47.0732 15.6026 45.5897ZM9.95673 20.5169C9.92587 20.5236 9.89501 20.5303 9.86549 20.5371C9.90574 21.0828 9.93928 21.6299 9.99161 22.1756C10.0131 22.4047 10.056 22.6351 10.1177 22.8575C10.2707 23.4099 10.7336 23.573 11.2461 23.2509C11.116 23.2186 10.9992 23.1849 10.8825 23.162C10.6168 23.1094 10.4464 22.9572 10.382 22.6931C10.3324 22.4923 10.2881 22.2902 10.2492 22.0881C10.1486 21.5652 10.0547 21.041 9.95673 20.5182V20.5169ZM24.604 19.0683V19.098C24.6872 19.1034 24.7717 19.1074 24.8563 19.1101C25.5741 19.1303 26.2919 19.1586 27.0097 19.1667C27.4712 19.1721 27.9341 19.1492 28.3956 19.129C28.4788 19.1249 28.5607 19.0818 28.6559 19.0535C28.5325 18.85 28.3702 18.8945 28.2346 18.8972C27.3223 18.9214 26.4099 18.9511 25.4989 18.9888C25.1997 19.0009 24.9032 19.04 24.6054 19.067L24.604 19.0683ZM41.1807 27.9456C41.504 27.8836 41.5671 27.8526 41.7267 27.7004C41.979 27.4592 42.1373 27.16 42.246 26.8312C42.4606 26.1885 42.4123 25.5309 42.3614 24.8733C42.3573 24.8167 42.3224 24.7628 42.2835 24.6618C42.2433 25.1105 42.2178 25.5093 42.1682 25.9028C42.0957 26.4768 41.9508 27.0293 41.5832 27.4942C41.4718 27.6357 41.3417 27.765 41.1807 27.9443V27.9456ZM29.1644 54.8442C29.1618 54.8739 29.1604 54.9022 29.1591 54.9318C30.3988 55.3186 31.6734 55.5301 32.9574 55.708C32.4516 55.5342 31.9418 55.3738 31.4239 55.2512C30.7637 55.0935 30.0956 54.9655 29.4288 54.8308C29.3456 54.8132 29.253 54.8388 29.1644 54.8442ZM40.4883 25.4986C40.8345 25.5201 40.8748 25.4986 40.9526 25.1981C40.9808 25.093 40.9942 24.9838 41.0022 24.8747C41.0613 24.143 41.2437 23.4571 41.7402 22.8898C41.7563 22.8709 41.7589 22.8373 41.767 22.8117C41.6073 22.8723 41.4825 22.9653 41.3766 23.0744C40.8989 23.5676 40.75 24.1861 40.7111 24.8464C40.6883 25.2412 40.6909 25.2412 40.4883 25.4972V25.4986ZM24.7033 12.4414C24.6899 13.2337 25.6519 15.1539 26.2825 15.6174C25.6747 14.627 25.3124 13.5113 24.7033 12.4414ZM1.2934 22.8251C1.74823 23.3412 1.9562 23.9516 2.00852 24.6254C2.02462 24.8315 2.03267 25.0404 2.07158 25.2425C2.12391 25.5053 2.25539 25.57 2.57874 25.4986C2.34529 25.353 2.33992 25.1374 2.32919 24.9164C2.31845 24.6968 2.29565 24.4772 2.25674 24.2629C2.14269 23.6498 1.83813 23.1566 1.2934 22.8251ZM1.79385 27.9591C1.36317 27.2233 0.984809 27.4214 0.747329 24.8006C0.712445 24.9447 0.666827 25.0364 0.66951 25.1293C0.677561 25.5673 0.66146 26.0133 0.725862 26.4445C0.774163 26.7638 0.908332 27.0778 1.05189 27.3702C1.18606 27.6424 1.40878 27.8499 1.79251 27.9591H1.79385ZM21.5919 0.676402C21.5718 0.684487 21.549 0.693919 21.5289 0.702004C21.5396 0.784201 21.5315 0.873136 21.5624 0.9459C21.655 1.16958 21.7569 1.39327 21.867 1.61021C22.0535 1.98077 22.2534 2.3446 22.4399 2.71516C22.5499 2.93076 22.5821 3.15444 22.4613 3.38351C22.3983 3.50344 22.3567 3.6328 22.3755 3.80393C22.7337 3.36195 22.8343 2.9631 22.617 2.52651C22.303 1.89588 21.9367 1.29086 21.5919 0.676402ZM30.3331 27.346C30.5786 26.6722 30.9543 24.4798 31.0066 23.9247C31.0106 23.8802 30.9663 23.8317 30.9382 23.7684C30.702 24.147 30.2941 26.559 30.3331 27.3446V27.346ZM32.0893 50.3018C32.6515 49.1915 33.0352 48.0138 33.3438 46.8078C32.7897 47.9222 32.351 49.077 32.0893 50.3018ZM17.2287 13.5032C17.1992 13.4897 17.171 13.4762 17.1428 13.4628C16.5351 14.4303 15.9286 15.3978 15.3222 16.3653C16.1057 15.5082 16.849 14.6229 17.2287 13.5032ZM22.4224 62.9009C22.3003 63.1866 22.2856 63.4358 22.2426 63.677C22.1984 63.929 22.1501 64.181 22.0883 64.4289C22.0266 64.6769 21.9421 64.9181 21.871 65.1633C21.8039 65.3924 21.6711 65.6053 21.6603 65.922C22.1769 65.2846 22.6599 63.7309 22.4238 62.8995L22.4224 62.9009ZM25.3151 16.8935C25.3366 16.8813 25.3581 16.8692 25.3795 16.8571C24.8697 15.9731 24.3598 15.0892 23.85 14.2052C23.8272 14.2174 23.8057 14.2308 23.7829 14.2443C24.0472 15.2697 24.6335 16.1092 25.3151 16.8948V16.8935ZM31.9793 24.3141C32.1792 24.6119 32.4301 24.6901 32.6448 24.8167C32.8648 24.9461 33.0929 25.062 33.3197 25.1792C33.5464 25.2964 33.7718 25.4164 34.0066 25.5161C34.2253 25.6104 34.4239 25.764 34.6788 25.7694C33.9154 25.291 33.1667 24.7898 32.3456 24.4179C32.2544 24.3761 32.1511 24.3613 31.978 24.3155L31.9793 24.3141ZM13.3445 39.0799C13.2949 39.6041 13.6665 41.7439 13.8973 42.2614C13.9362 41.5391 13.5806 39.4923 13.3445 39.0799ZM20.5253 62.9993C20.4206 63.8724 20.7279 65.0191 21.2042 65.5406C20.9975 64.7092 20.7909 63.8738 20.5816 63.0397C20.5776 63.0222 20.5454 63.0127 20.5253 62.9993ZM23.2261 11.4078C23.4032 10.5724 23.3978 9.19525 23.2315 8.91766C23.1966 8.99312 23.1456 9.05511 23.1443 9.11709C23.1389 9.87977 23.0852 10.6451 23.2261 11.4078ZM19.6934 8.92575C19.6035 9.80566 19.6089 10.6559 19.7122 11.5426C19.8745 11.2327 19.9027 10.6883 19.8437 9.27475C19.8383 9.16156 19.8826 9.02412 19.6934 8.92575ZM21.3799 0.719522C21.3585 0.763989 21.3424 0.811151 21.3155 0.852923C21.1183 1.1588 20.9144 1.46064 20.7238 1.77057C20.6017 1.96595 20.4917 2.16942 20.3924 2.37559C20.3522 2.46048 20.3549 2.56559 20.3254 2.72863C20.9251 2.12091 21.4202 1.2154 21.3813 0.718174L21.3799 0.719522ZM22.3607 4.28094C22.4788 4.58413 23.4877 5.74297 23.846 5.98822C23.6407 5.38454 22.7364 4.34562 22.3607 4.28094ZM19.1366 6.00439C19.7055 5.52064 20.1737 4.9493 20.532 4.28903C19.9296 4.74313 19.4452 5.2983 19.1366 6.00439ZM18.0673 7.47719C17.328 7.69414 16.7162 8.02293 16.0614 8.44335C16.5941 8.42313 17.7815 7.8518 18.0673 7.47719ZM26.8795 8.44469C26.2315 7.96094 25.3205 7.54187 24.9783 7.55939C25.2547 7.87605 26.32 8.38136 26.8795 8.44469ZM13.099 18.6695C13.6316 18.5185 14.5775 17.5524 14.7828 17.0067C14.1884 17.5942 13.6424 18.1318 13.099 18.6695ZM32.5978 56.2119C32.3537 56.7065 32.8769 57.6767 33.419 57.7683C32.9708 57.3263 32.8018 56.7631 32.5978 56.2119ZM23.108 57.8343C22.7417 58.1254 22.3473 58.9905 22.3057 59.5928C22.5459 59.3112 23.0758 58.1523 23.108 57.8343ZM19.6344 61.7488C19.6787 61.3391 19.2493 60.28 18.9246 59.9674C19.2158 60.5899 19.2117 61.2543 19.6344 61.7488ZM11.7694 55.3118C12.4053 55.2269 13.0654 55.239 13.637 54.8847C12.9661 54.8227 12.3731 55.0854 11.7694 55.3118ZM19.1608 13.1973C18.8991 13.5786 18.7676 13.9115 18.7905 14.1864C18.9635 13.9034 19.1138 13.6554 19.26 13.4156C19.519 13.3765 19.7645 13.3415 20.0114 13.3051C19.727 13.1474 19.4412 13.1596 19.1608 13.1973ZM27.8107 56.9571C27.8214 56.9315 27.8335 56.9059 27.8456 56.8816C27.6926 56.7981 27.5383 56.7186 27.388 56.631C27.2324 56.538 27.0727 56.4478 26.9278 56.34C26.7937 56.2389 26.6729 56.1149 26.4851 55.9465C26.8165 56.6458 27.3344 57.0191 27.8093 56.9585L27.8107 56.9571ZM20.5843 56.4976C20.587 56.4693 20.5883 56.441 20.591 56.4127C20.0503 56.3319 19.5109 56.2443 18.9582 56.3319C18.9608 56.5246 19.0521 56.565 19.1742 56.5596C19.6451 56.5407 20.1147 56.5192 20.5843 56.4976ZM22.2078 62.091C22.2078 62.0641 22.2078 62.0371 22.2078 62.0102H20.8218C21.278 62.3444 21.7395 62.3066 22.2064 62.091H22.2078ZM33.8335 24.8491C33.2928 24.4798 32.8232 24.1376 32.1994 23.9543C32.402 24.2521 33.3237 24.7507 33.8335 24.8491ZM12.3208 22.0934C12.0001 21.8927 11.6634 22.0382 11.3762 21.9183C11.3145 21.8388 11.2528 21.7606 11.1911 21.6811C11.1669 21.6878 11.1428 21.6959 11.1186 21.704C11.128 21.8469 11.1388 21.9897 11.1495 22.1406C11.556 22.2376 11.9156 22.1999 12.3208 22.0921V22.0934ZM19.7135 8.73036C19.5136 8.34228 18.9904 7.86662 18.6925 7.78577C18.9407 8.26952 19.3486 8.6576 19.7135 8.73036ZM34.1394 23.0933C34.5809 23.5191 35.1283 23.7765 35.6864 24.0163C35.2262 23.6201 34.7123 23.3143 34.1394 23.0933ZM23.2663 8.73036C23.6259 8.64817 24.2136 8.10513 24.337 7.77095C23.9265 7.95825 23.3871 8.43122 23.2663 8.73036ZM21.9126 63.134C21.7529 63.6137 21.6697 64.0961 21.7073 64.5933C21.9622 64.1325 22.0374 63.6447 21.9126 63.134ZM30.6591 54.7903C30.1707 54.4979 29.3845 54.347 29.1443 54.4993C29.6515 54.6731 30.1479 54.7769 30.6591 54.7903ZM22.0816 4.23378C21.7153 3.99797 21.2042 4.00066 20.9103 4.24321C21.3477 4.35101 21.7019 4.34832 22.0816 4.23378ZM20.2395 62.1638C19.8477 61.9455 19.4278 61.9415 19.0051 61.9455C19.3848 62.1921 19.8007 62.2541 20.2395 62.1638ZM28.3272 56.0731C28.2977 56.0731 28.2668 56.0731 28.2373 56.0731C28.2038 56.2483 28.1541 56.4221 28.1394 56.5987C28.1246 56.7685 28.0468 56.9571 28.2253 57.1269C28.5285 56.7819 28.3151 56.4181 28.3272 56.0731ZM2.85647 27.0684C2.47812 27.0657 1.9307 27.3325 1.76836 27.6182C2.21917 27.5643 2.51971 27.3231 2.85647 27.0684ZM13.1808 37.8807C13.2023 37.4522 13.1808 37.0331 12.9541 36.5938C12.9058 37.0897 12.9661 37.4589 13.1808 37.8807ZM24.9086 12.2581C25.2279 12.564 25.6197 12.723 26.0396 12.8267C25.7082 12.5492 25.3554 12.312 24.9086 12.2581ZM16.9416 12.8416C17.3723 12.7162 17.7802 12.5599 18.1102 12.2514C17.6406 12.2904 17.2864 12.5599 16.9416 12.8416ZM16.0896 56.3278C15.7582 56.4963 15.4885 56.6283 15.2242 56.7711C15.1263 56.8237 15.0391 56.9019 15.1706 57.0474C15.5248 56.9167 15.8401 56.7321 16.0896 56.3278ZM26.8205 8.99178C26.4207 9.00256 26.0678 9.14269 25.7485 9.37985C26.1751 9.44184 26.4904 9.19794 26.8205 8.99178ZM23.9721 61.9549C23.4112 61.9374 23.0651 62.0115 22.7833 62.2083C23.2422 62.2716 23.6219 62.18 23.9721 61.9549ZM22.0588 4.5747C22.1286 4.87249 22.519 5.32525 22.8182 5.4573C22.5955 4.96008 22.3486 4.67306 22.0588 4.5747ZM31.8921 22.0584C31.4802 22.0598 31.1515 22.0072 30.7785 22.1891C31.1394 22.2902 31.4386 22.2929 31.7378 22.2471C31.7794 22.2403 31.8089 22.1635 31.8921 22.0584ZM17.2381 9.39063C16.8732 9.11305 16.4116 8.95674 16.1299 9.01199C16.5928 9.31248 16.9725 9.44319 17.2381 9.39063ZM14.8257 57.0878C14.9089 56.7146 14.8123 56.4006 14.7426 56.026C14.5574 56.5084 14.5842 56.9005 14.8257 57.0878ZM20.536 3.80258C20.5427 3.48458 20.434 3.14905 20.2623 2.92132C20.1603 3.2016 20.222 3.41451 20.536 3.80258ZM19.5056 5.95588C19.9859 6.0785 20.3186 6.0502 20.4823 5.89254C20.1429 5.85886 19.8182 5.79013 19.5056 5.95588ZM18.0565 7.21848C18.2068 6.95437 18.2014 6.75629 18.0364 6.56629C17.9022 6.8587 17.9049 6.96649 18.0565 7.21848ZM21.8066 1.98886C21.7784 2.00099 21.7502 2.01177 21.7234 2.02255C21.828 2.28935 21.934 2.55885 22.0374 2.82565C22.1742 2.46048 22.0145 2.21524 21.8066 1.98886ZM24.9394 7.25351C25.0656 6.98671 25.0843 6.78054 24.9461 6.55955C24.7945 6.83444 24.7932 6.90316 24.9394 7.25351ZM15.353 8.74788C15.3624 8.77348 15.3732 8.79908 15.3825 8.82469C15.5315 8.83816 15.6522 8.78965 15.7072 8.59561C15.5892 8.64682 15.4711 8.69668 15.353 8.74653V8.74788ZM27.3142 8.59022C27.3048 8.61852 27.2955 8.64547 27.2861 8.67377C27.3947 8.74788 27.4954 8.85029 27.7235 8.78022C27.5504 8.69937 27.4323 8.64547 27.3156 8.59022H27.3142Z" fill="#FBFF00"/>
<path fill-rule="evenodd" clip-rule="evenodd" d="M16.7739 40.2832C16.7001 39.9409 16.6142 39.6014 16.5565 39.2564C16.2399 37.3645 15.9326 35.4713 15.6147 33.5794C15.5717 33.322 15.6012 33.0903 15.7529 32.8828C15.8535 32.7453 15.9635 32.6106 16.091 32.5001C16.5404 32.1133 17.4488 31.86 18.1129 31.9368C17.8781 31.9826 17.6782 32.015 17.4823 32.0594C16.6276 32.2575 16.1554 32.8612 15.93 33.6522C15.8441 33.95 15.93 34.3057 15.9756 34.6291C16.1326 35.7677 16.307 36.9023 16.4747 38.0396C16.5619 38.6312 16.6505 39.2241 16.735 39.817C16.7564 39.9733 16.7551 40.1336 16.7645 40.2926L16.7739 40.2845V40.2832Z" fill="#FBFF00"/>
<path fill-rule="evenodd" clip-rule="evenodd" d="M26.4421 38.7365C26.4421 38.6044 26.4287 38.4697 26.4435 38.339C26.6018 37.0144 26.7695 35.6911 26.9251 34.3666C27.0325 33.461 26.8406 32.922 26.1174 32.1082C26.7078 32.3197 27.1197 32.6283 27.329 33.1592C27.3773 33.2832 27.3545 33.4462 27.3317 33.5864C27.0593 35.2276 26.7816 36.8662 26.5052 38.506C26.4931 38.5788 26.4891 38.6516 26.4824 38.7243C26.469 38.727 26.4555 38.7311 26.4421 38.7338V38.7365Z" fill="#FBFF00"/>
<path fill-rule="evenodd" clip-rule="evenodd" d="M18.451 32.6282C18.3852 32.9138 18.2309 33.0648 18.0632 33.2062C17.9143 33.3329 17.7614 33.4542 17.6191 33.5862C17.2891 33.8935 17.1294 34.2815 17.1281 34.7303C17.1281 35.0227 17.1549 35.3151 17.1697 35.6075C17.1817 35.85 17.1965 36.0926 17.1844 36.3365C16.9899 35.7085 16.8316 35.0752 16.7564 34.423C16.7323 34.2155 16.7819 34.043 16.9188 33.8827C17.0999 33.6684 17.2609 33.4367 17.4447 33.2278C17.6996 32.9381 18.0257 32.7575 18.451 32.6282Z" fill="#FBFF00"/>
<path fill-rule="evenodd" clip-rule="evenodd" d="M22.8102 27.5037C24.3397 28.0198 24.6966 29.5586 24.0996 31.0462C24.1586 29.6502 23.8084 28.4819 22.8102 27.5037Z" fill="#FBFF00"/>
<path fill-rule="evenodd" clip-rule="evenodd" d="M25.2011 46.2526C24.981 47.6365 24.761 49.0203 24.5383 50.419H22.2212C22.2212 50.4082 22.2185 50.3988 22.2171 50.3867C22.621 50.3341 23.0262 50.2883 23.43 50.225C23.6085 50.1967 23.7869 50.1482 23.956 50.0808C24.2847 49.9501 24.4752 49.7075 24.5369 49.3451C24.7154 48.3115 24.9113 47.2807 25.1004 46.2485C25.134 46.2499 25.1689 46.2499 25.2024 46.2512L25.2011 46.2526Z" fill="#FBFF00"/>
<path fill-rule="evenodd" clip-rule="evenodd" d="M17.4863 44.7932C17.5387 44.9738 17.6071 45.1503 17.6393 45.3349C17.862 46.5719 18.0874 47.8103 18.29 49.0513C18.3947 49.6914 18.828 50.0107 19.358 50.2452C19.4747 50.2964 19.6317 50.2533 19.7793 50.194C19.8397 50.2465 19.8987 50.2991 20.0087 50.3948H18.4014C18.349 50.0929 18.29 49.7736 18.2363 49.4515C18.0002 48.0299 17.7641 46.6083 17.5319 45.1867C17.5105 45.0547 17.5078 44.9186 17.4957 44.7852L17.4863 44.7932Z" fill="#FBFF00"/>
<path fill-rule="evenodd" clip-rule="evenodd" d="M20.5092 27.2922C20.2462 27.5078 19.9792 27.7167 19.7243 27.939C19.1634 28.4295 18.8951 29.0682 18.8146 29.7972C18.7824 30.0856 18.7529 30.3753 18.7086 30.6636C18.5691 30.1004 18.5248 29.5358 18.6697 28.9685C18.7784 28.5413 18.9944 28.1708 19.362 27.9255C19.7229 27.6843 20.1107 27.4849 20.4863 27.2666L20.5092 27.2922Z" fill="#FBFF00"/>
<path fill-rule="evenodd" clip-rule="evenodd" d="M20.4864 27.2664C20.811 27.0346 21.1344 26.8015 21.4765 26.5576C21.706 26.7301 21.9461 26.9107 22.1769 27.0831C22.0843 27.2314 21.9971 27.3688 21.9018 27.5197C21.9179 27.5238 21.8884 27.5265 21.8804 27.5143C21.5704 27.0939 21.1746 27.0387 20.7171 27.2314C20.65 27.2597 20.5776 27.2718 20.5092 27.2933L20.4864 27.2677V27.2664Z" fill="#FBFF00"/>
<path fill-rule="evenodd" clip-rule="evenodd" d="M24.973 32.5838C24.9354 32.5069 24.8871 32.3843 24.82 32.2725C24.7516 32.1593 24.6671 32.0582 24.5571 31.906C24.9488 31.9033 25.3071 31.8669 25.6304 31.9949C25.4117 32.1916 25.1917 32.3884 24.973 32.5838Z" fill="#FBFF00"/>
<path fill-rule="evenodd" clip-rule="evenodd" d="M22.0615 30.4115C21.867 30.0113 21.5731 29.6515 21.5436 29.1489C21.8468 29.3713 22.0266 29.8092 22.0615 30.4115Z" fill="#FBFF00"/>
<path fill-rule="evenodd" clip-rule="evenodd" d="M19.9886 47.6001C20.2677 47.8534 20.489 48.0542 20.7305 48.2752C20.2542 48.2711 20.0959 48.1364 19.9886 47.6001Z" fill="#FBFF00"/>
<path fill-rule="evenodd" clip-rule="evenodd" d="M20.4515 49.7615H20.0704C20.0906 49.7156 20.108 49.6631 20.1147 49.6631C20.1992 49.6833 20.2851 49.7102 20.4528 49.7615H20.4515Z" fill="#FBFF00"/>
<path fill-rule="evenodd" clip-rule="evenodd" d="M16.7632 40.2913C16.7886 40.4031 16.8155 40.5163 16.841 40.6282C16.8182 40.6309 16.7954 40.6336 16.7725 40.6362V40.2832L16.7632 40.2913Z" fill="#FBFF00"/>
<path fill-rule="evenodd" clip-rule="evenodd" d="M17.4957 44.7852C17.4689 44.672 17.4421 44.5588 17.4166 44.4456C17.4394 44.4429 17.4635 44.4402 17.4877 44.4375V44.7932L17.4971 44.7852H17.4957Z" fill="#FBFF00"/>
<path fill-rule="evenodd" clip-rule="evenodd" d="M36.0929 33.6792C35.8742 33.6603 35.7495 33.7776 35.6824 33.9689C35.618 34.1535 35.567 34.3422 35.5093 34.5281C35.2638 35.307 35.0182 36.0845 34.7741 36.862C34.7499 36.8566 34.7258 36.8512 34.7029 36.8458C34.7365 36.641 34.7673 36.4348 34.8063 36.23C34.9337 35.5711 35.0692 34.9135 35.19 34.2532C35.2208 34.0875 35.2195 33.9123 35.2249 33.7425C35.2302 33.5997 35.19 33.4757 35.0223 33.4057C34.9337 33.4542 34.8317 33.5094 34.7097 33.5768C34.7781 33.0782 34.8103 32.5985 35.1296 32.1848C35.3724 31.8722 35.4677 31.4855 35.5147 31.092C35.5294 30.9748 35.5509 30.8589 35.5965 30.7471C35.6958 31.3251 35.5818 31.8682 35.3443 32.3924C35.2758 32.5433 35.2195 32.6996 35.1497 32.8707C35.3563 33.0041 35.5321 33.1092 35.6998 33.2265C35.8675 33.3423 36.0567 33.4434 36.097 33.6752L36.0929 33.6792Z" fill="#FBFF00"/>
<path fill-rule="evenodd" clip-rule="evenodd" d="M36.097 33.6752C36.4445 34.1333 36.3935 34.6386 36.2271 35.1318C35.8004 36.4052 35.3483 37.6705 34.9096 38.9398C34.2253 40.9247 33.5451 42.9122 32.8621 44.8971C32.8111 45.0453 32.7535 45.1935 32.6501 45.3269C32.6703 45.2394 32.6837 45.1504 32.7119 45.0669C33.6537 42.2681 34.5996 39.468 35.5415 36.668C35.736 36.0899 35.9292 35.5105 36.1077 34.927C36.1708 34.7181 36.2137 34.4945 36.2123 34.2789C36.211 34.0781 36.1359 33.8786 36.0929 33.6779L36.097 33.6738V33.6752Z" fill="#FBFF00"/>
<path fill-rule="evenodd" clip-rule="evenodd" d="M29.2892 49.7158C29.2865 49.8991 29.261 50.085 29.2892 50.2643C29.3147 50.4273 29.3724 50.5984 29.4623 50.7359C29.5951 50.9407 29.8219 50.9865 30.0419 50.8787C30.4994 50.6523 30.8416 50.3195 30.9449 49.7967C30.9918 49.5541 31.1072 49.3709 31.3662 49.1917C31.1381 49.9193 30.918 50.5836 30.647 51.2681C30.1144 51.1981 29.6166 51.0108 29.0678 50.876C29.0933 50.7035 29.1041 50.5364 29.143 50.3761C29.1953 50.1592 29.1658 49.922 29.3 49.7253L29.2906 49.7172L29.2892 49.7158Z" fill="#FBFF00"/>
<path fill-rule="evenodd" clip-rule="evenodd" d="M35.4369 30.1623C35.3832 29.9938 35.3215 29.8267 35.2759 29.6556C35.2182 29.436 35.1578 29.2271 34.8237 29.25C34.9257 29.1166 34.9995 29.0223 35.0961 28.897C35.3094 29.3147 35.3939 29.7311 35.4369 30.1623Z" fill="#FBFF00"/>
<path fill-rule="evenodd" clip-rule="evenodd" d="M29.2986 49.7238C29.355 49.2913 29.4073 48.8587 29.465 48.4248C29.4771 48.3291 29.5052 48.2362 29.5334 48.1082C29.6582 48.2604 29.6488 48.4086 29.6085 48.5569C29.5039 48.9436 29.3952 49.329 29.2892 49.7157L29.2986 49.7238Z" fill="#FBFF00"/>
<path fill-rule="evenodd" clip-rule="evenodd" d="M32.0276 33.0984C32.1215 32.5836 32.3174 32.3748 32.7857 32.302C32.5281 32.5728 32.2825 32.8302 32.0276 33.0984Z" fill="#FBFF00"/>
<path fill-rule="evenodd" clip-rule="evenodd" d="M32.3483 46.1556C32.3858 46.0532 32.4234 45.9495 32.461 45.8457C32.4784 45.8511 32.4945 45.8578 32.512 45.8632C32.4784 45.9737 32.4449 46.0842 32.4113 46.1934C32.3912 46.1812 32.3697 46.1678 32.3496 46.1556H32.3483Z" fill="#FBFF00"/>
<path fill-rule="evenodd" clip-rule="evenodd" d="M8.35473 33.6387C8.16287 33.4649 7.97235 33.3517 7.72547 33.3423C7.52422 33.3356 7.36724 33.4056 7.27735 33.5929C7.1472 33.8638 7.10829 34.1508 7.1311 34.4499C7.17538 35.0428 7.36992 35.598 7.56715 36.1491C7.85562 36.9536 8.14811 37.7594 8.49158 38.5396C8.85384 39.3602 9.09266 40.2145 9.33148 41.0755C9.77558 42.6764 10.2479 44.2691 10.7054 45.8659C10.7295 45.9454 10.7443 46.0276 10.7161 46.1259C10.6785 46.0276 10.6396 45.9306 10.6061 45.8308C9.43614 42.3974 8.26886 38.964 7.10024 35.5306C7.02108 35.3002 6.92448 35.0738 6.86142 34.838C6.63736 34.0012 6.99962 33.4124 7.53093 33.1509C7.67046 33.0822 7.79256 32.9798 7.95088 32.8747C7.89453 32.7224 7.85562 32.5863 7.79658 32.4583C7.57386 31.9732 7.45043 31.4679 7.4786 30.9303C7.48263 30.8616 7.50275 30.7942 7.57252 30.7268C7.58191 30.8629 7.59264 30.999 7.60338 31.1351C7.63021 31.5084 7.6973 31.8641 8.0032 32.1255C8.04748 32.1632 8.09176 32.2198 8.10249 32.2751C8.1897 32.7292 8.26886 33.1833 8.35204 33.6374L8.35473 33.6387Z" fill="#FBFF00"/>
<path fill-rule="evenodd" clip-rule="evenodd" d="M11.395 47.9625C11.4957 48.197 11.5976 48.4288 11.6956 48.6632C11.9572 49.279 12.2135 49.8975 12.4764 50.5133C12.6683 50.9634 12.9514 51.0847 13.417 50.9108C13.582 50.8489 13.7363 50.7572 13.908 50.6723C13.9201 50.7276 13.9308 50.7721 13.9483 50.8529C13.4425 50.993 12.946 51.1305 12.4187 51.2774C12.0484 50.167 11.6875 49.0863 11.3266 48.0043C11.3494 47.9895 11.3709 47.976 11.395 47.9612V47.9625Z" fill="#FBFF00"/>
<path fill-rule="evenodd" clip-rule="evenodd" d="M7.96028 28.9025C8.05822 29.0197 8.15482 29.0871 8.18166 29.1747C8.36144 29.7689 8.52513 30.3672 8.69419 30.9641C8.69955 30.987 8.69419 31.0126 8.69419 31.1218C8.58417 30.9102 8.50769 30.7634 8.43255 30.6178C8.35339 30.4656 8.28765 30.3066 8.19642 30.1637C8.05956 29.9468 7.99784 29.9306 7.67047 29.9791C7.72011 29.622 7.82208 29.2932 7.96028 28.9011V28.9025Z" fill="#FBFF00"/>
<path fill-rule="evenodd" clip-rule="evenodd" d="M9.97015 34.873C9.67766 34.3717 9.39188 33.4164 9.43481 33.1091C9.61326 33.6966 9.7917 34.2855 9.97015 34.873Z" fill="#FBFF00"/>
<path fill-rule="evenodd" clip-rule="evenodd" d="M10.6101 42.5835C10.8409 43.0228 11.0287 43.4998 11.073 44.0213C10.9187 43.5416 10.7644 43.0632 10.6101 42.5835Z" fill="#FBFF00"/>
<path fill-rule="evenodd" clip-rule="evenodd" d="M10.9241 33.0324C10.8449 32.895 10.7644 32.7576 10.6853 32.6201C10.8852 32.6875 10.9442 32.8357 10.9241 33.0324Z" fill="#FBFF00"/>
<path fill-rule="evenodd" clip-rule="evenodd" d="M27.2874 29.2823C27.2203 28.9023 27.1586 28.5587 27.0969 28.2057C27.1237 28.2178 27.1465 28.2191 27.1559 28.2326C27.4457 28.6382 27.6913 28.6247 27.9314 28.1868C27.9784 28.1019 28.0173 28.013 28.0965 27.9321C28.0575 28.1814 28.016 28.4294 27.9757 28.68C27.9341 28.9427 27.8925 29.2042 27.8415 29.5168C27.6416 29.4319 27.4712 29.3591 27.2874 29.2823Z" fill="#FBFF00"/>
<path fill-rule="evenodd" clip-rule="evenodd" d="M27.4243 25.6105H28.4654C28.3916 26.0794 28.3192 26.5281 28.2481 26.9768H28.1877C28.1877 26.8434 28.1823 26.71 28.189 26.5766C28.1998 26.3246 28.1032 26.1293 27.9019 25.9797C27.7489 25.8638 27.5973 25.7439 27.4229 25.6091L27.4243 25.6105Z" fill="#FBFF00"/>
<path fill-rule="evenodd" clip-rule="evenodd" d="M25.2212 25.5957H26.2436C25.7498 25.8787 26.0745 26.1563 26.1818 26.4541C25.8746 26.1792 25.566 25.9043 25.2198 25.5957H25.2212Z" fill="#FBFF00"/>
<path fill-rule="evenodd" clip-rule="evenodd" d="M15.239 28.7556C15.5717 28.6653 15.6777 28.3702 15.8937 28.0953C15.8173 28.5157 15.7502 28.8768 15.6804 29.2609C15.5033 29.3471 15.3195 29.4361 15.1102 29.5385C14.8995 28.226 14.6929 26.9405 14.485 25.6429C14.6822 25.5499 14.8781 25.6011 15.0659 25.5917C15.2457 25.5836 15.4255 25.589 15.6858 25.589C15.5382 25.6631 15.4617 25.6954 15.3906 25.7372C15.0646 25.9326 14.8673 26.2182 14.8606 26.6023C14.8553 26.9068 14.8861 27.2114 14.9143 27.5145C14.9371 27.7584 14.9733 28.001 15.019 28.2395C15.0525 28.4147 15.0458 28.6114 15.2376 28.7542L15.239 28.7556Z" fill="#FBFF00"/>
<path fill-rule="evenodd" clip-rule="evenodd" d="M17.0838 26.1669C17.0664 26.0321 17.0529 25.9257 17.0422 25.8367C16.8114 25.574 16.5042 25.6993 16.2452 25.6077H17.7238C17.5051 25.799 17.3119 25.9674 17.0838 26.1669Z" fill="#FBFF00"/>
<path fill-rule="evenodd" clip-rule="evenodd" d="M32.9615 27.5871C32.8997 27.2435 33.4217 27.2206 33.3157 26.9174C33.2955 26.7314 32.948 26.7139 33.1842 26.4539C33.3935 26.5684 33.6095 26.687 33.8497 26.8177C33.5478 27.0791 33.2674 27.323 32.9628 27.5871H32.9615Z" fill="#FBFF00"/>
<path fill-rule="evenodd" clip-rule="evenodd" d="M9.99162 26.8231C9.81854 26.7517 9.70583 26.6668 9.61594 26.8231C9.69778 27.2085 9.72193 27.2341 10.0319 27.2435C10.06 27.3742 10.0896 27.5116 10.1285 27.6895C9.78768 27.3809 9.48848 27.1087 9.16647 26.8177C9.38517 26.7018 9.60252 26.5846 9.85342 26.4512C9.89367 26.563 9.92856 26.6573 9.99027 26.8231H9.99162Z" fill="#FBFF00"/>
<path fill-rule="evenodd" clip-rule="evenodd" d="M37.7821 28.8188C37.9552 28.901 38.1283 28.9818 38.3322 29.0802C38.2611 29.2702 38.2021 29.4332 38.1417 29.5976C38.0961 29.2863 37.9539 29.0424 37.7888 28.8093L37.7821 28.8201V28.8188Z" fill="#FBFF00"/>
<path fill-rule="evenodd" clip-rule="evenodd" d="M37.974 30.0423C37.9204 30.2216 37.8721 30.3832 37.8238 30.5436C37.8063 30.5436 37.7875 30.5436 37.7701 30.5449C37.7473 30.3159 37.7245 30.0868 37.6976 29.8052C37.8144 29.9062 37.8868 29.9669 37.974 30.0423Z" fill="#FBFF00"/>
<path fill-rule="evenodd" clip-rule="evenodd" d="M37.7875 28.8094C37.7137 28.8795 37.6413 28.9495 37.5433 29.0425C37.491 28.9105 37.444 28.7919 37.3729 28.6167C37.5634 28.6652 37.6829 28.7164 37.7808 28.8202L37.7875 28.8094Z" fill="#FBFF00"/>
<path fill-rule="evenodd" clip-rule="evenodd" d="M5.33725 30.5664C5.24065 30.2794 5.14405 29.9924 5.03537 29.665C5.1105 29.673 5.15746 29.6771 5.25004 29.6852C5.3131 29.4682 5.3775 29.2432 5.44861 28.9939C5.34262 28.971 5.2648 28.9548 5.14807 28.9292C5.33725 28.8147 5.4996 28.715 5.73574 28.5708C5.5801 29.2755 5.35469 29.8994 5.33725 30.5664Z" fill="#FBFF00"/>
<path fill-rule="evenodd" clip-rule="evenodd" d="M22.1031 10.6681C21.9944 10.6115 21.9233 10.5738 21.816 10.5186V10.9902H21.1545V10.5159C21.0499 10.563 20.9787 10.594 20.8889 10.6345V9.97014C21.0982 9.82461 21.2967 9.68582 21.5101 9.5376C21.6764 9.66965 21.8629 9.81788 22.0897 9.99979C22.0937 10.0739 22.1004 10.1938 22.1044 10.3151C22.1071 10.4216 22.1044 10.5294 22.1044 10.6681H22.1031Z" fill="#FBFF00"/>
<path fill-rule="evenodd" clip-rule="evenodd" d="M24.8723 10.2625V10.7854C24.7757 10.7113 24.7073 10.6587 24.6134 10.5859V11.2179C24.5222 11.1937 24.4148 11.1667 24.2646 11.1276C24.2646 10.8622 24.2646 10.5967 24.2646 10.3313C24.2646 10.1305 24.4121 10.0362 24.5544 9.92432C24.6536 10.0308 24.7529 10.1359 24.871 10.2612L24.8723 10.2625Z" fill="#FBFF00"/>
<path fill-rule="evenodd" clip-rule="evenodd" d="M18.7126 11.1788C18.608 11.2003 18.5114 11.2205 18.392 11.2448C18.404 11.0251 18.4148 10.8419 18.4255 10.6586C18.4014 10.6492 18.3785 10.6411 18.3544 10.6317C18.2967 10.6937 18.239 10.7556 18.1599 10.8432V10.2193C18.235 10.1318 18.3276 10.0253 18.4282 9.90942C18.5275 10.0037 18.6133 10.0859 18.714 10.1816V11.1788H18.7126Z" fill="#FBFF00"/>
</g>
<defs>
<clipPath id="clip0_79_1900">
<rect width="43" height="67" fill="white"/>
</clipPath>
</defs>
</svg>
