<?xml version="1.0" encoding="UTF-8"?>
<svg id="Layer_1" xmlns="http://www.w3.org/2000/svg" version="1.1" viewBox="0 0 128 128">
  <!-- Generator: Adobe Illustrator 30.1.0, SVG Export Plug-In . SVG Version: 2.1.1 Build 136)  -->
  <path d="M58.06,46.22v.54c0,.11-.44.1-.46-.02l-.24-1.46c-.05-.28-.32-.83-.64-.72-.97.34-.82.7-1.57.91l-.25.07s0,.13.03.23c-.41.4-.82.81-1.26,1.2-.4.35-.66.77-.98,1.19-.2.27-.34.4-.42.77-.12.61-.35,1.14.09,1.73-.14.34-.29.7-.47,1.04-.21.41-.99.34-1.29.04-.69-.7-1.7-.79-2.44-.1-.51.47-.75,1.05-1.13,1-.16-.02-.41-.14-.61-.24l.19.4c.04.09-.06.25-.16.36-1.28,1.39-.1,2.81-.15,2.72l.46,1.02c.09.2,1.8,1.38,2.41,1.64,1.77.76,2.39-1.09,3.37-.3s-.02,1.68.1,2.43c.07.46.75.67,1.02.96.3.33.54.54.99.64.34.08.67.38.95.5.63.27,1.09.47,1.75.84l.58-1c-.02-.18-.05-.46-.05-.61l.02-1.63c.01-.92-.13-2.07-.43-2.96l-.88-.62c-.23-.16-.9-.09-1.12-.28l-1-.88c.05-1.45,1.58-2,2.65-2.39.53-.83.26-1.81.24-2.71-.01-.52.24-1.1.17-1.63-.06-.44.09-.88.61-1.02.21.08.09.89.09,1.56,0,.44-.03.93.04,1.35l.21,1.24c.1.6.05,1.11-.3,1.63-.73,1.07-1.61.57-2.48,1.46.19.66.83.78,1.41.82.37.03.55.47.79.7.29.29.44.49.53.87.06.24.28.64.25.85-.05.36-.05.62-.05.92,0,.37-.11.62.1,1.02.13.24-.1.67-.14.98-.08.61.18,1.29.19,1.88l.05,1.97c-.2.35-.74.76-1.07,1.03.27,0,.57-.02.77.05.22.08.36.36.48.62l.65.34c.12-.14.24-.49.25-.69-1.14-.05-.16-1.63-.17-3.72,0-1.88-.09-1.57-.18-3.36-.03-.57-.07-1.1.02-1.72.21-1.43-.27-2.26.67-2.38.65,1.88-.59,2.02-.1,2.46.27.24.37.54.18.87-.14.23-.05.43-.01.71.07.57.06,1.2.04,1.79l-.05,1.17c-.03.67.11,1.24.07,1.88l-.12,2.14c-.03.45.03.81,0,1.22l-.09,1.09.36.46v1.24c0,.79-.03,1.5,0,2.3,0,.18-.06.39-.16.7l-.68-.51-.06-1.22c-.03-.68.27-1.55-.13-2.2-.25-.41-.89.05-1.07.38-.3.54-1.76,2.07-2.42,2.19l-.35.36-1.06.89c-.57.47-1.22.86-1.64,1.48-.09.13-.15.44-.28.47-.14.03-.45.03-.63.04s-.39.42-.54.55l-1.58,1.33c-.22.19-.41.48-.64.67l-.73.58-.91.72-.86,1.17c-.15.2-.29.32-.22.6.67-.47,1.28-.9,1.91-1.4,1.26-1,1.51-.15,2.89.02-.01-.73-.25-1.42.17-1.93l1.1-1.34c.38-.47.58-.7,1.1-1.01,2.77-1.61,1.71-1.31,3.31-2.64.3-.25.47-.99,1.08-.76.8.31.36.99.39,1.52.05.81.49,3.34.41,3.71s-.13.66-.14,1.02l-.02,1.02c.44-.25,1,.02.98-.16-.05-.8-.15.04-.17-1.78,0-.48.04-.89.13-1.39.04-.24.07-1.76.59-1.6.1.03.18.32.18.43v1.16c.01,1.33-.31.37.02,1.69.05.22.02.69-.02.91-.06.32-.05.44,0,.77s-.12.9-.1,1.28l.06.89c.02.28-.08.64-.11.91-.02.22.14.62.1.91l-.16,1.37s-.4,1.4.26,1.72c-.45.81-.32,1.7-.14,2.58.11.55-.21,1.24-.02,1.81l-.33.34c.03.2.06.55.12.7l.33.92c.04.12.24.33.36.33.42.01.35-.89.65-.93.21-.02.55.11.7.23.39.32-.33.55,1.02,1.37,1.26.76,1.58.55,2.38,1.42l.83.44.84.45c.57.31,1.06.6,1.31,1.25l1.3.51c.48.19,1.04.6,1.6.47.71-.17,1.2-.83,1.8-1.19,1.98-1.22,1.65-1.9,3.56-2.53.55-.18.52-1.41.04-1.6-.72-.29-1.19-.67-1.78-1.12l-.66-.49c-.21-.27-.36-.42-.61-.58-.69-.43-1.31-1.04-2-1.42-.49-.27-.68-.44-.9-.96-.12-.29-.76-.6-.84-.93.03-.77-.05-1.36-.38-2.02v-1.02c0-.37.09-.74.11-1.08l.14-2.06.12-2.28c.02-.37-.13-.69-.21-1.02-.22-.95.15-1.98.07-2.96-.06-.75-.07-1.86.41-2.44.06-.19.08-.66.18-.83l1.12-1.7.72-.76c1.07-1.13.38-.25,1.59-1.47.25-.25.7-.38.95-.58l2.83-2.34c.21-.17.52-.31.74-.47l1.13-.81c.52-.37.71-1,1.46-1.17.17-.04,1.24-.95,1.97-1.19.6-.19.9-.24,1.07-.96.42-.34,1.15-.82,1.65-1.06.61-.29,1.02.11,1.26.47.38.58.37,1.03.3,1.65,0,.06.04,1.7,0,2.35l-.05,1.08c-.02.35.05.75.05,1.12s-.24.89-.25,1.3c-.02.4-.08.84-.17,1.24.37.52.31,1.09.31,1.73v1.48s-.1,5.55-.1,5.55c-.03,1.56.51,2.24.15,3.45l-.3.99c.32,1.61-.05,1.63.22,3.43.05.32.17.75.12,1.06l-.17,1.25c-.09.64.03,1.25-.15,1.88-.17.58.03,1.23-.01,1.85l-.09,1.3c-.03.49.05.89.14,1.38.1.53-.08,1.19-.11,1.75l-.12,1.96c-.01.18-.45.43-.57.34l-.14-1.22c-.04-.35.09-.71.07-1.09l-.08-1.47c0,.14.34-2.13.36-2.24.09-.53-.27-1.2-.23-1.77.08-1.38-.3-1.44,0-3.66.06-.44.05-.55-.12-.95-.22-.53.06-1.29.08-1.87.02-.61.05-1.15.13-1.74.25-1.93-.07-2.74-.05-2.93l.18-2.4c.05-.71-.17-1.31-.06-2.05.05-.3.23-.85.19-1.13l-.11-.88c-.15-1.11-.19-1.43-.04-2.59l.19-1.47c.03-.2.2-.58.1-.76-.22-.39-.25-.72-.24-1.15l.02-.99-.18-1.06.07-2.69c.02-.65.03-1.31-.57-1.75l-1.31,1.36c-.13.14-.56.06-.7.15l-.7.43c-.84,1.42-.69.17-2.16,1.74l-.84.9c-.38.41-.85.76-1.33,1.06l-1.44.92c-.55.36-1.09,1.21-3.14,2.35-.37.21-.76.97-1.2,1.18-.63,1.31-.83.35-1.47,1.79l-.77.77-.03,2.17c.02-1.22.17,4.91-.04,3.07l.2,1.76c-.03-.28-.42,4.05.38,3.78.09-.03.18-.21.19-.31.31-2,.38-.3.01-2.88.31-.61.26-1.15.26-1.77-.01-.86.01-1.65-.11-2.51-.11-.76.05-2.19.68-2.91l-.1-.61c.15-.83.82-1.23,1.55-1.44.47-.14.78-.69,1.15-.95l1.26-.91c.48-.35.97-.82,1.51-1.06.43-.19.78-.3,1.03-.74l.83-.55c.85-1.34,1.3-.72,2.96-2.22.29-.26.5-.51.86-.69.69-.33.01-.41,1.14-1.39.35-.04.69.3.9.5.35.36.17.76.2,1.23.03.4.31.95.23,1.36-.09.47-.19.87-.04,1.31.12.35-.07.71-.06,1.01l.03,1.5c.02,1.24-.19,4.18-.14,4.73.11,1.28-.1,2.33-.05,3.81l.04,1.21c0,.23-.09.6-.24.75-.82.06-.47-2.22-.43-2.68.06-.75.01-1.53.03-2.3l.03-1.1.02-1.18-.1-2.25-.08-2.84c-.03-1.04.5-2.04-.6-2.75l-1.05.02c-.19.17-.54.45-.67.62l-.64.86c-.53.71-1.2,1.07-1.94,1.46l-1.09.57c-.42.22-1.38,1.33-2.14,1.91l-1.01.78c-.3.24-.53.42-.84.55l-.74.32-.66.59c-.39.35-.71.71-.66,1.23l.06.75c.05.64.02,1.21-.22,1.83-.15.37-.01.83,0,1.23l.11,2.84v1.19c.03,2.1.29,2.39-.31,4.66-.02.06-.18.09-.22.04-.62-.87-.5-.49-.63-1.27l-.2-1.18c-.03-.1-.4.12-.4.25l.02,1.26c0,.37-.19.86-.34,1.24.65,2.11,2.01,2.16,3.45,3.56.56.22,1.36.65,1.77,1.15.37.45,1.69,1.43,2.37,1.71.61.25.98.84.75,1.53-.27.1-.78.15-.99.28l-1.06.61c-.44.25-1.26,1.06-2.19,1.69-1.76,1.2-.82.22-2.38,1.17-.06,0-.17,0-.22,0-.06,0-.03.31-.07.36l-.59.73c-.47,0-.81-.21-1.17-.47l-2.05-1.5-1.99-1.26c-.23-.14-.57-.5-.79-.61-.63-.31-1.27-.58-1.88-.93l-.98-.56-.67-.1v.85c1.86.32,2.25,1.3,3.58,1.74.06.02.23.16.19.21s-.18.16-.25.15l-.86-.11-1.52-1.04c-1.5-1.03-.97-.32-1.95-.99-.64-.44-.05-.77-.51-1.11-.2-.15-.59.86-1.14.53-.1-.06.07-.45.12-.49l-.53-.66-.14.45c-.49.31-.77-.21-1.08-.36-.53-.24-1.11-.47-1.2-1.1-.2.09-1.36-.77-1.34-.96-.4.13-2.5-.42-2.74-.59-1.31-.95-1.25-.65-2.24-1.64-.44-.24-1.14-.35-1.37-.79-.27-.52-.58-.52-.98-.75l-2.13-1.23c-.06.32.26.49.44.73,1.18,1.58,1.05.65,2.11,1.89l.68.79c.72.23,1.07.7,1.42,1.32.06.11.27.31.24.42s-.25.31-.36.34c-.6.17-.97-.36-1.33-.74-.06-.07-1.25-.88-2.26-2.04-1.2-1.37-1.22-.42-2.03-1.88-.82-.78-1.42-.97-1.94-2.06l-.59-1.25c-.52-1.09-.53-2.04.23-2.97.65-.8,1.3-1.51,2.26-2,.37-.19.6-.64.84-.98.62-.87,1.25-.65,2.02-1.88.1-.17.35-.46.5-.58,1.07-.85,2.46-2.12,3.3-3.18.33-.42.86-.68,1.3-.98.17-.12.4-.38.57-.48.47-.27.82-.53,1.19-.89s.47-.97.03-1.28l-2.17-1.51c-.38-.27-.66-.46-.98-.81-.38-.4-2.31-1.95-2.84-2.34l-.88-.63-1.16-.91c-.5-.39-.91-.97-1.37-1.42l-1.26-1.22-1.83-1.97c-.25-.27-.48-.62-.89-.7-.54-.11-.86-.41-1.12-.86-.21-.36-.27-.64.03-1.02l.8-1.02,2.2-2.24.83-1.01c.63-.77,1.68-1.12,2.4-1.8l1.3-1.22c.58-.54,1.1-1.11,1.61-1.73.43-.52,1.18-.72,1.62-1.18.18-.19.37-.54.58-.73l1.43-1.28c.37-.33,1.43-1.42,1.87-1.13.1.07.15.38.06.47l-.94.91c-.36.35-.83.59-1.18.89l-1.33,1.14c-.32.27-.52.57-.98.7-.19.16-.57.49-.72.7-.43.55-.85.95-1.32,1.43l-1.32,1.38c-.19.2-.6.44-.74.62l-.69.87c-.24.31-.62.45-.93.7-.23.19-.5.62-.7.87l-.64.81c-.44.56-.96,1.06-1.61,1.42l-.37,1.21c.4.4.66.77.95,1.22,1.25.07,1.48,1.3,1.6,1.07l.11-.22c.14-.28-.41-.59-.68-.73-.05-.03-1.56-1.63-.55-2.82.56-.66,1.27-1.09,1.85-1.7l.81-.85c.17-.18.61-.14.65.06.07.39.16.59.42.89l.12-.73-.52-.4c.06-.46.41-.81.82-1.03s.63-.75.95-1.06c.36-.34.59-.61.87-.98.45-.6,1.14-1.04,1.65-1.6.38-.41.82-.61,1.29-.92.26-.17,1.34-1.28,1.82-1.51l.41-.52c1.35-.54.84-1.3,2.83-1.74l-.34-.32c-.06-.06.12-.3.19-.36l1.41-1.28c.23-.21,1.69-1.31.91-1.87l-.31-.22c-.36-.26,1.33-.94.9-2.45-.08-.29-.15-.68-.39-.84l-1.31.41c.2.61-.53.6-.69.83-.31.45-.73.78-1.04,1.2l-.92,1.27c-.49.67-1.48.84-2.15,1.33-.56.4-.96,1.08-1.71,1.22-.85.15-1.44-.49-1.85-1.16l-.84-.43c-.66-.34-1.58-1.17-2.15-1.65l-1.52-1.29c-.5-.43-.87-1.01-1.49-1.31-2.03-1-.99-1.23-2.41-2.23-1.03-.72-.97-1.97-.37-3.08-.37.1-.86.29-1.09.44-1.07,1.4-.76.43-1.8,1.78-.42.55-1.4,1.23-1.96,1.26-.92,1.62-2.43,1.69-2.77,2.72.3.66.8,1.03,1.31,1.48.36.32.72.91,1.08,1.1.47.26,1.69.98,1.42,1.66l.94.74.13.62,1.02.82c.17.14.32.42.47.61.45.55.97,1.05,1.51,1.51.51.44.94.92,1.41,1.39.54.53,1.13,1.22,1.33,1.96.25.92-.25,1.4-.85,1.96s-1.04,1.2-1.77,1.55c-.7,1.39-.89.93-1.6,1.85-.44.57-.86,1.09-1.44,1.52l-.93.69-1.61,1.38-.76.86c-.33.38-.65.65-1.07.93l-.86.59c-.28.19-.4.48-.65.69l-.82.71c-.25.21-.46.65-.67.95.14.35.82,1.27,1.11,1.43l.72.39c.5.27.96.68,1.42,1.06.65.53,1.28.99,1.99,1.5.17.12,1.23,1.1,1.69,1.39.48.3.81.71,1.23,1.07,1.36,1.18,2.32,2,3.47,3.47.8,1.04,1.1.89,1.57,1.77l.38.72c.22.42.51.7.41,1.27-.11.64-.49,1.17-.88,1.71-.62.86-.19,1.25-1.44,2.02-.46.28-.78.74-1.19,1.08l-1.13.94c-.24.2-.43.43-.68.61-.37.25-.67.57-.82.99-.2.54-.84.74-1.13,1.12-1.36,1.79-1.19.18-2.4,2.39l-.97.68c-.28.19-.51.49-.56.77-.06.34.09.71.32.95.81.82.86,1.04,1.57,1.66.52.24,1.04.48,1.51.79l1.18.78c.39.26.79.46,1.26.58.85.54,1.1,1.06,2.02,1.39.54.2.96.51,1.41.87l.78.63c.27.22.64.36.86.66.25.35.6.56.96.77l1.63.98c.84-.06,1.65-.35,2.44-.65.45-.17,1.02-.2,1.39-.42.84-.48,1.45-1.11,2.28-1.53l1.07-.53c.18-.09.54-.43.63-.21.21.51-.52.61-.78.83-.87.71-1.76,1.3-2.8,1.74-.35.15-.61.36-.84.68l-.64.23c-.18.49-.73.6-1.12.75l-.72.55c-.6,1.93-4.3-2.31-4.37-2.36l-1.35-.88c-.76-.49-1.2-1.04-2.05-1.45-.58-.28-1-1.04-1.58-1.43-1.14-.29-.73.17-1.81-.78-.78.15-1.09-.76-1.51-1-.74-.42-1.54-.8-2.2-1.42-.45-.42-1.11-.71-1.45-1.22s-.09-.97.33-1.27c.99-.7.88-1.19,1.65-1.37.89-.22.56-.68,1.56-1.66.46-.44.91-.74,1.53-.96l.41-.55c.4-.54,1.52-1.84,2.12-1.99-.2-.36,1.03-1.48,1.36-1.78,1.09-1,1.13-1.3,2.19-2.1.32-.71,1-.84.59-1.57l-.38-.04c-.1-.01-.14-.33-.06-.38s.28-.05.46-.03c.16.02.23-.36.12-.46l-.79-.72-.3,1.8c-.5.42-.89.85-1.02,1.49l-.67.74-.82.78c-.71.67-1.19,1.3-1.96,1.9-.61.47-1.24,1.06-1.81,1.59-.47.45-.79.86-1.4,1.14-.91,1.21-1.37.91-2.1,1.84l-.63.81c-.23.29-.68.53-.96.76-.11.09-.84,1.4-1.14,1.55-.28-.33-.34-.66-.27-.94.08-.29.4-.47.57-.67,1.04-1.3,1.57-1.94,2.99-2.92.45-.31.72-.9,1.12-1.32.24-.24.57-.47.84-.68.69-.52,1.17-.96,1.79-1.56l.88-.86,1.25-.9c.55-.4.99-.92,1.64-1.2-.08-.46.06-.89.23-1.33l.43-1.09c.18-.46-.77-.93-1.13-1.64-.64-.15-.92-.96-1.36-1.2-.6-.32-1.02-.56-1.51-1.02l-1.22-1.15c-1.84-1.74.04-.61-2.56-2.14-1.2-.7-.64-.63-1.76-1.65l-1.14-1.03-1.16-1.11-.88-.86c-.3-.3-.79-.56-.98-.97-.3-.67.38-1.91.77-2.36.7-.8,2.05-1.12,3.63-3.49.61-.92,1.46-1.49,2.33-2.12.53-.39.97-.91,1.44-1.36l.71-.69,2.19-2.03c.32-.29.63-.46.76-.84.42-1.33-1.04-1.3-.87-2.91l-.89-.32c-.18-.06-.42-.37-.54-.58-.59-.17-1.06-.6-1.42-1.15-.41-.62-1.27-.83-1.74-1.38l-.95-1.11c-.46-.54-.89-1.19-1.17-1.79-.96-.29-1.4-1.09-2.02-1.72-.29-.3-.63-.37-.77-.89-.1-.36-.35-.62-.08-1.15l.58-1.11c.38-.73,1.84-1.45,2.88-2.68,1.34-1.58,2.95-1.95,3.58-2.76.46-.59,1.08-.82,1.68-1.27.49-.37,1.12-.99,1.44-1.49.49-.75,1.04-1.02,1.7-1.53.49-.38,1.04-.95,1.48-1.37.35-.34.2-1,.85-1.21.28-.09.66-.56.92-.71,1.36-.75.06-.32,1.76-1.63.23-.17.56-.36.81-.48.63-.98,1.51-1.61,2.34-2.41l1.48-1.42c.45-.43,1.1-.73,1.38-1.29,1.09-2.18.85-1.34,2.28-2.57.83-.72,1.47-1.87,2.71-1.7.39.05,1.1,1.59,2.13,1.96.8.29,1.12.72,1.68,1.24,1.57,1.44,1.11.85,2.54,1.77l2.61,1.69c.57.37,1.13.62,1.55,1.21.2.28.57.43.86.62l1.32.85c.01.37.2.3.44.42l3.22,1.63c.66.34,1.22-.38,1.68-.66,2.38-1.48,2.68-3.13,3.55-3.69,1.41-.89,1.09-.88,2.42-2.04.31-.27.66-.47.89-.84.29-.45.77-1.02,1.19-1.28.07-.04.42-.01.44.06l.07.28.17.13s.07-.04.12-.1c.31-.49.66-.9,1.06-1.33.29-.32.58-.58,1.06-.36.71.33,1.31.93,1.98,1.33.81.48,1.55.94,2.33,1.46.6.4,1.28.67,1.79,1.26l.68.79c.33.11.59.22.86.35,1.61.74,1.01.72,2.62,1.74,1.42.9.72-.39,2.56,1.33.23.22.51.48.73.66.38.3.78.5,1.06.9.72,1.02.06,1.87-.5,2.86-.17.3-.26.86-.47,1.13-.6.74-.65,1.49-.75,2.36l-.14,1.23-.21,2.08-.22,1.91c-.09.77-.15,1.57-.11,2.34.03.5-.06.87-.04,1.37l.05,1c.03.74-.17,1.37-.27,2.06-.05.33,0,.85-.02,1.22l-.12,2.02c-.01.23-.02.52-.01.77l.05,2.66c0,.27.4,3.01-.51,3.2-.55.11-.5-1.5-.24-2.02l-.12-1.16c-.11-1.08.03-2.07.21-3.1-.06-.41-.11-.93-.09-1.39l.14-2.78c.04-.78-.04-1.53-.03-2.33l.05-2.16.09-3.35c.02-.94-.02-1.8.06-2.73.16-1.76.26-3.83,1.67-5.07-.07-.66,1.3-1.43.61-1.79-.77-.4-.82-.71-1.59-1.02-1.06-.43-2.38-1.25-3.09-2.1-.34.03-.72-.06-1.03-.25l-1.35-.84c-.52-.32-1.17-.58-1.52-1.09-.7-1.04-1.11-.45-1.95-1.32-1.3-1.34-1.78-1.18-3.15-2.21-.36.07-.77.38-1.03.71-1.42.17-2.5,2.24-3.03,2.5l-.94.45c-.61.77-.47,1.38-1.29,1.75l-.96.43c-.53,2.11-.89.72-1.86,2.24-.38.6-.91.97-1.71.84-.04.1-.03.4.07.47s.36.14.48.2l1.1.55c.16.08.37.31.42.46.06.18-.19.59-.37.55-.28-.07-.57-.17-.78-.13-.18.04-.41.32-.5.5l-.47.96c-.2.41-.46.86-.73,1.21l-.71.91c-.45.58-.76,1.19-.4,1.89l-.04.95-.14,2.64c-.01.24-.04.5-.02.72l.08.9c.04.5-.13,1.29-.14,1.75.39.81-.04,1.13.02,2.32l-.18.4c.35.66.31,1.29.15,2-.06.25.13.78.1,1.03l-.13,1.21c-.07.6.12,1.17.12,1.76v1.95s.11,1.6.11,1.6c.05.71-.47,2.15.09,3.19.67-.35,1.33-.59,1.92-.95l1.08-.67,1.17-1.18c.35-.35.93-.53,1.26-.88.43-.45.81-.83,1.28-1.23l.68-.59c.49-1.04.53-.6,1.74-1.29l.5.48c-.45.73-1.11,1.16-1.74,1.7-.6.5-1.15,1.03-1.7,1.57-1.07,1.07-.7.22-1.53,1.18-.24.27-.7.57-.87.81-.41.57-1.02,1.17-1.6,1.49l-1.03.58c-.19.11-.38.3-.61.31-.43.03-1.04.11-1.32-.19l-.55-.6c-.66-.71-.15-2.59-.14-3.42l.03-2.08.03-1.93c.03-1.94.32-3.85.21-5.81-.05-.94-.17-1.8-.12-2.73l.13-2.17c.08-1.31-.06-1.82.01-3.03.05-.79.06-1.57.06-2.35,0-.32.02-.52.2-.8l.14-1.04c.04-.3,1.01-.59.66-.96-.32-.33-.46-1.22.12-1.38.3-.09.7-.09.9-.31.16-.17.43-.66.27-.83-.31-.31-.66-.53-.99-.77-.81-.58-1.65-.93-2.55-1.36-.4-.19-.75-.46-1.21-.61-.56-.19-1.01-.79-1.39-1.16-.82-.22-1.57-.58-2.15-1.27-.5-.6-1.13-.62-1.96-1.26l-.61-.47c-.82-.63-1.75-.86-2.52-1.51l-1.64-1.38c-.43-.36-.88-.87-1.34-1.23-.57-.45-1-.86-1.53-1.45-.5.21-1.03.52-1.43.8.11.74-.6,1-.9,1.5-.32.54-.6.89-1.07,1.28-.21.18-.43.42-.66.61l-.58.51c-.33.29-.64.6-1.01.84-.13.09-.38.33-.47.46-.57.83-1.22,1.15-1.92,1.87-.52.53-.96,1.05-1.54,1.51l-1.19.96c-.33.27-1.23,1.62-2.38,2.16l-.8.91c-.17.19-.34.42-.52.58l-.82.7-1.27,1.1c-.98.85-1.67,1.56-2.9,2.31-.3.18-.58.62-.86.86l-1.62,1.41-.88.75-.92.7-.99.81c-.24.85-.29.2-1.15,1.14-.14.16-.57.42-.57.61-.02.52.73,1.67.94,1.8.73.45.91,1.38,1.49,1.87s1.15.92,1.67,1.49l1.21,1.35c.55.61,1.16,1.3,1.8,1.74.75.51,1.37.9,1.75,1.81.21.5,1.84,1.69,1.86,2.61.02.58-.7.85-.99,1.18l-.75.89c-.38.45-2.04,2.23-2.41,2.55-1.43,1.22-2.63,2.51-4.01,3.81l-1.71,1.61c-.7.66-1.22,1.34-1.7,2.22l-.71.69c.02.96,1.01,1.06,1.41,2.12.35,0,.73,0,1.16.08-.36-.52-.82-.96-1.45-1.29-.39-.2-.56-1.01-.22-1.3l.71-.62c.3-.26,1.08.16.94-.09l-.11-.2c-.13-.23-.03-.55.17-.74.93-.9,1.19-1.44,2.04-2.08.28-.21.47-.43.71-.67.85-.85,2.56-2.36,3.51-3.1,1.28-1,1.13-1.04,1.99-2.11.42-.51,1.4-1.62,1.86-2.02l1.51-1.32c.18-.16.09-.77-.12-.85-.52-.21-.89-.5-1.21-.91-1.13-1.43-1.83-1.07-3.26-3.57-.11-.18-.46-.5-.61-.69-.49-.07-.83-.45-1-.93l-.68-.6c-.45-.39-.63-1-1.04-1.36l-1.75-1.55-.77-.78c-.55-.56-1.1-.71-.96-1.23.25-.91,2.47-1.89,3.25-2.63l1.38-1.29c.33-.3.57-.57.93-.81l1.08-.74c.37-.25.55-.7.88-.98l2.13-1.83c.47-.41.89-.87,1.38-1.25l1.6-1.21c.14-.11.43-.3.54-.42l1.38-1.42.87-.88c.31-.31.65-.65.94-1l1.09-1.29c.54-.64,1.1-1.15,1.9-1.45l.64-.84c.3-.4.6-.66,1.07-.82.06-.25.21-.72.49-.76.56-.08.44-.57.69-.85.74-.8,2.04-1.98,2.86-2.6.66.05.88.61,1.18,1.02.45.63,1.08,1.06,1.73,1.58l-.29.49.48-.26c.6.67,1.14,1.32,1.78,1.95,1.3,1.27,1.35.68,2.47,1.85.2.21.51.47.75.61l.93.54c.2.12.43.44.57.61.35.17.91.43,1.26.65l.08.69,1.08-.16c.49.24.89.4,1.41.39.41,0,.84.37,1.14.43.67.14,1.12.18,1.33.97.25.94-.46,1.62-.83,2.11-.19.25-.47.82-.56,1.12-.25.81-.43,2.87-.42,3.68l.02,1.63c.02,1.54-.11,1.13.02,2.64.02.28.11.63.08.89-.06.62-.05,1.15-.05,1.75,0,.98-.33,2.01-.07,2.99.14.53.28,1.04.25,1.64l-.12,2.19c-.04.8-.1,1.54-.05,2.34.09,1.5-.49,1.92-.41,4.14l.06,1.72c.02.59.03,1.14.09,1.72l.11,1.1c.04.38.08.97.36,1.23.38.36.9.04,1.21-.22l2.7-2.28,1.33-1.16,1.53-1.29.76-.51.9-1.13c.34-.42.76-.7,1.18-1.03l1.33-1.04c.3-.24.55-.41.8-.71,1.04-1.25.22-.84,1.53-1.43.29-.13.47-.66.68-.9l1.23-1.37c.42-.47.61-.95.71-1.59.04-.28.13-.62.13-.9v-2.68s.22-.48.22-.48l-.41-1.54c-.14.11-.58.09-.66-.12-.14-.36.36-.56.67-.68l-.08-3.22c-.02-.71.04-1.34,0-2.06l-.6-.67-.39.28c-.09.06.08.33.08.44,0,.51.03.92.2,1.43.1.32-.15.88-.14,1.2l.15,2.63c.05.95-.24.69-.08,2.44.06.62.11,1.17.12,1.77l.02,1.31c.02,1.42.11.91-.56,2.02-.56.21-.96.6-1.25,1.13-.17.31-.77.64-1.04.34-.39-.44.1-1.08.56-1.23l.38-.71c.65-.5.86-1.19.67-1.96-.26-1.01-.07-2.04.12-3.06.35-1.81-.25-1.34.19-3.26,0-1.16-.27-1.42-.08-2.56.16-.93-.24-1.92-.75-2.44l-1.03-1.04c-.98-.98-1.06-.8-1.73-1.39-1.62-1.4-1.01-.61-2.4-1.5l-1.2-.77c-.15-.15-.08-.76.17-.85.8-.3,1.99.62,2.58,1.14.55.49,1.81,1.34,2.41,1.68,1.36.77.25.84,1.38,1.37.68.32.68,1.56,1.16,1.43.2-.05.28-.29.27-.5l-.12-1.33c-.87-.02-1.9-1.39-2.32-1.7-.52-.38-1-.64-1.47-1.07-1.36-1.26-3.15-1.56-4.66-2.54-.3-.42.31-.8.52-.99l.84-.78c1.17-1.09.21.54,2.21-1.67.18-.2.55-.38.73-.56.49-.49.95-.92,1.51-1.32.45-.32.7-.73.89-1.25.16-.41.58-.73.85-1.08.31-.4.75-.82,1.27-.43,1.02.77,2.08,1.5,3.15,2.22.3.21.58.45.91.62l2.21,1.15c.26.14.6.35.85.53l1.29.88c.49.33.9.68,1.49.88.45.15,1.07.4,1.07.95,0,1.08-.27,2.7-.68,3.71.01.32.04.81-.01,1.2l-.2,1.46c-.06.45.3,2.88.23,4-.11,1.78.19,1.43-.09,3.18-.06.38-.1.69,0,1.04.05.16-.05.52-.05.69l-.02,3.15-.1,2.72c0,.19-.2.59-.12.79.03.08-.06.24-.13.27s-.3-.1-.31-.18c-.24-2.03.02-.88-.02-2.9-.02-.98-.17-1.56-.1-2.22l.11-1.02c.11-1.08.05-2.08-.16-3.14-.12-.59-.04-1.28-.25-1.81-.24-.6-.32-1.1-.28-1.77l.1-1.51c.2-3.07.41-2.48.71-5.03.13-1.09.62-2.06-.04-2.38-.45-.22-1.02-.43-1.47-.75-.6-.43-1.24-.79-1.79-1.26-.24-.21-.31-.58-.75-.62-.95-.09-1.61-.62-2.18-1.25l-1.23-.73-.94-.57-1.35-.81c-.43-.16-.87.49-1.02.83-.38.89-1.77,1.74-2.62,2.7-.5.56-.91.9-1.58,1.29-.13.07-1.51,1.13-1.38,1.39.04.08.2.22.29.27l1.41.69c2.09,1.03,1.01.95,3.26,2.25.32.19.53.77.8,1.01.2.18.54.36.66.53l.52.71c1.81,2.5,1.06,2.55,1.24,3.45.08.42.16.8.16,1.21v1.2s.03,1.29.03,1.29c0,.33.03.59.08.92.1.68-.02,1.42,0,2.12.02.53.03,1,0,1.52s.01,1.02.01,1.52v1.42c0,.22-.17.59-.27.78,0,.5.05,1.02-.28,1.48-.45.64-.95,1.34-1.62,1.76-.56.36-1.23.58-1.63,1.15-.16.23-.46.48-.67.64-.48,1.16-.43.63-1.73,1.76-.21.18-.41.6-.62.75l-1.85,1.31c-1.24.88-2.31,1.91-3.41,2.95-.25.24-.62.4-.8.71-.86,1.48-2.04,1.1-3.23,2.64-.38.5-.89.95-1.62.73s-.64-2.77-.65-3.49-.04-1.36.08-2.05.14-1.36-.03-2.06c-.12-.48.21-1.01.21-1.35l-.04-3.08-.05-1.95c-.02-.96.36-1.94.24-2.9-.1-.77-.26-1.89-.02-2.61-.47-.74.11-1.53.03-2.4-.12-1.22-.3-2.54-.06-3.77.1-.51.17-1.2.08-1.67-.13-.63-.08-1-.02-1.58l.26-2.59c.13-1.32,1-1.47,1.17-2.93l-.86-.87c-.53-.08-1.11-.37-1.56-.57-.14-.06-.54.11-.67.03s-.29-.32-.37-.47c-.13.06-.57.14-.73.02l-.91-.72-1.18-.79c-.43-.29-1.21-.32-1.23-.99l-.78-.57c-.3-.22-.87-.13-1.13-.49-.63-.9-1.89-.65-2.8-2.15-1.24-2.03-.91-1.06-2.3-2.89-.52.22-1.07.53-1.46.82.21.53-.78,1.61-1.1,1.93l-.82.8c-.43.42-.92.71-1.17,1.31-.15.36-.69.39-.91.59-.47.44-.85.74-1.42,1.01-.37.18-.61.82-.9,1.1l-1.13,1.07c-.53.5-1.04.84-1.54,1.71h-.61s-.09.56-.09.56c-1.1.38-1.91,1.49-2.61,2.36-.42.52-1.15.79-1.47,1.43.06.72,1.2-.57,1.29-.97l1.13-.48c.39-.6.89-.9,1.44-1.3.43-.31,1.11-.95,1.5-1.37l.68-.75c.23-.25.49-.75.69-1,1.38-.45.3-.69,2.01-1.51l.56-.6c.61-.19,1.18.08,1.6.51.91.94-.05.5,1.36.99.36.13.65.35.96.55l1.72,1.12c.99.65,1.56.57,1.87,1.61.75.41,1.41.89,1.93,1.63.21.3.71.61.86.94.58,1.3.9.92,1.15,2.66l.17,1.2c.1.7.07,1.45.06,2.12-.01.48-.18.97-.06,1.46l-.09.34.03,1.92c.02,1.28-.08,1.24.13,2.22.06.3-.23.86-.18,1.17.11.71.05,1.27.04,1.95v1.45c0,.97-.3.85-.13,1.69.13.68.15,1.52,0,2.14.34.63.38,1.3.29,2.05-.27,2.13.02.53.09,2.14l.06,1.33c.01.31-.12.57-.42.76.95.54.13,1.86.19,3.38l.03.91c.02.46.03.88.01,1.34-.07,1.52.3,2.07.03,3.9-.09.6.06,1.28.05,1.9-.01.77-.17,1.5-.06,2.25.09.62.1,1.23.15,1.86l.09,1.1c.15,1.73-.52.73-.18,2.28.37,1.65-.4,2.07-.19,3.43.1.63-.13,1.25-.13,1.8s.44,1.18-.11,1.68c.34.33.26.75.27,1.18.04,1.03.04,2.02.03,3.04v1.38c-.01.26-.04.49-.12.72l.15.43c.05.13-.22.4-.33.48l-.22.18c-.17.14.51.16.49.66l-.11,2.83c-.07.1-.43.07-.5-.02-.08-.1-.17-.31-.18-.45l-.06-1.09-.03-1.38v-1.2s0-1.57,0-1.57c0-1.14.04-2.24.08-3.38l.05-1.43c.02-.58.15-1.06-.12-1.66-.3-.67.19-2.18.14-2.64l-.11-1.09c-.11-1.12.25-1.81.09-2.56l-.23-1.03c-.07-.29-.06-.43-.04-.75l.11-1.81.1-2.16c.03-.6-.12-1.22-.02-1.83,0-.01.01-3.08-.02-3.48-.1-1.52.14-.88-.02-2.9-.04-.52,0-.94.05-1.45.07-.69-.23-1.53,0-2.21.13-.39,0-.62-.02-.96l-.15-1.78c-.04-.46.08-1.01.07-1.5-.03-.88.04-1.73.5-2.51-.7-.19-.59-1.91-.57-2.64l.07-2.37c0-.1-.17-.33-.2-.42s.23-.27.23-.38l.1-2.28c.03-.71-.05-1.35-.16-1.98.06-.25.17-.63.14-.93l-.12-1.59c-.03-.34.14-.58.07-.94-.19-1.02-.18-2.65-.16-3.76,0-.36-.44-.84-.65-.69s-.37.78-.59.74c-.36-.06-.6-.09-.93-.1h-.26c-.05,0-.14.09-.15.1l.24.25c.07.07-.05.34-.12.41l-1.42,1.35c-.4.39-.81.67-1.19,1.09l-.92,1.03c-.56.62-1.34,1.08-2.08,1.45l-.53-.09c.01.18.07.42-.02.49-.11.09-.28.19-.45.29-.35.2-.79.67-1.2.69-.77.05-1.38-.45-1.87-.94-.72-.72-1.14-.72-2.05-1.5l-1.32-1.14c-.77-.66-1.54-1.3-2.4-1.87-.11.72.48.9.75,1.34,1.17,1.92,1.49,1.19,2.46,2.28.34.38.58.59,1.11.77,1.23.96,1.05,1.22,2.37,2.16.56.4,1.15.01,1.52-.52l1.03-.46c.31-.14.6-.37.87-.52,1.02-.55,1.79-.99,2.59-1.86l1.51-1.64c.63-.68,1.55-1.28,1.84-1.68l.5-.7v-.26c-.02-.08.3-.06.37-.02.08.05.23.25.25.34.02.1-.24.12-.39.15.18.17.38.33.37.45l-.07,1.1s-.17.14-.18.11l-.03-.29c-.18.07-.46.25-.66.45-.35.35.96.09.8.6-.09.3.14.61.14.82,0,1.83.35,3.44.23,5.01l-.08,1.07-.05.88c-.04.64,0,1.21.07,1.85s-.11,1.35-.07,2l.12,2.38c.03.61.02,1.11-.09,1.72l-.19,1.06c-.06.35.3.9.27,1.26l-.09,1.19c-.02.27-.13.93-.43,1.04-.08.03-.3.02-.3-.07v-.48c.01-.62-.29-1.36-.2-1.97.32-2.26-.07-1.15.07-3.16.08-1.17-.1-2.29-.2-3.47-.05-.62.1-1.29.11-1.91l.03-1.41c0-.36.05-.68-.05-1.03-.24-.81.19-1.33-.28-1l-.67.12c-.2.15-.61.38-.75.58l-.68.99.96.85c.47.41.16.76.12,1.21l-.08.97c-.02.28-.03.63-.03.97ZM43.09,32.03c-.44-.31-.62-.62-.61-1.04,0-.31.26-.62.56-.83l.77-.53c.73-.5.19-.63,1.6-1.73.34-.26.65-.5.94-.79l.6-.6c.57-.57,1.09-1.06,1.77-1.51l.64-.73c.62-.7,1.14-1.34,1.84-2.03-.03-.12-.3-.47-.46-.59l-.78.49c-.57,1.21-.87.63-1.65,1.84-.24.37-.86.56-1.15.9-.75.89-1.57,1.56-2.5,2.26-.36.27-.56.91-.99,1.14h-.51c-.16,1.77-1.86,1.75-1.17,3.34.2.47.38.76.85,1.08.13-.27.24-.54.25-.7ZM53.3,24.14c.25.07.55.03.79-.1-.95-1.43-1.13-1.27-2.63-1.49-.3.64.64.29.23,1.55l.61-.26,1.01.29ZM59.62,29.15c.12-.09.23-.47.16-.59-.06-.1-.21-.25-.35-.37-.94-.81-.14-.55-2.27-2.37-.3-.26-.57-.34-.99-.31l-.1-.86-1.42-.38-.56.29c.77.94,1.68,2.01,2.64,2.69l.99.7.69.52c.21.16.51.29.72.48.12.1.4.28.51.21ZM52.81,35.78c0,.22-.04.55.05.55h.36s.01-1.05.01-1.05c.91-1.61-.51-2.44.1-3.17.2-.24.68-.08.88.11.54.51,1.89.61,2.22-.13.17-.09.56.01.79.1.4-1.79,1.13-1.07.48-2.26-.29-.54-.61-.71-1.15-.91-.62-.23-1-.14-1.61.11-.38.15-.72.21-1.07.57-.26.26-1.05-.07-1.07-.47-.03-.72.27-1.59-.21-2.22-.77-1.01-1.65-1.44-1.56-2.18l-.94-.54c-.71.31-.44,1.06-.64,2.28-.07.42-.67.9-.57,1.42l.26,1.34c-.3.47-1.04.33-1.36.07-.09-.08-.51-.03-.5-.14l.05-.53s-.27-.13-.29-.05l-.11.41-.85.45-1.23,1.02c-.22.18-.5.71-.62.95-.23.5.42,1.03.81,1.24l1.63.86c.55.29,1.23-.34,1.49-.78.46-.81,1.37-1.25,1.94-.88.18.12.52.49.43.69-.49,1-1.49,2.23-.5,3.36.14.16.29.35.43.54,1.73.11.93-.92,2.36-.76ZM55.36,27.81c.33-.61-.44-.89-.7-1.19-.46-.53-.91-.8-1.44-1.22l-.93-.75c-.12-.1-.53.05-.62.15.13.62.74.97,1.34,1.01.12.25.31.53.38.71l.55,1.42c.31.31,1.19.33,1.43-.13ZM50.96,49.6l.75-1.22.5-.82.74-1.19.6-.15c.11-.37.33-.53.71-.65l-.13-.62c-.53.02-1.07.19-1.27.77-.91-.02-1.22.77-1.75,1.28-.28.27-.67.47-.93.78-.59.7-2.08,1.66-1.45,2.04.41.25.91.18,1.37.21.4.03.63-.02.88-.42ZM45.24,56.26c-.99-.98-.3-1.89-1.05-2.05-.19-.04-.61.15-.53.37l.43,1.13c.17.45,1.25,1.24,1.24.88,0-.07-.03-.27-.09-.33ZM44.68,84.43c-1.21-1.91-.87-.82-.95-2.44-.02-.35.48-.39.81-.32-.21-1.8,1.88-2.46,2.52-3.22.54-.64.99-1.1,1.75-1.43.18-.22.5-.57.71-.79l.89-.94c.26-.28.43-.48.78-.67l2.13-1.13c.17-.09.44-.29.61-.41.43-1.17,1.35-1.79,2.33-2.48.44-.31,1.41-1.15,1.68-1.59l.5-.83c.15-.25.04-.88-.12-1.06-.16-.07-.49-.14-.52-.27l-.08-.42c-.11.1-.43.32-.5.21l-.23-.37c-.58.36-1.41-.73-2.09-1.16-.95-.61-1.37-1.19-1.75-1.38l-1.6-.8c-.31-.16-.51-.32-.76-.59-.27-.29-.77-.46-1.12-.68l-1.56-.96-.67-.81c-2.09-.66-1.85-1.57-3.09-2.37-.1.26-.21.52-.16.66.04.12.21.35.32.42l1.04.68c.6.95,1.38,1.65,2.36,2.16.78.4,1.27,1.15,1.93,1.61.76.53,1.56,1.16,2.25,1.82.17.16.46.5.66.62l1.69,1.02c.21.13.54.39.72.53.67.19,1.28.5,1.64,1.15-.2,1.08-.74.89-1.14,1.37-.24.29-.39.49-.66.7-.49.39-.94.87-1.45,1.24-.44.31-.8.6-1.22.94l-.99.82c-.57.47-1.07.9-1.59,1.35s-.87,1-1.47,1.38c-.5.31-.86.97-1.43,1.24-.94.45-.59.9-1.59,1.12.26.47-.22.6-.44.88l-.56.7c-.22.27-.45.47-.78.66l-.07.95c-.84.56-.53,1.69-.13,2.41.34.62.74,1.2,1.56,1.28.03-.23,0-.56-.14-.78ZM51.82,60.57c-.49-.61-.53-1.02-.84-1.03-.11,0-.3.15-.46.28l-1.35-.64.42.91c.37.25.71.5.93.94l.75.63c.23.19.41.43.65.29-.58-.9.22-.96-.1-1.37ZM39.87,71.36c-.15-1.13-.15-.28-1.33-1.65-.59-.69-1.23-1.34-1.92-1.92-.26-.22-.81-.11-.8-.64-.53-.43-1.07-.76-1.59-1.21l-.74-.64c-.41-.36-.99-.68-1.3-1.04-.1-.11-.47-.12-.53,0-.25.45.57,1.12.88,1.49.84.34,1.35.82,1.98,1.42.38.36,1.07.53,1.38.97,1.05,1.44.85.51,1.73,1.86.71.11,1.2.71,1.44,1.38.17.11.64.1.79-.01ZM42.1,73.33l-.76-.68-1.31-1.21c-.18.35-.01.6.23.78l.8.59c.08.28.15.53.39.62.19.07.42.08.64-.1ZM55.99,89.13c.06.11-.2.43-.29.51.86-.31,1.47.64,1.63.5l.29-.25c.23.16.49.29.75.24.18-.03.36-.38.52-.48.27-.18.61-.41.76-.59-.16-.32-.23-.55-.13-.81.18-.44.06-.89-.47-1.01-.1.37-.15.77-.18,1.21s-.56.74-1.02.63l.02-1.61c.01-1.04.03-2.55-.4-3.45-1.72-.4-1.24-.63-2.44-1.33l-.04-1.27c-.01-.36.52-.43.79-.33.31.12.63.11.96.06l.26.49c.2-.08.56-.34.56-.53v-.87c0-.5.1-1.93.18-2.33l.23-1.23c-.23-.68-.25-1.39-.06-2.09.07-.26-.25-.89-.51-.92-.52-.07-1.05.42-1.27.82-.3.53-.66.78-1.21,1.01-1.43.6-.46.57-1.64,1.25-.29.16-1.04.94-1.02,1.36.04.66.61.34.94,1.61.05.18.12.47.06.61-.04.12-.27.27-.38.36-1.12.86-1.88-.15-2.78-.52-.42-.17-1.33-.03-1.64.27-.36.35-.63.62-1.03.76-.06.29-.19.59-.37.87l-.57.87-.22.35c-.18.29.76.23.79.42l.12.61c.08-.07.31-.26.44-.25.54.04,1.06.93,1.18,1.05.15.16.58.41.78.49.52.2,1.18.06,1.71,0l.38-.5c.49-.25.91-.1,1.27.16.39.28.33.63.48,1.12.17.56.49,1.18.72,1.67.48.08.76.29,1.13.56l.68.48ZM58.63,84.72l.49.69c.69-.33.32-1.57.14-2.18.33-.63,1-3.13-.36-3.18-.74,2.5-.72.25-1.21,2.19l.66.66c.51.5.59,1.13.28,1.83ZM54.38,89.61l-.8-.8c-.16-.16-.58-.22-.91-.25l-.27-.89c-.1-.33-.22-.68-.51-.92-.87.26-1.48-.28-2.14-.69-.34.01-.83,0-1.17-.19.43,1.24,2.29,1.29,3.12,2.4.25.33.84.42,1.13.66.5.4.82.9,1.54.67ZM59.03,91.44c.21-.64,1.06-.72.63-.81-.06-.01-.28-.08-.33-.07l-1.52.31c-.14.03-.31.36-.3.49,0,.15,1.29.79,1.52.08Z"/>
  <path d="M84.71,85.54c.16-1.37-.26-1.58.32-2.21-.04-.26-.1-.7-.1-1.01v-1.51c.01-.3-.17-.67.37-.83.19.94.24,1.92.02,2.86-.06.28-.05.44.03.74.12.47-.17,1.1-.16,1.61l.05,1.68c.01.34.04.76.02,1.08-.04.71.13,1.34.11,2.05l-.06,2.27c-.01.5.07.95.16,1.42.06,1.71-.7,2.7-.8,4.33-.02.31-.08.86-.14,1.14-.66.9-.78,2.39-1.04,2.76l-.66.93c-.46.65-.73,1.29-1.05,1.99-.39.85-1.16,1.51-1.73,2.25-.15.19-.39.31-.59.45-1.51,1.05-.22.75-1.41,1.29-.39.18-.91.4-1.19.59-.62.42-1.15.67-1.91.79l-2.19.35c-1.15.19-2.29.69-3.49.31-.15-.05-.5-.22-.67-.16-1.21.42-1.5.08-3.11.19l-1.62.11c-.83.06-1.7.14-2.54.12l-2.28-.04h-1.19s-1.23.13-1.23.13c-1.35.15-2.69-.07-4.06.19-.43.08-.74-.1-1.06-.47l-.33.34c-.39.41-1.21.1-1.6.35-.49.31-.75.35-1.34.35h-1.38s-1.1.45-1.1.45c.29-.12-4.33.47-4.73,1.51,1.92.55.92-.05,3.45-.14l1.63-.06c.59-.02,1.13.06,1.73.12,1.35.14,2.35-.05,3.13.05l1.83.25c1.09.15,2.15.29,3.27.42l1.82.21c.69.08,1.55-.1,2.19.19.61.27,1.01.12,1.59.12s1.28.05,1.89.1c.64.05,1.22.22,1.87.18.54-.03,1.09.05,1.6.05h2.47c.41-.01.8-.03,1.22-.06l2.42-.18c.7-.05,2.78-.34,3.35-.55,1.43-.53,5.58-1.13,5.83-1.32l1.07-.78c.31-.23.7-.23.96-.49l.77-.77.92-.05c.26-.81,1.04-1.04,1.59-1.54.48-.44.88-.99,1.48-1.33.45-.25.72-.59,1.01-1.02l.3-.44.44-.77.76-1.41c.24-.45.52-.61,1.06-.68.05-.41.1-1.04.45-1.36,1.3-1.16.13-.48.89-2.35.14-.36.31-.77.44-1.14l.48-1.43c-.2.61.5-2.58.43-1.89l.27-2.39s.88-1.96.85-3.49c-.01-.54.32-1.21.23-1.74-.42-2.72.29-1.79-.02-3.72-.08-.52.02-1.04.06-1.58.08-1.01-.27-1.32.13-2.7l-.13-.85c-.13-.89-.07-1.69-.08-2.56-.02-1.83.04-3.62-.09-5.44-.09-1.25-.12-2.49.01-3.66,0-.05-.18-1.48-.18-2.07v-1.63c0-.82.07-1.57.53-2.24-.69-.26-.72-2.26-.16-2.66-.56-.69-.55-1.48-.19-2.28.15-.33.05-.73.05-1.04l-.04-1.39c0-.35-.13-.73-.09-1.09.06-.52.26-1.17.13-1.62-.13-.44-.25-.59.1-1.01.12-.14.4-.32.64-.26l-.05,1.16-.06,1.16c-.08,1.7.1,1.83.04,3.51-.02.54.25,1.26.1,1.8-.17.58-.2,1-.19,1.59.01.83-.12,2.46-.04,2.91.21,1.21.34,2.95.07,4.11-.25,1.1.03,2.04.1,3.09.07,1.11-.09,2.21-.09,3.35v.78s.1,1.12.1,1.12c.07.77.15,1.64.11,2.43l-.1,1.94-.22.87c.3.47.33.98.37,1.53l.1,1.26c.06.75.1,1.36-.03,2.11-.14.83.01,1.74-.33,2.53-.13.29-.07.4-.02.75.2,1.55-.55,2.8-.66,5.14-.01.29-.18.68-.25.94.02.17.11.56.07.73l-.57,2.16-.15,1.24c-.11.92-.6,1.78-.96,2.62l-.31.73-.41.87-.78,1.6c-.94,1.92-1.34,1.37-2.34,3.51-.2.43-.64.68-.96,1.03l-1.07,1.17-.86.89c-.4.41-.94.86-1.44,1.13s-.83.55-1.3.89c-.44.32-.99.59-1.49.86-.38.21-1.09.29-1.44.53-1.47,1.2-2.09.71-3.86.8-.74.42-1.56.5-2.35.7-.6.15-1.06.34-1.71.31-.56-.02-1.16.05-1.73.08l-2.62.14c-.41.02-.78,0-1.18-.05l-1.75-.24c-1.83-.25-1.49.54-5.59-.43-1.18-.28-1.85.58-3.4-.42l-.89-.1c-.77.26-1.54.36-2.36.23l-2.21-.34c-.42-.07-1.54-.35-1.98-.53-.55-.22-1.21.22-1.78.17-.87-.08-1.7-.38-2.57-.18-.39.09-.72.04-1.15,0-.45-.05-1.01.28-1.46.38-1.06.25-3.26.7-4.14.11-.32-.22-.68-.59-.92-.94-.33-.48-.14-1.39.34-1.74.72-.52,1.81-.53,2.9-.75.24-.05.72.04.97-.04,2.28-.79.9-.35,3.21-.58.32-.03.66.12,1-.09.71-.44.95.2,1.53-.19.34-.23.69.01.95-.03.43-.07.88-.34,1.38-.29.56.06,1.14-.21,1.67-.25l2.47-.18c.64-.05,1.14.04,1.76.27l1.33-.04,1.34.04c.59.02,1.23.13,1.78.05l.82-.12c2.33-.34,2.99.14,3.97.1.89-.04,1.65-.28,2.54.08.27.11.64-.16.93-.2l3.55-.48c-.44.06,3.39-1.05,3.57-1.18l.75-.53.82-.47c.82-.47.3-.52,1.34-1.44,1.09-.96.79-.93,1.56-2.13.26-.4.35-.6.43-1.12.06-.37.36-.81.47-1.2.26-.89.79-1.63,1.25-2.42l.09-.95c.03-.36.07-.69.21-1.01l.43-1.01c.38-.89.45-1.84.46-2.81v-1.18s.09-2.37.09-2.37c.02-.52.1-1.09-.02-1.6l-.02-.55c-.03-.74.11-1.45.2-2.21Z"/>
  <path d="M82.37,105.23c.28-.18.88-.27,1-.51l.82-1.61c.3-.6.87-2.4.73-3.07l-.25-.18c-.07-.05.09-.28.17-.32.59-.3-.18-1.3.69-1.53.51-.14.34,1.48.32,1.68-.09.99.51,1.16-.51,3.36-.65,1.4-.89,1.27-1.38,2.78l-1.09.64c-.24.14-.3.33-.25.61-.21.34-.62.75-.8,1.1-.29.56-.57.78-1.06,1.07-.37.23-.71.43-1.14.55-1.24.6-1.12.82-2.59,1.66-.83.47-1.89.04-4.07.8-1.26.43-4.6.55-5.93.65l-.94.07-1.11.07c-.83.05-1.6-.27-2.38-.14l-1.5.26c.69-.12-2.17-.06-2.07,0l1.03.32c.45.14.98.08,1.46.09l1.13.05c.41.02.79.16,1.2.16h1.11c-2.33,0,5.24.39,2.76.13l1.91.2c.33.03,1.53-.42,2.29-.33.72.08,1.34-.03,2.03-.13,1.05-.15,2.05-.33,3.03-.76.68-.3,1.43-.33,2.15-.49.71-.16,2.22-.7,2.87-1.01.36-.18.53-.63,1.07-.66.6-.04,2.15-1.35,2.6-1.8.56-.56,1.03-1.21,1.69-1.66.26-.18.49-.35.73-.55,1.21-.99.54-.65,1.55-1.59.15-.54.43-1.69,1.24-1.73l.33-1.59c.1-.47.36-.94.48-1.42l.2-.76.66-1.84c.15-.41.43-.76.68-1.16.38-.61.12-1.38.7-2.14-.34-.64-.15-1.28.24-1.89l.15-1.81.12-.84c.03-.17.2-.46.29-.56-.72-.32-.39-1.12-.31-1.71l.27-2.23c.04-.34-.17-.84-.05-1.25.16-.54.17-1.09.14-1.64l-.06-1.25c-.02-.35.2-.58.52-.69l-.39-.08c.04-.31.04-.39.02-.62-.08-1-.16-1.96-.15-2.96l.03-2.76c0-.48.04-.97.19-1.42-.11-.23-.27-.62-.23-.95.07-.53,0-1.03.03-1.5l.14-1.73c.02-.29,0-.54,0-.84v-4.25s.08-.97.08-.97c-.22,2.26-.07-6.17.04-4.01l-.1-2.01c-.13-2.6.03-.91.1-2.84l.07-2.07c.08-2.22-.31-3.67.12-6,.12-.64.08-1.49.32-1.38.07.03.19.19.19.28l.05,1.69c.01.43-.03.78,0,1.2s.11.83.11,1.18c0,.4-.09.77,0,1.14.26,1.02.08,2.77,0,3.84-.02.25,0,2.6.05,2.91.14.84.12,1.65-.18,2.42v.95s-.06,2.27-.06,2.27c0,.39,0,.79-.07,1.2l-.18.93c-.04.22.17.62.17.88l-.02,1.35c-.01.76,0,1.45-.09,2.2l-.12.97c.13.32.26.72.26,1.12v1.82c.02,1.11.04,2.21-.03,3.3-.02.35-.17.53,0,.89.22.45.09,1.06.02,1.58l.13.6c-.2.63-.11,1.66.02,2.33.08.39-.19.97-.15,1.35l.19,1.75c.04.33-.19,1.79-.2,2.11l-.16,3.4c-.03.72.04,1.31-.24,2.02l-.31.8c.07.23.27.68.2.93l-.69,2.56c-.18.66-.07,1.48-.56,2.03-.32.36-.8.72-.91,1.21-.07.33-.29.79-.3,1.05-.03.67-.18,1.18-.44,1.76-.26.59-.27,1.27-.83,1.74-1.04.87-.8,1.9-1.5,2.36-.59.38-1.13.7-1.47,1.32-.41.74-1.05,1.2-1.66,1.71-.51.42-.92.91-1.6,1.14l-.2.85c-2.07.68-.98.62-3.38,1.21-.48.12-.92.23-1.39.15-.11.8-1.11.42-1.98.89-.46.25-.89.13-1.29.24-1.29.37-2.45.58-3.77.6-1.02.02-2.03.33-3.07.29-1.23-.05-2.42-.06-3.64-.04-1.39.03-4.14-.25-5.52-.54-.42-.09-.7-.29-1.17-.09-.35.15-.81-.08-1.17-.09l-1.48-.07-2.51-.27-2.21-.53c-.5-.12-1.12.28-1.74-.3-.06-.06.02-.37.1-.38.88-.1,2.01-.06,2.77-.19.56-.1.92-.04,1.39.09l.99.26c.4-.16.86-.34,1.31-.16.85-.24.72-.07,1.99-.23.54-.07,1.2.31,1.75.09.37-.14.69,0,1.05.11.88-.19,1.72-.2,2.68-.22,3.31-.05,1.44-.47,4.23-.4l1.23.03c.48.01,1.04,0,1.51-.11l.9-.2,1.85-.32c.44-.07.83-.11,1.23-.32.85-.44,1.53-.23,1.57-.48l.05-.35.73-.21c.3-.36.58-.53,1-.69l.71-.65c.51-.46,1.18-.57,1.75-.99.38-.61.53-1.99.93-2.25Z"/>
  <path d="M68.39,99.25l-.82-1.02c-.7-.87-2.23-.82-1.55-1.72.8.37,1.97,1.36,2.52,1.7l1.6.99c.31.19.44.42.4.9,1.55.26,1.19.31,1.93-.36l1.25-1.14c.45-.41.94-.8,1.43-1.16l1.2-.87,1.13-.7,1.17-.79,1.91-1.24c.14-.09.31-.4.31-.56-.03-.64-.76-.5-1-1.31-.51.05-.85-.27-1.22-.44-1.21-.57-2.34-1.13-3.47-1.77-.33-.19-.47-.44-.77-.69l-1.56-1.31-.55-.66c-.26-.31-.35-.68-.05-1.07.23.09.67.25.82.4,1.45,1.54.72,1.19,2.14,2.08l1.92,1.21.93.57c.22.14.58.35.79.45l1.23.58c.73.23,1.3.21,1.82.89.22.29.65.64.78,1.02.17.49-.21.73-.54.95l-.63.42-1.44.84c-.51.3-1.24.28-1.61.86-.26.4-.83.49-1.22.74-.75.49-1.44,1.06-2.11,1.65l-.75.67c-.32.29-.59.76-.99.95-1.56.74-1.69,1.23-2.61.58-1.43-1.01-1.36-.37-2.41-1.67Z"/>
  <path d="M47.95,101.45c-1.6.88-4.18-.66-4.08-2.21.35-.26.68.14.87.43l.88.62.21-.14c.06-.04.58.42,1.22.59l.86.22-.21-.42c-.04-.09.16-.3.26-.34.64-.26,1.27-.66,1.85-1.06l1.09-.75,2.13-1.35.58-.27c.34-.16.63-.55.95-.77l.91-.63c.35-.24.73-.56.65-1.07-.36-.38-1.35.38-1.62-.27-.21-.51-.54-.65-.95-.92l-1.95-1.29c-.16-.11-.35-.54-.27-.7.22-.44,1.32.34,1.57.58l.75.22c.09.41.34.52.72.57,2.31.32,1.83,2.24,2.56,1.79,1.51-.94.03-.29,1.79-.69.03.08-.05.69-.21.87-.4.42-1.05.33-1.72.19l-.04.85c-.19.6-.97.81-1.48,1.07-.72.36-1.26.8-1.88,1.27l-.5.38c-.66.5-1.31.93-2.02,1.33-.31.18-.59.51-.99.62-.46.13-.71.61-1.1.83l-.83.46Z"/>
  <path d="M42.19,98.96c-.29.1-.61-.32-.83-.45-.56-.3-1.02-.59-1.51-.99-.31-.25-.91-.54-1.03-.89-.17-.51-.27-.63-.63-.9-1.47-1.12-1.87-1.08-3.56-2.33l-.91-.67c-.24-.18-1.7-1-2-1.77-.66-.07-1.16-.47-1.52-1-.3-.45-1-.85-.51-1.61l1.06,1.45c.33.45,1.28.79,2.05,1.35l1.82,1.33c.28.21.64.53.9.69l1.36.82c.54.33,1.07.64,1.56,1.05l.79.66c.2.17,3.89,1.56,2.97,3.28Z"/>
  <path d="M57.55,39.05c-.13.19-.43.38-.66.35-.29-.77.38-.96.85-1.3.08-.06.37.12.32.21l-.5.75Z"/>
  <path d="M55.42,40.6l-.31.62c-.09,0-.32-.26-.27-.37.08-.15.86-1.28,1.31-.88.04.27-.29.64-.74.63Z"/>
</svg>