<svg width="65" height="65" viewBox="0 0 65 65" fill="none" xmlns="http://www.w3.org/2000/svg">
<rect width="65" height="65" rx="15" fill="black"/>
<g clip-path="url(#clip0_83_19)">
<path d="M31.9674 30.8659C31.9674 27.9941 34.332 25.6667 37.2474 25.6667H38.0111C38.0319 25.6674 38.0548 25.666 38.0763 25.666C41.3475 25.666 44 28.2789 44 31.4998C44 34.7207 41.3475 37.3329 38.0763 37.3329C38.0548 37.3329 38.0319 37.3322 38.0104 37.3322L37.2474 37.3329C34.332 37.3329 31.9674 35.0042 31.9674 32.1331V30.8659Z" fill="#00B6FF"/>
<path d="M20 43.1675C20 39.9459 22.6525 37.333 25.9237 37.333L31.9674 37.3337V43.1074C31.9674 46.3624 29.258 48.9999 25.9528 48.9999C22.6823 48.9999 20 46.3884 20 43.1675Z" fill="#24CB71"/>
<path d="M31.9674 14.0007V25.6669H38.0111C38.0319 25.6662 38.0548 25.6676 38.0763 25.6676C41.3475 25.6676 44 23.0547 44 19.8338C44 16.6122 41.3475 14 38.0763 14C38.0548 14 38.0319 14.0007 38.0104 14.0007H31.9674Z" fill="#FF7237"/>
<path d="M20 19.8334C20 23.055 22.6525 25.6672 25.9237 25.6672H31.9674V14.001H25.923C22.6525 14.001 20 16.6125 20 19.8334Z" fill="#FF3737"/>
<path d="M20 31.4999C20 34.7215 22.6525 37.3337 25.9237 37.3337H31.9674V25.6675H25.923C22.6525 25.6675 20 28.279 20 31.4999Z" fill="#874FFF"/>
</g>
<defs>
<clipPath id="clip0_83_19">
<rect width="24" height="35" fill="white" transform="translate(20 14)"/>
</clipPath>
</defs>
</svg>
