<svg width="23" height="66" viewBox="0 0 23 66" fill="none" xmlns="http://www.w3.org/2000/svg">
<g clip-path="url(#clip0_79_2003)">
<path fill-rule="evenodd" clip-rule="evenodd" d="M9.60843 32.5088C9.14421 32.2636 8.93729 31.8991 8.93184 31.4354C8.04016 30.811 8.27567 29.7001 9.30758 29.4576V28.3561C8.8311 28.1886 8.53977 27.8656 8.55883 27.3296C8.57517 26.8392 8.86241 26.5524 9.31574 26.3769V24.9122C9.28988 24.8961 9.26265 24.8667 9.23134 24.8586C8.70858 24.7407 8.42814 24.3963 8.34646 23.8978C8.25934 23.3645 8.38866 22.8553 8.88283 22.5967C9.43282 22.3086 9.54445 21.8462 9.60571 21.3317C9.65336 20.9404 9.58665 20.5531 9.45732 20.1806C9.36748 19.9233 9.22045 19.6995 8.98766 19.5387C8.78618 19.3994 8.57108 19.3404 8.32332 19.3739C5.71361 19.7237 3.58582 18.8205 1.8678 16.919C0.707931 15.6379 0.119828 14.113 0.016365 12.4018C-0.111602 10.2832 0.494199 8.40317 1.92498 6.80988C3.0018 5.60923 4.36315 4.88294 5.96955 4.61359C6.60257 4.50773 7.37718 4.52381 8.07692 4.65379C8.06194 4.53185 8.04969 4.41795 8.03199 4.30539C7.81009 2.90909 8.19535 1.70441 9.30758 0.801236C11.2053 -0.739787 14.2425 -0.0121566 15.0389 2.59016C15.2049 3.13421 15.2499 3.68898 15.1273 4.24911C15.1042 4.35229 15.0974 4.45815 15.0797 4.58411C15.3179 4.56669 15.5371 4.53721 15.7563 4.53587C18.3197 4.53319 20.3154 5.59985 21.7367 7.68224C22.8081 9.25274 23.1729 11.0015 22.9252 12.8735C22.6651 14.8393 21.7884 16.4942 20.2528 17.7779C18.8057 18.988 17.1149 19.5454 15.2077 19.4315C15.1342 19.4275 15.0579 19.4235 14.9871 19.4061C14.5801 19.3056 14.2779 19.4744 14.0628 19.788C13.9334 19.9756 13.8381 20.1953 13.7755 20.4138C13.6408 20.8922 13.6571 21.3813 13.7905 21.8583C13.8654 22.1263 13.9756 22.3782 14.2738 22.5109C14.8006 22.7427 15.0743 23.1581 15.0416 23.729C15.0089 24.2878 14.6835 24.6442 14.1621 24.8372C14.1268 24.8506 14.0914 24.86 14.0328 24.8801V26.3728C14.4821 26.5671 14.7952 26.8794 14.7856 27.3939C14.7775 27.808 14.5556 28.0599 13.9974 28.3453V29.4736C14.448 29.5996 14.7965 29.8274 14.915 30.2911C15.0389 30.7748 14.8074 31.1111 14.4004 31.4019C14.3759 31.8589 14.1635 32.2394 13.7401 32.4806V52.2781C14.9803 52.2861 16.1865 52.2861 17.4389 52.2835C17.4525 52.8154 17.4648 53.3206 17.4784 53.8513H18.4136V52.3076H22.1111V54.323H20.1984V55.5745H22.107C22.1356 56.0824 22.107 56.5635 22.1029 57.0914H20.7157V57.602H22.0879V59.1417C21.4685 59.2006 20.83 59.131 20.1793 59.1805V60.5072H22.1029C22.1424 61.2576 22.126 61.9691 22.0975 62.7034H18.4586C18.3742 62.2291 18.4286 61.744 18.3973 61.2294C18.0869 61.1785 17.7861 61.1946 17.4484 61.2214V62.7276C16.2069 62.7436 15.0021 62.7303 13.7537 62.7369C13.7537 63.0653 13.7551 63.3547 13.7537 63.6441C13.751 63.9135 13.6802 64.152 13.4257 64.282C13.1561 65.4358 12.5421 66.0187 11.6246 65.9999C10.7179 65.9825 10.1162 65.3942 9.92154 64.3142C9.61796 64.1453 9.61932 63.8478 9.61932 63.5316C9.61932 53.5377 9.61252 43.5438 9.60707 33.5486V32.5061L9.60843 32.5088ZM11.5742 16.6108C11.6886 16.5183 11.7866 16.4446 11.8792 16.3656C12.195 16.0922 12.5054 15.8121 12.8267 15.5455C13.0799 15.3351 13.2814 15.3525 13.5101 15.579C13.5536 15.6219 13.5931 15.6701 13.6299 15.7183C14.0737 16.2852 14.6754 16.5197 15.3819 16.5089C16.3458 16.4942 17.202 16.1659 17.9236 15.5455C18.9895 14.6276 19.4932 13.4483 19.5272 12.0628C19.5803 9.91337 18.0243 7.9891 15.8897 7.7747C14.9299 7.67822 14.0696 7.90334 13.4679 8.72879C13.4325 8.77837 13.3916 8.82527 13.3481 8.86816C13.1602 9.04906 12.9642 9.06916 12.7504 8.90836C12.6129 8.80517 12.4945 8.67921 12.3665 8.56397C12.1038 8.32813 11.841 8.09362 11.5633 7.84438C11.1767 8.18743 10.8228 8.50769 10.462 8.82125C10.1026 9.13348 9.86028 9.12678 9.5989 8.75023C9.08431 8.01322 8.3451 7.73986 7.48745 7.75058C6.29491 7.76398 5.30793 8.25443 4.53877 9.1442C3.53409 10.3073 3.26591 11.6701 3.62258 13.12C4.00376 14.6745 4.97168 15.8054 6.53042 16.328C7.69438 16.7193 8.8066 16.6671 9.62205 15.5602C9.78813 15.3338 10.0032 15.3204 10.2401 15.4892C10.4103 15.6098 10.5614 15.7559 10.7207 15.8912C11.0011 16.1284 11.2815 16.3656 11.5715 16.6108H11.5742ZM11.8519 54.406H11.9173C11.9173 54.5856 11.9173 54.7638 11.9173 54.9434C11.9186 55.797 11.9214 56.6492 11.9227 57.5028C11.9268 59.2569 11.9309 61.0123 11.9391 62.7664C11.9391 62.9259 11.9731 63.0854 11.9894 63.2448C12.0575 63.0693 12.0698 62.8991 12.0711 62.7289C12.0875 60.9628 12.1011 59.1953 12.116 57.4291C12.1297 55.8211 12.1446 54.2117 12.1637 52.6037C12.165 52.4711 12.1283 52.321 12.2631 52.1682C12.3638 56.006 12.3066 59.7996 12.2794 63.5879H10.1353C10.1734 63.6549 10.1938 63.7366 10.2401 63.7567C10.3272 63.7942 10.4307 63.8116 10.5273 63.8116C11.1331 63.813 11.7403 63.8143 12.3461 63.8009C12.6279 63.7956 12.9083 63.7594 13.2242 63.7353C13.2323 63.5664 13.2473 63.4123 13.246 63.2569C13.2351 58.9795 13.2215 54.7035 13.2106 50.4262C13.2038 47.9163 13.1997 45.4051 13.1929 42.8953C13.1847 40.0196 13.1752 37.1439 13.1656 34.2682C13.1656 34.1248 13.1561 33.9815 13.152 33.8381H13.0676C13.0581 33.9681 13.0445 34.0967 13.0404 34.228C13.0173 35.1165 12.9873 36.0062 12.9778 36.8947C12.9505 39.1727 12.9301 41.4521 12.9097 43.7301C12.892 45.8259 12.8838 47.9217 12.8634 50.0175C12.858 50.6232 12.8226 51.2289 12.8008 51.8359C12.7504 51.7273 12.7409 51.6188 12.7395 51.5103C12.7137 50.4382 12.6796 49.3662 12.6674 48.2942C12.6388 45.8942 12.6252 43.4929 12.598 41.093C12.5735 38.961 12.5421 36.829 12.504 34.697C12.4959 34.2655 12.4441 33.8341 12.4128 33.4026C12.3856 33.4026 12.3597 33.3999 12.3325 33.3986C12.2617 33.6746 12.2889 33.964 12.2671 34.2468C12.244 34.551 12.2331 34.8552 12.2141 35.1593C12.1964 35.4515 12.1746 35.7423 12.1582 36.0344C12.1419 36.3225 12.131 36.6106 12.1174 36.9C12.0997 36.9 12.0834 36.8987 12.0657 36.8987C12.0303 35.631 11.9962 34.3634 11.9622 33.0957C11.9336 33.0957 11.9037 33.0957 11.8751 33.0957C11.7512 34.1208 11.8029 35.1567 11.7294 36.1858C11.7158 36.1496 11.709 36.1148 11.709 36.0786C11.6777 35.0562 11.6477 34.0324 11.6123 33.01C11.6083 32.888 11.6518 32.7433 11.4925 32.6347C11.4803 32.7178 11.4667 32.7768 11.4653 32.8358C11.4435 33.554 11.4068 34.2723 11.4095 34.9918C11.4149 36.7097 11.4394 38.4277 11.4585 40.1456C11.5034 44.0812 11.5565 48.0168 11.5919 51.9511C11.6123 54.193 11.6055 56.4348 11.611 58.678C11.611 58.8576 11.611 59.0372 11.611 59.2181C11.6423 59.2181 11.6736 59.2181 11.7049 59.2181C11.7526 57.6141 11.8002 56.0101 11.8465 54.406H11.8519ZM15.9523 57.6047C16.0544 58.8522 15.9687 60.0944 16.1307 61.3299C16.1715 60.9118 16.2123 60.4938 16.2532 60.0757C16.2682 60.0757 16.2818 60.0757 16.2981 60.0757C16.3226 60.609 16.3471 61.1423 16.3716 61.6757H16.422C16.4587 61.5591 16.4955 61.4425 16.5323 61.3273C16.5431 61.3313 16.554 61.3366 16.5649 61.3407V61.9919C15.6283 62.0133 14.7217 62.012 13.8204 62.0589C13.8068 62.2425 13.8967 62.2519 14.007 62.2519C14.8605 62.2545 15.7154 62.2612 16.569 62.2626C16.6902 62.2626 16.81 62.2425 16.9652 62.2264V60.6438C17.1258 60.6036 17.2538 60.5715 17.3872 60.538C17.4076 60.3048 17.4267 60.0864 17.4498 59.8157C17.6458 60.0583 17.4634 60.3437 17.703 60.5728C17.7479 60.3236 17.782 60.1239 17.8242 59.8921C17.899 60.0784 17.959 60.2244 18.0474 60.4402C18.106 60.1829 18.1455 60.0127 18.1877 59.8291C18.3306 59.9939 18.2476 60.2271 18.4055 60.3839C18.5185 60.2083 18.4028 59.9859 18.5879 59.8264C18.6328 60.0127 18.6709 60.1708 18.7268 60.4053C18.7907 60.211 18.8302 60.0918 18.8928 59.9028C18.9487 60.0797 18.9827 60.1909 19.0181 60.3021C19.1801 59.8197 19.1107 59.3279 19.2032 58.8509C19.323 59.6536 19.2141 60.475 19.4333 61.2683C19.4741 61.2522 19.5041 61.2415 19.5408 61.2267C19.5817 61.3353 19.6225 61.4438 19.6756 61.5859C19.7396 61.4747 19.7859 61.3929 19.8349 61.3072C19.8771 61.4197 19.9179 61.5283 19.9697 61.6676C20.0568 61.5484 20.1235 61.4572 20.1902 61.3661C20.2433 61.4599 20.2869 61.5363 20.3508 61.6475C20.4121 61.5082 20.4557 61.4103 20.5115 61.283C20.5714 61.4143 20.6204 61.5175 20.6885 61.6649C20.7661 61.539 20.8205 61.4532 20.8818 61.3527C20.9321 61.4197 20.9798 61.4814 21.0274 61.5443C21.1064 61.4773 21.1731 61.4197 21.2657 61.342C21.3051 61.5939 21.3814 61.8016 21.3051 62.0388C20.6993 62.1058 20.0867 62.0294 19.5 62.2036H21.6196C21.6428 61.7976 21.6591 61.4157 21.6087 61.0056C20.9471 60.9641 20.3073 61.0177 19.6838 60.9614C19.6198 60.4763 19.6389 58.9219 19.711 58.6579C20.3291 58.6352 20.9553 58.6794 21.5733 58.6365V58.0991H20.2025V56.5836H21.5992V56.0824C21.2493 56.0824 20.9281 56.0918 20.6068 56.0797C20.2923 56.069 19.9724 56.132 19.6702 56.0489V53.8071C20.0091 53.8071 20.3277 53.8111 20.6463 53.8057C20.9743 53.8004 21.3051 53.8272 21.6455 53.7789C21.6278 53.4238 21.6673 53.1116 21.6142 52.8101C20.9199 52.7444 19.2536 52.7726 18.9868 52.853C18.9214 53.3515 18.9936 53.8633 18.9364 54.3538C18.4599 54.4248 17.2265 54.4101 16.9488 54.3297V52.7967H13.8776V52.9977C14.335 53.0205 14.7775 53.0473 15.2199 53.0647C15.6719 53.0821 16.1252 53.0901 16.6003 53.1035C16.5527 53.8124 16.648 54.4824 16.4506 55.1484C16.3975 54.6245 16.3444 54.1019 16.2899 53.5793C16.2722 53.5793 16.2532 53.5793 16.2355 53.5793C16.1974 53.9638 16.1606 54.3484 16.1157 54.8014C16.0667 54.331 16.0231 53.9317 15.9809 53.531C15.7903 54.3645 15.8815 55.2101 15.759 56.0503C15.6909 55.1712 15.6242 54.2921 15.5562 53.4131C15.4663 53.6141 15.4364 53.8178 15.4241 54.0201C15.4064 54.3002 15.4078 54.5802 15.3914 54.8603C15.2853 56.7109 15.2471 58.5601 15.2798 60.4134C15.2839 60.6278 15.3166 60.8408 15.337 61.0539C15.3574 61.0525 15.3778 61.0512 15.3983 61.0499C15.4527 59.8479 15.5085 58.6472 15.563 57.4466C15.5848 57.4466 15.6079 57.4466 15.6297 57.4466C15.661 58.737 15.6923 60.0274 15.7223 61.3165C15.7454 61.3165 15.7685 61.3165 15.793 61.3165C15.8461 60.077 15.8992 58.8388 15.951 57.5993L15.9523 57.6047ZM16.1375 6.38108C17.85 6.58208 19.2958 7.23735 20.3195 8.62695C21.2725 9.92007 21.5938 11.8953 21.1282 13.2889C21.1282 13.179 21.1255 13.1334 21.1282 13.0865C21.1336 12.9767 21.1309 12.8668 21.15 12.7582C21.2738 12.0333 21.1785 11.3217 20.9716 10.6276C20.4448 8.85609 19.3489 7.58978 17.5478 6.96935C17.0319 6.79112 16.4397 6.7067 16.1279 6.75494C16.2831 6.78576 16.4656 6.81792 16.6452 6.85813C19.2822 7.42897 21.3174 9.87183 20.8777 12.9324C20.5836 14.9746 19.4265 16.4553 17.4403 17.2098C15.8312 17.8222 14.3691 17.5166 13.0554 16.387C12.7831 16.6215 12.4945 16.8708 12.2045 17.12C12.2209 17.1401 12.2358 17.1602 12.2522 17.1803C12.6034 17.0691 12.8484 16.7863 13.1262 16.5947C13.3889 16.8118 13.6217 17.0342 13.8858 17.2098C14.1458 17.3826 14.4385 17.5059 14.7679 17.6774C14.0927 17.6078 13.5141 17.4014 12.9328 17.2017C13.0254 17.2982 13.1262 17.3679 13.231 17.4309C13.9498 17.865 14.7503 18.0165 15.5725 18.0312C17.0183 18.0553 18.2857 17.5568 19.3884 16.6537C20.5578 15.6956 21.1962 14.4225 21.572 13.0021C21.591 12.9324 21.6033 12.8601 21.6237 12.7904C21.6428 12.7221 21.6659 12.6564 21.689 12.5894C21.6727 13.5381 21.3882 14.4091 20.9212 15.2265C20.4597 16.0346 19.8621 16.722 19.0848 17.2553C18.3006 17.794 17.4376 18.129 16.4928 18.2751C15.5575 18.4198 14.6482 18.2831 13.7374 18.0768C14.2697 18.3716 14.8469 18.4989 15.4364 18.5619C16.8957 18.7186 18.204 18.318 19.3748 17.4711C22.0961 15.5053 22.9483 11.8015 21.5461 8.95794C20.3849 6.60352 18.4817 5.26618 15.7413 5.32782C14.4031 5.35864 13.246 5.87991 12.2957 6.81926C12.195 6.91977 12.1188 7.04439 12.0316 7.15561C12.3434 7.45979 12.6306 7.73986 12.941 8.04404C12.9873 8.00652 13.0322 7.97168 13.0908 7.92478C12.7981 7.63534 12.5489 7.38743 12.2985 7.13953C13.2119 6.17338 14.6441 5.53419 16 5.69767C15.1382 5.77003 14.3037 5.92815 13.5958 6.46282C13.8273 6.39314 14.0478 6.28862 14.2792 6.22028C14.5243 6.14791 14.7802 6.11039 15.0307 6.05813C14.8605 6.16668 14.6781 6.22698 14.5038 6.30738C14.335 6.38376 14.1758 6.48024 14.0138 6.56734C14.414 6.49766 14.7856 6.36634 15.1682 6.28862C15.5439 6.21224 15.9292 6.15596 16.3498 6.24172C16.26 6.30068 16.2028 6.3382 16.1388 6.38108H16.1375ZM8.22939 6.99213C8.22939 6.98275 8.23211 6.97203 8.23347 6.96265C8.09053 6.93049 7.94895 6.88225 7.80465 6.86751C6.68426 6.7536 5.64282 6.96667 4.68988 7.57638C3.78594 8.15526 3.16381 8.95794 2.74587 9.91605C2.51716 10.4413 2.31705 10.984 2.28437 11.5629C2.21494 12.8199 2.46952 14.0085 3.11616 15.1046C3.28088 15.3833 3.45922 15.6527 3.63075 15.926C3.08212 15.4383 2.68733 14.8473 2.41779 14.1746C2.06928 13.305 1.99849 12.4098 2.1142 11.4839C2.26668 10.2671 2.71184 9.18038 3.49325 8.22763C3.53409 8.17939 3.5654 8.12444 3.60216 8.07218C3.05762 8.48491 2.6955 9.02762 2.40281 9.61857C2.1074 10.2149 1.95629 10.8487 1.87052 11.5067C1.78612 12.1552 1.88141 12.7917 1.93859 13.4336C1.77931 13.0048 1.68946 12.568 1.66768 12.1137C1.61459 11.0149 1.90592 9.99511 2.36605 9.00886C2.40962 8.9164 2.4491 8.82259 2.48994 8.73013C1.26336 10.4159 1.07141 12.8306 2.30888 14.854C3.53545 16.86 5.36783 17.8677 7.76244 17.9026C7.75428 17.9307 7.74475 17.9602 7.73658 17.9883C7.16345 17.9629 6.58896 17.9374 6.01583 17.9119C6.53314 18.1036 7.06679 18.2014 7.60997 18.1666C8.61737 18.1022 9.55262 17.8222 10.3449 17.1723C10.3967 17.1307 10.477 17.1227 10.5437 17.0986C10.1925 17.6225 9.66833 17.8959 9.1483 18.1867C9.36884 18.1424 9.5744 18.0687 9.77452 17.9843C10.1666 17.8181 10.4919 17.5595 10.7588 17.258C10.8758 17.2821 10.9725 17.3009 11.0678 17.321C11.0801 17.2955 11.0909 17.2714 11.1032 17.246C10.7492 16.9378 10.3953 16.6282 10.0373 16.316C9.28716 17.0597 8.405 17.38 7.38671 17.2955C6.33167 17.2084 5.40186 16.7944 4.59594 16.1284C2.18363 14.1358 2.19725 10.6825 3.87987 8.70199C4.94173 7.45309 6.31125 6.87019 7.97481 6.99213C8.05786 6.99749 8.14226 6.99213 8.22666 6.99213H8.22939ZM11.14 7.18911C11.061 7.13819 11.0052 7.11005 10.9575 7.07119C10.9004 7.02429 10.8513 6.96935 10.801 6.91575C9.92563 5.99783 8.82974 5.48059 7.57866 5.3439C5.80755 5.14826 4.22974 5.66551 2.95416 6.88627C1.09047 8.66849 0.434299 10.8608 0.943444 13.3639C1.28787 15.055 2.20542 16.4138 3.61033 17.4483C3.66206 17.4872 3.72468 17.5113 3.82814 17.5689C3.78866 17.4939 3.78322 17.4697 3.76824 17.4577C3.7029 17.4014 3.63347 17.3505 3.56813 17.2955C2.00121 15.9756 1.15173 14.2939 1.01832 12.2785C0.925746 10.8675 1.2865 9.55157 2.03661 8.34287C3.20601 6.45612 5.38417 5.21928 7.76925 5.69633C7.90266 5.72313 8.03608 5.74725 8.16813 5.77941C8.30018 5.81291 8.42951 5.85043 8.55883 5.89197C8.66774 5.92681 8.77529 5.96835 8.88283 6.00587C8.08372 5.85847 7.29686 5.75261 6.49503 5.96299C7.3554 5.96701 8.21305 5.98309 8.99446 6.42798H8.57653C9.02169 6.63434 9.40695 6.8139 9.8208 7.00553C9.77724 6.89565 9.74457 6.81391 9.71326 6.73216C9.73368 6.71742 9.7541 6.70402 9.77452 6.68928C10.0087 6.88225 10.2442 7.07521 10.4933 7.28023H10.6594C10.4851 7.567 10.1775 7.7144 10.0767 8.01054C10.0958 8.0293 10.1162 8.04672 10.1353 8.06548C10.447 7.7948 10.7601 7.52278 11.1386 7.19313L11.14 7.18911ZM10.2741 3.6729C10.2741 4.41393 10.8445 4.98076 11.5797 4.97272C12.323 4.96468 12.8743 4.40321 12.8906 3.66754C12.9029 3.10741 12.342 2.36504 11.5892 2.38112C10.8405 2.39586 10.2741 2.93723 10.2741 3.6729ZM12.0439 22.5859C12.2399 22.0861 12.1555 21.6171 12.3025 21.191C12.3897 21.6412 12.3393 22.1035 12.4645 22.5551C12.6048 22.5337 12.7123 22.5176 12.8294 22.5002V22.1317C12.922 22.2858 12.9887 22.3983 13.0581 22.5136C13.118 22.5189 13.167 22.5283 13.2146 22.5243C13.2487 22.5216 13.28 22.4988 13.3018 22.4895C12.8498 21.1267 12.926 19.8791 14.0818 18.8272C13.7851 18.7133 13.5237 18.6141 13.2555 18.5109C13.1901 18.6222 13.1357 18.7119 13.0703 18.8232C13.0377 18.6717 13.0132 18.5511 12.9873 18.4305C12.9642 18.4305 12.9424 18.4319 12.9192 18.4332C12.8825 18.6342 12.8444 18.8352 12.8062 19.0376C12.7014 18.7535 12.7572 18.452 12.5966 18.1786C12.5421 18.2161 12.4918 18.2322 12.489 18.2537C12.4278 18.7454 12.3706 19.2386 12.3066 19.7826C12.2454 19.1689 12.1896 18.6021 12.1337 18.0352C11.8982 18.5431 11.8424 21.9213 12.0412 22.5859H12.0439ZM14.0083 4.89768C14.075 4.83872 14.0954 4.82532 14.1118 4.80655C14.1268 4.78779 14.1376 4.76501 14.1485 4.74357C14.4521 4.11108 14.4916 3.45983 14.2983 2.78848C13.8831 1.34662 12.4727 0.539932 11.0719 0.782475C9.96102 0.974098 8.99991 1.91479 8.79435 3.05917C8.63371 3.95564 8.84744 4.75027 9.5145 5.40152C9.64111 5.52481 9.78133 5.63603 9.98553 5.65345C9.9406 5.55965 9.85075 5.51811 9.78541 5.45244C8.9863 4.62967 8.75623 3.6662 9.11835 2.59016C9.50225 1.44981 10.8282 0.649813 12.1691 1.15768C11.8969 1.15768 11.6627 1.14964 11.4299 1.16036C11.1454 1.17376 10.9752 1.23674 10.7561 1.39218C10.8731 1.37342 10.9562 1.36136 11.0392 1.34796C11.9513 1.19252 12.7518 1.423 13.3453 2.12384C14.0315 2.93589 14.1376 3.8538 13.6761 4.81996C13.6162 4.94458 13.5509 5.06518 13.4883 5.18846C13.5114 5.20052 13.5332 5.21124 13.5563 5.2233C13.6816 5.01694 13.8232 4.81861 13.928 4.60287C14.0328 4.38579 14.0995 4.15129 14.1826 3.92616C14.2016 3.93152 14.2207 3.93554 14.2384 3.9409C14.1662 4.24375 14.0941 4.54659 14.0097 4.9017L14.0083 4.89768ZM11.0651 46.2199C10.8677 51.6027 10.8772 56.9802 11.0542 62.3577C11.2271 56.9775 11.2584 51.596 11.0651 46.2199ZM11.626 24.2047V24.198C12.0575 24.198 12.4904 24.2007 12.922 24.198C13.2051 24.1953 13.491 24.202 13.7728 24.1725C14.0818 24.1417 14.2738 23.9474 14.2956 23.6955C14.3173 23.4516 14.1172 23.1782 13.8409 23.1032C13.6993 23.0643 13.5495 23.0389 13.4025 23.0375C12.2304 23.0295 11.0569 23.0295 9.88479 23.0295C9.65608 23.0295 9.44779 23.1032 9.2681 23.2425C9.08568 23.3846 9.02578 23.5722 9.08159 23.7946C9.13877 24.0198 9.28988 24.1511 9.51586 24.1886C9.63702 24.2087 9.76227 24.2047 9.88479 24.2047C10.4647 24.206 11.0447 24.2047 11.626 24.2047ZM11.6219 30.1195V30.1048C11.0787 30.1048 10.5342 30.1048 9.99097 30.1048C9.81808 30.1048 9.64519 30.0981 9.4723 30.1115C9.25857 30.1276 9.10337 30.283 9.08023 30.4813C9.05981 30.6488 9.1483 30.7869 9.3525 30.8673C9.44099 30.9034 9.54309 30.9209 9.63974 30.9209C10.9494 30.9209 12.259 30.9182 13.5686 30.9088C13.7265 30.9088 13.8885 30.874 14.0396 30.8257C14.188 30.7775 14.2874 30.6555 14.2833 30.4934C14.2792 30.3514 14.1948 30.2321 14.0573 30.1879C13.9307 30.1463 13.7946 30.1235 13.6612 30.1222C12.9819 30.1168 12.3025 30.1195 11.6232 30.1195H11.6219ZM11.1182 44.6587C11.2121 40.7606 11.37 36.8665 11.1182 32.9738C10.9412 36.8706 10.9262 40.7673 11.1182 44.6587ZM11.6464 27.7919V27.7799C12.2399 27.7799 12.8348 27.7839 13.4284 27.7772C13.5618 27.7758 13.7007 27.7531 13.8273 27.7129C14.0233 27.6512 14.1417 27.4958 14.1363 27.3457C14.1322 27.1835 13.9811 27.0201 13.7742 26.9812C13.6544 26.9584 13.5278 26.9598 13.4039 26.9571C12.6238 26.9437 11.8451 26.9316 11.0651 26.9222C10.7438 26.9182 10.4212 26.9142 10.0999 26.9222C9.93924 26.9263 9.77724 26.9383 9.62069 26.9732C9.40423 27.0214 9.24632 27.209 9.25176 27.3778C9.25721 27.5494 9.42465 27.7276 9.64111 27.7665C9.77316 27.7906 9.91201 27.7906 10.0481 27.7906C10.5804 27.7933 11.1127 27.7919 11.645 27.7919H11.6464ZM12.3774 1.90273C12.9233 2.21764 13.2786 2.61026 13.4175 3.17307C13.5604 3.75196 13.4679 4.28395 13.1248 4.77037C12.5435 5.59449 11.4476 5.79415 10.5627 5.24474C10.0196 4.9084 9.73912 4.41661 9.69148 3.79618C9.64519 3.17977 9.89023 2.65984 10.2932 2.19888C9.82217 2.48028 9.61388 2.91981 9.45324 3.41159C9.47638 3.18915 9.50089 2.96805 9.52948 2.70272C9.12379 3.49736 9.14285 4.22767 9.64791 4.9218C10.0291 5.44574 10.5369 5.77003 11.2148 5.79951C11.0882 5.72983 10.963 5.65881 10.8364 5.58779C11.4667 5.67757 12.0875 5.74993 12.6715 5.41224C13.2569 5.07322 13.5632 4.55597 13.6653 3.9074C13.8 3.04711 13.2133 2.09301 12.3761 1.90139L12.3774 1.90273ZM9.5921 31.5038C9.66561 31.8843 9.82489 32.0183 10.2129 32.0197C11.0787 32.0224 11.9431 32.0157 12.8076 32.0063C12.9669 32.0049 13.1275 31.9755 13.2854 31.9567C13.5468 31.9259 13.7075 31.7865 13.7728 31.5319C13.3045 31.4408 11.1713 31.5051 10.8391 31.6458C11.4789 31.6753 12.0466 31.7008 12.6143 31.7276C12.6143 31.7517 12.6143 31.7758 12.6143 31.7999C11.8873 31.8187 11.1617 31.8348 10.4361 31.8589C10.0985 31.8709 9.79494 31.8187 9.5921 31.5011V31.5038ZM12.5843 26.0392C12.5707 26.0392 12.5558 26.0378 12.5421 26.0365C12.5149 25.8944 12.485 25.7537 12.4618 25.6117C12.4196 25.3584 12.4183 25.3584 12.3039 25.2097C12.1759 25.6157 12.1827 26.0191 12.2331 26.4586H13.3698C13.4488 25.881 13.4229 25.0556 13.2977 24.7554C13.2473 25.0703 13.2065 25.3276 13.1547 25.6613C13.0948 25.4281 13.0567 25.278 12.9996 25.0516C12.9519 25.3129 12.9192 25.4871 12.8784 25.7149C12.7777 25.5032 12.8648 25.3008 12.6783 25.1668C12.6442 25.475 12.6143 25.7578 12.583 26.0405L12.5843 26.0392ZM14.9286 59.3239C15.1124 57.6382 15.1518 55.9752 14.998 54.2774C14.7993 54.7558 14.7543 58.4328 14.9286 59.3239ZM13.3957 29.6277C13.3875 29.1936 13.4365 28.7876 13.3018 28.3065C13.2405 28.5584 13.1983 28.7326 13.1439 28.9564C13.0921 28.7473 13.054 28.5946 13.0159 28.4418C12.9927 28.4432 12.971 28.4458 12.9478 28.4472C12.9165 28.5825 12.8866 28.7179 12.8512 28.8733C12.8185 28.7795 12.7954 28.7139 12.7722 28.6468C12.7491 28.6509 12.7259 28.6535 12.7041 28.6576V29.2592C12.6824 29.2592 12.6619 29.2592 12.6402 29.2606C12.5884 29.0676 12.5353 28.8747 12.4836 28.6817C12.3325 28.9872 12.3284 29.2994 12.3733 29.6264H13.3943L13.3957 29.6277ZM20.3508 12.8011C20.2025 13.6346 19.9057 14.3609 19.4564 15.0282C19.0045 15.6996 18.4123 16.2329 17.7466 16.6952C19.3475 16.1498 20.487 14.0969 20.3508 12.8011ZM11.5307 21.6345C11.7498 20.9056 11.7607 18.7334 11.562 17.9535C11.3646 19.1997 11.3918 20.4191 11.5307 21.6345ZM9.19867 18.8446C10.4988 19.8979 10.4783 21.1896 10.0005 22.6235C10.0904 22.5591 10.1639 22.5337 10.1897 22.4841C10.2578 22.3555 10.3177 22.2215 10.3572 22.0821C10.5491 21.4094 10.5342 20.7327 10.3109 20.0761C10.2115 19.784 10.0359 19.5106 9.85756 19.2533C9.71326 19.0443 9.48727 18.9156 9.19731 18.8446H9.19867ZM11.8043 65.4358C12.308 65.3956 12.602 65.1141 12.7926 64.7014C12.8294 64.621 12.828 64.5232 12.8471 64.4187H12.632C12.5558 64.5339 12.4822 64.6438 12.3869 64.7845C12.3393 64.6518 12.3012 64.546 12.2467 64.3972C12.1623 64.5621 12.0997 64.684 12.0316 64.818C11.9935 64.6719 11.9622 64.55 11.9159 64.3731C11.7471 64.7389 11.7253 64.9734 11.8057 65.4358H11.8043ZM10.8527 18.7093C10.7139 19.7665 10.7669 21.4992 10.9344 22.0432C11.0664 20.9216 11.1073 19.8121 10.8527 18.7093ZM14.4058 58.7973C14.5978 57.8874 14.591 56.258 14.3949 55.8613C14.2479 57.1946 14.2506 58.1219 14.4058 58.7973ZM10.1707 36.5315C10.3123 35.3335 10.3 33.4776 10.1557 32.9684C10.059 33.5205 10.0618 35.7892 10.1707 36.5315ZM11.0011 26.4278C11.1372 25.9735 11.1372 25.5219 10.9902 25.073C10.9534 25.5246 10.8173 25.9762 11.0011 26.4278ZM19.0194 60.9319C18.9909 60.9333 18.9623 60.9346 18.9337 60.936V62.209C19.029 62.205 19.1147 62.2009 19.2019 62.1969C18.9881 61.7815 19.1093 61.3406 19.0194 60.9319ZM11.8873 25.3343C11.7253 25.6305 11.7117 26.1692 11.8547 26.4707C11.8941 26.4398 11.954 26.4157 11.9581 26.3849C12.0017 26.0378 11.9881 25.6934 11.8873 25.3343ZM11.9445 28.6978C11.7662 29.069 11.7607 29.3999 11.9173 29.6693C11.9636 29.6304 12.0425 29.5969 12.0452 29.5581C12.0643 29.2847 12.1147 29.0046 11.9445 28.6978ZM11.645 65.4023C11.061 65.2522 10.7288 64.9051 10.5682 64.3879C10.4974 64.9855 10.9956 65.4693 11.645 65.4023ZM11.4599 24.7675C11.2965 25.3102 11.2992 25.5769 11.4585 25.9601C11.5674 25.5675 11.6014 25.1936 11.4599 24.7675ZM11.012 29.5916C11.1713 29.2579 11.1631 28.9095 11.0038 28.5664C10.9303 28.9484 10.9385 29.2686 11.012 29.5916ZM11.483 28.3306C11.3469 28.7219 11.3537 28.9926 11.483 29.2123C11.581 28.9363 11.5851 28.7272 11.483 28.3306ZM11.6137 64.5232H11.5592V65.0163H11.6137V64.5232Z" fill="#FBFF00"/>
<path fill-rule="evenodd" clip-rule="evenodd" d="M12.9355 63.6751H12.5775C12.6374 61.5793 12.6959 59.4916 12.7558 57.4038C12.7776 57.4038 12.7994 57.4038 12.8226 57.4038C12.8593 59.4808 12.8974 61.5565 12.9369 63.6751H12.9355Z" fill="#FBFF00"/>
<path fill-rule="evenodd" clip-rule="evenodd" d="M12.1405 46.1877C12.2698 46.6876 12.2467 48.5877 12.1283 48.8597C12.0316 48.5395 12.0275 46.6514 12.1405 46.1877Z" fill="#FBFF00"/>
<path fill-rule="evenodd" clip-rule="evenodd" d="M11.645 37.8824V36.9001C11.8097 37.1668 11.8111 37.5313 11.645 37.8824Z" fill="#FBFF00"/>
<path fill-rule="evenodd" clip-rule="evenodd" d="M16.8317 57.2979V55.5452C17.2782 55.5305 17.7044 55.5144 18.1413 55.4996C18.1795 55.2598 18.2149 55.0467 18.2557 54.7868C18.3115 54.9583 18.3551 55.0909 18.4245 55.3053C18.483 55.0762 18.5198 54.9301 18.5702 54.7305C18.6301 54.9677 18.675 55.1472 18.7199 55.3281C18.7417 55.3254 18.7635 55.3241 18.7853 55.3214C18.8139 55.2531 18.8438 55.1861 18.8942 55.0682C19.0412 55.844 18.9228 56.5663 18.9432 57.2966H16.8317V57.2979Z" fill="#FBFF00"/>
<path fill-rule="evenodd" clip-rule="evenodd" d="M18.9023 59.655H16.8345C16.8113 59.123 16.75 58.6178 16.9257 58.0939C16.9801 58.2332 17.025 58.3512 17.0713 58.4704C17.0904 58.4704 17.1081 58.4704 17.1271 58.4691C17.1612 58.2815 17.1938 58.0939 17.2401 57.8312C17.3055 58.0791 17.3531 58.2627 17.4021 58.4476C17.4212 58.449 17.4403 58.4503 17.4607 58.4503C17.4811 58.3445 17.5015 58.2386 17.5233 58.1327C17.5451 58.0255 17.5682 57.921 17.6009 57.775C17.673 58.0336 17.7329 58.252 17.8092 58.5254C17.978 58.2547 17.914 57.9947 17.9902 57.6812C18.0665 57.9987 18.1236 58.2399 18.1808 58.4798C18.204 58.4811 18.2271 58.4838 18.2503 58.4865C18.2965 58.3257 18.3415 58.1662 18.4054 57.9438C18.4681 58.1676 18.5116 58.3244 18.5579 58.4945C18.6627 58.4718 18.7431 58.4543 18.8601 58.4289C18.9731 58.8309 18.9078 59.2329 18.9037 59.655H18.9023Z" fill="#FBFF00"/>
<path fill-rule="evenodd" clip-rule="evenodd" d="M19.1147 57.369C19.1147 56.8343 19.1202 56.2996 19.112 55.765C19.1079 55.4702 19.1528 55.1606 18.9051 54.9167C18.8751 54.8873 18.901 54.8015 18.901 54.7385C18.9949 54.6903 19.0793 54.646 19.1692 54.6005C19.1501 54.0779 19.131 53.562 19.1093 53.0085C19.8648 53.026 20.5768 53.0434 21.2901 53.0608C21.3759 53.2297 21.3201 53.3744 21.282 53.5137C20.9171 53.6116 20.8926 53.6049 20.634 53.3181C20.5918 53.3784 20.5509 53.436 20.5006 53.5111C20.457 53.4709 20.4148 53.4333 20.3631 53.3864C20.3113 53.4266 20.2582 53.4682 20.197 53.5151C20.1453 53.4668 20.0949 53.4213 20.0445 53.373C20.0023 53.4226 19.9628 53.4668 19.9234 53.5137C19.8757 53.4548 19.8417 53.4119 19.8076 53.3704C19.7777 53.3784 19.7505 53.3784 19.7355 53.3931C19.3883 53.7013 19.3094 54.1248 19.293 54.5455C19.2617 55.3228 19.2753 56.1027 19.2631 56.8812C19.2617 57.046 19.2345 57.2122 19.2195 57.377C19.1841 57.3743 19.1487 57.373 19.1147 57.3703V57.369Z" fill="#FBFF00"/>
<path fill-rule="evenodd" clip-rule="evenodd" d="M16.9012 55.0667C16.8807 54.9635 16.8603 54.8604 16.8372 54.7357C16.8998 54.721 16.9515 54.7089 17.0509 54.6848C17.0141 54.8443 16.9869 54.9635 16.9597 55.0841C16.9406 55.0788 16.9202 55.0734 16.9012 55.0667Z" fill="#FBFF00"/>
<path fill-rule="evenodd" clip-rule="evenodd" d="M17.2728 54.7277C17.345 54.7143 17.3899 54.7049 17.4784 54.6875C17.4648 54.8094 17.4525 54.9059 17.4403 55.0024C17.4185 55.0051 17.3967 55.0064 17.3749 55.0091C17.3422 54.9207 17.3109 54.8336 17.2728 54.7277Z" fill="#FBFF00"/>
<path fill-rule="evenodd" clip-rule="evenodd" d="M19.6565 57.9801V57.365C19.7927 57.5687 19.7382 57.775 19.6565 57.9801Z" fill="#FBFF00"/>
<path fill-rule="evenodd" clip-rule="evenodd" d="M17.8772 55.3093V54.8269C17.8909 54.8269 17.9045 54.8269 17.9167 54.8269V55.3093H17.8772Z" fill="#FBFF00"/>
<path fill-rule="evenodd" clip-rule="evenodd" d="M18.4939 16.9954C18.0964 17.3585 17.6853 17.4885 17.232 17.6064C17.413 17.4014 17.786 17.2218 18.4939 16.9954Z" fill="#FBFF00"/>
<path fill-rule="evenodd" clip-rule="evenodd" d="M18.2189 6.55949C17.8323 6.43219 17.4457 6.30489 17.0577 6.17759C17.0659 6.15346 17.074 6.12934 17.0822 6.10522C17.5083 6.128 17.8854 6.29819 18.253 6.49115C18.2421 6.51393 18.2298 6.53537 18.2176 6.55815L18.2189 6.55949Z" fill="#FBFF00"/>
<path fill-rule="evenodd" clip-rule="evenodd" d="M21.4236 10.0662C21.5992 10.2283 21.6169 10.428 21.6073 10.7214C21.4372 10.4762 21.4086 10.2765 21.4236 10.0662Z" fill="#FBFF00"/>
<path fill-rule="evenodd" clip-rule="evenodd" d="M6.36567 17.4565C6.06345 17.49 5.80888 17.3694 5.58698 17.147C5.84972 17.2234 6.11246 17.2984 6.3752 17.3748C6.37247 17.4016 6.36839 17.4284 6.36567 17.4565Z" fill="#FBFF00"/>
<path fill-rule="evenodd" clip-rule="evenodd" d="M4.47612 16.513C4.25422 16.4192 4.09222 16.2611 3.96425 16.0695C3.98195 16.0494 3.99964 16.0293 4.0187 16.0105C4.19432 16.1552 4.36993 16.2999 4.54418 16.446C4.5224 16.4688 4.49926 16.4916 4.47612 16.5143V16.513Z" fill="#FBFF00"/>
<path fill-rule="evenodd" clip-rule="evenodd" d="M9.93921 16.9673C9.84392 17.2125 9.65196 17.3425 9.39739 17.3961C9.57845 17.2527 9.75815 17.1093 9.93921 16.9673Z" fill="#FBFF00"/>
<path fill-rule="evenodd" clip-rule="evenodd" d="M8.11501 17.5664C8.24297 17.5342 8.37094 17.498 8.50027 17.4712C8.55744 17.4592 8.6187 17.4686 8.71808 17.4686C8.51388 17.624 8.32193 17.6253 8.11501 17.565V17.5664Z" fill="#FBFF00"/>
<path fill-rule="evenodd" clip-rule="evenodd" d="M13.6448 19.0242C13.201 19.587 13.0771 19.8376 12.843 20.6965C12.7286 20.0479 13.0635 19.3297 13.6448 19.0242Z" fill="#FBFF00"/>
<path fill-rule="evenodd" clip-rule="evenodd" d="M13.2391 1.72461C13.5386 1.85861 13.7496 2.05961 13.7877 2.39328C13.6053 2.17084 13.4229 1.94705 13.2391 1.72461Z" fill="#FBFF00"/>
<path fill-rule="evenodd" clip-rule="evenodd" d="M13.3494 23.6606C13.2732 23.6794 13.1969 23.6995 13.1207 23.7182C13.1207 23.7303 13.1207 23.7424 13.1207 23.7544C13.4134 23.7826 13.7074 23.8107 14.0001 23.8375C14.0042 23.8549 14.0069 23.871 14.011 23.8871C13.8885 23.9152 13.7673 23.9594 13.6434 23.9702C12.3583 24.0814 11.0719 24.0318 9.78538 24.0077C9.74862 24.0077 9.7105 24.001 9.67374 23.997C9.36063 23.9608 9.21769 23.8254 9.22722 23.5749C9.23539 23.3538 9.40147 23.1876 9.67783 23.1822C10.4307 23.1675 11.1835 23.1675 11.9336 23.3002C11.6423 23.3162 11.3482 23.3122 11.061 23.3524C10.7914 23.3913 10.5001 23.3243 10.1843 23.4945C11.2788 23.6526 12.3161 23.5561 13.3494 23.6593V23.6606Z" fill="#FBFF00"/>
<path fill-rule="evenodd" clip-rule="evenodd" d="M13.5482 30.6382C13.0703 30.6757 12.5925 30.7333 12.1133 30.7467C11.3468 30.7668 10.5804 30.7614 9.81261 30.7614C9.70234 30.7614 9.58935 30.7494 9.48452 30.7186C9.23676 30.6449 9.20953 30.5551 9.3375 30.2683H11.321C11.321 30.2831 11.3237 30.2991 11.3251 30.3139C11.0542 30.346 10.7832 30.3795 10.511 30.4117C10.511 30.4278 10.511 30.4452 10.5123 30.4626C11.5252 30.4881 12.538 30.5122 13.5509 30.5377C13.5509 30.5712 13.5509 30.6047 13.5495 30.6382H13.5482Z" fill="#FBFF00"/>
<path fill-rule="evenodd" clip-rule="evenodd" d="M13.4243 27.5549C12.975 27.5924 12.5258 27.6567 12.0752 27.6634C11.3223 27.6741 10.5695 27.6554 9.81533 27.6326C9.4886 27.6232 9.41917 27.5294 9.41917 27.1649C9.51855 27.1355 9.63018 27.0711 9.74181 27.0738C10.3449 27.0859 10.9493 27.114 11.5524 27.1703C11.1522 27.2051 10.7506 27.2386 10.3503 27.2735C10.3503 27.2949 10.349 27.3177 10.3476 27.3391C10.5777 27.3579 10.8064 27.3901 11.0365 27.3941C11.6545 27.4048 12.2712 27.4008 12.8893 27.4128C13.069 27.4169 13.2487 27.453 13.4283 27.4758C13.4283 27.5026 13.4256 27.5294 13.4256 27.5549H13.4243Z" fill="#FBFF00"/>
</g>
<defs>
<clipPath id="clip0_79_2003">
<rect width="23" height="66" fill="white"/>
</clipPath>
</defs>
</svg>
