<svg width="170" height="48" viewBox="0 0 170 48" fill="none" xmlns="http://www.w3.org/2000/svg">
<g clip-path="url(#clip0_146_1794)">
<path d="M13.8276 16.1761V16.4209C13.8276 16.4714 13.6305 16.4636 13.6228 16.4092L13.5146 15.7488C13.4952 15.6206 13.3716 15.372 13.2286 15.4225C12.7919 15.5779 12.8576 15.7371 12.5214 15.8343L12.4093 15.8653C12.4093 15.8653 12.4093 15.9236 12.4209 15.9702C12.2354 16.1528 12.0537 16.3354 11.8528 16.5141C11.6711 16.6734 11.5591 16.8637 11.4122 17.0541C11.3195 17.1745 11.2576 17.2328 11.2228 17.4037C11.1687 17.6795 11.0644 17.9204 11.2615 18.1845C11.1958 18.3399 11.134 18.4992 11.0528 18.6585C10.96 18.8411 10.6045 18.8139 10.4692 18.674C10.1601 18.3555 9.70405 18.3166 9.36782 18.6274C9.13595 18.8411 9.0316 19.1013 8.85769 19.0819C8.78427 19.0741 8.67606 19.0159 8.57944 18.9731L8.66833 19.1518C8.68765 19.1907 8.64128 19.2645 8.59877 19.315C8.02294 19.9443 8.55239 20.5892 8.53307 20.5465L8.74176 21.0087C8.7804 21.0981 9.54946 21.6342 9.82771 21.7507C10.6238 22.0926 10.9059 21.2574 11.3465 21.6148C11.7871 21.9722 11.3349 22.3762 11.389 22.7142C11.4238 22.9239 11.7291 23.0172 11.8489 23.1492C11.9842 23.3008 12.0924 23.394 12.2933 23.4406C12.4479 23.4756 12.5948 23.6154 12.7223 23.6659C13.0044 23.7863 13.2131 23.8796 13.5107 24.0466L13.7696 23.5921C13.7619 23.5105 13.7464 23.3862 13.7464 23.3163L13.7542 22.5782C13.758 22.1625 13.6923 21.6381 13.5609 21.2379L13.1629 20.9544C13.0585 20.8806 12.761 20.9155 12.6605 20.8262L12.2122 20.4299C12.2354 19.7734 12.9233 19.5248 13.4064 19.35C13.646 18.977 13.5223 18.5303 13.5146 18.1224C13.5107 17.8854 13.6228 17.6251 13.5919 17.3843C13.5648 17.1862 13.6344 16.9841 13.8662 16.922C13.959 16.957 13.9049 17.326 13.9049 17.629C13.9049 17.8271 13.8894 18.0486 13.9242 18.2389L14.0208 18.7983C14.0672 19.0741 14.044 19.3033 13.8856 19.5325C13.5571 20.0143 13.1629 19.7928 12.7687 20.193C12.8537 20.4921 13.1436 20.5465 13.4025 20.5659C13.5687 20.5775 13.6537 20.7757 13.758 20.8806C13.8894 21.0126 13.959 21.102 13.9976 21.2729C14.0208 21.3817 14.1252 21.5604 14.1097 21.6614C14.0865 21.8245 14.0865 21.9411 14.0865 22.0809C14.0865 22.248 14.0363 22.3606 14.129 22.5432C14.187 22.652 14.0827 22.8501 14.0672 22.9861C14.0324 23.2619 14.1484 23.5688 14.1561 23.8368L14.1754 24.7303C14.0865 24.8896 13.8431 25.0761 13.6923 25.1965C13.816 25.1926 13.9513 25.1849 14.0402 25.2198C14.1368 25.2548 14.2025 25.383 14.2527 25.4995L14.5426 25.6549C14.5967 25.5928 14.6508 25.4335 14.6585 25.3403C14.1484 25.3169 14.5851 24.6021 14.5812 23.6543C14.5812 22.8035 14.5387 22.9434 14.5 22.1314C14.4884 21.8712 14.4691 21.6303 14.5116 21.3506C14.6044 20.7057 14.388 20.325 14.8131 20.2706C15.1068 21.1214 14.5464 21.1874 14.7667 21.3817C14.8904 21.4905 14.9329 21.6303 14.8479 21.7779C14.786 21.8828 14.8285 21.9761 14.844 22.1004C14.8788 22.3606 14.871 22.6442 14.8633 22.9123L14.8401 23.4445C14.8285 23.7475 14.8904 24.0039 14.871 24.2952L14.8169 25.2626C14.8053 25.4646 14.8324 25.6277 14.8169 25.8142L14.7783 26.3076L14.9406 26.5173V27.0767C14.9367 27.4341 14.9251 27.7566 14.9406 28.1178C14.9406 28.1994 14.9136 28.2927 14.8672 28.4364L14.558 28.2072L14.531 27.6556C14.5155 27.3448 14.6508 26.9563 14.473 26.6572C14.3609 26.4707 14.0749 26.6805 13.9899 26.8281C13.8547 27.0728 13.1977 27.7643 12.9001 27.8187L12.7416 27.9819L12.2624 28.382C12.0074 28.5957 11.7136 28.7744 11.5243 29.0502C11.4856 29.1085 11.4547 29.2522 11.4006 29.2639C11.3349 29.2794 11.1997 29.2794 11.1146 29.2794C11.0296 29.2794 10.9407 29.4736 10.8712 29.528L10.1562 30.1301C10.0557 30.2156 9.97071 30.3477 9.87023 30.4332L9.54173 30.6973L9.13208 31.0236L8.74562 31.552C8.67606 31.6452 8.61422 31.6957 8.64514 31.8239C8.94658 31.6102 9.22097 31.416 9.50695 31.1907C10.0751 30.7401 10.1871 31.1246 10.8093 31.2023C10.8055 30.8721 10.6973 30.5614 10.8866 30.3283L11.3813 29.7223C11.5552 29.5125 11.6441 29.4037 11.876 29.2677C13.1242 28.5374 12.645 28.6734 13.3677 28.0712C13.503 27.9586 13.5803 27.6245 13.8546 27.7294C14.2141 27.8692 14.017 28.18 14.0324 28.417C14.0556 28.786 14.2527 29.932 14.2179 30.0952C14.1831 30.2583 14.1561 30.3943 14.1561 30.5575L14.1445 31.0198C14.3455 30.9032 14.5928 31.0314 14.5889 30.9459C14.5657 30.5847 14.5194 30.9654 14.5116 30.1418C14.5116 29.9243 14.531 29.7378 14.5696 29.5125C14.5889 29.4037 14.6005 28.7122 14.8363 28.7899C14.8826 28.8054 14.9174 28.9336 14.9174 28.9841V29.5086C14.9213 30.1107 14.7783 29.6756 14.9251 30.2739C14.9483 30.371 14.9367 30.5847 14.9174 30.6857C14.8904 30.8294 14.8981 30.8838 14.9174 31.0314C14.9367 31.179 14.8633 31.4393 14.871 31.6102L14.8942 32.0143C14.902 32.1386 14.8556 32.3056 14.844 32.426C14.8324 32.527 14.9058 32.7057 14.8904 32.8378L14.8208 33.4555C14.8208 33.4555 14.6392 34.0887 14.9406 34.2324C14.7396 34.6015 14.7976 35.0055 14.8788 35.4018C14.929 35.6504 14.786 35.965 14.871 36.2214L14.7203 36.3768C14.7358 36.4701 14.7474 36.6255 14.7706 36.6954L14.9174 37.1149C14.9367 37.1693 15.0218 37.2626 15.0759 37.2664C15.2652 37.2742 15.2305 36.8624 15.3696 36.8469C15.4623 36.8352 15.6208 36.8974 15.6826 36.9518C15.8604 37.0955 15.5319 37.2043 16.1425 37.5695C16.7106 37.9113 16.8575 37.8181 17.213 38.2104L17.584 38.4124L17.9627 38.6183C18.2178 38.7582 18.442 38.8864 18.5502 39.1855L19.1337 39.4147C19.3501 39.5002 19.6013 39.6828 19.8525 39.6245C20.1733 39.5507 20.3936 39.2515 20.6602 39.0845C21.553 38.5329 21.4023 38.2221 22.2602 37.9385C22.5075 37.8569 22.4921 37.2975 22.2795 37.2121C21.9588 37.0839 21.7423 36.9052 21.4757 36.707L21.1781 36.4856C21.0854 36.3652 21.0197 36.2953 20.9037 36.2214C20.5945 36.0233 20.3124 35.7514 20.0033 35.5805C19.783 35.46 19.698 35.3823 19.5975 35.1454C19.5434 35.0172 19.2535 34.8734 19.2226 34.7258C19.2342 34.3801 19.1994 34.112 19.0487 33.809V33.3467C19.0487 33.1797 19.0873 33.0087 19.0989 32.8611L19.1608 31.9288L19.2187 30.8954C19.2265 30.7284 19.1608 30.5847 19.126 30.4332C19.0255 30.002 19.1917 29.5358 19.1569 29.0929C19.1299 28.7511 19.1221 28.2538 19.3424 27.9897C19.3695 27.9042 19.3772 27.6905 19.4236 27.6167L19.9298 26.8475L20.2545 26.5018C20.7337 25.989 20.4245 26.3891 20.9694 25.8336C21.0815 25.721 21.2825 25.6627 21.3945 25.5694L22.6699 24.5128C22.7665 24.4351 22.9017 24.3729 23.0022 24.2991L23.5123 23.934C23.7442 23.7669 23.8331 23.4833 24.1693 23.4056C24.2466 23.3862 24.7258 22.9744 25.0582 22.8695C25.3287 22.7841 25.4601 22.7608 25.5413 22.4345C25.7306 22.2829 26.0591 22.0615 26.2833 21.9566C26.5577 21.8284 26.7432 22.0071 26.8514 22.1703C27.0253 22.4306 27.0214 22.6365 26.9866 22.9162C26.9866 22.9434 27.0021 23.6892 26.9866 23.9806L26.9634 24.4701C26.9557 24.6293 26.9866 24.808 26.9866 24.979C26.9866 25.1499 26.8823 25.383 26.8707 25.5656C26.8591 25.7481 26.8359 25.9463 26.7934 26.125C26.9596 26.3619 26.9325 26.6222 26.9325 26.9097V27.5779L26.89 30.0913C26.8784 30.7983 27.1219 31.1052 26.9557 31.653L26.8205 32.0997C26.9634 32.8301 26.7973 32.8417 26.9171 33.6536C26.9403 33.8012 26.9905 33.9955 26.975 34.1353L26.8977 34.6986C26.8591 34.9861 26.9132 35.2658 26.832 35.5494C26.7548 35.8135 26.8436 36.1088 26.8243 36.3885L26.7857 36.979C26.7702 37.2004 26.8089 37.383 26.8475 37.6044C26.8939 37.8453 26.8127 38.1444 26.7973 38.3969L26.7432 39.2826C26.7393 39.3642 26.5422 39.4808 26.4881 39.4341L26.4263 38.8786C26.4069 38.7193 26.4688 38.5562 26.4572 38.3852L26.4224 37.721C26.4224 37.7831 26.577 36.7575 26.5847 36.707C26.6272 36.4662 26.4649 36.1632 26.4804 35.9068C26.519 35.2813 26.3451 35.2541 26.4804 34.248C26.5074 34.0499 26.4997 33.9994 26.4263 33.8168C26.3258 33.5759 26.4533 33.2302 26.461 32.9699C26.4688 32.6941 26.4842 32.4493 26.519 32.1813C26.6311 31.3072 26.4881 30.9421 26.4958 30.8527L26.5808 29.7689C26.604 29.4503 26.5074 29.1784 26.5577 28.8404C26.577 28.7044 26.6581 28.4558 26.6427 28.3276L26.5924 27.9314C26.5267 27.4264 26.5074 27.2865 26.5731 26.7621L26.6581 26.0939C26.6697 26.0007 26.7509 25.8297 26.7045 25.7481C26.604 25.5733 26.5924 25.4218 26.5963 25.2276L26.6079 24.7808L26.5267 24.303L26.5615 23.0871C26.5693 22.7919 26.577 22.4927 26.3065 22.2946L25.7152 22.9084C25.6572 22.9705 25.464 22.9395 25.3983 22.9783L25.0814 23.1726C24.7026 23.8135 24.7683 23.2503 24.1114 23.9612L23.7326 24.3691C23.5626 24.5555 23.35 24.7109 23.1336 24.8508L22.4843 25.2664C22.2331 25.4257 21.9935 25.8181 21.0699 26.3309C20.9037 26.4241 20.7298 26.7698 20.5289 26.867C20.2467 27.4613 20.154 27.0262 19.8641 27.675L19.5163 28.0246L19.5009 29.0075C19.5086 28.4558 19.5782 31.2295 19.4854 30.3982L19.5743 31.1946C19.5588 31.0703 19.3849 33.0282 19.7482 32.9077C19.7868 32.8961 19.8255 32.8106 19.8332 32.764C19.9723 31.8589 20.0071 32.628 19.8371 31.4587C19.9762 31.179 19.9569 30.9382 19.953 30.6585C19.9492 30.27 19.9569 29.9126 19.9028 29.5241C19.8525 29.1784 19.926 28.5335 20.2081 28.2072L20.1617 27.9275C20.2274 27.5507 20.5327 27.372 20.8612 27.2749C21.0699 27.2127 21.2129 26.9641 21.3791 26.8436L21.9472 26.4319C22.1636 26.2726 22.3839 26.0589 22.6273 25.9502C22.8206 25.8647 22.979 25.8142 23.0911 25.6161L23.466 25.3674C23.8486 24.7614 24.0534 25.0411 24.7993 24.3613C24.9307 24.2409 25.0273 24.1282 25.1896 24.0505C25.4988 23.899 25.1934 23.864 25.7036 23.4212C25.862 23.4056 26.0166 23.5571 26.1055 23.6465C26.2639 23.8097 26.1789 23.9922 26.1944 24.202C26.206 24.3846 26.3374 24.6332 26.2987 24.8158C26.2562 25.0256 26.2137 25.2082 26.2794 25.4063C26.3335 25.5656 26.2485 25.7248 26.2524 25.8647L26.2639 26.5445C26.2755 27.1078 26.1789 28.4364 26.2021 28.685C26.2524 29.2638 26.1557 29.7417 26.1789 30.4099L26.1983 30.9576C26.1983 31.0625 26.1596 31.2295 26.0939 31.2956C25.7268 31.3228 25.8813 30.2894 25.9007 30.0835C25.9316 29.7417 25.9045 29.3882 25.9161 29.0424L25.9277 28.5413L25.9355 28.0052L25.8929 26.9874L25.8543 25.7015C25.8388 25.2315 26.0784 24.777 25.5838 24.4584L25.1084 24.4701C25.0234 24.5478 24.865 24.6721 24.807 24.7498L24.5171 25.1382C24.2775 25.4607 23.9761 25.6238 23.6437 25.7987L23.1529 26.0589C22.9636 26.1599 22.5307 26.6611 22.1868 26.9252L21.7307 27.2787C21.5916 27.3836 21.495 27.4691 21.352 27.5313L21.0197 27.675L20.7221 27.9391C20.5443 28.0984 20.4013 28.2577 20.4245 28.4986L20.4516 28.8365C20.4747 29.124 20.4632 29.3843 20.3511 29.664C20.2854 29.831 20.3433 30.0408 20.3511 30.2195L20.4013 31.5054V32.0453C20.4129 32.9971 20.5289 33.1253 20.2622 34.1548C20.2545 34.1819 20.181 34.1975 20.1617 34.1703C19.8835 33.774 19.9376 33.9489 19.8796 33.5954L19.7907 33.0593C19.7752 33.0126 19.6091 33.1136 19.6129 33.1719L19.6245 33.743C19.6245 33.91 19.5356 34.1314 19.4699 34.3063C19.7637 35.2619 20.3743 35.2852 21.0274 35.9145C21.2825 36.0155 21.6419 36.2098 21.8235 36.4351C21.9897 36.6371 22.5848 37.0839 22.8901 37.2082C23.1645 37.3208 23.3307 37.5889 23.2264 37.9035C23.1066 37.9502 22.8785 37.9735 22.7819 38.0279L22.3027 38.3037C22.1056 38.4163 21.7346 38.7815 21.3134 39.069C20.5211 39.6128 20.9462 39.17 20.2429 39.5973C20.2158 39.5973 20.1656 39.5973 20.1424 39.5973C20.1115 39.5973 20.1308 39.7371 20.1115 39.7605L19.8448 40.0907C19.6323 40.0907 19.4777 39.9935 19.3192 39.877L18.3956 39.201L17.499 38.63C17.3985 38.5639 17.2439 38.4008 17.1434 38.3542C16.8575 38.2143 16.5715 38.09 16.2971 37.9346L15.8565 37.6782L15.5551 37.6316V38.0162C16.3937 38.1599 16.5676 38.6028 17.1705 38.8048C17.1975 38.8126 17.271 38.8786 17.2555 38.898C17.2401 38.9175 17.1744 38.9718 17.1434 38.968L16.757 38.9213L16.0691 38.4474C15.3928 37.9812 15.6324 38.3037 15.1879 38.0007C14.902 37.8025 15.1648 37.6549 14.9561 37.4956C14.8672 37.4296 14.6933 37.8841 14.4421 37.7365C14.3957 37.7093 14.473 37.5345 14.4962 37.5151L14.2566 37.2159L14.1909 37.4218C13.9706 37.5617 13.8469 37.3286 13.7039 37.2626C13.4682 37.1538 13.2054 37.0489 13.1629 36.7653C13.0701 36.8042 12.5484 36.4196 12.56 36.3341C12.3784 36.3924 11.4354 36.1437 11.3272 36.0661C10.7359 35.6387 10.7668 35.7708 10.3185 35.3241C10.1214 35.2153 9.80453 35.1648 9.70018 34.9667C9.58038 34.7336 9.43739 34.7297 9.25961 34.6287L8.29732 34.0693C8.27027 34.213 8.41326 34.2907 8.49442 34.3995C9.02774 35.1143 8.96977 34.6947 9.44898 35.258L9.75429 35.6154C10.0789 35.7203 10.2374 35.934 10.3958 36.2137C10.4229 36.2642 10.5156 36.3535 10.504 36.404C10.4924 36.4545 10.3919 36.5439 10.3417 36.5594C10.0712 36.6371 9.90501 36.3963 9.74269 36.2253C9.71178 36.1942 9.17846 35.8291 8.72243 35.3046C8.18139 34.6831 8.16979 35.1143 7.81038 34.45C7.44324 34.1004 7.17272 34.011 6.93698 33.5177L6.67032 32.9505C6.43844 32.4571 6.43458 32.0259 6.77466 31.6064C7.06838 31.2451 7.36209 30.9226 7.79492 30.7012C7.9611 30.6157 8.06158 30.4137 8.17366 30.2583C8.45191 29.8621 8.73789 29.9631 9.08184 29.4076C9.12822 29.3338 9.24029 29.1978 9.30599 29.1434C9.7852 28.7588 10.4151 28.1839 10.7939 27.7061C10.9446 27.5157 11.1803 27.3992 11.3813 27.2632C11.4586 27.2088 11.5629 27.0884 11.6364 27.0457C11.8489 26.9252 12.0035 26.8087 12.1697 26.6455C12.3359 26.4824 12.3822 26.2065 12.1851 26.0667L11.2074 25.383C11.0373 25.2626 10.9137 25.1771 10.763 25.0178C10.5929 24.8352 9.72337 24.1321 9.48376 23.9612L9.08957 23.6776L8.56785 23.2658C8.3437 23.091 8.1582 22.8268 7.94951 22.6248L7.38141 22.0732L6.55438 21.1797C6.43844 21.0554 6.33796 20.9 6.15246 20.8611C5.90899 20.8106 5.766 20.6747 5.64619 20.4727C5.54958 20.3095 5.52639 20.1852 5.66165 20.0104L6.02106 19.5481L7.01427 18.5342L7.38914 18.0758C7.67512 17.7261 8.1466 17.5669 8.47123 17.26L9.05479 16.7083C9.31372 16.4636 9.54946 16.2072 9.77747 15.9275C9.97071 15.6944 10.3069 15.6012 10.5079 15.3953C10.589 15.3098 10.6741 15.1505 10.7707 15.0651L11.4161 14.4862C11.5823 14.3386 12.0576 13.8453 12.2624 13.9735C12.3088 14.0045 12.3281 14.1483 12.2895 14.1871L11.8682 14.6028C11.7059 14.7621 11.4934 14.8708 11.3349 15.0068L10.7359 15.5235C10.5929 15.6478 10.5002 15.7838 10.2953 15.842C10.2064 15.9158 10.0403 16.0635 9.97071 16.1567C9.77747 16.4092 9.58811 16.584 9.37942 16.8054L8.78427 17.4309C8.69538 17.5241 8.51374 17.629 8.44805 17.7106L8.13887 18.1068C8.03067 18.2467 7.85676 18.3088 7.7215 18.4254C7.62102 18.5109 7.49348 18.7051 7.4046 18.8216L7.11475 19.1868C6.91379 19.4393 6.68191 19.6685 6.3882 19.8317L6.22202 20.3794C6.40366 20.5581 6.5196 20.7252 6.64713 20.9349C7.21137 20.966 7.31571 21.5215 7.36595 21.4166L7.41619 21.3156C7.47803 21.1874 7.23069 21.0515 7.10702 20.9854C7.08383 20.9738 6.40366 20.2473 6.85969 19.7074C7.11089 19.4082 7.43551 19.214 7.69444 18.9382L8.05772 18.5536C8.13501 18.472 8.33211 18.4914 8.35143 18.5808C8.38621 18.7556 8.42486 18.8449 8.5408 18.9848L8.5949 18.6546L8.35916 18.4759C8.38621 18.2661 8.54466 18.1068 8.73016 18.0097C8.91566 17.9126 9.01614 17.6717 9.15914 17.5319C9.31758 17.3804 9.42579 17.2561 9.55333 17.089C9.75815 16.821 10.0673 16.619 10.2953 16.3665C10.4654 16.18 10.6625 16.0907 10.875 15.9469C10.991 15.8692 11.4779 15.3681 11.6982 15.2632L11.8837 15.0262C12.4904 14.7815 12.2624 14.4357 13.159 14.2376L13.0044 14.0939C12.9735 14.0667 13.0547 13.9579 13.0895 13.9307L13.7271 13.3519C13.8315 13.2587 14.4846 12.7614 14.1368 12.505L13.9976 12.404C13.8353 12.2875 14.5967 11.9806 14.4034 11.293C14.3648 11.1609 14.3339 10.9861 14.2257 10.9123L13.6344 11.0987C13.7271 11.3746 13.3948 11.3707 13.3213 11.4717C13.1822 11.6776 12.9928 11.8252 12.8537 12.0155L12.4402 12.5905C12.2199 12.8935 11.7755 12.9712 11.4702 13.1926C11.219 13.3752 11.0373 13.6821 10.7011 13.7443C10.3224 13.8142 10.0519 13.5189 9.86636 13.2198L9.48763 13.0256C9.19005 12.8702 8.77654 12.4934 8.51761 12.2758L7.82971 11.6931C7.60169 11.4989 7.43551 11.2347 7.15726 11.0987C6.24521 10.6442 6.71283 10.5432 6.0713 10.0887C5.60755 9.76239 5.6346 9.19522 5.90512 8.69408C5.73895 8.7407 5.51866 8.82228 5.41432 8.8922C4.93124 9.52542 5.07037 9.09033 4.60275 9.70023C4.41338 9.94886 3.97281 10.2558 3.72161 10.2713C3.3081 11.0055 2.62406 11.0366 2.4772 11.5066C2.61247 11.8058 2.83661 11.9728 3.06463 12.1787C3.22694 12.3224 3.38926 12.5905 3.55157 12.6798C3.76412 12.8003 4.3129 13.1227 4.1931 13.4335L4.61821 13.7676L4.67617 14.0473L5.1322 14.4163C5.20949 14.4785 5.27519 14.6067 5.34475 14.6921C5.54958 14.9408 5.77759 15.17 6.02493 15.3759C6.2568 15.574 6.45004 15.7915 6.66259 16.0052C6.9022 16.2422 7.17272 16.5568 7.26161 16.8909C7.37368 17.3105 7.14953 17.528 6.87901 17.7766C6.60848 18.0253 6.41139 18.3205 6.0829 18.4759C5.766 19.1052 5.68098 18.8993 5.36408 19.315C5.16698 19.5753 4.97375 19.8084 4.71482 20.0026L4.29358 20.3173L3.57089 20.9427L3.23081 21.3351C3.08009 21.506 2.93709 21.6264 2.75159 21.7585L2.36127 22.0266C2.2376 22.112 2.17963 22.2441 2.07142 22.3412L1.70042 22.6598C1.58834 22.7569 1.49173 22.955 1.39898 23.0871C1.46081 23.2464 1.76611 23.662 1.89751 23.7358L2.22214 23.9145C2.45015 24.0389 2.65498 24.2214 2.86367 24.3924C3.15738 24.6332 3.4395 24.843 3.76026 25.0722C3.83755 25.1266 4.3129 25.5733 4.51772 25.7054C4.73414 25.8414 4.88486 26.0279 5.07037 26.191C5.68484 26.7232 6.11768 27.0962 6.63167 27.7643C6.99495 28.2344 7.12634 28.1645 7.3389 28.5685L7.51281 28.8948C7.61329 29.0852 7.74468 29.2095 7.69831 29.4697C7.64807 29.7572 7.47802 30.002 7.30412 30.2467C7.02586 30.6352 7.2191 30.8139 6.65486 31.1635C6.44617 31.2917 6.30318 31.4976 6.11768 31.653L5.60755 32.0803C5.49934 32.1696 5.41432 32.2745 5.30224 32.3561C5.13606 32.4727 5.0008 32.6164 4.93124 32.8067C4.84235 33.0476 4.55251 33.1408 4.42111 33.3118C3.80663 34.1237 3.88393 33.3933 3.34288 34.3917L2.90618 34.6986C2.78251 34.788 2.6743 34.9201 2.65498 35.0482C2.62793 35.2036 2.69749 35.3707 2.80183 35.4756C3.16897 35.8446 3.1883 35.9456 3.50906 36.2253C3.7448 36.3341 3.97668 36.4429 4.18923 36.5827L4.71869 36.9362C4.89259 37.0528 5.07423 37.1421 5.28678 37.2004C5.66938 37.4451 5.78146 37.6821 6.19497 37.8297C6.43844 37.9191 6.62781 38.0589 6.82877 38.2221L7.18045 38.5057C7.30412 38.6067 7.46643 38.665 7.57078 38.8048C7.68671 38.9602 7.83743 39.0573 7.99975 39.1544L8.73403 39.5973C9.11276 39.574 9.47603 39.438 9.83544 39.302C10.0364 39.2244 10.2915 39.2088 10.4654 39.1117C10.8441 38.8942 11.1185 38.6067 11.4934 38.4202L11.9764 38.1794C12.0576 38.1405 12.2199 37.9812 12.2624 38.0822C12.3552 38.3153 12.0305 38.3581 11.9107 38.4552C11.5204 38.7776 11.1185 39.0418 10.6509 39.2438C10.4924 39.3098 10.3765 39.4069 10.2721 39.5507L9.98616 39.6556C9.90501 39.8809 9.65381 39.9275 9.48376 39.9935L9.15914 40.2422C8.88861 41.1162 7.22296 39.1972 7.19204 39.1739L6.58143 38.7737C6.24135 38.5484 6.04039 38.3037 5.65779 38.1172C5.39499 37.989 5.20563 37.6471 4.9467 37.4684C4.4327 37.3364 4.61821 37.5461 4.13126 37.1149C3.78345 37.181 3.64046 36.7692 3.45109 36.6604C3.11873 36.4701 2.75932 36.2991 2.45788 36.0155C2.25692 35.8252 1.95935 35.6931 1.8009 35.46C1.64245 35.2269 1.75839 35.0211 1.95162 34.8851C2.39991 34.5704 2.34967 34.349 2.69362 34.2635C3.09168 34.1664 2.94482 33.9566 3.39698 33.5099C3.60181 33.3079 3.80663 33.1719 4.08489 33.0748L4.26652 32.8262C4.4443 32.5814 4.95056 31.9909 5.22495 31.9249C5.1322 31.7617 5.69257 31.2528 5.83943 31.1169C6.33023 30.6662 6.34569 30.5264 6.8249 30.169C6.96789 29.8466 7.2732 29.7883 7.09156 29.4581L6.92152 29.4387C6.87901 29.4348 6.85582 29.291 6.89447 29.2677C6.93311 29.2444 7.022 29.2444 7.09929 29.2522C7.17272 29.26 7.20364 29.089 7.1534 29.0424L6.79785 28.7161L6.66259 29.5319C6.43458 29.7222 6.26067 29.9165 6.2027 30.2078L5.90126 30.5419L5.53026 30.8954C5.21336 31.1985 4.99307 31.4859 4.64912 31.754C4.37473 31.9676 4.09262 32.2318 3.83755 32.4765C3.625 32.6785 3.48201 32.865 3.20375 32.9932C2.7941 33.541 2.58541 33.405 2.26079 33.8284L1.9748 34.1936C1.87432 34.3257 1.66563 34.4306 1.54197 34.5355C1.49173 34.5782 1.16323 35.1687 1.02797 35.2347C0.900439 35.0871 0.877252 34.9356 0.908169 34.8113C0.94295 34.6792 1.08981 34.6015 1.16323 34.5044C1.63472 33.9178 1.87046 33.6264 2.50812 33.1836C2.71295 33.0437 2.83275 32.7757 3.01052 32.5892C3.11487 32.4804 3.26559 32.3755 3.38926 32.2823C3.70229 32.0453 3.91484 31.8472 4.1931 31.5753L4.59115 31.1868L5.15539 30.7828C5.40272 30.6041 5.59982 30.3671 5.89739 30.2389C5.86261 30.033 5.92445 29.8349 6.00174 29.6368L6.19497 29.1434C6.27613 28.9375 5.85102 28.72 5.68484 28.4014C5.39499 28.3354 5.27133 27.9663 5.07423 27.8615C4.80757 27.7177 4.61434 27.6089 4.39406 27.3992L3.84528 26.8786C3.01825 26.09 3.86074 26.5989 2.69362 25.9113C2.15644 25.5928 2.40378 25.6238 1.90138 25.1654L1.38738 24.6993L0.865658 24.1981L0.471466 23.8097C0.336205 23.6737 0.115921 23.5571 0.0308996 23.3668C-0.104362 23.0599 0.200943 22.5044 0.378716 22.2985C0.69175 21.9333 1.30236 21.7896 2.01345 20.7174C2.28784 20.3017 2.67044 20.0414 3.06076 19.7579C3.30037 19.583 3.50133 19.3461 3.71002 19.1402L4.03078 18.8255L5.01626 17.9048C5.15925 17.7727 5.30224 17.6989 5.35635 17.5241C5.54571 16.9259 4.88486 16.9336 4.96602 16.2072L4.5641 16.0596C4.48294 16.0324 4.37473 15.8886 4.32063 15.7993C4.05784 15.7216 3.84142 15.5274 3.6791 15.2787C3.4936 14.9952 3.10714 14.9019 2.89458 14.6533L2.46948 14.1522C2.26079 13.9074 2.07142 13.6122 1.94389 13.3441C1.51491 13.2159 1.31395 12.8508 1.03184 12.5672C0.900439 12.4312 0.749719 12.4001 0.684021 12.1632C0.637645 12 0.525571 11.8796 0.649239 11.6426L0.912033 11.1415C1.08594 10.8074 1.74293 10.485 2.21055 9.92943C2.81343 9.21464 3.53998 9.0476 3.82209 8.68243C4.02692 8.41438 4.30904 8.30949 4.57956 8.10749C4.80371 7.94044 5.08196 7.65685 5.22882 7.43154C5.4491 7.09356 5.69643 6.96925 5.99401 6.74005C6.21429 6.56912 6.46163 6.31273 6.65873 6.11849C6.81717 5.96699 6.74761 5.66398 7.04132 5.56686C7.16499 5.52412 7.33503 5.31435 7.4587 5.24831C8.06931 4.90645 7.48575 5.10457 8.25481 4.5102C8.35529 4.43251 8.50601 4.34704 8.62195 4.29266C8.90407 3.8498 9.30213 3.56232 9.67699 3.20104L10.3456 2.55617C10.5504 2.35805 10.8402 2.22597 10.9678 1.97346C11.4586 0.986734 11.3504 1.36744 11.9958 0.808035C12.3706 0.485601 12.6566 -0.0388411 13.2131 0.0349692C13.3909 0.0582778 13.7078 0.757533 14.1754 0.924578C14.5387 1.05666 14.6778 1.2509 14.9329 1.48398C15.6401 2.13662 15.4314 1.86857 16.0768 2.28813L17.2517 3.05342C17.5067 3.22047 17.7618 3.33701 17.9511 3.60117C18.04 3.72548 18.2101 3.79929 18.3376 3.88087L18.9289 4.26546C18.9328 4.43251 19.0216 4.39755 19.1299 4.45582L20.5791 5.19392C20.8767 5.34543 21.1279 5.02299 21.3366 4.8948C22.4109 4.22662 22.5423 3.47686 22.9365 3.22435C23.5703 2.82034 23.4235 2.82811 24.0263 2.29978C24.1655 2.17935 24.32 2.09 24.4283 1.92296C24.5597 1.72095 24.7761 1.46456 24.9654 1.34413C24.9964 1.32471 25.1548 1.34025 25.1625 1.37132L25.1934 1.49564L25.2707 1.55391C25.2707 1.55391 25.3017 1.53448 25.3248 1.51118C25.464 1.28586 25.6224 1.10328 25.8041 0.909039C25.9355 0.765303 26.0669 0.644875 26.2833 0.745879C26.604 0.8935 26.8746 1.16932 27.176 1.34802C27.5393 1.56556 27.8755 1.77534 28.2233 2.01231C28.4938 2.19489 28.7991 2.31532 29.031 2.58337L29.3363 2.94076C29.4832 2.99127 29.5991 3.04177 29.7228 3.09615C30.4493 3.43024 30.1788 3.41859 30.9054 3.88476C31.543 4.29266 31.2261 3.70995 32.057 4.4869C32.1614 4.58401 32.285 4.70444 32.3894 4.78602C32.5594 4.9181 32.7411 5.01522 32.8686 5.19392C33.1932 5.65621 32.8956 6.0408 32.6406 6.49143C32.5633 6.62739 32.5246 6.8799 32.428 7.00033C32.1575 7.33442 32.1343 7.67628 32.0918 8.06864L32.03 8.62804L31.9333 9.57204L31.8329 10.4345C31.7942 10.7841 31.7633 11.1454 31.7826 11.495C31.7942 11.7242 31.7517 11.8912 31.7633 12.1166L31.7865 12.5711C31.802 12.9052 31.7131 13.1887 31.6628 13.5034C31.6396 13.6549 31.6628 13.888 31.6551 14.055L31.601 14.9718C31.5933 15.0767 31.5933 15.2088 31.5971 15.3176L31.6164 16.5219C31.6164 16.6423 31.7942 17.8854 31.3884 17.9709C31.1411 18.0214 31.1604 17.2949 31.2802 17.058L31.2261 16.5296C31.1759 16.0401 31.2377 15.5934 31.3227 15.1233C31.2957 14.9369 31.2725 14.6999 31.2841 14.494L31.3459 13.2354C31.3614 12.8818 31.3266 12.54 31.3343 12.1787L31.3575 11.1997L31.3962 9.68469C31.4078 9.25737 31.3884 8.8689 31.4232 8.44934C31.4928 7.64908 31.5392 6.71674 32.1768 6.15345C32.1459 5.85433 32.7642 5.50859 32.4512 5.34154C32.1034 5.15896 32.0802 5.01911 31.7363 4.87926C31.257 4.68502 30.6619 4.31597 30.345 3.92749C30.1904 3.93915 30.0204 3.9003 29.8812 3.81483L29.2745 3.43801C29.0426 3.29428 28.7489 3.17773 28.5905 2.94076C28.2736 2.46682 28.088 2.73487 27.7132 2.3464C27.1296 1.73649 26.9093 1.8103 26.2949 1.34802C26.1326 1.37909 25.947 1.51894 25.8311 1.66657C25.1934 1.74426 24.7065 2.68049 24.463 2.79703L24.0418 3.00292C23.7635 3.35255 23.8331 3.62448 23.4582 3.79153L23.0254 3.98576C22.7858 4.94141 22.6235 4.31208 22.1868 4.99968C22.0167 5.27162 21.7771 5.43866 21.4177 5.3765C21.4023 5.41924 21.4023 5.55909 21.4486 5.58628C21.495 5.61347 21.6109 5.64844 21.665 5.67563L22.1597 5.92425C22.2293 5.95922 22.3259 6.06411 22.3491 6.13015C22.3761 6.21173 22.2641 6.39819 22.1829 6.37877C22.0592 6.34769 21.924 6.30108 21.8351 6.3205C21.7539 6.33604 21.6496 6.46812 21.6109 6.5497L21.3984 6.98479C21.3095 7.17126 21.1936 7.37327 21.0699 7.53254L20.7491 7.94433C20.5443 8.20849 20.4052 8.48042 20.5675 8.80286L20.552 9.23018L20.4902 10.4267C20.4863 10.5355 20.4747 10.6559 20.4825 10.753L20.5173 11.1609C20.5366 11.3862 20.4593 11.7436 20.4554 11.9534C20.6332 12.3186 20.44 12.4623 20.467 13.0062L20.3859 13.1887C20.5443 13.4879 20.525 13.7715 20.4554 14.0939C20.4322 14.2065 20.5134 14.4474 20.5018 14.5601L20.4438 15.1078C20.4129 15.3759 20.4979 15.6361 20.4979 15.9042V16.7899L20.5482 17.5164C20.5714 17.8388 20.3356 18.4914 20.5868 18.9615C20.8883 18.8061 21.1858 18.6934 21.4525 18.5303L21.9394 18.2273L22.4689 17.6912C22.6273 17.5319 22.8863 17.4503 23.0331 17.2949C23.2264 17.0929 23.4003 16.922 23.609 16.7355L23.9143 16.4675C24.1345 15.9974 24.1539 16.1955 24.6988 15.8848L24.9268 16.1023C24.7258 16.4325 24.4283 16.6267 24.1423 16.8715C23.8756 17.1007 23.6244 17.3377 23.3771 17.5824C22.894 18.068 23.064 17.6834 22.6892 18.1185C22.581 18.2428 22.3761 18.3749 22.295 18.4837C22.1095 18.7439 21.8351 19.012 21.5762 19.1557L21.1124 19.416C21.0274 19.4626 20.9385 19.552 20.838 19.5597C20.6409 19.5714 20.3704 19.6102 20.2467 19.4743L19.9994 19.2062C19.7018 18.8838 19.9337 18.0369 19.9376 17.6601L19.953 16.72L19.9685 15.8459C19.9839 14.968 20.1115 14.1017 20.0651 13.2159C20.0419 12.7886 19.9878 12.4001 20.011 11.9767L20.069 10.9939C20.1037 10.3995 20.0419 10.1703 20.0767 9.61865C20.0999 9.25737 20.1037 8.90774 20.1037 8.55423C20.1037 8.4105 20.1115 8.31726 20.1965 8.19295L20.2622 7.72289C20.2815 7.58693 20.7182 7.45485 20.5598 7.2878C20.4168 7.14018 20.3549 6.73617 20.6139 6.66236C20.7453 6.62351 20.9269 6.61963 21.0197 6.52251C21.0892 6.44481 21.2129 6.22338 21.1395 6.14957C21.0003 6.00972 20.8419 5.90872 20.695 5.79994C20.3318 5.53966 19.9492 5.38039 19.5472 5.18615C19.3695 5.10069 19.2072 4.97637 18.9985 4.90645C18.7434 4.82098 18.5463 4.54905 18.3724 4.38201C18.0014 4.281 17.6652 4.11784 17.4062 3.80706C17.1782 3.53513 16.9 3.52736 16.5212 3.23601L16.2469 3.02234C15.8797 2.73876 15.4585 2.63387 15.1107 2.33863L14.3725 1.71318C14.1793 1.55002 13.9783 1.31694 13.7696 1.15766C13.5107 0.955656 13.3213 0.769187 13.0817 0.50114C12.8576 0.598258 12.618 0.73811 12.4402 0.866306C12.4904 1.2004 12.1697 1.31694 12.0344 1.54614C11.8914 1.79088 11.7639 1.94627 11.5552 2.12497C11.4624 2.20266 11.3581 2.31143 11.2576 2.40467L10.9948 2.63387C10.848 2.76207 10.7088 2.90192 10.5427 3.01457C10.4847 3.05342 10.3688 3.16608 10.3301 3.22435C10.0712 3.60117 9.78134 3.74879 9.46444 4.07123C9.2287 4.31208 9.0316 4.54517 8.77267 4.75494L8.23549 5.19004C8.08477 5.31046 7.68285 5.92425 7.16499 6.16899L6.80558 6.58078C6.73215 6.66624 6.65486 6.77113 6.56984 6.84106L6.19884 7.15572L5.62687 7.65297C5.18244 8.03756 4.87327 8.35611 4.32063 8.69797C4.18537 8.77955 4.05784 8.97767 3.93417 9.08644L3.20375 9.72354L2.8057 10.0615L2.39218 10.3801L1.94775 10.7452C1.83954 11.1298 1.81635 10.8346 1.42989 11.2619C1.36419 11.3318 1.17483 11.4523 1.17096 11.5416C1.16323 11.7786 1.49946 12.2991 1.59607 12.3574C1.92456 12.5594 2.00572 12.9829 2.26852 13.2043C2.53131 13.4257 2.78637 13.6199 3.01825 13.8802L3.56316 14.4901C3.8105 14.766 4.08489 15.0767 4.37473 15.2787C4.71096 15.5118 4.98921 15.6866 5.16312 16.0984C5.25973 16.3237 5.99015 16.8637 6.00174 17.2794C6.00947 17.5435 5.68484 17.664 5.55731 17.8155L5.21722 18.2156C5.04331 18.4215 4.29744 19.2218 4.13126 19.3694C3.48974 19.9249 2.94482 20.5076 2.32648 21.0942L1.55743 21.8245C1.24053 22.1237 1.00865 22.4306 0.79223 22.8268L0.471466 23.1376C0.479196 23.5727 0.927492 23.6154 1.10913 24.101C1.26758 24.101 1.43762 24.101 1.63472 24.136C1.47627 23.9029 1.26758 23.7009 0.981596 23.5533C0.807688 23.4639 0.730396 23.0949 0.881116 22.9628L1.20188 22.6831C1.33714 22.5665 1.68882 22.7569 1.62312 22.6403L1.57288 22.551C1.51105 22.4461 1.55742 22.3024 1.65018 22.213C2.07142 21.8051 2.18736 21.5604 2.56996 21.269C2.69749 21.1758 2.78251 21.0748 2.89072 20.966C3.27332 20.5814 4.04238 19.8977 4.47135 19.5636C5.04718 19.113 4.98148 19.0936 5.36794 18.6119C5.55344 18.3788 6.00174 17.8776 6.20656 17.6951L6.88674 17.1007C6.96789 17.0269 6.92925 16.7549 6.82877 16.7161C6.59689 16.6229 6.43071 16.4908 6.27999 16.3043C5.76986 15.6594 5.45683 15.8187 4.81144 14.6883C4.76506 14.6067 4.60275 14.4629 4.53705 14.3775C4.31676 14.3464 4.16218 14.1755 4.08489 13.9579L3.77958 13.686C3.57862 13.5073 3.4936 13.2315 3.31196 13.0683L2.52358 12.3691L2.17576 12.0155C1.92843 11.763 1.68109 11.697 1.74293 11.46C1.855 11.0482 2.85594 10.6015 3.20762 10.2713L3.82982 9.68858C3.97668 9.55261 4.08489 9.43219 4.2472 9.31953L4.73414 8.98544C4.90032 8.87278 4.98148 8.67077 5.1322 8.53869L6.09063 7.70736C6.30318 7.52477 6.48868 7.31111 6.71283 7.14407L7.43551 6.59632C7.50121 6.54581 7.62875 6.46035 7.67899 6.40596L8.29732 5.76498L8.69152 5.36873C8.83064 5.22888 8.98523 5.07349 9.11662 4.9181L9.60743 4.33539C9.8509 4.04403 10.1021 3.81483 10.4615 3.68275L10.7475 3.30205C10.8828 3.12335 11.018 3.00681 11.2267 2.93299C11.2538 2.82034 11.3195 2.60668 11.4509 2.58725C11.7021 2.55229 11.648 2.32697 11.76 2.20266C12.0924 1.83749 12.6759 1.30528 13.0469 1.0217C13.3445 1.04501 13.4411 1.29751 13.5764 1.48398C13.7812 1.76757 14.0633 1.96569 14.3571 2.19878L14.2257 2.42021L14.4421 2.30366C14.7087 2.61056 14.9522 2.90192 15.242 3.1855C15.8256 3.76045 15.8488 3.4924 16.3512 4.02461C16.4401 4.11784 16.5831 4.23827 16.6874 4.30043L17.1048 4.54517C17.1937 4.59567 17.298 4.74329 17.3599 4.82098C17.5183 4.89868 17.7695 5.01911 17.9241 5.11623L17.9589 5.42701L18.4458 5.3532C18.6661 5.46197 18.8477 5.53578 19.0796 5.53189C19.2651 5.52801 19.4545 5.69894 19.5936 5.72613C19.8951 5.78829 20.096 5.80771 20.1926 6.16511C20.3047 6.59243 19.9878 6.89933 19.8178 7.12076C19.7327 7.23342 19.6052 7.48981 19.5627 7.62578C19.4506 7.99483 19.3695 8.92717 19.3733 9.29233L19.3811 10.0304C19.3888 10.7297 19.3347 10.5432 19.3888 11.2231C19.4004 11.3513 19.439 11.5105 19.4236 11.6271C19.3927 11.9107 19.4042 12.1515 19.4004 12.4196C19.4004 12.8624 19.2497 13.3286 19.3695 13.7715C19.4352 14.0123 19.4931 14.2454 19.4815 14.5134L19.4274 15.5041C19.4081 15.8692 19.3811 16.2033 19.4042 16.5646C19.4468 17.2444 19.184 17.4348 19.2187 18.4409L19.2458 19.2218C19.2535 19.4898 19.2613 19.7384 19.2883 20.0026L19.3385 20.4998C19.3579 20.6747 19.3733 20.9388 19.497 21.0554C19.6709 21.2185 19.9028 21.0709 20.0419 20.9544L21.2554 19.921L21.8544 19.3966L22.5462 18.8139L22.8863 18.5808L23.2921 18.068C23.4428 17.8776 23.6321 17.7533 23.8215 17.6018L24.4167 17.1318C24.5519 17.023 24.6679 16.9453 24.7761 16.8093C25.2437 16.2422 24.8727 16.4325 25.464 16.1606C25.5915 16.1023 25.6727 15.8615 25.7693 15.7566L26.3219 15.1389C26.5113 14.9291 26.5963 14.7077 26.6427 14.4202C26.662 14.2959 26.7006 14.1405 26.7006 14.0123V12.7964L26.8011 12.5788L26.6156 11.8796C26.5499 11.9301 26.3528 11.9184 26.3181 11.8252C26.2562 11.662 26.4804 11.5727 26.6195 11.5144L26.5808 10.0576C26.5731 9.73908 26.6002 9.45161 26.5808 9.12529L26.3103 8.82228L26.1364 8.95048C26.0978 8.97767 26.1712 9.0981 26.1712 9.1486C26.1712 9.38168 26.1867 9.56815 26.2601 9.79347C26.3065 9.94109 26.1905 10.1936 26.1983 10.3373L26.2639 11.5261C26.2871 11.9573 26.1557 11.8407 26.2292 12.6293C26.2562 12.909 26.2794 13.1577 26.2833 13.4296L26.291 14.024C26.3026 14.6688 26.3412 14.4357 26.0398 14.9408C25.7886 15.0379 25.607 15.2127 25.4756 15.4536C25.3983 15.5934 25.1277 15.7449 25.0079 15.6051C24.834 15.4069 25.0505 15.1195 25.2591 15.0495L25.4292 14.731C25.719 14.5057 25.8157 14.1949 25.7306 13.8414C25.6147 13.383 25.6958 12.9207 25.7847 12.4545C25.9393 11.6348 25.6727 11.8485 25.8698 10.9783C25.8698 10.45 25.75 10.3373 25.835 9.81678C25.9045 9.39722 25.7268 8.94659 25.4949 8.71351L25.0273 8.24345C24.5867 7.80059 24.5519 7.87828 24.2466 7.61412C23.5162 6.98091 23.7945 7.3383 23.1645 6.93429L22.6235 6.58855C22.5539 6.51862 22.5887 6.2428 22.7008 6.20396C23.064 6.06799 23.6012 6.48366 23.8602 6.72063C24.1191 6.9576 24.6756 7.32665 24.9461 7.48204C25.5606 7.83167 25.0621 7.86275 25.5683 8.1036C25.8736 8.24734 25.8736 8.81063 26.0939 8.75235C26.1867 8.72905 26.2214 8.62027 26.2137 8.52704L26.1596 7.92102C25.7693 7.91325 25.3017 7.2878 25.1123 7.15184C24.8804 6.98091 24.6601 6.86048 24.4514 6.66624C23.8408 6.09518 23.0293 5.95922 22.353 5.51636C22.2177 5.326 22.4921 5.15507 22.5887 5.06572L22.9674 4.71221C23.4969 4.21885 23.064 4.95695 23.9645 3.95468C24.0457 3.86534 24.2118 3.78376 24.2969 3.70218C24.5171 3.48074 24.7258 3.28651 24.977 3.10392C25.1819 2.9563 25.2901 2.77372 25.3789 2.53675C25.4485 2.35028 25.6417 2.20655 25.7654 2.04727C25.9045 1.86857 26.1016 1.67433 26.3374 1.85303C26.7973 2.20266 27.2726 2.52898 27.7557 2.85918C27.891 2.95242 28.0185 3.06508 28.1653 3.13889L29.1585 3.65944C29.2784 3.7216 29.4291 3.81872 29.5411 3.89641L30.1247 4.29654C30.345 4.44805 30.5305 4.60344 30.7972 4.69667C30.9981 4.7666 31.2802 4.87537 31.2764 5.12788C31.2764 5.61736 31.1566 6.34769 30.9672 6.80998C30.9711 6.95371 30.9865 7.17903 30.9633 7.34996L30.8744 8.01037C30.8474 8.21237 31.0097 9.31564 30.9788 9.82066C30.9285 10.6287 31.0638 10.4694 30.9363 11.2619C30.9092 11.4328 30.8899 11.5727 30.9363 11.7358C30.9595 11.8058 30.9131 11.9689 30.9131 12.0466L30.9015 13.4723L30.8551 14.7038C30.8551 14.7931 30.7662 14.9718 30.801 15.0612C30.8165 15.0962 30.774 15.17 30.743 15.1855C30.7121 15.201 30.6078 15.1389 30.6039 15.1C30.4996 14.1832 30.6155 14.6999 30.5962 13.787C30.5885 13.3402 30.5228 13.08 30.5537 12.7808L30.6001 12.3186C30.6503 11.8291 30.6194 11.3784 30.5266 10.8967C30.4725 10.6326 30.5112 10.3179 30.4107 10.0771C30.3025 9.80512 30.2677 9.57981 30.287 9.2768L30.3295 8.59308C30.4184 7.20622 30.515 7.47039 30.6503 6.31661C30.7083 5.82325 30.9324 5.38427 30.631 5.23665C30.4261 5.13565 30.1711 5.04242 29.9701 4.8948C29.6996 4.70056 29.4136 4.5374 29.1624 4.32374C29.0542 4.2305 29.0233 4.05957 28.8223 4.04015C28.3972 3.99742 28.0996 3.76045 27.8368 3.47298L27.2842 3.14277L26.863 2.88638L26.2562 2.52121C26.063 2.4474 25.862 2.74264 25.7963 2.89803C25.6263 3.30205 25.0002 3.68664 24.6138 4.12173C24.3896 4.37812 24.2041 4.52963 23.8988 4.70444C23.8408 4.7394 23.2186 5.21723 23.2766 5.33377C23.2959 5.37262 23.3655 5.43478 23.408 5.4542L24.0418 5.76886C24.9848 6.23503 24.4978 6.20007 25.5103 6.78667C25.6533 6.87213 25.75 7.1363 25.8698 7.24118C25.9625 7.32276 26.1094 7.40434 26.1673 7.48204L26.3992 7.80447C27.2146 8.93882 26.8784 8.96213 26.9596 9.37003C26.9982 9.56038 27.033 9.73131 27.033 9.91778V10.4616L27.0485 11.0444C27.0523 11.192 27.0601 11.3124 27.0832 11.46C27.1296 11.7708 27.0755 12.101 27.0832 12.4196C27.091 12.6604 27.0948 12.8702 27.0794 13.1072C27.0639 13.3441 27.0832 13.5694 27.0832 13.7948V14.4396C27.0832 14.5406 27.006 14.7038 26.9596 14.7931C26.9596 15.0185 26.9789 15.2554 26.832 15.4613C26.6272 15.7488 26.4069 16.0673 26.1055 16.2577C25.8504 16.4209 25.549 16.5219 25.3712 16.7783C25.2978 16.8831 25.1625 16.9958 25.0698 17.0657C24.8534 17.5902 24.8765 17.3532 24.293 17.8621C24.2002 17.9437 24.1075 18.134 24.0109 18.204L23.1761 18.7944C22.6157 19.1907 22.1365 19.6607 21.6419 20.1308C21.5298 20.2396 21.3636 20.3095 21.2786 20.4532C20.8883 21.1253 20.3588 20.9505 19.8216 21.6458C19.6477 21.8712 19.4236 22.0771 19.0912 21.9761C18.7589 21.875 18.8014 20.7213 18.7975 20.395C18.7936 20.0686 18.782 19.7773 18.8361 19.4665C18.8903 19.1557 18.9018 18.8527 18.8246 18.5342C18.7743 18.3166 18.9173 18.0796 18.9173 17.9243L18.9018 16.5296L18.8787 15.6439C18.8671 15.2088 19.0371 14.7621 18.9869 14.3309C18.9444 13.9812 18.8709 13.4723 18.9791 13.1499C18.7704 12.8119 19.0294 12.4545 18.9907 12.0622C18.9366 11.5105 18.8555 10.9123 18.9637 10.3568C19.0062 10.1237 19.041 9.81289 19.0023 9.60311C18.9444 9.31564 18.9675 9.15248 18.9946 8.88444L19.1105 7.71513C19.1685 7.11687 19.5588 7.05083 19.6361 6.38654L19.2458 5.9903C19.0101 5.95533 18.7434 5.81937 18.5424 5.7339C18.4767 5.70671 18.299 5.7844 18.241 5.74944C18.183 5.71448 18.1135 5.6057 18.0748 5.53966C18.0168 5.56686 17.8198 5.6057 17.7463 5.54743L17.3328 5.22111L16.8034 4.86372C16.6101 4.73164 16.2584 4.71998 16.2507 4.41697L15.899 4.15669C15.7676 4.05957 15.5048 4.09842 15.3889 3.93138C15.1068 3.52348 14.5387 3.63613 14.1252 2.9563C13.5687 2.0395 13.7155 2.47848 13.0895 1.65103C12.8537 1.75203 12.6064 1.89188 12.4325 2.02396C12.5291 2.26482 12.0847 2.7543 11.9378 2.89415L11.5668 3.25543C11.3736 3.44578 11.1494 3.57786 11.0412 3.8498C10.9755 4.01296 10.7282 4.02461 10.6316 4.11784C10.419 4.31597 10.2451 4.45193 9.99003 4.57625C9.82385 4.65782 9.71564 4.94918 9.58424 5.07349L9.07411 5.5552C8.83451 5.78052 8.60649 5.93591 8.37848 6.33215H8.10409L8.06158 6.58855C7.56691 6.75948 7.20364 7.26449 6.88674 7.65685C6.69737 7.89382 6.36888 8.01425 6.22202 8.30561C6.24908 8.63193 6.76307 8.04921 6.80558 7.86663L7.31185 7.64908C7.48575 7.37715 7.71377 7.24119 7.9611 7.06249C8.15433 6.92264 8.4635 6.63516 8.63741 6.44093L8.94658 6.10295C9.04706 5.9903 9.16686 5.76498 9.25575 5.64844C9.87795 5.44643 9.39101 5.33766 10.1601 4.96472L10.4113 4.69279C10.6857 4.60732 10.9446 4.72775 11.134 4.92587C11.5436 5.34931 11.1108 5.15119 11.7446 5.3765C11.9069 5.43478 12.0383 5.53189 12.1774 5.62513L12.9503 6.13403C13.3948 6.42539 13.6537 6.39431 13.7928 6.86436C14.129 7.05083 14.4266 7.26838 14.6585 7.60247C14.7551 7.73843 14.9793 7.88217 15.045 8.02591C15.3077 8.6125 15.4507 8.44546 15.5628 9.23018L15.6401 9.77404C15.6865 10.0926 15.6749 10.4267 15.6672 10.7336C15.6633 10.9511 15.586 11.1764 15.6401 11.394L15.6015 11.5494L15.6169 12.4157C15.6246 12.9945 15.5783 12.979 15.6749 13.4218C15.7058 13.5578 15.5705 13.8103 15.5937 13.9502C15.644 14.2726 15.6131 14.5251 15.6131 14.832V15.4885C15.6131 15.9275 15.4817 15.8731 15.5551 16.2538C15.6169 16.5607 15.6246 16.9414 15.5512 17.2211C15.7019 17.5047 15.7251 17.8077 15.6826 18.1496C15.5589 19.113 15.6903 18.3904 15.7251 19.1169L15.7522 19.719C15.7599 19.8627 15.6981 19.9754 15.5628 20.0648C15.9918 20.3095 15.6246 20.9039 15.6478 21.5953L15.6633 22.011C15.671 22.2208 15.6788 22.4111 15.6672 22.617C15.6362 23.3085 15.8024 23.5533 15.6788 24.3846C15.6401 24.6565 15.7058 24.9634 15.6981 25.2431C15.6903 25.5928 15.6246 25.9191 15.671 26.2609C15.7097 26.5406 15.7174 26.8203 15.7406 27.1039L15.7831 27.6012C15.8488 28.382 15.5474 27.9314 15.7019 28.6345C15.8681 29.3804 15.5203 29.5707 15.6169 30.1884C15.6633 30.4759 15.5551 30.7517 15.5589 31.0003C15.5628 31.249 15.7599 31.5325 15.5087 31.7617C15.6594 31.9133 15.6246 32.0997 15.6324 32.294C15.6478 32.7601 15.6517 33.2108 15.6478 33.6692V34.2946C15.644 34.4111 15.6324 34.516 15.5937 34.6209L15.6594 34.8152C15.6788 34.8734 15.5589 34.9939 15.5126 35.0366L15.4121 35.1182C15.3387 35.1803 15.6401 35.192 15.6324 35.4173L15.5821 36.6993C15.5512 36.7459 15.385 36.7303 15.358 36.6915C15.3232 36.6449 15.2807 36.5516 15.2768 36.4856L15.2498 35.9922L15.2382 35.3707V34.8307V34.1198C15.2382 33.6031 15.2575 33.1059 15.2768 32.5892L15.3 31.9404C15.3116 31.6763 15.3657 31.4587 15.2459 31.1907C15.1107 30.8877 15.3309 30.204 15.3116 29.9942L15.2652 29.4969C15.215 28.9919 15.3812 28.6773 15.3039 28.3393L15.1995 27.8731C15.1686 27.741 15.1725 27.675 15.1802 27.5313L15.2305 26.7077L15.2768 25.7287C15.2884 25.4568 15.2266 25.1771 15.2691 24.9013C15.2691 24.8935 15.273 23.5028 15.2614 23.3241C15.215 22.6365 15.3271 22.9239 15.2498 22.011C15.2305 21.7779 15.2459 21.5876 15.2691 21.3545C15.3039 21.0437 15.1648 20.6591 15.2691 20.3561C15.3309 20.1813 15.2691 20.0764 15.2575 19.921L15.1879 19.113C15.1686 18.9032 15.2227 18.6546 15.2189 18.437C15.2073 18.0369 15.2382 17.6523 15.443 17.2988C15.13 17.2133 15.1764 16.4325 15.1841 16.1023L15.215 15.0262C15.215 14.9796 15.1416 14.8747 15.1261 14.8359C15.1107 14.797 15.2305 14.7154 15.2305 14.6649L15.273 13.6316C15.2884 13.3092 15.2498 13.0217 15.1995 12.7342C15.2266 12.6216 15.273 12.4468 15.2652 12.3147L15.2111 11.596C15.1995 11.4406 15.273 11.3357 15.242 11.1687C15.1532 10.7064 15.1609 9.97217 15.1725 9.46715C15.1725 9.30399 14.9754 9.08644 14.8788 9.15248C14.7822 9.21852 14.7087 9.50211 14.6121 9.48657C14.4498 9.45938 14.3416 9.44384 14.1909 9.43995H14.0711C14.0479 9.43607 14.0054 9.4788 14.0015 9.48269L14.1097 9.59535C14.1406 9.62642 14.0865 9.75074 14.0517 9.78181L13.4102 10.3956C13.2286 10.5704 13.0431 10.7025 12.873 10.889L12.4557 11.3551C12.2045 11.6387 11.8528 11.8407 11.5204 12.0155L11.2847 11.9767C11.2885 12.0622 11.3195 12.1671 11.2769 12.1981C11.2267 12.237 11.1494 12.2836 11.076 12.3263C10.9175 12.4196 10.7204 12.6293 10.5349 12.641C10.1871 12.6643 9.91274 12.4351 9.69245 12.2176C9.36782 11.8912 9.17846 11.8912 8.76881 11.5377L8.17366 11.021C7.82584 10.7219 7.47803 10.4306 7.09156 10.1742C7.04132 10.5005 7.30798 10.5821 7.42778 10.7841C7.95724 11.6543 8.10023 11.3202 8.53693 11.8135C8.69152 11.9884 8.79586 12.0816 9.03547 12.1632C9.58811 12.5983 9.50695 12.7148 10.106 13.1382C10.361 13.3208 10.6238 13.1421 10.7939 12.9013L11.2576 12.6954C11.3968 12.6332 11.5281 12.5283 11.648 12.4623C12.104 12.2137 12.4518 12.0117 12.8112 11.6193L13.4914 10.8773C13.7735 10.5704 14.1909 10.2985 14.3184 10.1159L14.5464 9.79735L14.5387 9.67693C14.5387 9.64196 14.6778 9.64973 14.7087 9.66916C14.7435 9.68858 14.8131 9.78181 14.8208 9.82455C14.8324 9.87116 14.7126 9.87893 14.643 9.89447C14.7242 9.96828 14.8131 10.0421 14.8092 10.1004L14.7783 10.5976C14.7783 10.5976 14.701 10.6637 14.6971 10.6481L14.6817 10.516C14.6005 10.5471 14.473 10.6287 14.3841 10.718C14.2295 10.8773 14.8169 10.7569 14.7474 10.99C14.7049 11.1259 14.8092 11.2658 14.8092 11.359C14.8092 12.1904 14.9677 12.9168 14.9136 13.6277L14.8749 14.1133L14.8517 14.5134C14.8363 14.8048 14.8517 15.0651 14.8826 15.3487C14.9136 15.6323 14.8324 15.9625 14.8479 16.2538L14.902 17.3299C14.9174 17.6057 14.9097 17.8349 14.8595 18.1107L14.7744 18.5924C14.7474 18.7478 14.9097 19.0003 14.8981 19.1635L14.8556 19.7035C14.8479 19.8239 14.7938 20.123 14.6624 20.1735C14.6276 20.1852 14.5271 20.1813 14.5271 20.1424V19.9249C14.5348 19.6413 14.3957 19.3072 14.4343 19.0314C14.5773 18.0097 14.4034 18.5109 14.4653 17.6018C14.5 17.0696 14.4189 16.5646 14.3725 16.0285C14.3493 15.7488 14.415 15.4458 14.4227 15.1661L14.4343 14.529C14.4343 14.3658 14.4575 14.2221 14.4112 14.0628C14.3029 13.6976 14.5 13.4607 14.2875 13.6122L13.986 13.6666C13.8933 13.7365 13.7117 13.8375 13.646 13.9307L13.3368 14.3814L13.7658 14.766C13.9745 14.9524 13.8392 15.1078 13.8199 15.3137L13.7851 15.7527C13.7735 15.8809 13.7735 16.0363 13.7735 16.1917L13.8276 16.1761ZM7.08383 9.75462C6.88674 9.61088 6.80558 9.47103 6.80558 9.28456C6.80558 9.14083 6.92152 9.00486 7.06065 8.91163L7.40846 8.67077C7.73695 8.44546 7.49348 8.38719 8.12728 7.88994C8.28187 7.76951 8.42099 7.66462 8.55239 7.53254L8.82291 7.26061C9.07798 7.00422 9.31372 6.78278 9.61902 6.57689L9.90887 6.24669C10.1871 5.92814 10.419 5.63678 10.7398 5.32989C10.7243 5.27939 10.6045 5.11623 10.5349 5.06184L10.1833 5.28327C9.92433 5.83102 9.79293 5.56686 9.44125 6.11849C9.33304 6.28554 9.05479 6.37489 8.92339 6.52639C8.58331 6.92652 8.21617 7.22953 7.79492 7.55197C7.63261 7.67239 7.54372 7.96375 7.35049 8.06864L7.11862 8.07641C7.04905 8.87278 6.28386 8.86501 6.59303 9.58369C6.68578 9.79735 6.76693 9.92943 6.97562 10.0693C7.03359 9.94886 7.08383 9.82455 7.0877 9.75074L7.08383 9.75462ZM11.6827 6.17676C11.7948 6.20784 11.9301 6.18842 12.0383 6.13015C11.6093 5.48139 11.5281 5.55132 10.8518 5.4542C10.7166 5.74167 11.1378 5.58628 10.9523 6.15734L11.2267 6.0408L11.6827 6.17288V6.17676ZM14.531 8.44934C14.5851 8.4105 14.6353 8.23568 14.6005 8.1813C14.5696 8.13468 14.5039 8.06475 14.4459 8.01425C14.0208 7.6452 14.3841 7.76563 13.4218 6.94206C13.2866 6.82552 13.1667 6.78667 12.9774 6.80221L12.931 6.41373L12.2895 6.2428L12.0344 6.37489C12.3784 6.80221 12.7919 7.28392 13.2247 7.5947L13.6691 7.91325L13.9783 8.14633C14.0711 8.21626 14.2102 8.27841 14.3029 8.36388C14.3532 8.4105 14.4846 8.49208 14.531 8.45711V8.44934ZM11.4586 11.4484C11.4586 11.5494 11.4393 11.697 11.4779 11.697L11.6402 11.6892V11.2231C12.0537 10.4927 11.4161 10.1198 11.6905 9.7857C11.7793 9.67693 11.9958 9.75074 12.0885 9.8362C12.332 10.0693 12.9387 10.112 13.0895 9.77793C13.1667 9.7352 13.3445 9.78181 13.445 9.82066C13.6266 9.00875 13.9551 9.33895 13.6614 8.79509C13.53 8.55423 13.387 8.47265 13.1436 8.37942C12.8653 8.27453 12.6914 8.31338 12.417 8.42604C12.247 8.49596 12.0924 8.52315 11.9339 8.68243C11.818 8.80286 11.4586 8.65135 11.4509 8.46877C11.4354 8.14245 11.5707 7.75009 11.3581 7.4665C11.0142 7.0081 10.6122 6.81386 10.6547 6.47977L10.2296 6.23503C9.90887 6.37877 10.0287 6.71286 9.94365 7.26449C9.91274 7.45485 9.64221 7.67239 9.68859 7.90936L9.80453 8.51927C9.66927 8.73293 9.33304 8.66689 9.19392 8.55035C9.15141 8.51538 8.96204 8.53481 8.9659 8.48431L8.98523 8.24734C8.98523 8.24734 8.86542 8.18907 8.85383 8.22791L8.80359 8.41438L8.42099 8.62027L7.86449 9.08256C7.76787 9.16414 7.63647 9.40111 7.58623 9.51377C7.48189 9.73908 7.7756 9.97994 7.94951 10.0732L8.68379 10.4616C8.93499 10.5937 9.24029 10.3063 9.35237 10.1081C9.56106 9.74297 9.97071 9.54096 10.2258 9.708C10.3069 9.7585 10.4615 9.93332 10.419 10.0188C10.1949 10.4694 9.74656 11.0288 10.1949 11.5416C10.2606 11.6154 10.3263 11.7009 10.3919 11.7863C11.1726 11.8368 10.8093 11.3707 11.4586 11.4445V11.4484ZM12.6102 7.84332C12.761 7.5675 12.4093 7.43931 12.2933 7.30723C12.0847 7.06637 11.8837 6.94594 11.6441 6.75559L11.2228 6.41762C11.1687 6.371 10.9832 6.43704 10.9446 6.48366C11.0026 6.76725 11.2769 6.92264 11.5475 6.93817C11.6016 7.05083 11.6866 7.17903 11.7175 7.26061L11.9648 7.90548C12.104 8.04533 12.4982 8.0531 12.6102 7.84721V7.84332ZM10.6277 17.7106L10.9678 17.159L11.1919 16.786L11.5243 16.246L11.7948 16.1761C11.845 16.0091 11.9455 15.9353 12.1117 15.8848L12.0537 15.6012C11.8141 15.6089 11.5707 15.6866 11.4818 15.9469C11.0721 15.9353 10.933 16.2965 10.6934 16.5257C10.5659 16.6462 10.3919 16.7355 10.2721 16.8793C10.0055 17.1978 9.33304 17.629 9.61516 17.7999C9.80066 17.9126 10.0248 17.8815 10.2296 17.8971C10.4074 17.9087 10.5118 17.8893 10.6277 17.7067V17.7106ZM8.04999 20.7252C7.60169 20.2823 7.91473 19.8705 7.57851 19.7967C7.49348 19.7773 7.30412 19.8666 7.3389 19.9638L7.53599 20.4765C7.61329 20.6824 8.10023 21.0398 8.0925 20.8767C8.0925 20.8456 8.07704 20.7524 8.04999 20.729V20.7252ZM7.80265 33.4827C7.25774 32.6203 7.41233 33.1098 7.37368 32.3794C7.36595 32.2201 7.5901 32.2007 7.73695 32.2357C7.6442 31.4199 8.58717 31.1208 8.87315 30.775C9.11662 30.4837 9.31758 30.2778 9.66154 30.1263C9.74269 30.0291 9.88568 29.866 9.9823 29.7689L10.3804 29.3454C10.5002 29.2172 10.5736 29.1279 10.732 29.0424L11.6905 28.5296C11.7639 28.4908 11.8914 28.3975 11.9648 28.3432C12.1619 27.811 12.5716 27.5312 13.0122 27.2205C13.2093 27.0806 13.6498 26.6999 13.7658 26.5018L13.9899 26.125C14.0556 26.0123 14.0054 25.7287 13.9358 25.6433C13.8624 25.6083 13.7155 25.5811 13.7039 25.5228L13.6653 25.3325C13.615 25.3791 13.4721 25.4762 13.4411 25.4296L13.3368 25.2626C13.074 25.4257 12.6991 24.9323 12.3938 24.7342C11.9649 24.4584 11.7755 24.1981 11.6054 24.1088L10.8828 23.7475C10.7436 23.6776 10.6547 23.6038 10.5388 23.4795C10.4151 23.3474 10.1949 23.2697 10.0364 23.1726L9.33691 22.7375L9.03547 22.3723C8.09636 22.0732 8.20071 21.6614 7.64034 21.3001C7.59396 21.4166 7.54759 21.5371 7.57078 21.5953C7.5901 21.6458 7.66739 21.7546 7.71377 21.7857L8.18525 22.0926C8.45577 22.5199 8.80745 22.8424 9.25189 23.0716C9.5997 23.2541 9.82771 23.5921 10.1214 23.798C10.4654 24.0389 10.8209 24.3224 11.134 24.6216C11.2112 24.6954 11.3388 24.8469 11.4277 24.9013L12.189 25.3636C12.2856 25.4218 12.4325 25.5423 12.5136 25.6044C12.8151 25.6899 13.0895 25.8297 13.2518 26.125C13.159 26.6144 12.9155 26.529 12.7378 26.7465C12.6296 26.8747 12.56 26.968 12.4441 27.0612C12.2238 27.236 12.019 27.4574 11.7871 27.6206C11.59 27.7604 11.4238 27.8925 11.2383 28.0479L10.7939 28.417C10.5388 28.6306 10.3108 28.8249 10.0789 29.0269C9.84704 29.2289 9.68859 29.4814 9.41807 29.6523C9.19392 29.7922 9.0316 30.0913 8.77654 30.2156C8.35529 30.4176 8.50988 30.6235 8.06158 30.7206C8.17752 30.9304 7.9611 30.9926 7.86449 31.1169L7.60942 31.4354C7.50894 31.5597 7.4046 31.6491 7.25774 31.7346L7.22682 32.1658C6.84809 32.4222 6.99108 32.9311 7.16499 33.2535C7.31958 33.5371 7.49735 33.7974 7.86835 33.8323C7.87995 33.7274 7.86835 33.5798 7.80652 33.4788L7.80265 33.4827ZM11.0142 22.6753C10.7939 22.3995 10.7784 22.213 10.6393 22.2091C10.589 22.2091 10.504 22.2791 10.4306 22.3335L9.82385 22.0421L10.0132 22.4539C10.1794 22.5704 10.3301 22.6831 10.4345 22.8773L10.7707 23.1609C10.875 23.2464 10.9562 23.3551 11.0644 23.293C10.8016 22.8851 11.1649 22.8579 11.018 22.6714L11.0142 22.6753ZM5.6346 27.5623C5.5689 27.0495 5.5689 27.4341 5.03945 26.8165C4.77279 26.5057 4.48294 26.2104 4.17377 25.9463C4.05784 25.8453 3.8105 25.8958 3.8105 25.6549C3.57089 25.4607 3.32742 25.3092 3.09168 25.1072L2.75932 24.8158C2.57382 24.6526 2.31489 24.5089 2.17576 24.3458C2.13325 24.2952 1.96707 24.2952 1.93616 24.3458C1.82408 24.5478 2.19122 24.8508 2.33421 25.0217C2.71295 25.1771 2.94096 25.3946 3.22694 25.6666C3.39699 25.8297 3.70615 25.9074 3.84915 26.1055C4.32449 26.7582 4.23174 26.3347 4.6298 26.9485C4.9467 26.999 5.17085 27.2671 5.27519 27.574C5.35248 27.6206 5.56117 27.6206 5.6346 27.5662V27.5623ZM6.6394 28.4558L6.29545 28.1489L5.70416 27.6012C5.62301 27.7566 5.7003 27.8731 5.80851 27.9547L6.16792 28.2227C6.20656 28.347 6.23362 28.4636 6.34569 28.5024C6.43071 28.5335 6.53506 28.5374 6.63554 28.4558H6.6394ZM12.8962 35.6077C12.9233 35.6582 12.8073 35.8019 12.7687 35.8369C13.1552 35.697 13.4295 36.1282 13.5068 36.0622L13.6382 35.9495C13.7426 36.0194 13.8585 36.0816 13.9745 36.0583C14.0556 36.0427 14.1368 35.8874 14.2063 35.8407C14.33 35.7592 14.4807 35.6543 14.5503 35.5766C14.4769 35.4328 14.4459 35.3279 14.4923 35.2114C14.5735 35.0133 14.5194 34.8113 14.2836 34.753C14.2411 34.92 14.2141 35.1026 14.2025 35.3046C14.1909 35.5066 13.9513 35.6426 13.7464 35.5921L13.7542 34.8618C13.758 34.3917 13.7696 33.708 13.5725 33.3001C12.7996 33.1175 13.0122 33.0165 12.4711 32.698L12.4557 32.123C12.4518 31.9599 12.6914 31.9288 12.8112 31.9754C12.9542 32.0298 13.0972 32.0259 13.244 32.0026L13.36 32.2279C13.4527 32.1891 13.6112 32.0764 13.6112 31.9871V31.5947C13.6112 31.3694 13.6576 30.7206 13.6923 30.5419L13.7967 29.9864C13.6923 29.6795 13.6846 29.3571 13.7696 29.0424C13.8005 28.9259 13.6576 28.6423 13.5416 28.6268C13.3059 28.5957 13.0701 28.8171 12.9697 28.9997C12.8344 29.2405 12.6721 29.3532 12.4247 29.4581C11.7793 29.7261 12.2199 29.7145 11.6866 30.0253C11.5591 30.0991 11.2151 30.4526 11.2267 30.6391C11.2422 30.9382 11.505 30.7944 11.6518 31.3694C11.6711 31.451 11.7021 31.583 11.6789 31.6452C11.6595 31.6996 11.5591 31.7656 11.505 31.8045C10.9987 32.193 10.6547 31.7384 10.2528 31.5675C10.0673 31.4898 9.65381 31.5559 9.51468 31.6918C9.35237 31.8472 9.23256 31.9754 9.04706 32.0376C9.02387 32.1696 8.96204 32.3056 8.88088 32.4338L8.62195 32.8301L8.52147 32.9893C8.44032 33.1175 8.86156 33.0942 8.88088 33.1797L8.93499 33.4555C8.97363 33.4205 9.07411 33.339 9.13208 33.3428C9.37555 33.3623 9.6113 33.7624 9.6654 33.8207C9.73496 33.8906 9.92819 34.0071 10.0171 34.0421C10.249 34.1353 10.5465 34.0693 10.79 34.0421L10.96 33.8129C11.1803 33.7002 11.3697 33.7663 11.5359 33.8867C11.7098 34.0149 11.6827 34.1742 11.7523 34.3917C11.8296 34.6442 11.9726 34.9239 12.0769 35.1493C12.2972 35.1881 12.4209 35.2813 12.5871 35.4018L12.8924 35.6193L12.8962 35.6077ZM14.0827 33.6148L14.3029 33.9256C14.6121 33.7779 14.4459 33.2146 14.3686 32.9388C14.5194 32.6552 14.8169 31.5248 14.2063 31.5015C13.874 32.6319 13.8856 31.6141 13.6614 32.4921L13.959 32.7873C14.187 33.0165 14.2257 33.3001 14.0827 33.6148ZM12.1697 35.8291L11.8103 35.4678C11.7368 35.394 11.5475 35.3707 11.3968 35.3551L11.2731 34.955C11.2267 34.8035 11.1726 34.6442 11.0451 34.5393C10.6509 34.6559 10.3765 34.415 10.0789 34.2247C9.92819 34.2324 9.70791 34.2247 9.55333 34.1392C9.74656 34.7025 10.5852 34.7258 10.96 35.2269C11.0721 35.3746 11.3388 35.4173 11.4702 35.5222C11.6943 35.7048 11.8373 35.9301 12.1658 35.8291H12.1697ZM14.2643 36.6565C14.3609 36.3691 14.7435 36.3302 14.5503 36.2875C14.5232 36.2836 14.4227 36.2525 14.3996 36.2564L13.7155 36.3963C13.6537 36.4079 13.5764 36.5594 13.5803 36.6177C13.5803 36.6837 14.16 36.9751 14.2643 36.6565Z" fill="#F3EAD0"/>
<path d="M25.8311 33.9838C25.9045 33.3623 25.7152 33.269 25.9741 32.9815C25.9548 32.8611 25.9277 32.663 25.9277 32.5231V31.8394C25.9355 31.7035 25.8504 31.5364 26.0939 31.4626C26.1789 31.886 26.2021 32.3289 26.1055 32.7562C26.0746 32.8844 26.0862 32.9544 26.1171 33.0903C26.1712 33.304 26.0398 33.5915 26.0437 33.8168L26.0668 34.5743C26.0707 34.7297 26.0862 34.92 26.0746 35.0638C26.0553 35.3862 26.1325 35.6737 26.121 35.9883L26.0939 37.0178C26.0862 37.2431 26.1248 37.449 26.1673 37.6588C26.1944 38.4319 25.8543 38.8825 25.8079 39.6206C25.8002 39.7643 25.7693 40.0091 25.7461 40.1373C25.4485 40.5452 25.3944 41.2211 25.2785 41.3882L24.9809 41.8116C24.7722 42.1068 24.6524 42.3943 24.5094 42.7129C24.3355 43.0974 23.9877 43.4005 23.7326 43.7307C23.6669 43.8161 23.5587 43.8744 23.466 43.9365C22.7897 44.4144 23.3655 44.2745 22.8322 44.5231C22.6583 44.6047 22.4225 44.7057 22.295 44.7912C22.0167 44.9815 21.7771 45.0942 21.437 45.1486L20.4477 45.3079C19.9298 45.3933 19.4158 45.6186 18.8748 45.4516C18.8052 45.4283 18.6506 45.3545 18.5733 45.3817C18.0284 45.572 17.897 45.4166 17.1705 45.4671L16.4401 45.5176C16.0652 45.5448 15.6749 45.5798 15.2962 45.5759L14.2682 45.5565H13.731L13.1783 45.6148C12.5677 45.6808 11.9687 45.5837 11.3504 45.7002C11.1571 45.7352 11.018 45.6536 10.875 45.4904L10.7243 45.6458C10.5465 45.8284 10.1794 45.6925 10.0055 45.8051C9.7852 45.9489 9.6654 45.9644 9.4026 45.9644H8.7804L8.28573 46.1703C8.41712 46.1159 6.33409 46.3839 6.15246 46.854C7.01427 47.1026 6.56597 46.8346 7.70603 46.7918L8.44031 46.7646C8.70697 46.753 8.95044 46.7918 9.22097 46.819C9.82771 46.8812 10.2799 46.7957 10.6316 46.8423L11.4586 46.955C11.9494 47.021 12.4286 47.0871 12.931 47.1454L13.7542 47.2425C14.0633 47.2774 14.4537 47.1997 14.7396 47.3279C15.0256 47.4561 15.1918 47.3823 15.4546 47.3823C15.7174 47.3823 16.0304 47.4056 16.3048 47.4251C16.5908 47.4484 16.8536 47.5261 17.1473 47.5066C17.3908 47.4911 17.6381 47.5299 17.87 47.5299H18.983C19.1685 47.5222 19.3424 47.5183 19.5356 47.5028L20.6255 47.4212C20.9424 47.3979 21.8815 47.2658 22.1365 47.1687C22.7819 46.9278 24.6485 46.6559 24.7645 46.5704L25.2437 46.2169C25.3828 46.1159 25.5606 46.112 25.6765 45.9955L26.0243 45.6458L26.4379 45.6225C26.5538 45.2574 26.9093 45.1525 27.1567 44.9233C27.3731 44.7252 27.5547 44.4726 27.8253 44.3211C28.0301 44.2046 28.1499 44.0531 28.2813 43.8589L28.4165 43.6607L28.6175 43.315L28.9615 42.674C29.0697 42.472 29.1972 42.3943 29.4368 42.3671C29.46 42.1806 29.4832 41.8932 29.6416 41.7494C30.2252 41.225 29.6996 41.5358 30.0397 40.685C30.1054 40.5219 30.1788 40.3393 30.2368 40.1683L30.4532 39.5196C30.3604 39.7954 30.6812 38.3542 30.6464 38.6611L30.7662 37.5772C30.7662 37.5772 31.1643 36.6876 31.1488 35.9961C31.145 35.7514 31.2918 35.4484 31.2532 35.2075C31.0638 33.976 31.3846 34.3956 31.2416 33.5215C31.2029 33.2846 31.2493 33.0515 31.2686 32.8067C31.3034 32.3483 31.1488 32.2085 31.3305 31.583L31.2725 31.1946C31.2107 30.7944 31.2377 30.4293 31.2338 30.0369C31.2261 29.2095 31.2493 28.3975 31.1913 27.574C31.1527 27.0107 31.1372 26.4435 31.1952 25.9152C31.1952 25.8958 31.114 25.2431 31.114 24.9751V24.2409C31.114 23.8718 31.145 23.5299 31.3537 23.2269C31.0445 23.1065 31.029 22.2052 31.2802 22.0227C31.029 21.708 31.0329 21.3506 31.1952 20.9893C31.2609 20.8417 31.2184 20.6591 31.2145 20.5193L31.1952 19.8899C31.1913 19.7307 31.1372 19.5597 31.1566 19.3966C31.1836 19.1596 31.2764 18.8682 31.2145 18.6623C31.1527 18.4565 31.1025 18.3943 31.2609 18.2039C31.315 18.1379 31.4425 18.0602 31.5507 18.0874L31.5276 18.6118L31.5005 19.1363C31.4619 19.9055 31.543 19.9676 31.516 20.7252C31.5082 20.9699 31.628 21.2962 31.5585 21.541C31.4851 21.8012 31.4696 21.9916 31.4735 22.2596C31.4773 22.6365 31.4194 23.3746 31.4541 23.5804C31.5507 24.1282 31.6049 24.9168 31.4851 25.4412C31.373 25.9385 31.5005 26.3658 31.5276 26.8436C31.5585 27.3448 31.4889 27.8459 31.4851 28.3587V28.7083L31.5314 29.2133C31.5662 29.563 31.5971 29.9553 31.5778 30.3127L31.5314 31.1907L31.4348 31.583C31.5701 31.7967 31.5855 32.0259 31.6049 32.2745L31.6474 32.8456C31.6744 33.1874 31.6899 33.4594 31.6358 33.8012C31.5739 34.1781 31.6435 34.5898 31.4889 34.9472C31.4309 35.0793 31.458 35.1298 31.4773 35.2891C31.5662 35.9922 31.23 36.5594 31.1797 37.6161C31.172 37.7481 31.0986 37.923 31.0677 38.0395C31.0754 38.1172 31.1179 38.292 31.0986 38.3697L30.8397 39.3487L30.774 39.9081C30.7237 40.3237 30.5034 40.7122 30.3411 41.0929L30.1981 41.4231L30.0126 41.8155L29.6609 42.538C29.2358 43.4082 29.0542 43.1557 28.6098 44.1269C28.5209 44.325 28.3199 44.4338 28.1769 44.5931L27.6939 45.1214L27.3035 45.5215C27.1219 45.708 26.8784 45.91 26.6543 46.0343C26.4301 46.1586 26.2794 46.2868 26.0707 46.4344C25.862 46.5821 25.6224 46.6986 25.3983 46.8268C25.2244 46.9239 24.9075 46.955 24.749 47.0638C24.0882 47.6076 23.8099 47.3862 23.0138 47.4289C22.6776 47.6193 22.3104 47.6543 21.9549 47.7475C21.6844 47.8174 21.4757 47.899 21.182 47.8873C20.9269 47.8757 20.6602 47.9107 20.4013 47.9223L19.2226 47.9883C19.041 48 18.8709 47.9883 18.6893 47.965L17.9009 47.8563C17.0777 47.7397 17.2285 48.101 15.3812 47.662C14.8479 47.5338 14.5503 47.9262 13.8508 47.4717L13.4489 47.4251C13.101 47.5416 12.7532 47.5882 12.3861 47.5299L11.3929 47.3746C11.2035 47.3435 10.6973 47.2153 10.5002 47.1376C10.2528 47.0366 9.95524 47.2386 9.69631 47.2153C9.30212 47.1803 8.93112 47.0444 8.53693 47.1337C8.35916 47.1764 8.2123 47.1531 8.01907 47.1337C7.82584 47.1143 7.56691 47.258 7.36208 47.3085C6.88287 47.4212 5.89353 47.6232 5.49547 47.3551C5.34862 47.258 5.19017 47.0871 5.08196 46.9278C4.9351 46.7103 5.01626 46.2985 5.23268 46.1392C5.5573 45.9061 6.04811 45.9022 6.53892 45.8012C6.64713 45.7779 6.86355 45.8207 6.97562 45.7818C8.00361 45.4244 7.38141 45.6225 8.42099 45.5215C8.56784 45.506 8.71857 45.5759 8.86929 45.4827C9.19005 45.2846 9.29826 45.572 9.55719 45.3972C9.71177 45.2923 9.87022 45.4011 9.98616 45.3817C10.1833 45.3467 10.3804 45.2302 10.6084 45.2496C10.8634 45.2768 11.1224 45.1525 11.3581 45.1369L12.4672 45.0554C12.7571 45.0359 12.9812 45.0748 13.2595 45.1797L13.8585 45.1641L14.4614 45.1836C14.7281 45.1913 15.014 45.2418 15.2652 45.203L15.6324 45.1486C16.6835 44.9971 16.9773 45.2107 17.4217 45.1913C17.8236 45.1719 18.1637 45.0631 18.5656 45.2302C18.6893 45.2807 18.8516 45.1564 18.983 45.1408L20.583 44.9233C20.3859 44.9505 22.1095 44.4455 22.1906 44.3872L22.5307 44.1463L22.9017 43.9327C23.2727 43.719 23.037 43.6957 23.5046 43.28C23.9722 42.8644 23.8602 42.8605 24.2041 42.3166C24.32 42.134 24.3587 42.0447 24.3973 41.8116C24.4244 41.6445 24.5596 41.4464 24.6099 41.2677C24.7297 40.8637 24.9654 40.5257 25.1741 40.1722L25.2166 39.741C25.2321 39.5817 25.2514 39.4264 25.3094 39.2826L25.5026 38.8242C25.6727 38.4202 25.7036 37.989 25.7113 37.55L25.719 37.0139L25.7538 35.9417C25.7615 35.7048 25.8002 35.4484 25.7461 35.2192L25.7345 34.9705C25.719 34.6326 25.7847 34.314 25.8234 33.9683L25.8311 33.9838Z" fill="#F3EAD0"/>
<path d="M24.7761 42.8993C24.8998 42.8177 25.1742 42.775 25.2283 42.6701L25.5954 41.9437C25.7307 41.6717 25.9857 40.8559 25.9239 40.5529L25.8118 40.4713C25.7809 40.448 25.8505 40.3431 25.8852 40.3237C26.1519 40.1878 25.808 39.7332 26.1944 39.6322C26.4263 39.5701 26.3451 40.3043 26.3374 40.3937C26.2949 40.8404 26.5693 40.9181 26.1094 41.9126C25.8157 42.5458 25.7113 42.4875 25.4872 43.1712L24.9925 43.4626C24.8882 43.5248 24.8573 43.6141 24.8804 43.7384C24.7877 43.8938 24.6022 44.0764 24.521 44.2357C24.3935 44.4882 24.2621 44.5892 24.0457 44.7213C23.8795 44.8223 23.7249 44.9155 23.5317 44.9699C22.9713 45.2418 23.0254 45.3428 22.3646 45.7196C21.9897 45.9333 21.5144 45.7391 20.5327 46.0809C19.9646 46.2791 18.4613 46.3295 17.8623 46.3762L17.4372 46.4111L16.9386 46.4422C16.5676 46.4655 16.216 46.3179 15.8681 46.3801L15.1918 46.4966C15.501 46.4422 14.2141 46.4655 14.2605 46.4966L14.7242 46.6403C14.9252 46.7025 15.1648 46.6753 15.3812 46.6831L15.8913 46.7025C16.073 46.7103 16.2469 46.7763 16.4285 46.7763H16.9271C15.8797 46.7763 19.2883 46.9511 18.1676 46.8346L19.0255 46.9239C19.1763 46.9395 19.7134 46.7336 20.0535 46.7724C20.3743 46.8113 20.6564 46.7569 20.9694 46.7103C21.4448 46.6403 21.8931 46.5626 22.3337 46.3684C22.639 46.2324 22.9752 46.2208 23.3037 46.147C23.6322 46.0732 24.3046 45.8323 24.5983 45.6886C24.7606 45.6109 24.8379 45.405 25.0814 45.3894C25.3519 45.3739 26.0514 44.7756 26.2524 44.5736C26.5036 44.3211 26.7161 44.0259 27.0137 43.82C27.1335 43.7384 27.234 43.6607 27.3461 43.5675C27.8948 43.1169 27.5895 43.2761 28.0456 42.8488C28.1113 42.6041 28.2427 42.0796 28.6059 42.068L28.7567 41.3454C28.7992 41.1318 28.919 40.9181 28.9731 40.7005L29.062 40.3587L29.3595 39.5274C29.4252 39.3409 29.5528 39.1816 29.6648 39.0029C29.8388 38.7271 29.7189 38.3775 29.9779 38.0356C29.8233 37.7443 29.9122 37.4568 30.0861 37.181L30.1518 36.3652L30.2059 35.9845C30.2175 35.9068 30.2948 35.7747 30.3334 35.7319C30.0088 35.5882 30.1595 35.223 30.1904 34.955L30.3141 33.945C30.3334 33.7935 30.2368 33.5643 30.2948 33.3817C30.3682 33.1369 30.3682 32.8883 30.3566 32.6397L30.3296 32.0725C30.3218 31.9132 30.4184 31.8083 30.5653 31.7617L30.3875 31.7229C30.4069 31.583 30.403 31.5481 30.3953 31.4432C30.3605 30.9887 30.3257 30.5536 30.3296 30.1029L30.3412 28.8521C30.3412 28.6345 30.3605 28.4131 30.4262 28.2111C30.3759 28.1062 30.3025 27.9275 30.3218 27.7799C30.3566 27.5429 30.318 27.3137 30.3334 27.1L30.3991 26.3153C30.4107 26.1832 30.3991 26.0706 30.3991 25.9346V24.0078L30.4378 23.5688C30.3373 24.5905 30.4069 20.7718 30.4532 21.7507L30.4107 20.8417C30.3527 19.6646 30.4262 20.4299 30.4532 19.5558L30.4841 18.6157C30.5189 17.6096 30.345 16.9531 30.5382 15.8964C30.5924 15.6089 30.573 15.2243 30.6812 15.271C30.7122 15.2826 30.7663 15.3564 30.7663 15.3992L30.7894 16.1645C30.7972 16.3587 30.774 16.518 30.7894 16.7044C30.8049 16.8909 30.8397 17.0774 30.8397 17.2366C30.8397 17.4192 30.801 17.5863 30.8397 17.7533C30.9556 18.2156 30.8745 19.0081 30.8397 19.4937C30.832 19.6063 30.8397 20.6708 30.8629 20.8145C30.9247 21.1952 30.9208 21.5604 30.7817 21.91L30.774 22.3373L30.7508 23.3668C30.7469 23.5416 30.7508 23.7242 30.716 23.9106L30.6349 24.3302C30.6155 24.4273 30.7122 24.6099 30.7083 24.7264L30.7006 25.3402C30.6967 25.6821 30.7006 25.9968 30.6581 26.3386L30.6039 26.7776C30.6619 26.9213 30.7199 27.1039 30.7199 27.2826L30.7276 28.1062C30.7276 28.6112 30.7392 29.1084 30.7083 29.6018C30.6967 29.7611 30.631 29.8427 30.7122 30.0058C30.8126 30.2117 30.7547 30.4836 30.7199 30.7206L30.7779 30.9925C30.689 31.28 30.7276 31.7423 30.7856 32.0453C30.8204 32.224 30.7006 32.4843 30.7199 32.6591L30.8088 33.4516C30.8242 33.6031 30.7238 34.2596 30.716 34.4072L30.6426 35.9456C30.6271 36.2719 30.6619 36.5361 30.5344 36.8624L30.3953 37.2237C30.4262 37.3286 30.5151 37.5345 30.4841 37.6471L30.1711 38.8087C30.09 39.1078 30.1402 39.4807 29.9199 39.7294C29.7769 39.8925 29.5566 40.0518 29.5103 40.2771C29.4793 40.4247 29.3789 40.6345 29.375 40.7549C29.3634 41.0579 29.2938 41.2871 29.1779 41.5552C29.062 41.8232 29.0581 42.1301 28.803 42.3438C28.3354 42.74 28.4436 43.2023 28.1267 43.4121C27.8601 43.5869 27.6166 43.7307 27.462 44.0104C27.2804 44.3444 26.9867 44.5542 26.7123 44.7834C26.4843 44.9738 26.2949 45.1952 25.9896 45.3001L25.9007 45.6847C24.9693 45.9955 25.4601 45.9644 24.378 46.2324C24.1616 46.2868 23.9607 46.3373 23.752 46.2985C23.7017 46.6598 23.2496 46.4927 22.8592 46.7025C22.6544 46.8151 22.4573 46.7608 22.2796 46.8113C21.696 46.9783 21.1781 47.0715 20.583 47.0832C20.1231 47.091 19.6671 47.2347 19.1994 47.2153C18.6429 47.192 18.1096 47.1881 17.5608 47.1958C16.9386 47.2075 15.6981 47.0832 15.0759 46.9511C14.8865 46.9123 14.7629 46.819 14.5503 46.9123C14.3957 46.9822 14.187 46.8773 14.0209 46.8695L13.3523 46.8385L12.2238 46.718L11.2267 46.4772C11.0026 46.4228 10.7205 46.6054 10.4422 46.3412C10.4152 46.314 10.4499 46.1742 10.4847 46.1664C10.8789 46.1198 11.3891 46.1392 11.733 46.077C11.9881 46.0343 12.1465 46.0615 12.3591 46.1159L12.8074 46.2324C12.9851 46.1625 13.1938 46.077 13.3987 46.1625C13.7812 46.0537 13.7233 46.1314 14.2914 46.0615C14.5387 46.0304 14.8286 46.2014 15.0798 46.1042C15.2459 46.0382 15.3928 46.1004 15.5512 46.1509C15.9454 46.0654 16.3242 46.0576 16.7609 46.0537C18.2526 46.0304 17.4063 45.844 18.67 45.875L19.2226 45.8906C19.4391 45.8945 19.6941 45.8906 19.9028 45.8401L20.3086 45.7468L21.1434 45.6031C21.3404 45.5681 21.5182 45.5565 21.6999 45.4594C22.0825 45.2612 22.3916 45.3545 22.4032 45.2418L22.4264 45.0825L22.7549 44.9854C22.8902 44.8223 23.0138 44.7485 23.2032 44.6708L23.524 44.3755C23.752 44.1657 24.0573 44.1152 24.3123 43.9249C24.4824 43.6491 24.552 43.0236 24.7297 42.9032L24.7761 42.8993Z" fill="#F3EAD0"/>
<path d="M18.4806 40.1916L18.1096 39.7294C17.7927 39.337 17.1087 39.3603 17.4101 38.9524C17.7695 39.1195 18.299 39.5701 18.5424 39.7216L19.2613 40.1683C19.4004 40.2538 19.4622 40.3626 19.4429 40.5762C20.1424 40.6928 19.9762 40.72 20.3124 40.4131L20.8767 39.8964C21.0776 39.7099 21.2979 39.5312 21.5221 39.372L22.0631 38.9796L22.5732 38.6611L23.0988 38.3037L23.9606 37.7443C24.0225 37.7054 24.1036 37.5656 24.0998 37.4917C24.0843 37.2043 23.7558 37.2625 23.6476 36.9013C23.4196 36.9246 23.265 36.7808 23.0988 36.6993C22.5578 36.439 22.0477 36.1865 21.5375 35.899C21.3868 35.8135 21.325 35.697 21.1897 35.5843L20.4864 34.99L20.239 34.6908C20.1231 34.551 20.0806 34.3839 20.2158 34.2052C20.3202 34.2441 20.5173 34.3179 20.583 34.3878C21.2361 35.0832 20.9076 34.9239 21.5491 35.3279L22.4148 35.8757L22.8322 36.136C22.9327 36.1981 23.0911 36.2952 23.1916 36.3419L23.7481 36.606C24.0766 36.7109 24.3355 36.7031 24.5674 37.01C24.6679 37.1421 24.8611 37.3014 24.9191 37.4684C24.9925 37.6899 24.8225 37.7986 24.6795 37.8996L24.3973 38.09L23.7481 38.4707C23.5162 38.6067 23.1916 38.595 23.0215 38.8592C22.9056 39.0418 22.6505 39.0806 22.4728 39.1972C22.1365 39.4186 21.8235 39.6789 21.5221 39.9469L21.1858 40.2499C21.0429 40.3781 20.9192 40.5957 20.7414 40.6811C20.0419 41.0152 19.9801 41.2366 19.5666 40.9414C18.9212 40.4869 18.956 40.7705 18.4806 40.1839V40.1916Z" fill="#F3EAD0"/>
<path d="M9.27124 41.1861C8.55243 41.5863 7.38917 40.887 7.43555 40.1839C7.594 40.0635 7.74472 40.2499 7.82588 40.3781L8.22393 40.6578L8.32055 40.5957C8.3476 40.5762 8.57948 40.786 8.86932 40.8598L9.25579 40.9608L9.15917 40.7705C9.13985 40.7316 9.22873 40.6345 9.27511 40.6151C9.56109 40.4947 9.84707 40.316 10.106 40.1373L10.5968 39.7993L11.5552 39.1855L11.818 39.0612C11.9726 38.9913 12.104 38.8126 12.247 38.7154L12.6567 38.4319C12.8151 38.3231 12.9851 38.1794 12.9504 37.9502C12.788 37.7792 12.3436 38.125 12.22 37.8258C12.1233 37.5966 11.9765 37.5306 11.791 37.4102L10.9137 36.8275C10.8403 36.777 10.7553 36.5827 10.79 36.5089C10.8867 36.3108 11.3852 36.6643 11.4973 36.7731L11.8374 36.8702C11.876 37.0567 11.9919 37.1072 12.162 37.1305C13.2016 37.2742 12.9851 38.1444 13.3175 37.9424C13.9977 37.5189 13.333 37.8103 14.1252 37.6316C14.1368 37.6704 14.1059 37.9424 14.0286 38.024C13.8508 38.2143 13.5571 38.1755 13.2518 38.1133L13.2325 38.4979C13.1475 38.7698 12.7958 38.8631 12.5639 38.9796C12.2393 39.1428 11.9997 39.3409 11.7175 39.5584L11.4934 39.7333C11.1997 39.9586 10.906 40.1528 10.5852 40.3354C10.4461 40.4131 10.3186 40.5646 10.1408 40.6151C9.93209 40.6734 9.82002 40.8948 9.64611 40.9919L9.27124 41.2017V41.1861Z" fill="#F3EAD0"/>
<path d="M6.67808 40.0596C6.54668 40.1062 6.40369 39.9119 6.30321 39.8576C6.05201 39.7177 5.84332 39.5934 5.62303 39.4108C5.48391 39.2982 5.21338 39.1661 5.15928 39.0068C5.08199 38.7776 5.03948 38.7232 4.8733 38.5989C4.20858 38.0939 4.03081 38.1133 3.26948 37.5461L2.85983 37.2431C2.75162 37.1615 2.09464 36.7886 1.95937 36.439C1.6618 36.4079 1.43765 36.2292 1.27534 35.9845C1.14007 35.7825 0.823175 35.5999 1.04346 35.258L1.51881 35.9145C1.66566 36.1165 2.09464 36.2719 2.44632 36.5244L3.26562 37.1266C3.39315 37.2198 3.5516 37.3635 3.6714 37.4374L4.28201 37.8064C4.52548 37.954 4.76122 38.0939 4.98151 38.2803L5.33705 38.5795C5.42594 38.6533 7.09159 39.2865 6.67421 40.0634L6.67808 40.0596Z" fill="#F3EAD0"/>
<path d="M13.5957 12.9323C13.5377 13.0178 13.4025 13.1033 13.2981 13.0877C13.1667 12.7381 13.472 12.6526 13.6807 12.4972C13.7155 12.4701 13.8469 12.5516 13.8276 12.5905L13.5996 12.9285L13.5957 12.9323Z" fill="#F3EAD0"/>
<path d="M12.6373 13.6355L12.4982 13.9191C12.4595 13.9191 12.3513 13.7986 12.3784 13.752C12.4132 13.686 12.7648 13.1732 12.9697 13.3519C12.989 13.4762 12.8383 13.6433 12.6373 13.6355Z" fill="#F3EAD0"/>
</g>
<path d="M41.6 20.575L43.125 20L43.6 8.8L42.075 8.225V6.8H48.25L51.2 17.05H51.525L54.475 6.8H60.7V8.225L59.175 8.8L59.65 20L61.175 20.575V22H54.225V20.4L55.95 19.825L55.75 11.6H55.55C55.45 12.05 55.2917 12.6667 55.075 13.45C54.8583 14.2167 54.6667 14.875 54.5 15.425L52.625 20.975C52.2417 21.0417 51.7583 21.1167 51.175 21.2C50.6083 21.2833 50.1833 21.3417 49.9 21.375C49.8333 21.375 49.6583 21.2833 49.375 21.1L47.5 15.425C47.2167 14.5917 46.8667 13.3167 46.45 11.6H46.225L46 19.825L47.7 20.4V22H41.6V20.575ZM67.4287 20.575L69.0287 20V8.8L67.4037 8.225V6.8H74.3787V8.275L72.7537 8.85V19.95L74.3787 20.5V22H67.4287V20.575ZM90.326 22.25C90.276 22.25 90.1093 22.1667 89.826 22L87.001 16.075C86.4176 14.9417 85.8343 13.4667 85.251 11.65H85.026L85.276 18.925V19.825L86.976 20.4V22H80.851V20.575L82.376 20V8.8L80.851 8.225V6.8H86.651L89.901 13.75C90.2676 14.5 90.7176 15.75 91.251 17.5H91.476L91.251 9.8V8.975L89.551 8.4V6.8H95.651V8.225L94.126 8.8V21.85C93.626 21.9 92.9676 21.9667 92.151 22.05C91.3343 22.15 90.726 22.2167 90.326 22.25ZM101.793 20.575L103.318 20V8.8L101.793 8.225V6.8H110.043C110.96 6.8 111.81 7.03333 112.593 7.5C113.393 7.96667 114.043 8.74167 114.543 9.825C115.06 10.8917 115.318 12.2833 115.318 14C115.318 16.7167 114.86 18.7333 113.943 20.05C113.027 21.35 111.727 22 110.043 22H101.793V20.575ZM109.493 20.2C110.11 20.2 110.593 19.6667 110.943 18.6C111.293 17.5333 111.468 16.0667 111.468 14.2C111.468 12.6167 111.285 11.2833 110.918 10.2C110.568 9.11667 110.093 8.575 109.493 8.575L107.043 8.825V19.925L109.493 20.2ZM124.56 20.575L126.185 20V16.125L122.41 8.725L120.86 8.225V6.8H127.61V8.4L126.21 8.85C127.11 10.9667 127.802 12.55 128.285 13.6H128.535C128.869 12.8833 129.552 11.3 130.585 8.85L129.11 8.4V6.8H135.185V8.225L133.635 8.725C132.835 10.375 131.594 12.825 129.91 16.075V20L131.535 20.575V22H124.56V20.575ZM41.725 42.575L43.25 42V30.8L41.725 30.225V28.8H48.475V30.4L46.925 31V35.25H51.625V31L50.1 30.4V28.8H56.825V30.225L55.3 30.8V42L56.825 42.575V44H50.1V42.325L51.625 41.8V37.175H46.925V41.8L48.475 42.325V44H41.725V42.575ZM70.4027 44.275C67.9861 44.275 66.1861 43.6833 65.0027 42.5C63.8194 41.3 63.2277 39.425 63.2277 36.875C63.2277 35.825 63.3027 34.8667 63.4527 34C63.6027 33.1167 63.7944 32.375 64.0277 31.775C64.3611 31.3583 64.8777 30.8917 65.5777 30.375C66.2944 29.8583 67.0111 29.425 67.7277 29.075C68.4444 28.7083 68.9611 28.525 69.2777 28.525C71.7111 28.525 73.5194 29.125 74.7027 30.325C75.8861 31.5083 76.4777 33.3917 76.4777 35.975C76.4777 37.8417 76.2277 39.575 75.7277 41.175C75.3944 41.5583 74.8611 42 74.1277 42.5C73.3944 42.9833 72.6694 43.4 71.9527 43.75C71.2361 44.1 70.7194 44.275 70.4027 44.275ZM70.2277 42.3C70.3944 42.3 70.7444 42.2 71.2777 42C71.8111 41.7833 72.1111 41.6417 72.1777 41.575C72.4277 40.1917 72.5527 38.475 72.5527 36.425C72.5527 34.3917 72.3527 32.9 71.9527 31.95C71.5527 31 70.7861 30.525 69.6527 30.525C68.9027 30.525 68.3777 30.6 68.0777 30.75C67.7944 30.9 67.5611 31.4917 67.3777 32.525C67.2111 33.5417 67.1277 34.8167 67.1277 36.35C67.1277 37.8833 67.2194 39.075 67.4027 39.925C67.6027 40.775 67.9194 41.3833 68.3527 41.75C68.8027 42.1167 69.4277 42.3 70.2277 42.3ZM88.6523 44.275C87.0523 44.275 85.9107 43.875 85.2273 43.075C84.544 42.2583 84.2023 40.9833 84.2023 39.25V30.8L82.6773 30.225V28.8H89.3273V30.4L87.8773 31V38.525C87.8773 39.6083 88.0023 40.325 88.2523 40.675C88.5023 41.0083 88.869 41.175 89.3523 41.175C89.719 41.175 90.2607 41.0833 90.9773 40.9C91.694 40.7 92.1107 40.5833 92.2273 40.55V31L90.7773 30.4V28.8H97.4273V30.225L95.9023 30.8V42L97.4273 42.575V44H92.9023L92.3523 42.5C90.0357 43.6833 88.8023 44.275 88.6523 44.275ZM109.293 44.275C108.46 44.275 107.076 44.1917 105.143 44.025L103.868 43.925L104.043 39.125H105.918L106.393 41.75C108.126 42.0167 109.26 42.15 109.793 42.15C109.876 42.15 110.01 41.9917 110.193 41.675C110.376 41.3417 110.468 41.0333 110.468 40.75C110.451 40.1667 110.226 39.675 109.793 39.275C109.36 38.875 108.693 38.4083 107.793 37.875C106.976 37.3917 106.318 36.9667 105.818 36.6C105.318 36.2167 104.885 35.7333 104.518 35.15C104.168 34.5667 103.993 33.8833 103.993 33.1C103.993 32.6667 104.035 32.25 104.118 31.85C104.318 31.4667 104.726 31.0167 105.343 30.5C105.976 29.9667 106.626 29.5083 107.293 29.125C107.96 28.725 108.451 28.525 108.768 28.525C109.051 28.525 109.71 28.5833 110.743 28.7C111.776 28.8 112.743 28.9167 113.643 29.05L113.443 33.525H111.568L111.218 31.125C109.468 30.825 108.393 30.675 107.993 30.675C107.843 30.675 107.718 30.8 107.618 31.05C107.518 31.3 107.468 31.625 107.468 32.025C107.468 32.625 107.668 33.15 108.068 33.6C108.485 34.0333 109.076 34.475 109.843 34.925L110.368 35.225C111.185 35.7083 111.835 36.1333 112.318 36.5C112.818 36.85 113.235 37.2917 113.568 37.825C113.918 38.3583 114.093 38.9833 114.093 39.7C114.093 40.15 114.043 40.575 113.943 40.975C113.71 41.425 113.285 41.9083 112.668 42.425C112.068 42.9417 111.443 43.3833 110.793 43.75C110.16 44.1 109.66 44.275 109.293 44.275ZM120.246 42.575L121.771 42V30.8L120.246 30.225V28.8H131.771L131.446 33.45H129.596L129.296 30.575L125.496 30.925V35.125L128.971 35.25V37.1L125.496 37.25V41.825L129.521 42.225L129.946 39.25H131.796L131.896 44H120.246V42.575Z" fill="#F3EAD0"/>
<defs>
<clipPath id="clip0_146_1794">
<rect width="33" height="48" fill="white"/>
</clipPath>
</defs>
</svg>
