<svg width="728" height="119" viewBox="0 0 728 119" fill="none" xmlns="http://www.w3.org/2000/svg">
<path d="M681.549 74.6006L682.895 74.1348C685.884 73.0998 688.876 71.949 691.869 70.6826L691.882 70.6777L691.894 70.6729C694.82 69.4805 697.202 67.9333 699.085 66.0576C700.749 64.2926 701.674 61.8565 701.674 58.5244C701.674 55.8124 701.12 54.21 700.387 53.3301L700.33 53.2617L700.279 53.1885C699.468 52.0171 698.498 51.3264 697.349 50.998L697.264 50.9736L697.181 50.9414C695.916 50.4548 694.75 50.2229 693.673 50.2031C693.558 50.2435 693.376 50.3189 693.114 50.4434C692.578 50.6987 691.833 51.1029 690.862 51.6738L690.824 51.6963L690.784 51.7178C688.882 52.7248 686.552 54.1436 683.783 55.9893L683.774 55.9941L683.766 56C682.202 57.0195 680.581 58.0799 678.898 59.1787V103.42L684.849 106.046V115.51L683.188 115.796C679.829 116.375 677.062 116.893 674.881 117.352L674.882 117.353C672.814 117.812 671.125 118.117 669.852 118.252C668.697 118.48 667.694 118.625 666.924 118.625C666.126 118.625 665.45 118.225 665.105 118.006C664.663 117.724 664.183 117.344 663.682 116.905C662.717 116.061 661.809 115.215 660.959 114.364L660.912 114.317L660.868 114.267C660.429 113.765 660.049 113.285 659.768 112.843C659.548 112.498 659.148 111.822 659.148 111.024V15.0928L652.849 12.6426V3.18262L654.43 2.84375C656.096 2.48673 657.817 2.18952 659.592 1.95117C661.317 1.60692 662.937 1.31792 664.449 1.08398C666.051 0.741672 667.419 0.501777 668.535 0.373047C669.617 0.157985 670.55 7.19114e-05 671.123 0L671.411 0.0146484C672.069 0.0811121 672.626 0.363394 673.028 0.619141C673.499 0.9186 673.96 1.31457 674.407 1.75684C675.377 2.60889 676.289 3.52015 677.141 4.49023C677.583 4.93769 677.98 5.39925 678.279 5.87012C678.571 6.32926 678.898 6.99084 678.898 7.77441V7.81641L678.102 46.3535C679.036 45.5385 680.015 44.7091 681.038 43.8662C683.006 42.1296 684.86 40.5064 686.601 38.998C688.35 37.3663 689.836 36.0582 691.049 35.0879C691.698 34.5575 692.251 34.1294 692.691 33.8242C692.91 33.6726 693.14 33.5238 693.364 33.4053C693.476 33.3461 693.62 33.2767 693.784 33.2178C693.923 33.1678 694.211 33.0752 694.573 33.0752L695.398 33.0801C703.847 33.1957 710.46 35.1071 714.822 39.1992C719.387 43.373 721.599 49.0201 721.599 55.8994C721.599 60.432 720.463 64.5316 718.157 68.1367L718.158 68.1377C716.041 71.6256 713.353 74.5646 710.104 76.9395C707.744 78.6636 705.401 80.1258 703.076 81.3203L719.454 102.897L727.198 105.996V115.387L725.684 115.765C724.271 116.118 722.801 116.471 721.273 116.823L721.201 116.84L721.128 116.852C719.638 117.081 718.204 117.31 716.829 117.539C715.467 117.876 714.23 118.116 713.126 118.246C712.266 118.458 711.45 118.625 710.849 118.625C710.324 118.625 709.901 118.43 709.751 118.36C709.532 118.258 709.315 118.131 709.118 118.006C708.726 117.756 708.256 117.413 707.724 117L706.265 115.895C705.764 115.512 705.25 115.115 704.721 114.703L704.622 114.627L704.534 114.539C703.596 113.601 702.866 112.814 702.424 112.225L702.404 112.199L702.386 112.173L681.549 82.4307V74.6006ZM654.849 11.2744L661.148 13.7246V111.024C661.148 111.374 661.556 112.017 662.373 112.95C663.19 113.767 664.065 114.583 664.998 115.399C665.873 116.165 666.492 116.572 666.854 116.62L666.924 116.625C667.507 116.625 668.382 116.508 669.549 116.274C670.715 116.158 672.349 115.866 674.448 115.399C676.665 114.933 679.465 114.409 682.849 113.825V107.35L676.898 104.725V58.0957L682.674 54.3252C685.124 52.6918 687.261 51.3704 689.086 50.3623L689.849 49.9502C691.832 48.7835 693.057 48.2002 693.523 48.2002C694.923 48.2002 696.382 48.4919 697.898 49.0752C699.532 49.5419 700.874 50.5332 701.924 52.0498C703.09 53.4497 703.674 55.6081 703.674 58.5244L703.661 59.2158C703.538 62.627 702.492 65.3721 700.523 67.4502C698.423 69.5501 695.798 71.2411 692.648 72.5244C689.615 73.8077 686.582 74.9745 683.549 76.0244V81.7998L704.023 111.024C704.373 111.491 705.015 112.192 705.948 113.125C706.998 113.942 707.99 114.699 708.924 115.399C709.908 116.165 710.533 116.572 710.8 116.62L710.849 116.625C711.199 116.625 711.84 116.508 712.773 116.274C713.823 116.158 715.048 115.925 716.448 115.575C717.148 115.459 717.863 115.341 718.592 115.225L720.823 114.875C722.34 114.525 723.798 114.175 725.198 113.825V107.35L718.198 104.55L699.998 80.5752C702.732 79.3721 705.519 77.7587 708.355 75.7354L708.924 75.3252C711.957 73.1085 714.465 70.3663 716.448 67.0996C718.417 64.0371 719.463 60.5645 719.586 56.6816L719.599 55.8994C719.599 49.483 717.557 44.4081 713.474 40.6748C709.507 36.9415 703.207 35.0752 694.573 35.0752C694.34 35.0755 693.582 35.5999 692.299 36.6494L691.848 37.0166C690.763 37.9098 689.455 39.0709 687.924 40.5L685.211 42.8623C684.278 43.6789 683.315 44.5244 682.323 45.3994C680.34 47.0328 678.532 48.6083 676.898 50.125H676.023L676.898 7.77441C676.898 7.3078 676.49 6.666 675.674 5.84961C674.857 4.91632 673.982 4.04125 673.049 3.22461C672.232 2.40795 671.59 2 671.123 2C670.773 2.00009 670.015 2.1164 668.849 2.34961L668.006 2.45898C667.109 2.59024 666.048 2.78734 664.823 3.0498C663.307 3.28312 661.674 3.57486 659.924 3.9248C658.174 4.15813 656.482 4.44983 654.849 4.7998V11.2744Z" fill="#FBFF00"/>
<path d="M598.674 36.2061L600.315 35.9072L600.317 35.9062H600.321L600.323 35.9053H600.327L600.33 35.9043C600.332 35.904 600.331 35.9046 600.333 35.9043L600.336 35.9033H600.339C600.34 35.903 600.341 35.9026 600.343 35.9023C600.346 35.9018 600.342 35.902 600.346 35.9014H600.35L600.352 35.9004H600.354L600.378 35.8955C600.381 35.895 600.381 35.8951 600.384 35.8945H600.387L600.39 35.8936C600.391 35.8933 600.395 35.8927 600.396 35.8926L600.398 35.8916H600.403L600.404 35.8906H600.408C600.414 35.8895 600.429 35.886 600.437 35.8848C600.469 35.8788 600.686 35.8395 600.797 35.8193C600.825 35.8142 601.018 35.7794 601.067 35.7705C601.095 35.7654 601.193 35.7472 601.226 35.7412C601.243 35.7381 601.292 35.7299 601.311 35.7266L601.332 35.7227C601.335 35.7221 601.352 35.7193 601.354 35.7188C601.36 35.7178 601.371 35.7148 601.376 35.7139C601.383 35.7126 601.391 35.7113 601.398 35.71C601.541 35.6841 601.628 35.6682 601.79 35.6387C601.887 35.6211 602.071 35.5869 602.199 35.5635C603.628 35.2087 605.273 34.857 607.13 34.5088C608.993 34.1595 610.689 33.8668 612.219 33.6309C613.017 33.4603 613.678 33.3275 614.194 33.2363C614.666 33.153 615.171 33.0752 615.549 33.0752L615.725 33.0811C616.126 33.1103 616.46 33.2335 616.664 33.3193C616.93 33.4312 617.188 33.5744 617.428 33.7217C617.908 34.0171 618.462 34.4245 619.073 34.9131C620.306 35.8993 621.425 36.9536 622.428 38.0762C622.963 38.6136 623.418 39.1138 623.755 39.5625C623.927 39.7917 624.101 40.0503 624.239 40.3271C624.361 40.5716 624.549 41.0092 624.549 41.5498V41.6006L624.546 41.6523L624.468 43.1611C624.742 42.869 625.014 42.5806 625.279 42.293L625.283 42.2891C626.813 40.6415 628.23 39.1645 629.534 37.8604C630.833 36.5618 631.924 35.5294 632.797 34.7812C633.278 34.3605 633.714 34.0043 634.089 33.7422C634.276 33.6112 634.49 33.4744 634.714 33.3623C634.877 33.2807 635.305 33.0752 635.849 33.0752L636.148 33.0801C637.682 33.1279 639.716 33.5316 642.149 34.1953C644.084 34.7228 645.707 35.1893 647.01 35.5938L648.206 35.9775L649.154 36.2939L649.471 37.2422C649.741 38.0534 649.993 39.0771 650.234 40.2822C650.473 41.4739 650.624 42.5096 650.624 43.2998C650.624 43.8365 650.464 44.3541 650.328 44.7266C650.184 45.122 649.988 45.5609 649.755 46.0312C649.379 47.0163 648.897 48.0363 648.315 49.0898C647.826 50.1784 647.269 51.1749 646.639 52.0713C646.401 52.4821 646.167 52.8547 645.937 53.1621C645.751 53.4095 645.365 53.9022 644.793 54.1885L643.964 54.6035L643.11 54.2383C642.355 53.9147 641.475 53.5835 640.466 53.2471C639.5 52.9252 638.473 52.6538 637.382 52.4355L637.36 52.4316L637.34 52.4268C636.446 52.2281 635.558 52.1287 634.675 52.125C634.641 52.1318 634.584 52.1462 634.498 52.1719C634.303 52.2303 634.028 52.331 633.661 52.4883L633.545 52.5381L633.423 52.5732C632.8 52.7514 632.011 53.0861 631.045 53.623L630.967 53.666L630.886 53.7021C629.896 54.1419 628.779 54.7002 627.531 55.3809L627.5 55.3975L627.468 55.4141C626.624 55.8359 625.709 56.3244 624.724 56.8818V102.528L633.648 105.153V115.465L632.041 115.786H632.039L632.037 115.787C632.034 115.788 632.037 115.787 632.034 115.787L632.032 115.788C632.031 115.788 632.032 115.788 632.03 115.788C632.026 115.789 632.03 115.788 632.025 115.789C632.018 115.791 632.027 115.788 632.02 115.79L632.017 115.791H632.014L631.979 115.798C631.88 115.818 632.036 115.787 631.932 115.808C631.926 115.809 631.881 115.818 631.87 115.82C631.865 115.821 631.805 115.833 631.795 115.835C631.737 115.847 631.811 115.832 631.752 115.844C631.751 115.844 631.747 115.844 631.746 115.845C631.74 115.846 631.747 115.844 631.741 115.846C631.733 115.847 631.738 115.847 631.729 115.849C631.712 115.852 631.724 115.849 631.706 115.853L631.604 115.873C631.592 115.875 631.504 115.893 631.487 115.896L631.424 115.909C631.422 115.909 631.391 115.916 631.391 115.916C631.37 115.92 631.395 115.915 631.374 115.919L631.366 115.921C631.362 115.922 631.362 115.922 631.357 115.923C631.249 115.945 631.183 115.957 631.057 115.982C630.941 116.006 631.09 115.977 630.973 116C630.924 116.01 630.935 116.007 630.886 116.017C630.884 116.017 630.882 116.018 630.88 116.019C630.878 116.019 630.876 116.019 630.874 116.02L630.869 116.021L630.852 116.023L630.847 116.024C630.845 116.025 630.843 116.026 630.841 116.026L630.823 116.029L630.818 116.03C630.817 116.031 630.814 116.031 630.812 116.031C630.811 116.032 630.809 116.033 630.807 116.033L630.783 116.037C630.781 116.037 630.779 116.039 630.777 116.039L630.76 116.042C630.755 116.043 630.753 116.044 630.748 116.045C630.724 116.05 630.749 116.044 630.725 116.049C630.707 116.052 630.73 116.048 630.713 116.052L630.701 116.054C630.694 116.055 630.697 116.055 630.689 116.057C630.687 116.057 630.685 116.057 630.683 116.058C630.681 116.058 630.679 116.058 630.677 116.059L630.579 116.078C630.529 116.088 630.604 116.073 630.554 116.083C630.458 116.102 630.599 116.075 630.503 116.094C630.48 116.098 630.475 116.099 630.451 116.104C630.449 116.104 630.447 116.105 630.444 116.105C630.442 116.106 630.44 116.106 630.438 116.106C630.42 116.11 630.444 116.106 630.425 116.109C630.387 116.117 630.437 116.107 630.398 116.114C630.322 116.13 630.422 116.11 630.345 116.125C630.34 116.126 630.337 116.127 630.332 116.128C630.33 116.128 630.327 116.128 630.325 116.129C630.323 116.129 630.321 116.13 630.318 116.131C630.315 116.132 630.295 116.135 630.291 116.136L630.195 116.155L630.098 116.165C629.02 116.273 627.631 116.493 625.916 116.836L625.853 116.849L625.788 116.857C624.049 117.089 622.253 117.32 620.4 117.552C618.558 117.896 616.91 118.133 615.464 118.258C614.28 118.472 613.304 118.625 612.749 118.625C611.951 118.625 611.275 118.225 610.931 118.006C610.488 117.724 610.008 117.344 609.507 116.905C608.538 116.058 607.572 115.152 606.609 114.189L606.562 114.142L606.519 114.092C606.079 113.59 605.7 113.11 605.418 112.667C605.199 112.322 604.799 111.647 604.799 110.85V47.8779L598.674 45.7783V36.2061ZM600.674 44.3496L606.799 46.4502V110.85C606.799 111.2 607.207 111.841 608.023 112.774C608.957 113.708 609.89 114.583 610.823 115.399C611.698 116.165 612.317 116.572 612.68 116.62L612.749 116.625C613.099 116.625 613.916 116.508 615.198 116.274C616.598 116.158 618.232 115.925 620.099 115.575C621.032 115.459 621.95 115.341 622.854 115.225L625.523 114.875C627.055 114.569 628.363 114.351 629.447 114.224L629.898 114.175C631.051 113.944 631.634 113.828 631.648 113.825V106.649L622.724 104.024V55.7246C623.774 55.1121 624.758 54.5652 625.677 54.084L626.573 53.625C627.536 53.1 628.433 52.6408 629.265 52.2471L630.073 51.875C630.992 51.3646 631.821 50.9876 632.562 50.7451L632.874 50.6494C633.69 50.2995 634.274 50.125 634.624 50.125C635.674 50.125 636.724 50.2413 637.773 50.4746C638.94 50.7079 640.049 50.9996 641.099 51.3496C642.149 51.6996 643.082 52.0495 643.898 52.3994C644.132 52.2828 644.482 51.8165 644.948 51C645.532 50.1834 646.057 49.25 646.523 48.2002C647.107 47.1502 647.574 46.1579 647.924 45.2246C648.332 44.4078 648.561 43.8143 648.612 43.4443L648.624 43.2998C648.624 42.8623 648.558 42.2607 648.427 41.4951L648.273 40.6748C648.098 39.7998 647.924 39.0559 647.749 38.4434L647.573 37.875C646.523 37.525 645.145 37.1091 643.439 36.6279L641.624 36.125C639.057 35.425 637.132 35.0752 635.849 35.0752C635.615 35.0752 635.032 35.4831 634.099 36.2998L633.442 36.8799C632.742 37.5142 631.911 38.312 630.948 39.2744C629.665 40.5576 628.266 42.0162 626.749 43.6494C625.349 45.1661 623.832 46.7417 622.198 48.375L622.549 41.5498C622.549 41.1998 622.024 40.5001 620.974 39.4502C620.04 38.4002 618.99 37.4079 617.823 36.4746C616.657 35.5416 615.899 35.0754 615.549 35.0752C615.199 35.0752 614.207 35.2496 612.573 35.5996C611.057 35.8329 609.365 36.1247 607.499 36.4746L606.143 36.7373C604.83 36.9998 603.649 37.2619 602.599 37.5244C601.327 37.7557 600.685 37.8729 600.674 37.875V44.3496Z" fill="#FBFF00"/>
<path d="M588.052 71.8252C588.052 60.4102 585.205 51.5679 579.512 45.2988L578.952 44.7002C573.188 38.4841 564.687 35.2783 553.448 35.084L552.352 35.0752C551.302 35.0753 549.551 35.7749 547.102 37.1748C544.652 38.4581 541.968 40.0919 539.052 42.0752C536.252 43.9418 533.627 45.9245 531.177 48.0244C528.843 50.0077 527.21 51.6996 526.276 53.0996C525.11 55.3162 524.118 58.8746 523.302 63.7744C522.485 68.5577 522.077 73.5752 522.077 78.8252L522.086 80.0391C522.27 92.4856 525.3 101.647 531.177 107.524C537.167 113.401 545.894 116.432 557.358 116.616L558.477 116.625C559.527 116.625 561.219 115.983 563.552 114.7C566.002 113.417 568.627 111.783 571.427 109.8C574.343 107.816 576.968 105.891 579.302 104.024C581.343 102.289 582.85 100.867 583.819 99.7568L584.202 99.2998C585.019 96.8498 585.79 93.5958 586.518 89.5381L586.827 87.75C587.593 83.1562 587.999 78.2032 588.047 72.8916L588.052 71.8252ZM569.252 74.0996C569.252 68.4311 568.514 63.6563 567.096 59.7295L567.074 59.667C565.769 55.6416 563.803 52.6776 561.252 50.6367L561.233 50.6221L561.216 50.6064C558.717 48.5075 555.521 47.3994 551.477 47.3994C550.444 47.3994 549.409 47.503 548.369 47.7109L548.273 47.7305L548.176 47.7402C547.289 47.8289 546.37 48.0948 545.41 48.5693C545.242 48.6702 544.766 49.1128 544.156 50.4658C543.565 51.7779 542.973 53.6544 542.405 56.1514C541.397 61.0934 540.877 67.8168 540.877 76.375C540.877 84.5269 541.916 90.5335 543.825 94.5752L544.2 95.3193C546.094 98.947 548.322 101.295 550.801 102.588C553.598 103.93 556.345 104.599 559.057 104.645C559.399 104.518 560.1 104.215 561.258 103.636C562.638 102.946 563.958 102.257 565.219 101.569L565.25 101.552L565.282 101.536C565.457 101.449 565.368 101.494 565.537 101.409C565.547 101.404 565.768 101.293 565.774 101.29C565.777 101.289 565.779 101.287 565.781 101.286L565.803 101.275C565.821 101.266 565.813 101.271 565.831 101.262C565.85 101.252 565.827 101.263 565.846 101.254L565.859 101.247C565.878 101.238 565.869 101.243 565.888 101.233L565.929 101.213C565.931 101.212 565.933 101.21 565.936 101.209C565.938 101.208 565.94 101.207 565.942 101.206C565.96 101.197 565.951 101.201 565.969 101.192L566.049 101.152C566.117 101.118 566.032 101.161 566.101 101.127C566.103 101.126 566.105 101.125 566.107 101.124C566.109 101.123 566.111 101.121 566.113 101.12C566.115 101.119 566.118 101.118 566.12 101.117L566.126 101.114C566.128 101.113 566.131 101.112 566.133 101.111C566.135 101.11 566.137 101.108 566.139 101.107C566.141 101.106 566.143 101.106 566.146 101.104L566.151 101.102C566.252 101.051 566.101 101.126 566.201 101.076C566.21 101.072 566.384 100.985 566.39 100.982L566.401 100.977C566.403 100.976 566.405 100.974 566.406 100.974L566.418 100.968C566.42 100.967 566.421 100.967 566.423 100.966L566.478 100.938C566.505 100.925 566.513 100.92 566.52 100.917C567.039 98.4075 567.609 95.2012 568.227 91.2881C568.904 87.0008 569.252 81.2834 569.252 74.0996ZM571.248 75.4395C571.207 82.0566 570.858 87.4434 570.202 91.5996L569.942 93.2217C569.343 96.9091 568.787 99.9266 568.276 102.274C568.264 102.28 567.565 102.631 566.177 103.325L565.203 103.85C564.219 104.375 563.201 104.9 562.151 105.425L561.189 105.896C560.314 106.311 559.702 106.562 559.352 106.649C556.202 106.649 553.051 105.892 549.901 104.375C546.752 102.742 544.126 99.7667 542.026 95.4502C540.058 91.2939 539.012 85.4454 538.889 77.9053L538.877 76.375C538.877 67.7417 539.402 60.8579 540.452 55.7246C541.619 50.5916 542.96 47.6166 544.477 46.7998C545.497 46.2894 546.518 45.9578 547.539 45.8047L547.977 45.75C549.143 45.5167 550.31 45.3994 551.477 45.3994C555.91 45.3994 559.585 46.6252 562.502 49.0752C565.418 51.4085 567.577 54.7333 568.977 59.0498C570.493 63.2498 571.252 68.2664 571.252 74.0996L571.248 75.4395ZM590.052 71.8252C590.052 77.6356 589.637 83.0549 588.8 88.0781C587.976 93.0218 587.081 96.9893 586.1 99.9326L585.986 100.271L585.764 100.549C584.705 101.873 582.948 103.55 580.597 105.549L580.574 105.568L580.551 105.587C578.171 107.491 575.504 109.447 572.552 111.454L572.551 111.453C569.706 113.466 567.015 115.143 564.479 116.472C563.28 117.13 562.196 117.652 561.242 118.014C560.309 118.367 559.358 118.625 558.477 118.625C546.142 118.625 536.459 115.508 529.776 108.952L529.77 108.945L529.763 108.939C523.164 102.341 520.077 92.1496 520.077 78.8252C520.077 73.4716 520.493 68.3415 521.33 63.4385C522.154 58.4961 523.186 54.678 524.507 52.168L524.556 52.0762L524.612 51.9902C525.7 50.3591 527.499 48.5262 529.875 46.5059C532.384 44.3553 535.069 42.3273 537.927 40.4209C540.883 38.4106 543.627 36.7384 546.155 35.4131C547.407 34.6997 548.529 34.1351 549.509 33.7432C550.462 33.3617 551.445 33.0752 552.352 33.0752C564.474 33.0752 573.946 36.3797 580.392 43.3125C586.927 50.0994 590.052 59.7084 590.052 71.8252Z" fill="#FBFF00"/>
<path d="M508.694 33.0801C509.456 33.128 510.066 33.518 510.387 33.7422C510.797 34.0295 511.222 34.4087 511.65 34.834C512.593 35.6523 513.44 36.6403 514.202 37.7764C514.931 38.7568 515.615 39.947 515.615 41.2002V41.5L515.527 41.7881L492.96 115.175L491.824 115.427L491.823 115.428C491.82 115.428 491.824 115.427 491.82 115.428C491.818 115.428 491.82 115.428 491.818 115.429C491.818 115.429 491.812 115.43 491.811 115.431H491.807L491.806 115.432H491.803C491.802 115.432 491.801 115.432 491.8 115.433C491.779 115.437 491.793 115.434 491.769 115.439C491.717 115.451 491.781 115.437 491.726 115.449L491.603 115.477C491.52 115.495 491.609 115.475 491.522 115.494L491.479 115.504C491.391 115.523 491.518 115.495 491.431 115.515L490.938 115.624C490.914 115.629 490.813 115.652 490.784 115.658C490.782 115.659 490.767 115.663 490.765 115.663C490.726 115.672 490.782 115.659 490.744 115.667C490.734 115.669 490.714 115.674 490.703 115.677C490.617 115.696 490.705 115.676 490.618 115.695C490.484 115.725 490.578 115.704 490.439 115.734C490.396 115.744 490.438 115.735 490.394 115.745C490.378 115.749 490.385 115.747 490.37 115.75C490.339 115.757 490.377 115.749 490.346 115.756C490.332 115.759 490.348 115.755 490.334 115.758C490.327 115.759 490.329 115.759 490.322 115.761C490.32 115.761 490.318 115.762 490.316 115.763C490.314 115.763 490.312 115.763 490.31 115.764C490.305 115.765 490.303 115.765 490.298 115.767C490.21 115.786 490.337 115.758 490.249 115.777C489.306 116.013 488.085 116.303 486.59 116.648L486.518 116.665L486.444 116.677C484.948 116.907 483.451 117.137 481.955 117.367C480.459 117.712 479.126 118.003 477.957 118.236C477.365 118.355 476.875 118.446 476.494 118.51C476.174 118.563 475.775 118.625 475.465 118.625C474.839 118.625 474.295 118.363 474.046 118.238C473.708 118.069 473.339 117.844 472.956 117.589L472.884 117.541L472.815 117.486C472.814 117.486 472.814 117.484 472.812 117.483C472.811 117.483 472.81 117.482 472.809 117.481C472.808 117.481 472.807 117.479 472.806 117.479C472.805 117.478 472.803 117.476 472.802 117.476C472.801 117.475 472.8 117.473 472.799 117.473C472.798 117.472 472.797 117.471 472.796 117.471C472.795 117.47 472.793 117.469 472.792 117.468C472.791 117.467 472.79 117.466 472.789 117.465C472.788 117.464 472.786 117.463 472.785 117.462C472.784 117.461 472.783 117.46 472.782 117.459C472.781 117.458 472.779 117.458 472.778 117.457L472.772 117.451C472.771 117.45 472.77 117.45 472.769 117.449C472.768 117.448 472.767 117.447 472.766 117.446C472.765 117.445 472.763 117.444 472.762 117.443C472.761 117.443 472.76 117.441 472.759 117.44C472.758 117.44 472.757 117.439 472.756 117.438C472.755 117.438 472.753 117.436 472.752 117.436C472.751 117.435 472.75 117.433 472.749 117.433C472.748 117.432 472.746 117.432 472.745 117.431L472.739 117.425C472.738 117.424 472.736 117.424 472.735 117.423L472.729 117.417C472.728 117.416 472.727 117.416 472.726 117.415L472.72 117.409C472.719 117.408 472.718 117.408 472.717 117.407C472.716 117.406 472.714 117.405 472.713 117.404C472.712 117.403 472.711 117.402 472.71 117.401C472.709 117.401 472.708 117.4 472.707 117.399C472.706 117.399 472.704 117.397 472.703 117.396C472.702 117.396 472.701 117.395 472.7 117.395L472.694 117.389C472.693 117.388 472.691 117.388 472.69 117.387C472.689 117.386 472.689 117.385 472.688 117.384C472.687 117.383 472.685 117.383 472.685 117.382C472.684 117.381 472.683 117.38 472.682 117.379C472.681 117.378 472.679 117.377 472.678 117.376C472.677 117.375 472.676 117.375 472.675 117.374C472.674 117.373 472.673 117.372 472.672 117.371C472.671 117.37 472.67 117.37 472.669 117.369C472.668 117.368 472.667 117.367 472.666 117.366C472.665 117.365 472.663 117.365 472.662 117.364C472.661 117.363 472.66 117.362 472.659 117.361C472.658 117.361 472.657 117.36 472.656 117.359C472.655 117.359 472.654 117.357 472.653 117.356C472.652 117.356 472.651 117.355 472.65 117.354L472.645 117.349C472.644 117.348 472.642 117.347 472.641 117.347C472.64 117.346 472.639 117.345 472.638 117.344L472.632 117.34C472.631 117.339 472.63 117.338 472.629 117.337C472.628 117.336 472.627 117.336 472.626 117.335C472.625 117.334 472.624 117.333 472.623 117.332C472.622 117.331 472.621 117.331 472.62 117.33C472.619 117.329 472.618 117.328 472.617 117.327C472.616 117.326 472.614 117.326 472.613 117.325C472.612 117.324 472.611 117.323 472.61 117.322C472.609 117.322 472.608 117.321 472.607 117.32C472.606 117.32 472.605 117.318 472.604 117.317C472.604 117.317 472.602 117.316 472.602 117.315C472.601 117.315 472.6 117.313 472.599 117.312L472.593 117.309C472.592 117.308 472.591 117.306 472.59 117.306C472.589 117.305 472.588 117.304 472.587 117.304C472.586 117.303 472.585 117.302 472.584 117.301L472.578 117.297C472.577 117.296 472.576 117.295 472.575 117.294C472.574 117.293 472.573 117.293 472.572 117.292C472.571 117.291 472.57 117.29 472.569 117.289L472.563 117.285C472.563 117.284 472.561 117.283 472.561 117.282L472.555 117.278C472.554 117.278 472.554 117.276 472.553 117.275L472.547 117.271C472.546 117.271 472.545 117.269 472.544 117.269L472.538 117.265C472.537 117.264 472.536 117.262 472.535 117.262L472.529 117.258L472.524 117.253L472.519 117.249C472.518 117.248 472.517 117.247 472.516 117.246L472.51 117.242L472.505 117.237L472.496 117.231C472.495 117.231 472.495 117.229 472.494 117.229L472.485 117.223L472.48 117.218L472.475 117.214L472.473 117.212C472.472 117.211 472.471 117.211 472.47 117.21C472.469 117.209 472.468 117.208 472.467 117.207C472.466 117.206 472.465 117.206 472.464 117.205L472.462 117.203L472.456 117.199L472.451 117.194C472.45 117.194 472.449 117.193 472.448 117.192L472.446 117.19L472.44 117.187L472.438 117.185L472.433 117.181L472.426 117.174L472.42 117.17L472.418 117.168C472.417 117.167 472.416 117.167 472.415 117.166L472.413 117.164C472.412 117.163 472.411 117.163 472.41 117.162L472.408 117.16L472.402 117.156L472.4 117.154C472.4 117.154 472.398 117.153 472.397 117.152L472.396 117.15C472.395 117.15 472.393 117.149 472.393 117.148L472.391 117.146C472.39 117.146 472.389 117.145 472.388 117.145L472.386 117.143C472.385 117.142 472.384 117.141 472.383 117.141L472.381 117.139C472.38 117.138 472.379 117.137 472.378 117.137L472.376 117.135C472.375 117.134 472.374 117.133 472.373 117.133L472.371 117.131C472.37 117.13 472.369 117.13 472.368 117.129L472.364 117.125C472.363 117.124 472.362 117.124 472.361 117.123L472.359 117.121C472.359 117.12 472.357 117.12 472.356 117.119L472.353 117.115C472.352 117.115 472.35 117.114 472.35 117.113L472.348 117.111L472.345 117.11L472.341 117.106L472.338 117.104L472.334 117.101L472.331 117.099L472.329 117.097L472.327 117.096L472.324 117.094L472.32 117.09L472.317 117.088L472.313 117.084L472.311 117.083L472.305 117.077L472.302 117.075L472.3 117.074L472.296 117.07L472.293 117.068L472.291 117.066L472.289 117.065L472.285 117.062L472.282 117.06L472.28 117.059L472.274 117.053L472.272 117.052L472.27 117.05L472.268 117.048L472.266 117.047L472.26 117.041L472.258 117.04L472.256 117.038L472.253 117.036L472.251 117.035L472.247 117.031L472.245 117.03L472.243 117.028L472.241 117.027L472.237 117.023L472.235 117.022L472.231 117.019L472.229 117.018L472.228 117.016L472.226 117.015L472.222 117.011L472.22 117.01L472.218 117.008L472.216 117.007L472.214 117.005L472.212 117.004L472.208 117L472.206 116.999L472.204 116.997L472.202 116.996L472.197 116.991L472.195 116.99L472.193 116.988L472.191 116.987L472.189 116.985L472.188 116.984L472.183 116.979L472.181 116.979L472.179 116.977L472.177 116.976L472.174 116.973L472.172 116.972L472.17 116.97L472.168 116.969L472.163 116.964L472.159 116.962L472.158 116.96L472.156 116.959L472.154 116.957L472.152 116.956L472.149 116.953L472.147 116.952L472.145 116.949L472.143 116.948L472.14 116.945L472.138 116.944L472.135 116.941L472.133 116.94L472.13 116.938L472.128 116.937L472.124 116.933L472.12 116.931L472.119 116.929L472.117 116.928L472.116 116.927L472.114 116.926L472.113 116.924L472.109 116.922L472.105 116.918L472.104 116.917L472.103 116.916L472.101 116.915L472.1 116.913L472.098 116.912L472.097 116.911L472.095 116.91L472.09 116.905L472.088 116.904L472.087 116.903L472.085 116.902L472.08 116.897L472.078 116.896L472.076 116.895L472.074 116.894L472.073 116.893L472.071 116.892L472.07 116.891L472.069 116.889L472.067 116.888L472.065 116.886L472.063 116.885L472.061 116.882L472.059 116.881L472.057 116.879L472.055 116.878L472.052 116.875L472.05 116.874L472.046 116.87L472.044 116.869L472.04 116.865L472.038 116.864L472.037 116.863L472.033 116.86L472.031 116.859L472.026 116.854L472.021 116.851L472.02 116.85L472.019 116.849L472.014 116.845L472.009 116.841L472.005 116.838L472.004 116.837L472.002 116.835L471.998 116.832L471.992 116.827L471.987 116.823L471.983 116.82L471.982 116.819L471.979 116.816L471.977 116.815L471.976 116.814L471.974 116.812L471.973 116.812L471.97 116.81L471.969 116.809L471.968 116.808L471.964 116.805L471.963 116.804L471.962 116.803L471.958 116.8L471.957 116.799L471.955 116.798L471.954 116.797L471.953 116.796L471.952 116.795L471.95 116.794L471.949 116.793L471.948 116.792L471.947 116.791L471.945 116.79L471.944 116.789L471.943 116.788L471.942 116.787L471.427 116.375L462.481 82.7559L453.444 115.167L452.274 115.427L452.273 115.428H452.271C452.267 115.428 452.271 115.428 452.268 115.429C452.261 115.43 452.269 115.429 452.261 115.431C452.26 115.431 452.251 115.432 452.249 115.433C452.234 115.436 452.239 115.435 452.219 115.439C452.162 115.452 452.236 115.436 452.176 115.449L452.163 115.452C452.162 115.452 452.161 115.452 452.16 115.452L452.158 115.453H452.156L452.154 115.454H452.151L452.149 115.455C452.12 115.462 452.151 115.454 452.12 115.461C452.074 115.471 452.103 115.465 452.053 115.477C451.905 115.509 452.044 115.478 451.88 115.515L451.388 115.624C451.319 115.639 451.307 115.642 451.234 115.658C451.213 115.663 451.094 115.69 451.068 115.695C450.885 115.736 451.077 115.693 450.89 115.734C450.767 115.762 450.826 115.749 450.699 115.777L450.698 115.776C449.755 116.012 448.535 116.303 447.04 116.648L446.968 116.665L446.895 116.677L446.681 116.709C446.565 116.727 446.727 116.703 446.61 116.721L446.325 116.764C446.209 116.782 446.371 116.758 446.255 116.775C446.271 116.773 446.202 116.783 446.219 116.78C446.207 116.782 446.17 116.788 446.184 116.786C446.176 116.787 446.155 116.79 446.147 116.791L446.077 116.803C446.094 116.8 446.024 116.81 446.041 116.808C446.055 116.805 446.017 116.812 446.006 116.813C446.019 116.811 445.98 116.817 445.97 116.818L445.899 116.83C445.889 116.832 445.85 116.837 445.863 116.835C445.859 116.836 445.848 116.838 445.828 116.841C445.841 116.839 445.803 116.844 445.792 116.846L445.722 116.857C445.711 116.859 445.672 116.864 445.686 116.862C445.7 116.86 445.662 116.866 445.65 116.868C445.668 116.866 445.598 116.876 445.614 116.873L445.544 116.885C445.537 116.886 445.515 116.888 445.508 116.89C445.522 116.887 445.484 116.894 445.473 116.896C445.462 116.897 445.424 116.902 445.437 116.9L445.366 116.912C445.343 116.916 445.309 116.92 445.348 116.914L445.277 116.926C445.346 116.915 445.19 116.938 445.259 116.928L445.188 116.939C445.165 116.943 445.131 116.947 445.17 116.941L445.1 116.953C445.168 116.943 445.013 116.966 445.081 116.955L445.028 116.964C445.025 116.964 445.022 116.964 445.02 116.965C445.017 116.965 445.014 116.966 445.011 116.967C445.008 116.967 445.005 116.967 445.002 116.968C444.999 116.968 444.995 116.968 444.992 116.969C444.989 116.969 444.986 116.97 444.983 116.971C444.981 116.971 444.977 116.971 444.975 116.972C444.972 116.972 444.969 116.973 444.966 116.974L444.948 116.976C444.945 116.976 444.942 116.977 444.939 116.978C444.937 116.978 444.934 116.978 444.931 116.979C444.928 116.979 444.925 116.98 444.922 116.98C444.919 116.981 444.916 116.981 444.913 116.981C444.91 116.982 444.906 116.982 444.903 116.982C444.9 116.983 444.897 116.984 444.895 116.984C444.892 116.985 444.889 116.985 444.886 116.985C444.883 116.986 444.88 116.987 444.877 116.987L444.859 116.989C444.856 116.99 444.853 116.991 444.851 116.991C444.848 116.992 444.845 116.992 444.842 116.992C444.839 116.993 444.836 116.994 444.833 116.994C444.83 116.995 444.827 116.995 444.824 116.995C444.821 116.996 444.817 116.996 444.814 116.996C444.812 116.997 444.809 116.998 444.806 116.998C444.803 116.998 444.8 116.999 444.797 116.999C444.794 116.999 444.791 117.001 444.788 117.001L444.771 117.003C444.768 117.003 444.765 117.004 444.762 117.005C444.759 117.005 444.756 117.005 444.753 117.006C444.75 117.006 444.747 117.007 444.744 117.008C444.741 117.008 444.738 117.008 444.735 117.009C444.732 117.009 444.729 117.009 444.726 117.01C444.723 117.01 444.72 117.011 444.717 117.012C444.714 117.012 444.711 117.012 444.708 117.013C444.705 117.013 444.702 117.014 444.699 117.015L444.682 117.017C444.679 117.017 444.676 117.018 444.673 117.019C444.67 117.019 444.667 117.019 444.664 117.02C444.661 117.02 444.658 117.021 444.655 117.021C444.652 117.022 444.649 117.022 444.646 117.022C444.644 117.023 444.64 117.023 444.637 117.023C444.634 117.024 444.631 117.025 444.628 117.025C444.625 117.026 444.622 117.026 444.619 117.026C444.616 117.027 444.613 117.028 444.61 117.028L444.593 117.03C444.59 117.031 444.587 117.032 444.584 117.032C444.581 117.033 444.578 117.033 444.575 117.033C444.572 117.034 444.569 117.035 444.566 117.035C444.564 117.036 444.56 117.036 444.558 117.036C444.555 117.037 444.551 117.037 444.548 117.037C444.545 117.038 444.542 117.039 444.539 117.039C444.536 117.04 444.533 117.04 444.53 117.04C444.527 117.04 444.524 117.042 444.521 117.042L444.504 117.044C444.501 117.044 444.498 117.045 444.495 117.046C444.492 117.046 444.489 117.046 444.486 117.047C444.483 117.047 444.48 117.048 444.478 117.049C444.475 117.049 444.472 117.049 444.469 117.05C444.466 117.05 444.462 117.05 444.459 117.051C444.456 117.051 444.453 117.052 444.45 117.053C444.447 117.053 444.444 117.053 444.441 117.054C444.439 117.054 444.436 117.055 444.433 117.056L444.415 117.058C444.412 117.058 444.409 117.059 444.406 117.06C444.403 117.06 444.4 117.06 444.397 117.061C444.395 117.061 444.392 117.062 444.389 117.062C444.386 117.063 444.383 117.063 444.38 117.063C444.377 117.064 444.373 117.064 444.37 117.064C444.367 117.065 444.364 117.066 444.361 117.066C444.358 117.067 444.355 117.067 444.353 117.067C444.35 117.068 444.347 117.069 444.344 117.069L444.326 117.071C444.323 117.072 444.32 117.073 444.317 117.073C444.315 117.074 444.311 117.074 444.309 117.074C444.306 117.075 444.303 117.076 444.3 117.076C444.297 117.077 444.294 117.077 444.291 117.077C444.288 117.078 444.284 117.078 444.281 117.078C444.278 117.079 444.275 117.08 444.272 117.08C444.27 117.081 444.267 117.081 444.264 117.081C444.261 117.082 444.258 117.083 444.255 117.083L444.237 117.085C444.234 117.085 444.231 117.086 444.229 117.087C444.226 117.087 444.223 117.087 444.22 117.088C444.217 117.088 444.214 117.089 444.211 117.09C444.208 117.09 444.205 117.09 444.202 117.091C444.199 117.091 444.195 117.091 444.192 117.092C444.19 117.092 444.186 117.093 444.184 117.094C444.181 117.094 444.178 117.094 444.175 117.095C444.172 117.095 444.169 117.096 444.166 117.097L444.148 117.099C444.146 117.099 444.143 117.1 444.14 117.101C444.137 117.101 444.134 117.101 444.131 117.102C444.128 117.102 444.125 117.103 444.122 117.104C444.119 117.104 444.116 117.104 444.113 117.104C444.11 117.105 444.106 117.105 444.104 117.105C444.101 117.106 444.098 117.107 444.095 117.107C444.092 117.108 444.089 117.108 444.086 117.108C444.083 117.109 444.08 117.11 444.077 117.11L444.06 117.112C444.057 117.113 444.054 117.114 444.051 117.114C444.048 117.115 444.045 117.115 444.042 117.115C444.039 117.116 444.036 117.117 444.033 117.117C444.03 117.118 444.027 117.118 444.024 117.118C444.021 117.119 444.018 117.119 444.015 117.119C444.012 117.12 444.009 117.121 444.006 117.121C444.003 117.122 444 117.122 443.997 117.122C443.994 117.123 443.991 117.124 443.988 117.124L443.971 117.126C443.968 117.126 443.965 117.127 443.962 117.128C443.959 117.128 443.956 117.128 443.953 117.129C443.95 117.129 443.947 117.13 443.944 117.131C443.942 117.131 443.938 117.131 443.936 117.132C443.933 117.132 443.929 117.132 443.926 117.133C443.923 117.133 443.92 117.134 443.917 117.135C443.914 117.135 443.911 117.135 443.908 117.136C443.905 117.136 443.902 117.137 443.899 117.138L443.882 117.14C443.879 117.14 443.876 117.141 443.873 117.142C443.87 117.142 443.867 117.142 443.864 117.143C443.861 117.143 443.858 117.144 443.855 117.145C443.853 117.145 443.849 117.145 443.847 117.146C443.844 117.146 443.84 117.146 443.837 117.146C443.834 117.147 443.831 117.148 443.828 117.148C443.825 117.149 443.822 117.149 443.819 117.149C443.816 117.15 443.813 117.151 443.811 117.151L443.793 117.153C443.79 117.154 443.787 117.155 443.784 117.155C443.781 117.156 443.778 117.156 443.775 117.156C443.773 117.157 443.769 117.158 443.767 117.158C443.764 117.159 443.761 117.159 443.758 117.159C443.755 117.16 443.751 117.16 443.748 117.16C443.745 117.161 443.742 117.162 443.739 117.162C443.736 117.163 443.733 117.163 443.73 117.163C443.728 117.164 443.725 117.165 443.722 117.165L443.704 117.167C443.701 117.167 443.698 117.168 443.695 117.169C443.692 117.169 443.689 117.169 443.687 117.17C443.684 117.17 443.681 117.171 443.678 117.172C443.675 117.172 443.672 117.172 443.669 117.173C443.666 117.173 443.662 117.173 443.659 117.174C443.656 117.174 443.653 117.175 443.65 117.176C443.648 117.176 443.644 117.176 443.642 117.177C443.639 117.177 443.636 117.178 443.633 117.179L443.615 117.181C443.612 117.181 443.609 117.182 443.606 117.183C443.604 117.183 443.601 117.183 443.598 117.184C443.595 117.184 443.592 117.185 443.589 117.186C443.586 117.186 443.583 117.186 443.58 117.187C443.577 117.187 443.573 117.187 443.57 117.188C443.567 117.188 443.564 117.189 443.562 117.189C443.559 117.19 443.556 117.19 443.553 117.19C443.55 117.191 443.547 117.192 443.544 117.192L443.526 117.194C443.523 117.195 443.52 117.196 443.518 117.196C443.515 117.197 443.512 117.197 443.509 117.197C443.506 117.198 443.503 117.199 443.5 117.199C443.497 117.2 443.494 117.2 443.491 117.2C443.488 117.201 443.484 117.201 443.481 117.201C443.479 117.202 443.476 117.203 443.473 117.203C443.47 117.204 443.467 117.204 443.464 117.204C443.461 117.205 443.458 117.206 443.455 117.206L443.438 117.208C443.435 117.208 443.432 117.21 443.429 117.21C443.426 117.21 443.423 117.21 443.42 117.211C443.417 117.211 443.414 117.212 443.411 117.213C443.408 117.213 443.405 117.213 443.402 117.214C443.399 117.214 443.396 117.214 443.393 117.215C443.39 117.215 443.387 117.216 443.384 117.217C443.381 117.217 443.378 117.217 443.375 117.218C443.372 117.218 443.369 117.219 443.366 117.22L443.349 117.222C443.346 117.222 443.343 117.223 443.34 117.224C443.337 117.224 443.334 117.224 443.331 117.225C443.328 117.225 443.325 117.226 443.322 117.227C443.319 117.227 443.316 117.227 443.313 117.228C443.311 117.228 443.307 117.228 443.304 117.229C443.301 117.229 443.298 117.23 443.295 117.23C443.292 117.231 443.289 117.231 443.286 117.231C443.283 117.232 443.28 117.233 443.277 117.233L443.26 117.235C443.257 117.236 443.254 117.237 443.251 117.237C443.248 117.238 443.245 117.238 443.242 117.238C443.239 117.239 443.236 117.24 443.233 117.24C443.231 117.241 443.227 117.241 443.225 117.241C443.222 117.242 443.218 117.242 443.215 117.242C443.212 117.243 443.209 117.244 443.206 117.244C443.203 117.245 443.2 117.245 443.197 117.245C443.194 117.246 443.191 117.247 443.188 117.247L443.171 117.249C443.168 117.249 443.165 117.251 443.162 117.251C443.159 117.251 443.156 117.252 443.153 117.252C443.15 117.252 443.147 117.253 443.145 117.254C443.142 117.254 443.139 117.254 443.136 117.255C443.133 117.255 443.129 117.255 443.126 117.256C443.123 117.256 443.12 117.257 443.117 117.258C443.114 117.258 443.111 117.258 443.108 117.259C443.105 117.259 443.103 117.26 443.1 117.261L443.082 117.263C443.079 117.263 443.076 117.264 443.073 117.265C443.07 117.265 443.067 117.265 443.064 117.266C443.062 117.266 443.059 117.267 443.056 117.268C443.053 117.268 443.05 117.268 443.047 117.269C443.044 117.269 443.04 117.269 443.037 117.27C443.034 117.27 443.031 117.271 443.028 117.271C443.025 117.272 443.022 117.272 443.02 117.272C443.017 117.273 443.014 117.274 443.011 117.274L442.993 117.276C442.99 117.277 442.987 117.278 442.984 117.278C443.034 117.271 442.917 117.289 442.967 117.281C442.996 117.277 442.966 117.28 442.948 117.283L442.878 117.295C442.926 117.287 442.811 117.304 442.859 117.297L442.789 117.309C442.838 117.301 442.722 117.318 442.771 117.311L442.7 117.322C442.729 117.318 442.7 117.321 442.682 117.324L442.611 117.336C442.606 117.337 442.599 117.337 442.593 117.338L442.522 117.35C442.551 117.345 442.522 117.349 442.504 117.352L442.434 117.363C442.429 117.364 442.424 117.363 442.417 117.364C440.916 117.71 439.579 118.002 438.407 118.236C437.815 118.355 437.325 118.446 436.944 118.51C436.624 118.563 436.225 118.625 435.915 118.625C435.289 118.625 434.745 118.363 434.496 118.238C434.158 118.069 433.789 117.844 433.406 117.589L433.334 117.541L433.266 117.486C433.265 117.485 433.264 117.484 433.263 117.483C433.262 117.483 433.26 117.482 433.259 117.481C433.258 117.481 433.257 117.479 433.256 117.479C433.255 117.478 433.253 117.476 433.252 117.476C433.251 117.475 433.25 117.474 433.249 117.473C433.248 117.472 433.246 117.472 433.245 117.471C433.244 117.47 433.243 117.469 433.242 117.468C433.241 117.467 433.239 117.466 433.238 117.465L433.232 117.459C433.231 117.458 433.23 117.458 433.229 117.457C433.227 117.456 433.227 117.455 433.226 117.454C433.224 117.453 433.223 117.452 433.222 117.451C433.221 117.45 433.22 117.45 433.219 117.449C433.218 117.448 433.216 117.447 433.215 117.446L433.209 117.44C433.208 117.44 433.206 117.439 433.205 117.438L433.199 117.433C433.198 117.432 433.196 117.432 433.195 117.431L433.189 117.425C433.188 117.424 433.187 117.424 433.186 117.423L433.18 117.417C433.179 117.416 433.177 117.416 433.176 117.415L433.17 117.409C433.169 117.408 433.167 117.408 433.166 117.407L433.16 117.401C433.159 117.401 433.157 117.4 433.156 117.399C433.155 117.399 433.154 117.397 433.153 117.396C433.152 117.396 433.151 117.395 433.15 117.395C433.149 117.394 433.148 117.392 433.147 117.392C433.146 117.391 433.145 117.39 433.144 117.389C433.143 117.388 433.142 117.387 433.141 117.387C433.14 117.386 433.139 117.385 433.138 117.384C433.137 117.383 433.136 117.383 433.135 117.382C433.134 117.381 433.132 117.38 433.131 117.379C433.13 117.378 433.129 117.377 433.128 117.376C433.127 117.375 433.126 117.375 433.125 117.374C433.124 117.373 433.123 117.372 433.122 117.371C433.121 117.37 433.12 117.37 433.119 117.369C433.118 117.368 433.116 117.367 433.115 117.366C433.114 117.365 433.113 117.365 433.112 117.364C433.111 117.363 433.11 117.362 433.109 117.361C433.108 117.361 433.107 117.36 433.106 117.359C433.105 117.359 433.105 117.357 433.104 117.356C433.103 117.356 433.101 117.355 433.101 117.354C433.1 117.354 433.098 117.352 433.097 117.352C433.096 117.351 433.095 117.349 433.094 117.349C433.093 117.348 433.092 117.347 433.091 117.347C433.09 117.346 433.089 117.345 433.088 117.344L433.082 117.34C433.081 117.339 433.08 117.338 433.079 117.337C433.078 117.336 433.077 117.336 433.076 117.335C433.075 117.334 433.074 117.333 433.073 117.332C433.072 117.331 433.07 117.331 433.069 117.33C433.068 117.329 433.067 117.328 433.066 117.327C433.065 117.326 433.064 117.326 433.063 117.325C433.062 117.324 433.062 117.323 433.061 117.322C433.06 117.322 433.059 117.321 433.058 117.32C433.057 117.32 433.056 117.318 433.055 117.317C433.054 117.317 433.053 117.316 433.052 117.315C433.051 117.315 433.05 117.313 433.049 117.312L433.043 117.309C433.042 117.308 433.041 117.306 433.04 117.306C433.039 117.305 433.038 117.304 433.037 117.304C433.036 117.303 433.035 117.302 433.034 117.301L433.028 117.297C433.027 117.296 433.026 117.295 433.025 117.294C433.024 117.293 433.023 117.293 433.022 117.292C433.021 117.291 433.02 117.29 433.02 117.289L433.014 117.285C433.013 117.284 433.012 117.283 433.011 117.282L433.005 117.278C433.004 117.278 433.003 117.276 433.002 117.275C433.001 117.275 433 117.274 432.999 117.273L432.994 117.269L432.988 117.265C432.987 117.264 432.986 117.262 432.985 117.262L432.979 117.258C432.979 117.257 432.977 117.256 432.977 117.255C432.976 117.254 432.974 117.254 432.974 117.253L432.972 117.251C432.971 117.25 432.97 117.25 432.969 117.249C432.968 117.248 432.967 117.247 432.966 117.246L432.957 117.24C432.956 117.24 432.956 117.238 432.955 117.237L432.946 117.231L432.941 117.227L432.933 117.221C432.932 117.22 432.932 117.218 432.931 117.218L432.922 117.212L432.917 117.207C432.916 117.206 432.915 117.206 432.914 117.205L432.912 117.203L432.903 117.197C432.902 117.197 432.902 117.195 432.901 117.194L432.896 117.19L432.894 117.188L432.888 117.185L432.886 117.183C432.885 117.182 432.884 117.181 432.883 117.181L432.878 117.176C432.877 117.175 432.876 117.174 432.875 117.174L432.873 117.172C432.872 117.171 432.871 117.171 432.87 117.17L432.868 117.168L432.862 117.164L432.86 117.162C432.86 117.161 432.858 117.161 432.857 117.16L432.855 117.158C432.855 117.158 432.853 117.157 432.853 117.156L432.851 117.154C432.85 117.154 432.848 117.153 432.848 117.152L432.846 117.15C432.845 117.15 432.844 117.149 432.843 117.148L432.841 117.146C432.84 117.146 432.839 117.145 432.838 117.145L432.836 117.143C432.835 117.142 432.834 117.141 432.833 117.141L432.831 117.139C432.83 117.138 432.829 117.137 432.828 117.137L432.826 117.135C432.825 117.134 432.824 117.133 432.823 117.133L432.821 117.131C432.82 117.13 432.819 117.13 432.818 117.129L432.816 117.127C432.816 117.126 432.814 117.126 432.813 117.125L432.81 117.121C432.809 117.12 432.807 117.12 432.807 117.119L432.805 117.117C432.804 117.117 432.803 117.116 432.802 117.115L432.798 117.111L432.795 117.11L432.793 117.108L432.79 117.106L432.786 117.103L432.783 117.101L432.779 117.097L432.776 117.096L432.772 117.092L432.77 117.09L432.764 117.084L432.761 117.083L432.757 117.079L432.754 117.077L432.752 117.075L432.75 117.074L432.748 117.072L432.745 117.07L432.741 117.066L432.739 117.065L432.737 117.063L432.734 117.062L432.732 117.06L432.73 117.059L432.725 117.053L432.722 117.052L432.718 117.048L432.716 117.047L432.71 117.041L432.707 117.04L432.703 117.036L432.701 117.035L432.697 117.031L432.695 117.03L432.693 117.028L432.691 117.027L432.688 117.023L432.686 117.022L432.682 117.019L432.68 117.018L432.678 117.016L432.676 117.015L432.672 117.011L432.67 117.01L432.668 117.008L432.666 117.007L432.664 117.005L432.662 117.004L432.658 117L432.656 116.999L432.654 116.997L432.652 116.996L432.65 116.994L432.648 116.993L432.644 116.988L432.642 116.987L432.64 116.985L432.638 116.984L432.636 116.982L432.634 116.981L432.633 116.979L432.631 116.979L432.629 116.977L432.627 116.976L432.625 116.974L432.623 116.973L432.62 116.97L432.618 116.969L432.613 116.964L432.609 116.962L432.604 116.957L432.603 116.956L432.6 116.953L432.596 116.951L432.595 116.949L432.591 116.947L432.59 116.945L432.586 116.943L432.585 116.941L432.581 116.939L432.58 116.938L432.578 116.937L432.575 116.934L432.573 116.933L432.572 116.932L432.57 116.931L432.569 116.929L432.565 116.927L432.562 116.923L432.56 116.922L432.556 116.918L432.554 116.917L432.553 116.916L432.551 116.915L432.55 116.913L432.548 116.912L432.547 116.911L432.545 116.91L432.541 116.906L432.539 116.905L432.537 116.903L432.535 116.902L432.531 116.898L432.529 116.897L432.527 116.896L432.525 116.895L432.523 116.893L432.521 116.892L432.521 116.891L432.52 116.889L432.518 116.888L432.516 116.886L432.514 116.885L432.512 116.883L432.51 116.882L432.508 116.88L432.506 116.879L432.503 116.876L432.501 116.875L432.497 116.871L432.495 116.87L432.491 116.866L432.489 116.865L432.487 116.863L432.484 116.861L432.482 116.86L432.477 116.854L432.475 116.854L432.473 116.853L432.469 116.849L432.464 116.845L432.459 116.841L432.454 116.837L432.452 116.836L432.451 116.835L432.448 116.832L432.445 116.83L432.443 116.829L432.442 116.827L432.439 116.825L432.438 116.824L432.438 116.823L432.436 116.822L432.435 116.821L432.434 116.82L432.43 116.817L432.429 116.816L432.425 116.813L432.424 116.812L432.421 116.811L432.42 116.81L432.419 116.809L432.415 116.806L432.414 116.805L432.413 116.804L432.412 116.803H432.41L432.409 116.802L432.408 116.801L432.404 116.797L432.403 116.796L432.4 116.794L432.399 116.793L432.398 116.792L432.397 116.791H432.396L432.395 116.789L432.394 116.788L432.392 116.787L431.883 116.381L413.104 47.874L406.266 45.8418V35.5059L407.907 35.207H407.909C407.91 35.2069 407.911 35.2062 407.912 35.2061C407.914 35.2057 407.912 35.2066 407.915 35.2061C407.931 35.2032 407.908 35.2072 407.925 35.2041C407.946 35.2002 407.914 35.2054 407.938 35.2012C407.973 35.1947 407.935 35.2018 407.976 35.1943C408.053 35.1802 407.945 35.2006 408.027 35.1855L408.06 35.1797C408.062 35.1793 408.092 35.1734 408.096 35.1729C408.11 35.1703 408.1 35.1715 408.114 35.1689C408.123 35.1674 408.126 35.1676 408.135 35.166L408.178 35.1582C408.242 35.1465 408.304 35.1345 408.389 35.1191C408.512 35.0968 408.389 35.12 408.517 35.0967C408.615 35.0788 408.556 35.089 408.659 35.0703C408.67 35.0684 408.668 35.0693 408.679 35.0674C408.704 35.0628 408.672 35.068 408.697 35.0635C408.779 35.0487 408.655 35.0714 408.736 35.0566C408.737 35.0565 408.753 35.0533 408.756 35.0527L408.767 35.0508C408.771 35.05 408.772 35.0496 408.776 35.0488C408.815 35.0419 408.759 35.0519 408.797 35.0449C408.8 35.0444 408.815 35.0425 408.817 35.042C408.83 35.0396 408.815 35.0424 408.828 35.04C408.836 35.0387 408.83 35.0395 408.838 35.0381C408.84 35.0378 408.842 35.0374 408.844 35.0371C408.845 35.0368 408.847 35.0364 408.849 35.0361L408.902 35.0264C408.911 35.0248 408.983 35.0111 408.99 35.0098C409.118 34.9865 409.233 34.9663 409.381 34.9395C409.54 34.9105 409.435 34.9293 409.6 34.8994C409.65 34.8902 409.776 34.8676 409.832 34.8574L409.861 34.8516C411.295 34.6126 412.956 34.3763 414.842 34.1406C416.694 33.9091 418.367 33.6782 419.861 33.4482L419.872 33.4463L419.883 33.4453C421.448 33.2217 422.613 33.0752 423.141 33.0752L423.395 33.0879C423.979 33.1461 424.502 33.3889 424.822 33.5488C425.26 33.7677 425.753 34.0656 426.286 34.4189C427.419 35.0553 428.487 35.8112 429.488 36.6826C430.061 37.1317 430.572 37.597 430.977 38.082C431.366 38.5493 431.751 39.1488 431.91 39.8662H431.912L442.062 82.916L442.063 82.9219L444.7 94.2627L455.533 58.1514L452.665 47.7314L445.815 45.8809V35.5059L447.457 35.207H447.459C447.46 35.2068 447.463 35.2065 447.465 35.2061C447.466 35.2058 447.467 35.2054 447.469 35.2051L447.472 35.2041H447.476L447.478 35.2031H447.48C447.482 35.2028 447.485 35.2016 447.487 35.2012C447.512 35.1966 447.533 35.1937 447.578 35.1855C447.611 35.1796 447.827 35.1394 447.938 35.1191C447.962 35.1149 448.165 35.0784 448.209 35.0703C448.318 35.0504 448.411 35.0333 448.54 35.0098C448.607 34.9976 448.564 35.0056 448.633 34.9932C448.656 34.989 448.705 34.9799 448.729 34.9756C448.775 34.9671 448.88 34.9488 448.932 34.9395L449.383 34.8574L449.396 34.8545L449.411 34.8516C450.845 34.6126 452.507 34.3763 454.393 34.1406C456.244 33.9092 457.917 33.6781 459.411 33.4482L459.422 33.4463L459.433 33.4453C460.998 33.2217 462.163 33.0752 462.69 33.0752L462.944 33.0879C463.529 33.1461 464.052 33.3889 464.372 33.5488C464.809 33.7674 465.301 34.0652 465.834 34.418C466.968 35.0546 468.036 35.8107 469.038 36.6826C469.611 37.1317 470.122 37.597 470.526 38.082C470.916 38.5492 471.301 39.1488 471.46 39.8662H471.462L481.612 82.916L481.613 82.9219L484.182 93.9678L496.22 47.6689L485.19 46.499V34.2998H489.035C490.427 34.1847 492.091 34.07 494.023 33.9561C496.142 33.7217 498.26 33.5454 500.379 33.4277C502.465 33.3118 504.284 33.2521 505.831 33.25C507.258 33.1405 508.213 33.0752 508.54 33.0752L508.694 33.0801ZM487.19 44.7002L498.74 45.9248L485.09 98.4248H483.165L479.665 83.375L469.516 40.3252C469.399 39.7419 468.816 39.0412 467.766 38.2246C466.832 37.4079 465.84 36.7083 464.79 36.125C463.74 35.4251 463.04 35.0753 462.69 35.0752C462.34 35.0752 461.348 35.1915 459.715 35.4248C458.198 35.6581 456.507 35.8917 454.641 36.125L453.284 36.2998C451.972 36.4748 450.79 36.6502 449.74 36.8252L447.815 37.1748V44.3496L454.29 46.0996L457.615 58.1748L445.54 98.4248H443.615L440.115 83.375L429.965 40.3252C429.848 39.7419 429.265 39.0413 428.215 38.2246C427.282 37.4081 426.29 36.7083 425.24 36.125C424.191 35.4253 423.491 35.0755 423.141 35.0752C422.791 35.0752 421.798 35.1915 420.165 35.4248C418.648 35.6581 416.956 35.8917 415.09 36.125L413.734 36.2998C412.422 36.4748 411.241 36.6502 410.19 36.8252L408.266 37.1748V44.3496L414.74 46.2744L433.641 115.225C433.648 115.23 433.94 115.464 434.516 115.925C435.128 116.333 435.561 116.563 435.816 116.614L435.915 116.625C436.09 116.625 436.528 116.559 437.228 116.428L438.016 116.274C439.182 116.041 440.524 115.749 442.04 115.399L446.59 114.7C448.107 114.35 449.332 114.059 450.266 113.825C451.3 113.595 451.825 113.478 451.84 113.475L461.99 77.0752H463.04L473.19 115.225C473.193 115.227 473.485 115.46 474.065 115.925C474.678 116.333 475.112 116.563 475.367 116.614L475.465 116.625C475.64 116.625 476.078 116.559 476.777 116.428L477.565 116.274C478.732 116.041 480.073 115.749 481.59 115.399L486.141 114.7C487.657 114.35 488.882 114.059 489.815 113.825L491.391 113.475L513.615 41.2002C513.615 40.6898 513.347 40.0449 512.812 39.2666L512.565 38.9248C511.865 37.8748 511.107 36.9998 510.29 36.2998C509.473 35.4832 508.89 35.0752 508.54 35.0752C508.306 35.0752 507.431 35.1334 505.915 35.25L504.723 35.2607C503.476 35.2826 502.065 35.3373 500.49 35.4248L498.915 35.5234C497.34 35.6328 495.765 35.7752 494.19 35.9502C492.703 36.0377 491.379 36.1244 490.22 36.2119L489.115 36.2998H487.19V44.7002Z" fill="#FBFF00"/>
<path d="M318.343 8.77451L320.134 8.58604C326.799 7.88443 333.117 7.29935 339.086 6.83116C345.055 6.363 350.12 6.12602 354.269 6.1251C356.33 6.067 358.033 6.094 359.343 6.22178C360 6.28591 360.609 6.38016 361.137 6.51963C361.582 6.63725 362.134 6.82938 362.614 7.18565C364.038 8.10303 365.317 9.25936 366.455 10.6368C367.727 11.9239 368.728 13.3162 369.413 14.8224L369.624 15.2853L369.588 15.7921C369.357 19.0218 369.183 22.7834 369.067 27.0792C368.951 31.2591 368.893 35.6167 368.893 40.1495V63.9063C369.009 67.641 369.066 71.3757 369.066 75.1105C369.183 78.7197 369.301 82.387 369.417 86.1124C369.534 89.8665 369.593 93.6209 369.593 97.3751C369.593 98.0422 369.412 98.7771 369.192 99.4688C368.959 100.201 368.624 101.058 368.2 102.026L368.19 102.049L368.18 102.07C367.345 103.859 366.281 105.925 364.996 108.263L364.997 108.264L361.175 115.707L360.092 115.815C358.97 115.927 357.196 116.156 354.751 116.505C352.403 116.857 349.999 117.149 347.54 117.384C345.096 117.733 342.938 118.026 341.065 118.26L341.064 118.259C340.194 118.375 339.503 118.464 338.995 118.524C338.548 118.576 338.105 118.625 337.843 118.625C337.045 118.625 336.37 118.225 336.025 118.006C335.583 117.724 335.102 117.344 334.601 116.905C333.632 116.058 332.666 115.152 331.703 114.19L331.656 114.142L331.612 114.092C331.173 113.59 330.793 113.11 330.512 112.667C330.292 112.322 329.893 111.647 329.893 110.85V21.548L318.343 19.0079V8.77451ZM355.793 42.3946L355.794 42.3644C355.912 38.4729 356.147 34.6954 356.502 31.0323C356.788 28.0721 357.233 25.47 357.852 23.2501H350.168V103.043L356.357 104.123C356.61 102.485 356.774 100.848 356.845 99.213L356.847 99.17L356.851 99.1271C357.079 96.5037 357.192 93.8196 357.192 91.0753C357.192 87.3837 357.078 83.5726 356.847 79.6427L356.846 79.6388C356.612 75.5535 356.379 71.3517 356.146 67.0333V67.0304C355.91 62.5587 355.793 57.8564 355.793 52.9249V42.3946ZM357.793 52.9249L357.798 54.7511C357.823 58.9877 357.938 63.0456 358.143 66.9249C358.376 71.2414 358.609 75.4413 358.843 79.5245C359.076 83.4912 359.192 87.342 359.192 91.0753L359.188 92.1222C359.162 94.5594 359.047 96.952 358.843 99.2999L358.788 100.306C358.655 102.349 358.385 104.392 357.981 106.436L348.168 104.725V21.2501H359.893L360.243 22.2999C359.427 24.6332 358.843 27.6081 358.493 31.2247L358.367 32.587C358.086 35.777 357.895 39.0563 357.793 42.4249V52.9249ZM320.343 17.3995L331.893 19.9405V110.85C331.893 111.2 332.302 111.841 333.118 112.775C334.051 113.708 334.985 114.583 335.918 115.4C336.793 116.165 337.411 116.572 337.773 116.62L337.843 116.625C338.076 116.625 339.068 116.508 340.817 116.275C342.684 116.041 344.843 115.75 347.293 115.4C349.743 115.166 352.135 114.875 354.468 114.525C356.305 114.262 357.782 114.066 358.897 113.935L359.893 113.825L363.218 107.35C364.341 105.308 365.285 103.49 366.051 101.895L366.368 101.225C367.134 99.4747 367.54 98.2373 367.588 97.5128L367.593 97.3751C367.593 94.575 367.56 91.7748 367.494 88.9747L367.418 86.1749C367.301 82.4416 367.184 78.7662 367.067 75.1495C367.067 71.4164 367.009 67.6834 366.893 63.9503V40.1495C366.893 35.5997 366.951 31.2244 367.067 27.0245C367.184 22.708 367.359 18.9161 367.593 15.6495C367.009 14.3663 366.134 13.1413 364.968 11.9747C363.918 10.6915 362.751 9.64193 361.468 8.8253C360.768 8.24197 358.376 8.00844 354.293 8.1251L352.718 8.13584C348.941 8.18688 344.449 8.41699 339.243 8.8253L336.995 9.00498C331.712 9.43884 326.162 9.96279 320.343 10.5753V17.3995Z" fill="#FBFF00"/>
<path d="M280.545 33.0801C281.306 33.128 281.917 33.518 282.237 33.7422C282.648 34.0295 283.072 34.4087 283.501 34.834C284.443 35.6523 285.291 36.6403 286.053 37.7764C286.781 38.7568 287.466 39.947 287.466 41.2002V41.5L287.378 41.7881L264.811 115.175L263.675 115.427L263.674 115.428C263.671 115.428 263.674 115.427 263.671 115.428C263.669 115.428 263.671 115.428 263.669 115.429C263.669 115.429 263.663 115.43 263.661 115.431H263.657L263.656 115.432H263.653C263.652 115.432 263.651 115.432 263.65 115.433C263.63 115.437 263.644 115.434 263.619 115.439C263.568 115.451 263.632 115.437 263.576 115.449L263.453 115.477C263.37 115.495 263.46 115.475 263.373 115.494L263.329 115.504C263.242 115.523 263.369 115.495 263.281 115.515L262.789 115.624C262.765 115.629 262.663 115.652 262.635 115.658C262.633 115.659 262.618 115.663 262.615 115.663C262.577 115.672 262.633 115.659 262.595 115.667C262.585 115.669 262.564 115.674 262.554 115.677C262.468 115.696 262.556 115.676 262.469 115.695C262.334 115.725 262.429 115.704 262.29 115.734C262.246 115.744 262.288 115.735 262.244 115.745C262.228 115.749 262.236 115.747 262.221 115.75C262.189 115.757 262.228 115.749 262.196 115.756C262.183 115.759 262.199 115.755 262.185 115.758C262.177 115.759 262.18 115.759 262.173 115.761C262.171 115.761 262.169 115.762 262.167 115.763C262.165 115.763 262.162 115.763 262.16 115.764C262.155 115.765 262.154 115.765 262.148 115.767C262.061 115.786 262.188 115.758 262.1 115.777C261.156 116.013 259.935 116.303 258.44 116.648L258.368 116.665L258.295 116.677C256.799 116.907 255.302 117.137 253.806 117.367C252.31 117.712 250.976 118.003 249.808 118.236C249.216 118.355 248.725 118.446 248.345 118.51C248.024 118.563 247.626 118.625 247.315 118.625C246.689 118.625 246.145 118.363 245.896 118.238C245.558 118.069 245.189 117.844 244.807 117.589L244.734 117.541L244.666 117.486C244.665 117.486 244.664 117.484 244.663 117.483C244.662 117.483 244.66 117.482 244.659 117.481C244.658 117.481 244.657 117.479 244.656 117.479C244.655 117.478 244.653 117.476 244.652 117.476C244.651 117.475 244.65 117.473 244.649 117.473C244.649 117.472 244.647 117.471 244.646 117.471C244.645 117.47 244.644 117.469 244.643 117.468C244.642 117.467 244.641 117.466 244.64 117.465C244.639 117.464 244.637 117.463 244.636 117.462C244.635 117.461 244.634 117.46 244.633 117.459C244.632 117.458 244.63 117.458 244.629 117.457L244.623 117.451C244.622 117.45 244.62 117.45 244.619 117.449C244.618 117.448 244.617 117.447 244.616 117.446C244.615 117.445 244.613 117.444 244.612 117.443C244.611 117.443 244.61 117.441 244.609 117.44C244.608 117.44 244.607 117.439 244.606 117.438C244.605 117.438 244.604 117.436 244.603 117.436C244.601 117.435 244.601 117.433 244.6 117.433C244.599 117.432 244.597 117.432 244.596 117.431L244.59 117.425C244.589 117.424 244.587 117.424 244.586 117.423L244.58 117.417C244.579 117.416 244.577 117.416 244.576 117.415L244.57 117.409C244.569 117.408 244.568 117.408 244.567 117.407C244.566 117.406 244.565 117.405 244.563 117.404C244.562 117.403 244.562 117.402 244.561 117.401C244.56 117.401 244.559 117.4 244.558 117.399C244.557 117.399 244.555 117.397 244.554 117.396C244.553 117.396 244.552 117.395 244.551 117.395L244.545 117.389C244.544 117.388 244.542 117.388 244.541 117.387C244.54 117.386 244.539 117.385 244.538 117.384C244.537 117.383 244.536 117.383 244.535 117.382C244.534 117.381 244.533 117.38 244.532 117.379C244.531 117.378 244.529 117.377 244.528 117.376C244.527 117.375 244.526 117.375 244.525 117.374C244.524 117.373 244.523 117.372 244.522 117.371C244.522 117.37 244.52 117.37 244.52 117.369C244.519 117.368 244.518 117.367 244.517 117.366C244.516 117.365 244.514 117.365 244.513 117.364C244.512 117.363 244.511 117.362 244.51 117.361C244.509 117.361 244.508 117.36 244.507 117.359C244.506 117.359 244.505 117.357 244.504 117.356C244.503 117.356 244.502 117.355 244.501 117.354L244.495 117.349C244.494 117.348 244.492 117.347 244.491 117.347C244.49 117.346 244.489 117.345 244.488 117.344L244.482 117.34C244.481 117.339 244.48 117.338 244.479 117.337C244.479 117.336 244.477 117.336 244.477 117.335C244.476 117.334 244.475 117.333 244.474 117.332C244.473 117.331 244.472 117.331 244.471 117.33C244.47 117.329 244.469 117.328 244.468 117.327C244.467 117.326 244.465 117.326 244.464 117.325C244.463 117.324 244.462 117.323 244.461 117.322C244.46 117.322 244.459 117.321 244.458 117.32C244.457 117.32 244.456 117.318 244.455 117.317C244.454 117.317 244.453 117.316 244.452 117.315C244.451 117.315 244.45 117.313 244.449 117.312L244.443 117.309C244.442 117.308 244.441 117.306 244.44 117.306C244.44 117.305 244.438 117.304 244.438 117.304C244.437 117.303 244.436 117.302 244.435 117.301L244.429 117.297C244.428 117.296 244.427 117.295 244.426 117.294C244.425 117.293 244.424 117.293 244.423 117.292C244.422 117.291 244.421 117.29 244.42 117.289L244.414 117.285C244.413 117.284 244.412 117.283 244.411 117.282L244.405 117.278C244.404 117.278 244.404 117.276 244.403 117.275L244.397 117.271C244.397 117.271 244.395 117.269 244.395 117.269L244.389 117.265C244.388 117.264 244.387 117.262 244.386 117.262L244.38 117.258L244.375 117.253L244.369 117.249C244.368 117.248 244.367 117.247 244.366 117.246L244.36 117.242L244.355 117.237L244.347 117.231C244.346 117.231 244.346 117.229 244.345 117.229L244.336 117.223L244.331 117.218L244.325 117.214L244.323 117.212C244.322 117.211 244.321 117.211 244.32 117.21C244.319 117.209 244.318 117.208 244.317 117.207C244.317 117.206 244.315 117.206 244.314 117.205L244.312 117.203L244.307 117.199L244.302 117.194C244.301 117.194 244.3 117.193 244.299 117.192L244.297 117.19L244.291 117.187L244.289 117.185L244.283 117.181L244.276 117.174L244.271 117.17L244.269 117.168C244.268 117.167 244.266 117.167 244.266 117.166L244.264 117.164C244.263 117.163 244.262 117.163 244.261 117.162L244.259 117.16L244.253 117.156L244.251 117.154C244.25 117.154 244.249 117.153 244.248 117.152L244.246 117.15C244.245 117.15 244.244 117.149 244.243 117.148L244.241 117.146C244.24 117.146 244.239 117.145 244.238 117.145L244.236 117.143C244.236 117.142 244.234 117.141 244.233 117.141L244.231 117.139C244.231 117.138 244.229 117.137 244.229 117.137L244.227 117.135C244.226 117.134 244.224 117.133 244.224 117.133L244.222 117.131C244.221 117.13 244.22 117.13 244.219 117.129L244.215 117.125C244.214 117.124 244.213 117.124 244.212 117.123L244.21 117.121C244.209 117.12 244.208 117.12 244.207 117.119L244.203 117.115C244.202 117.115 244.201 117.114 244.2 117.113L244.198 117.111L244.195 117.11L244.191 117.106L244.188 117.104L244.185 117.101L244.182 117.099L244.18 117.097L244.178 117.096L244.175 117.094L244.171 117.09L244.168 117.088L244.164 117.084L244.161 117.083L244.155 117.077L244.152 117.075L244.15 117.074L244.146 117.07L244.144 117.068L244.142 117.066L244.14 117.065L244.136 117.062L244.133 117.06L244.131 117.059L244.125 117.053L244.123 117.052L244.12 117.05L244.118 117.048L244.116 117.047L244.11 117.041L244.108 117.04L244.106 117.038L244.104 117.036L244.102 117.035L244.098 117.031L244.096 117.03L244.094 117.028L244.092 117.027L244.088 117.023L244.086 117.022L244.082 117.019L244.08 117.018L244.078 117.016L244.076 117.015L244.072 117.011L244.07 117.01L244.068 117.008L244.066 117.007L244.064 117.005L244.062 117.004L244.059 117L244.057 116.999L244.055 116.997L244.053 116.996L244.048 116.991L244.046 116.99L244.044 116.988L244.042 116.987L244.04 116.985L244.038 116.984L244.033 116.979L244.031 116.979L244.029 116.977L244.027 116.976L244.024 116.973L244.022 116.972L244.021 116.97L244.019 116.969L244.014 116.964L244.01 116.962L244.009 116.96L244.007 116.959L244.005 116.957L244.003 116.956L244 116.953L243.998 116.952L243.995 116.949L243.993 116.948L243.99 116.945L243.988 116.944L243.985 116.941L243.983 116.94L243.98 116.938L243.979 116.937L243.975 116.933L243.971 116.931L243.97 116.929L243.968 116.928L243.967 116.927L243.965 116.926L243.964 116.924L243.96 116.922L243.956 116.918L243.954 116.917L243.953 116.916L243.951 116.915L243.95 116.913L243.948 116.912L243.947 116.911L243.945 116.91L243.94 116.905L243.938 116.904L243.938 116.903L243.936 116.902L243.931 116.897L243.929 116.896L243.927 116.895L243.925 116.894L243.924 116.893L243.922 116.892L243.921 116.891L243.92 116.889L243.918 116.888L243.916 116.886L243.914 116.885L243.911 116.882L243.909 116.881L243.907 116.879L243.905 116.878L243.902 116.875L243.9 116.874L243.896 116.87L243.895 116.869L243.891 116.865L243.889 116.864L243.888 116.863L243.884 116.86L243.882 116.859L243.877 116.854L243.872 116.851L243.87 116.85L243.869 116.849L243.864 116.845L243.859 116.841L243.855 116.838L243.854 116.837L243.853 116.835L243.849 116.832L243.843 116.827L243.838 116.823L243.834 116.82L243.833 116.819L243.829 116.816L243.827 116.815L243.826 116.814L243.824 116.812L243.823 116.812L243.82 116.81L243.819 116.809L243.818 116.808L243.814 116.805L243.813 116.804L243.812 116.803L243.809 116.8L243.808 116.799L243.806 116.798L243.805 116.797L243.804 116.796L243.803 116.795L243.801 116.794L243.8 116.793L243.799 116.792L243.798 116.791L243.796 116.79L243.795 116.789L243.794 116.788L243.793 116.787L243.277 116.375L234.332 82.7559L225.295 115.167L224.125 115.427L224.124 115.428H224.121C224.118 115.428 224.122 115.428 224.118 115.429C224.111 115.43 224.119 115.429 224.111 115.431C224.11 115.431 224.102 115.432 224.1 115.433C224.084 115.436 224.089 115.435 224.069 115.439C224.013 115.452 224.087 115.436 224.026 115.449L224.014 115.452C224.013 115.452 224.012 115.452 224.011 115.452L224.009 115.453H224.007L224.005 115.454H224.002L224 115.455C223.971 115.462 224.001 115.454 223.971 115.461C223.925 115.471 223.953 115.465 223.903 115.477C223.756 115.509 223.894 115.478 223.73 115.515L223.238 115.624C223.17 115.639 223.158 115.642 223.085 115.658C223.064 115.663 222.945 115.69 222.919 115.695C222.736 115.736 222.927 115.693 222.74 115.734C222.617 115.762 222.677 115.749 222.55 115.777L222.549 115.776C221.606 116.012 220.385 116.303 218.891 116.648L218.818 116.665L218.745 116.677L218.531 116.709C218.415 116.727 218.577 116.703 218.461 116.721L218.176 116.764C218.06 116.782 218.222 116.758 218.105 116.775C218.122 116.773 218.052 116.783 218.069 116.78C218.058 116.782 218.02 116.788 218.034 116.786C218.047 116.784 218.009 116.789 217.998 116.791L217.928 116.803C217.944 116.8 217.875 116.81 217.892 116.808C217.887 116.808 217.876 116.81 217.856 116.813C217.87 116.811 217.831 116.817 217.82 116.818L217.75 116.83C217.743 116.831 217.721 116.834 217.714 116.835C217.709 116.836 217.698 116.838 217.679 116.841C217.692 116.839 217.653 116.844 217.643 116.846L217.572 116.857C217.565 116.859 217.544 116.861 217.536 116.862C217.55 116.86 217.512 116.866 217.501 116.868C217.518 116.866 217.448 116.876 217.465 116.873L217.395 116.885C217.387 116.886 217.366 116.888 217.358 116.89C217.372 116.887 217.334 116.894 217.323 116.896C217.313 116.897 217.274 116.902 217.287 116.9L217.217 116.912C217.193 116.916 217.159 116.92 217.198 116.914L217.128 116.926C217.196 116.915 217.041 116.938 217.109 116.928L217.039 116.939C217.016 116.943 216.981 116.947 217.021 116.941L216.95 116.953C217.019 116.943 216.863 116.966 216.932 116.955L216.879 116.964C216.876 116.964 216.873 116.964 216.87 116.965C216.867 116.965 216.864 116.966 216.861 116.967C216.859 116.967 216.855 116.967 216.853 116.968C216.85 116.968 216.846 116.968 216.843 116.969C216.84 116.969 216.837 116.97 216.834 116.971C216.831 116.971 216.828 116.971 216.825 116.972C216.822 116.972 216.819 116.973 216.816 116.974L216.799 116.976C216.796 116.976 216.793 116.977 216.79 116.978C216.787 116.978 216.784 116.978 216.781 116.979C216.778 116.979 216.775 116.98 216.772 116.98C216.77 116.981 216.766 116.981 216.764 116.981C216.761 116.982 216.757 116.982 216.754 116.982C216.751 116.983 216.748 116.984 216.745 116.984C216.742 116.985 216.739 116.985 216.736 116.985C216.733 116.986 216.73 116.987 216.728 116.987L216.71 116.989C216.707 116.99 216.704 116.991 216.701 116.991C216.698 116.992 216.695 116.992 216.692 116.992C216.69 116.993 216.686 116.994 216.684 116.994C216.681 116.995 216.678 116.995 216.675 116.995C216.672 116.996 216.668 116.996 216.665 116.996C216.662 116.997 216.659 116.998 216.656 116.998C216.653 116.998 216.65 116.999 216.647 116.999C216.645 116.999 216.642 117.001 216.639 117.001L216.621 117.003C216.618 117.003 216.615 117.004 216.612 117.005C216.609 117.005 216.606 117.005 216.604 117.006C216.601 117.006 216.598 117.007 216.595 117.008C216.592 117.008 216.589 117.008 216.586 117.009C216.583 117.009 216.579 117.009 216.576 117.01C216.573 117.01 216.57 117.011 216.567 117.012C216.565 117.012 216.561 117.012 216.559 117.013C216.556 117.013 216.553 117.014 216.55 117.015L216.532 117.017C216.529 117.017 216.526 117.018 216.523 117.019C216.521 117.019 216.518 117.019 216.515 117.02C216.512 117.02 216.509 117.021 216.506 117.021C216.503 117.022 216.5 117.022 216.497 117.022C216.494 117.023 216.49 117.023 216.487 117.023C216.484 117.024 216.481 117.025 216.479 117.025C216.476 117.026 216.473 117.026 216.47 117.026C216.467 117.027 216.464 117.028 216.461 117.028L216.443 117.03C216.44 117.031 216.437 117.032 216.435 117.032C216.432 117.033 216.429 117.033 216.426 117.033C216.423 117.034 216.42 117.035 216.417 117.035C216.414 117.036 216.411 117.036 216.408 117.036C216.405 117.037 216.401 117.037 216.398 117.037C216.396 117.038 216.392 117.039 216.39 117.039C216.387 117.04 216.384 117.04 216.381 117.04C216.378 117.04 216.375 117.042 216.372 117.042L216.354 117.044C216.352 117.044 216.349 117.045 216.346 117.046C216.343 117.046 216.34 117.046 216.337 117.047C216.334 117.047 216.331 117.048 216.328 117.049C216.325 117.049 216.322 117.049 216.319 117.05C216.316 117.05 216.313 117.05 216.31 117.051C216.307 117.051 216.304 117.052 216.301 117.053C216.298 117.053 216.295 117.053 216.292 117.054C216.289 117.054 216.286 117.055 216.283 117.056L216.266 117.058C216.263 117.058 216.26 117.059 216.257 117.06C216.254 117.06 216.251 117.06 216.248 117.061C216.245 117.061 216.242 117.062 216.239 117.062C216.236 117.063 216.233 117.063 216.23 117.063C216.228 117.064 216.224 117.064 216.221 117.064C216.218 117.065 216.215 117.066 216.212 117.066C216.209 117.067 216.206 117.067 216.203 117.067C216.2 117.068 216.197 117.069 216.194 117.069L216.177 117.071C216.174 117.072 216.171 117.073 216.168 117.073C216.165 117.074 216.162 117.074 216.159 117.074C216.156 117.075 216.153 117.076 216.15 117.076C216.148 117.077 216.144 117.077 216.142 117.077C216.139 117.078 216.135 117.078 216.132 117.078C216.129 117.079 216.126 117.08 216.123 117.08C216.12 117.081 216.117 117.081 216.114 117.081C216.111 117.082 216.108 117.083 216.105 117.083L216.088 117.085C216.085 117.085 216.082 117.086 216.079 117.087C216.076 117.087 216.073 117.087 216.07 117.088C216.067 117.088 216.064 117.089 216.062 117.09C216.059 117.09 216.056 117.09 216.053 117.091C216.05 117.091 216.046 117.091 216.043 117.092C216.04 117.092 216.037 117.093 216.034 117.094C216.031 117.094 216.028 117.094 216.025 117.095C216.022 117.095 216.02 117.096 216.017 117.097L215.999 117.099C215.996 117.099 215.993 117.1 215.99 117.101C215.987 117.101 215.984 117.101 215.981 117.102C215.979 117.102 215.976 117.103 215.973 117.104C215.97 117.104 215.967 117.104 215.964 117.104C215.961 117.105 215.957 117.105 215.954 117.105C215.951 117.106 215.948 117.107 215.945 117.107C215.942 117.108 215.939 117.108 215.937 117.108C215.934 117.109 215.931 117.11 215.928 117.11L215.91 117.112C215.907 117.113 215.904 117.114 215.901 117.114C215.899 117.115 215.895 117.115 215.893 117.115C215.89 117.116 215.887 117.117 215.884 117.117C215.881 117.118 215.878 117.118 215.875 117.118C215.872 117.119 215.868 117.119 215.865 117.119C215.862 117.12 215.859 117.121 215.856 117.121C215.854 117.122 215.851 117.122 215.848 117.122C215.845 117.123 215.842 117.124 215.839 117.124L215.821 117.126C215.818 117.126 215.815 117.127 215.812 117.128C215.81 117.128 215.807 117.128 215.804 117.129C215.801 117.129 215.798 117.13 215.795 117.131C215.792 117.131 215.789 117.131 215.786 117.132C215.783 117.132 215.779 117.132 215.776 117.133C215.774 117.133 215.77 117.134 215.768 117.135C215.765 117.135 215.762 117.135 215.759 117.136C215.756 117.136 215.753 117.137 215.75 117.138L215.732 117.14C215.73 117.14 215.727 117.141 215.724 117.142C215.721 117.142 215.718 117.142 215.715 117.143C215.712 117.143 215.709 117.144 215.706 117.145C215.703 117.145 215.7 117.145 215.697 117.146C215.694 117.146 215.69 117.146 215.688 117.146C215.685 117.147 215.682 117.148 215.679 117.148C215.676 117.149 215.673 117.149 215.67 117.149C215.667 117.15 215.664 117.151 215.661 117.151L215.644 117.153C215.641 117.154 215.638 117.155 215.635 117.155C215.632 117.156 215.629 117.156 215.626 117.156C215.623 117.157 215.62 117.158 215.617 117.158C215.614 117.159 215.611 117.159 215.608 117.159C215.605 117.16 215.602 117.16 215.599 117.16C215.596 117.161 215.593 117.162 215.59 117.162C215.587 117.163 215.584 117.163 215.581 117.163C215.578 117.164 215.575 117.165 215.572 117.165L215.555 117.167C215.552 117.167 215.549 117.168 215.546 117.169C215.543 117.169 215.54 117.169 215.537 117.17C215.534 117.17 215.531 117.171 215.528 117.172C215.526 117.172 215.522 117.172 215.52 117.173C215.517 117.173 215.513 117.173 215.51 117.174C215.507 117.174 215.504 117.175 215.501 117.176C215.498 117.176 215.495 117.176 215.492 117.177C215.489 117.177 215.486 117.178 215.483 117.179L215.466 117.181C215.463 117.181 215.46 117.182 215.457 117.183C215.454 117.183 215.451 117.183 215.448 117.184C215.445 117.184 215.442 117.185 215.439 117.186C215.437 117.186 215.433 117.186 215.431 117.187C215.428 117.187 215.424 117.187 215.421 117.188C215.418 117.188 215.415 117.189 215.412 117.189C215.409 117.19 215.406 117.19 215.403 117.19C215.4 117.191 215.397 117.192 215.395 117.192L215.377 117.194C215.374 117.195 215.371 117.196 215.368 117.196C215.365 117.197 215.362 117.197 215.359 117.197C215.357 117.198 215.353 117.199 215.351 117.199C215.348 117.2 215.345 117.2 215.342 117.2C215.339 117.201 215.335 117.201 215.332 117.201C215.329 117.202 215.326 117.203 215.323 117.203C215.32 117.204 215.317 117.204 215.314 117.204C215.312 117.205 215.309 117.206 215.306 117.206L215.288 117.208C215.285 117.208 215.282 117.21 215.279 117.21C215.276 117.21 215.273 117.21 215.271 117.211C215.268 117.211 215.265 117.212 215.262 117.213C215.259 117.213 215.256 117.213 215.253 117.214C215.25 117.214 215.246 117.214 215.243 117.215C215.24 117.215 215.237 117.216 215.234 117.217C215.232 117.217 215.228 117.217 215.226 117.218C215.223 117.218 215.22 117.219 215.217 117.22L215.199 117.222C215.196 117.222 215.193 117.223 215.19 117.224C215.188 117.224 215.185 117.224 215.182 117.225C215.179 117.225 215.176 117.226 215.173 117.227C215.17 117.227 215.167 117.227 215.164 117.228C215.161 117.228 215.157 117.228 215.154 117.229C215.151 117.229 215.148 117.23 215.146 117.23C215.143 117.231 215.14 117.231 215.137 117.231C215.134 117.232 215.131 117.233 215.128 117.233L215.11 117.235C215.107 117.236 215.104 117.237 215.102 117.237C215.099 117.238 215.096 117.238 215.093 117.238C215.09 117.239 215.087 117.24 215.084 117.24C215.081 117.241 215.078 117.241 215.075 117.241C215.072 117.242 215.068 117.242 215.065 117.242C215.063 117.243 215.059 117.244 215.057 117.244C215.054 117.245 215.051 117.245 215.048 117.245C215.045 117.246 215.042 117.247 215.039 117.247L215.021 117.249C215.019 117.249 215.016 117.251 215.013 117.251C215.01 117.251 215.007 117.252 215.004 117.252C215.001 117.252 214.998 117.253 214.995 117.254C214.992 117.254 214.989 117.254 214.986 117.255C214.983 117.255 214.98 117.255 214.977 117.256C214.974 117.256 214.971 117.257 214.968 117.258C214.965 117.258 214.962 117.258 214.959 117.259C214.956 117.259 214.953 117.26 214.95 117.261L214.933 117.263C214.93 117.263 214.927 117.264 214.924 117.265C214.921 117.265 214.918 117.265 214.915 117.266C214.912 117.266 214.909 117.267 214.906 117.268C214.903 117.268 214.9 117.268 214.897 117.269C214.894 117.269 214.891 117.269 214.888 117.27C214.885 117.27 214.882 117.271 214.879 117.271C214.876 117.272 214.873 117.272 214.87 117.272C214.867 117.273 214.864 117.274 214.861 117.274L214.844 117.276C214.841 117.277 214.838 117.278 214.835 117.278C214.85 117.276 214.858 117.275 214.817 117.281C214.846 117.277 214.817 117.28 214.799 117.283L214.729 117.295C214.777 117.287 214.661 117.304 214.71 117.297L214.64 117.309C214.688 117.301 214.573 117.318 214.621 117.311L214.551 117.322C214.58 117.318 214.55 117.321 214.532 117.324L214.462 117.336C214.456 117.337 214.449 117.337 214.443 117.338L214.373 117.35C214.422 117.342 214.306 117.359 214.354 117.352L214.284 117.363C214.279 117.364 214.273 117.363 214.268 117.364C212.767 117.71 211.43 118.002 210.258 118.236C209.666 118.355 209.175 118.446 208.795 118.51C208.474 118.563 208.076 118.625 207.766 118.625C207.139 118.625 206.596 118.363 206.347 118.238C206.008 118.069 205.639 117.844 205.257 117.589L205.185 117.541L205.116 117.486C205.115 117.485 205.114 117.484 205.113 117.483C205.112 117.483 205.11 117.482 205.109 117.481C205.108 117.481 205.108 117.479 205.106 117.479C205.105 117.478 205.104 117.476 205.103 117.476C205.101 117.475 205.101 117.474 205.1 117.473C205.098 117.472 205.097 117.472 205.096 117.471C205.095 117.47 205.094 117.469 205.093 117.468C205.092 117.467 205.09 117.466 205.089 117.465L205.083 117.459C205.082 117.458 205.08 117.458 205.079 117.457C205.078 117.456 205.077 117.455 205.076 117.454C205.075 117.453 205.073 117.452 205.072 117.451C205.071 117.45 205.07 117.45 205.069 117.449C205.068 117.448 205.067 117.447 205.065 117.446L205.06 117.44C205.058 117.44 205.057 117.439 205.056 117.438L205.05 117.433C205.049 117.432 205.047 117.432 205.046 117.431L205.04 117.425C205.039 117.424 205.037 117.424 205.036 117.423L205.03 117.417C205.029 117.416 205.027 117.416 205.026 117.415L205.021 117.409C205.019 117.408 205.018 117.408 205.017 117.407L205.011 117.401C205.01 117.401 205.008 117.4 205.007 117.399C205.006 117.399 205.005 117.397 205.004 117.396C205.003 117.396 205.002 117.395 205.001 117.395C205 117.394 204.999 117.392 204.998 117.392C204.997 117.391 204.995 117.39 204.994 117.389C204.993 117.388 204.992 117.387 204.991 117.387C204.99 117.386 204.989 117.385 204.988 117.384C204.987 117.383 204.986 117.383 204.985 117.382C204.984 117.381 204.982 117.38 204.981 117.379C204.98 117.378 204.979 117.377 204.979 117.376C204.978 117.375 204.976 117.375 204.976 117.374C204.975 117.373 204.974 117.372 204.973 117.371C204.972 117.37 204.971 117.37 204.97 117.369C204.969 117.368 204.967 117.367 204.966 117.366C204.965 117.365 204.964 117.365 204.963 117.364C204.962 117.363 204.961 117.362 204.96 117.361C204.959 117.361 204.958 117.36 204.957 117.359C204.956 117.359 204.955 117.357 204.954 117.356C204.953 117.356 204.952 117.355 204.951 117.354C204.95 117.354 204.948 117.352 204.947 117.352C204.946 117.351 204.945 117.349 204.944 117.349C204.943 117.348 204.942 117.347 204.941 117.347C204.94 117.346 204.939 117.345 204.938 117.344L204.933 117.34C204.932 117.339 204.931 117.338 204.93 117.337C204.929 117.336 204.928 117.336 204.927 117.335C204.926 117.334 204.925 117.333 204.924 117.332C204.923 117.331 204.921 117.331 204.92 117.33C204.919 117.329 204.918 117.328 204.917 117.327C204.916 117.326 204.915 117.326 204.914 117.325C204.913 117.324 204.912 117.323 204.911 117.322C204.91 117.322 204.909 117.321 204.908 117.32C204.907 117.32 204.906 117.318 204.905 117.317C204.904 117.317 204.903 117.316 204.902 117.315C204.901 117.315 204.9 117.313 204.899 117.312L204.894 117.309C204.893 117.308 204.892 117.306 204.891 117.306C204.89 117.305 204.889 117.304 204.888 117.304C204.887 117.303 204.886 117.302 204.885 117.301L204.879 117.297C204.878 117.296 204.877 117.295 204.876 117.294C204.875 117.293 204.874 117.293 204.873 117.292C204.872 117.291 204.871 117.29 204.87 117.289L204.864 117.285C204.863 117.284 204.862 117.283 204.861 117.282L204.855 117.278C204.855 117.278 204.853 117.276 204.853 117.275C204.852 117.275 204.85 117.274 204.85 117.273L204.845 117.269L204.839 117.265C204.838 117.264 204.837 117.262 204.836 117.262L204.83 117.258C204.829 117.257 204.828 117.256 204.827 117.255C204.826 117.254 204.825 117.254 204.824 117.253L204.822 117.251C204.821 117.25 204.82 117.25 204.819 117.249C204.818 117.248 204.817 117.247 204.816 117.246L204.808 117.24C204.807 117.24 204.807 117.238 204.806 117.237L204.797 117.231L204.792 117.227L204.783 117.221C204.782 117.22 204.782 117.218 204.781 117.218L204.772 117.212L204.768 117.207C204.767 117.206 204.765 117.206 204.765 117.205L204.763 117.203L204.754 117.197C204.753 117.197 204.753 117.195 204.752 117.194L204.746 117.19L204.744 117.188L204.738 117.185L204.736 117.183C204.735 117.182 204.734 117.181 204.733 117.181L204.729 117.176C204.728 117.175 204.726 117.174 204.726 117.174L204.724 117.172C204.723 117.171 204.722 117.171 204.721 117.17L204.719 117.168L204.713 117.164L204.711 117.162C204.71 117.161 204.709 117.161 204.708 117.16L204.706 117.158C204.705 117.158 204.704 117.157 204.703 117.156L204.701 117.154C204.7 117.154 204.699 117.153 204.698 117.152L204.696 117.15C204.695 117.15 204.694 117.149 204.693 117.148L204.691 117.146C204.691 117.146 204.689 117.145 204.688 117.145L204.687 117.143C204.686 117.142 204.684 117.141 204.684 117.141L204.682 117.139C204.681 117.138 204.68 117.137 204.679 117.137L204.677 117.135C204.676 117.134 204.675 117.133 204.674 117.133L204.672 117.131C204.671 117.13 204.67 117.13 204.669 117.129L204.667 117.127C204.666 117.126 204.665 117.126 204.664 117.125L204.66 117.121C204.659 117.12 204.658 117.12 204.657 117.119L204.655 117.117C204.654 117.117 204.653 117.116 204.652 117.115L204.648 117.111L204.646 117.11L204.644 117.108L204.641 117.106L204.637 117.103L204.634 117.101L204.63 117.097L204.627 117.096L204.623 117.092L204.62 117.09L204.614 117.084L204.611 117.083L204.607 117.079L204.604 117.077L204.603 117.075L204.601 117.074L204.599 117.072L204.596 117.07L204.592 117.066L204.59 117.065L204.588 117.063L204.585 117.062L204.583 117.06L204.581 117.059L204.575 117.053L204.572 117.052L204.568 117.048L204.566 117.047L204.561 117.041L204.558 117.04L204.554 117.036L204.552 117.035L204.548 117.031L204.546 117.03L204.544 117.028L204.542 117.027L204.538 117.023L204.536 117.022L204.532 117.019L204.53 117.018L204.528 117.016L204.526 117.015L204.522 117.011L204.521 117.01L204.519 117.008L204.517 117.007L204.515 117.005L204.513 117.004L204.509 117L204.507 116.999L204.505 116.997L204.503 116.996L204.501 116.994L204.499 116.993L204.494 116.988L204.492 116.987L204.49 116.985L204.488 116.984L204.486 116.982L204.484 116.981L204.483 116.979L204.481 116.979L204.479 116.977L204.478 116.976L204.476 116.974L204.474 116.973L204.471 116.97L204.469 116.969L204.464 116.964L204.46 116.962L204.455 116.957L204.453 116.956L204.45 116.953L204.446 116.951L204.445 116.949L204.441 116.947L204.44 116.945L204.437 116.943L204.436 116.941L204.432 116.939L204.431 116.938L204.429 116.937L204.426 116.934L204.424 116.933L204.423 116.932L204.421 116.931L204.42 116.929L204.416 116.927L204.412 116.923L204.41 116.922L204.406 116.918L204.404 116.917L204.403 116.916L204.401 116.915L204.4 116.913L204.398 116.912L204.397 116.911L204.396 116.91L204.392 116.906L204.39 116.905L204.388 116.903L204.386 116.902L204.382 116.898L204.38 116.897L204.378 116.896L204.376 116.895L204.374 116.893L204.372 116.892L204.371 116.891L204.37 116.889L204.368 116.888L204.366 116.886L204.364 116.885L204.362 116.883L204.36 116.882L204.358 116.88L204.356 116.879L204.354 116.876L204.352 116.875L204.348 116.871L204.346 116.87L204.342 116.866L204.34 116.865L204.338 116.863L204.335 116.861L204.333 116.86L204.327 116.854L204.325 116.854L204.323 116.853L204.319 116.849L204.314 116.845L204.31 116.841L204.305 116.837L204.303 116.836L204.302 116.835L204.299 116.832L204.296 116.83L204.294 116.829L204.293 116.827L204.29 116.825L204.289 116.824L204.288 116.823L204.286 116.822L204.285 116.821L204.284 116.82L204.28 116.817L204.279 116.816L204.275 116.813L204.274 116.812L204.271 116.811L204.271 116.81L204.27 116.809L204.266 116.806L204.265 116.805L204.264 116.804L204.263 116.803H204.261L204.26 116.802L204.259 116.801L204.255 116.797L204.254 116.796L204.251 116.794L204.25 116.793L204.249 116.792L204.248 116.791H204.246L204.245 116.789L204.244 116.788L204.242 116.787L203.733 116.381L184.955 47.874L178.116 45.8418V35.5059L179.758 35.207H179.76C179.76 35.2069 179.762 35.2062 179.763 35.2061C179.765 35.2057 179.763 35.2066 179.766 35.2061C179.781 35.2032 179.758 35.2072 179.775 35.2041C179.797 35.2002 179.765 35.2054 179.788 35.2012C179.824 35.1947 179.785 35.2018 179.826 35.1943C179.904 35.1802 179.795 35.2006 179.878 35.1855L179.91 35.1797C179.912 35.1793 179.943 35.1734 179.946 35.1729C179.96 35.1703 179.951 35.1715 179.965 35.1689C179.973 35.1674 179.977 35.1676 179.985 35.166L180.028 35.1582C180.093 35.1465 180.155 35.1345 180.239 35.1191C180.362 35.0968 180.239 35.12 180.367 35.0967C180.465 35.0788 180.407 35.089 180.51 35.0703C180.52 35.0684 180.519 35.0693 180.529 35.0674C180.554 35.0628 180.523 35.068 180.548 35.0635C180.629 35.0487 180.506 35.0714 180.587 35.0566C180.588 35.0565 180.603 35.0533 180.606 35.0527L180.617 35.0508C180.621 35.05 180.623 35.0496 180.627 35.0488C180.665 35.0419 180.609 35.0519 180.647 35.0449C180.651 35.0444 180.665 35.0425 180.668 35.042C180.681 35.0396 180.666 35.0424 180.679 35.04C180.686 35.0387 180.681 35.0395 180.688 35.0381C180.69 35.0378 180.693 35.0374 180.694 35.0371C180.696 35.0368 180.698 35.0364 180.699 35.0361L180.753 35.0264C180.761 35.0248 180.833 35.0111 180.841 35.0098C180.969 34.9865 181.084 34.9663 181.231 34.9395C181.391 34.9105 181.286 34.9293 181.45 34.8994C181.501 34.8902 181.627 34.8676 181.683 34.8574L181.712 34.8516C183.146 34.6126 184.807 34.3763 186.692 34.1406C188.544 33.9091 190.217 33.6782 191.712 33.4482L191.723 33.4463L191.733 33.4453C193.298 33.2217 194.463 33.0752 194.991 33.0752L195.245 33.0879C195.829 33.1461 196.353 33.3889 196.673 33.5488C197.11 33.7677 197.603 34.0656 198.137 34.4189C199.27 35.0553 200.337 35.8112 201.339 36.6826C201.912 37.1317 202.423 37.597 202.827 38.082C203.217 38.5493 203.602 39.1488 203.761 39.8662H203.763L213.912 82.916L213.914 82.9219L216.551 94.2627L227.384 58.1514L224.516 47.7314L217.666 45.8809V35.5059L219.308 35.207H219.31C219.311 35.2068 219.313 35.2065 219.315 35.2061C219.317 35.2058 219.318 35.2054 219.319 35.2051L219.322 35.2041H219.326L219.328 35.2031H219.331C219.333 35.2028 219.336 35.2016 219.338 35.2012C219.363 35.1966 219.384 35.1937 219.429 35.1855C219.461 35.1796 219.678 35.1394 219.789 35.1191C219.812 35.1149 220.015 35.0784 220.06 35.0703C220.169 35.0504 220.261 35.0333 220.391 35.0098C220.458 34.9976 220.415 35.0056 220.483 34.9932C220.506 34.989 220.555 34.9799 220.579 34.9756C220.626 34.9671 220.731 34.9488 220.782 34.9395L221.233 34.8574L221.247 34.8545L221.262 34.8516C222.696 34.6126 224.358 34.3763 226.243 34.1406C228.095 33.9092 229.767 33.6781 231.262 33.4482L231.272 33.4463L231.283 33.4453C232.848 33.2217 234.013 33.0752 234.541 33.0752L234.795 33.0879C235.379 33.1461 235.903 33.3889 236.223 33.5488C236.66 33.7674 237.152 34.0652 237.685 34.418C238.818 35.0546 239.886 35.8107 240.889 36.6826C241.462 37.1317 241.973 37.597 242.377 38.082C242.766 38.5492 243.151 39.1488 243.311 39.8662H243.312L253.463 82.916L253.464 82.9219L256.032 93.9678L268.07 47.6689L257.041 46.499V34.2998H260.886C262.278 34.1847 263.942 34.07 265.874 33.9561C267.992 33.7217 270.111 33.5454 272.229 33.4277C274.316 33.3118 276.135 33.2521 277.682 33.25C279.108 33.1405 280.064 33.0752 280.391 33.0752L280.545 33.0801ZM259.041 44.7002L270.591 45.9248L256.94 98.4248H255.016L251.516 83.375L241.366 40.3252C241.25 39.7419 240.666 39.0412 239.616 38.2246C238.683 37.4079 237.691 36.7083 236.641 36.125C235.591 35.4251 234.891 35.0753 234.541 35.0752C234.191 35.0752 233.199 35.1915 231.565 35.4248C230.049 35.6581 228.358 35.8917 226.491 36.125L225.135 36.2998C223.822 36.4748 222.641 36.6502 221.591 36.8252L219.666 37.1748V44.3496L226.141 46.0996L229.466 58.1748L217.391 98.4248H215.466L211.966 83.375L201.815 40.3252C201.699 39.7419 201.115 39.0413 200.065 38.2246C199.132 37.4081 198.141 36.7083 197.091 36.125C196.041 35.4253 195.341 35.0755 194.991 35.0752C194.641 35.0752 193.649 35.1915 192.016 35.4248C190.499 35.6581 188.807 35.8917 186.94 36.125L185.585 36.2998C184.272 36.4748 183.091 36.6502 182.041 36.8252L180.116 37.1748V44.3496L186.591 46.2744L205.491 115.225C205.499 115.23 205.79 115.464 206.366 115.925C206.978 116.333 207.412 116.563 207.667 116.614L207.766 116.625C207.941 116.625 208.378 116.559 209.078 116.428L209.866 116.274C211.033 116.041 212.374 115.749 213.891 115.399L218.44 114.7C219.957 114.35 221.183 114.059 222.116 113.825C223.151 113.595 223.675 113.478 223.69 113.475L233.841 77.0752H234.891L245.041 115.225C245.044 115.227 245.336 115.46 245.916 115.925C246.529 116.333 246.963 116.563 247.218 116.614L247.315 116.625C247.49 116.625 247.928 116.559 248.628 116.428L249.416 116.274C250.583 116.041 251.924 115.749 253.44 115.399L257.991 114.7C259.508 114.35 260.733 114.059 261.666 113.825L263.241 113.475L285.466 41.2002C285.466 40.6898 285.198 40.0449 284.662 39.2666L284.416 38.9248C283.716 37.8748 282.957 36.9998 282.141 36.2998C281.324 35.4832 280.741 35.0752 280.391 35.0752C280.157 35.0752 279.282 35.1334 277.766 35.25L276.573 35.2607C275.326 35.2826 273.916 35.3373 272.341 35.4248L270.766 35.5234C269.191 35.6328 267.616 35.7752 266.041 35.9502C264.553 36.0377 263.23 36.1244 262.07 36.2119L260.966 36.2998H259.041V44.7002Z" fill="#FBFF00"/>
<path d="M173.794 71.8252C173.794 60.4102 170.947 51.5679 165.254 45.2988L164.694 44.7002C158.93 38.4841 150.429 35.2783 139.19 35.084L138.094 35.0752C137.044 35.0753 135.294 35.7749 132.844 37.1748C130.394 38.4581 127.711 40.0919 124.794 42.0752C121.994 43.9418 119.369 45.9245 116.919 48.0244C114.586 50.0077 112.952 51.6996 112.019 53.0996C110.852 55.3162 109.861 58.8746 109.044 63.7744C108.227 68.5577 107.819 73.5752 107.819 78.8252L107.828 80.0391C108.012 92.4856 111.042 101.647 116.919 107.524C122.909 113.401 131.636 116.432 143.101 116.616L144.219 116.625C145.269 116.625 146.961 115.983 149.294 114.7C151.744 113.417 154.369 111.783 157.169 109.8C160.086 107.816 162.711 105.891 165.044 104.024C167.085 102.289 168.592 100.867 169.562 99.7568L169.944 99.2998C170.761 96.8498 171.532 93.5958 172.26 89.5381L172.569 87.75C173.335 83.1562 173.741 78.2032 173.789 72.8916L173.794 71.8252ZM154.994 74.0996C154.994 68.4311 154.256 63.6563 152.838 59.7295L152.816 59.667C151.511 55.6416 149.545 52.6776 146.994 50.6367L146.976 50.6221L146.958 50.6064C144.459 48.5075 141.263 47.3994 137.219 47.3994C136.186 47.3994 135.151 47.503 134.111 47.7109L134.016 47.7305L133.918 47.7402C133.031 47.8289 132.112 48.0948 131.152 48.5693C130.984 48.6702 130.509 49.1128 129.898 50.4658C129.307 51.7779 128.716 53.6544 128.147 56.1514C127.14 61.0934 126.619 67.8168 126.619 76.375C126.619 84.5269 127.658 90.5335 129.567 94.5752L129.942 95.3193C131.836 98.947 134.064 101.295 136.543 102.588C139.34 103.93 142.087 104.599 144.799 104.645C145.141 104.518 145.842 104.215 147 103.636C148.38 102.946 149.7 102.257 150.961 101.569L150.992 101.552L151.024 101.536C151.199 101.449 151.11 101.494 151.279 101.409C151.289 101.404 151.51 101.293 151.517 101.29C151.519 101.289 151.521 101.287 151.523 101.286L151.545 101.275C151.564 101.266 151.555 101.271 151.573 101.262C151.592 101.252 151.569 101.263 151.588 101.254L151.602 101.247C151.62 101.238 151.611 101.243 151.63 101.233L151.671 101.213C151.673 101.212 151.675 101.21 151.678 101.209C151.68 101.208 151.682 101.207 151.685 101.206C151.702 101.197 151.693 101.201 151.711 101.192L151.791 101.152C151.859 101.118 151.775 101.161 151.843 101.127C151.845 101.126 151.847 101.125 151.85 101.124C151.852 101.123 151.853 101.121 151.855 101.12C151.858 101.119 151.86 101.118 151.862 101.117L151.868 101.114C151.87 101.113 151.873 101.112 151.875 101.111C151.877 101.11 151.879 101.108 151.881 101.107C151.883 101.106 151.886 101.106 151.888 101.104L151.894 101.102C151.994 101.051 151.843 101.126 151.943 101.076C151.952 101.072 152.126 100.985 152.132 100.982L152.144 100.977C152.145 100.976 152.147 100.974 152.148 100.974L152.16 100.968C152.162 100.967 152.163 100.967 152.165 100.966L152.22 100.938C152.247 100.925 152.255 100.92 152.262 100.917C152.781 98.4075 153.351 95.2012 153.969 91.2881C154.646 87.0008 154.994 81.2834 154.994 74.0996ZM156.99 75.4395C156.949 82.0566 156.601 87.4434 155.944 91.5996L155.685 93.2217C155.085 96.9091 154.529 99.9266 154.019 102.274C154.006 102.28 153.307 102.631 151.919 103.325L150.945 103.85C149.961 104.375 148.944 104.9 147.894 105.425L146.932 105.896C146.057 106.311 145.444 106.562 145.094 106.649C141.944 106.649 138.793 105.892 135.644 104.375C132.494 102.742 129.868 99.7667 127.769 95.4502C125.8 91.2939 124.754 85.4454 124.631 77.9053L124.619 76.375C124.619 67.7417 125.144 60.8579 126.194 55.7246C127.361 50.5916 128.702 47.6166 130.219 46.7998C131.24 46.2894 132.26 45.9578 133.281 45.8047L133.719 45.75C134.885 45.5167 136.052 45.3994 137.219 45.3994C141.652 45.3994 145.327 46.6252 148.244 49.0752C151.161 51.4085 153.319 54.7333 154.719 59.0498C156.235 63.2498 156.994 68.2664 156.994 74.0996L156.99 75.4395ZM175.794 71.8252C175.794 77.6356 175.379 83.0549 174.542 88.0781C173.718 93.0218 172.823 96.9893 171.842 99.9326L171.729 100.271L171.506 100.549C170.447 101.873 168.691 103.55 166.339 105.549L166.316 105.568L166.293 105.587C163.913 107.491 161.246 109.447 158.294 111.454L158.293 111.453C155.448 113.466 152.758 115.143 150.222 116.472C149.022 117.13 147.939 117.652 146.984 118.014C146.052 118.367 145.1 118.625 144.219 118.625C131.884 118.625 122.201 115.508 115.519 108.952L115.512 108.945L115.505 108.939C108.907 102.341 105.819 92.1496 105.819 78.8252C105.819 73.4716 106.235 68.3415 107.072 63.4385C107.896 58.4961 108.928 54.678 110.249 52.168L110.298 52.0762L110.354 51.9902C111.442 50.3591 113.241 48.5262 115.617 46.5059C118.126 44.3553 120.811 42.3273 123.669 40.4209C126.625 38.4106 129.369 36.7384 131.897 35.4131C133.149 34.6997 134.271 34.1351 135.251 33.7432C136.205 33.3617 137.187 33.0752 138.094 33.0752C150.216 33.0752 159.688 36.3797 166.134 43.3125C172.669 50.0994 175.794 59.7084 175.794 71.8252Z" fill="#FBFF00"/>
<path d="M47.8496 9.52441H43.4746C42.3079 12.6744 41.2004 15.6502 40.1504 18.4502L39.8223 19.4639C39.1076 21.7482 38.75 23.4522 38.75 24.5752V106.403L29.125 104.725V13.8994C29.1247 13.5493 28.7167 12.9076 27.9004 11.9746C27.2879 11.0559 26.586 10.2264 25.7949 9.48633L25.4502 9.1748C24.5172 8.35844 23.8755 7.9505 23.5254 7.9502C23.1754 7.9502 22.125 8.06647 20.375 8.2998C18.625 8.41647 16.5833 8.65 14.25 9C11.9167 9.23333 9.64147 9.525 7.4248 9.875C5.20824 10.1083 3.39996 10.3419 2 10.5752V17.3994L12.8496 20.0244V110.85C12.8496 111.2 13.2586 111.841 14.0752 112.774C15.0085 113.708 15.9417 114.583 16.875 115.399C17.7504 116.165 18.3692 116.573 18.7314 116.62L18.7998 116.625C19.0331 116.625 20.0254 116.508 21.7754 116.274C23.642 116.041 25.8002 115.749 28.25 115.399C30.6999 115.166 33.0915 114.874 35.4248 114.524C37.2622 114.262 38.7389 114.066 39.8545 113.935L40.8496 113.825L44.1748 107.35C45.4581 105.016 46.3913 102.975 46.9746 101.225C47.4849 99.5916 47.7721 98.4052 47.8359 97.665L47.8496 97.375V65.167L68.8496 66.042V110.675C68.8496 111.025 69.2004 111.666 69.9004 112.6C70.717 113.533 71.5921 114.408 72.5254 115.225C73.4002 116.099 74.0185 116.564 74.3809 116.619L74.4502 116.625C74.8004 116.625 75.8501 116.508 77.5996 116.274C79.3495 116.158 81.3915 115.925 83.7246 115.575C84.8914 115.459 86.044 115.341 87.1816 115.225L90.5498 114.875C92.7663 114.525 94.5747 114.233 95.9746 114V107.175L85.125 104.55V13.8994C85.1247 13.5493 84.7167 12.9076 83.9004 11.9746C83.2879 11.0559 82.586 10.2264 81.7949 9.48633L81.4502 9.1748C80.5172 8.35844 79.8755 7.9505 79.5254 7.9502C79.0587 7.9502 77.425 8.12461 74.625 8.47461C71.8251 8.70793 68.7919 9.05778 65.5254 9.52441C62.3754 9.87442 59.8667 10.2252 58 10.5752V17.3994L68.8496 20.0244V55.3818L47.8496 56.2568V9.52441ZM49.8496 54.1719L66.8496 53.4629V21.5977L56 18.9736V8.91504L57.6318 8.60938C59.5618 8.24751 62.1141 7.89214 65.2695 7.54102C68.5442 7.07367 71.5958 6.72079 74.4229 6.48438C77.1191 6.14762 78.9029 5.9502 79.5254 5.9502L79.6729 5.9541C80.4058 5.99873 81.0196 6.36269 81.3428 6.56836C81.7854 6.85005 82.2648 7.23084 82.7666 7.66992C83.8019 8.57585 84.7096 9.60624 85.4893 10.7559C85.8924 11.2223 86.2425 11.6682 86.5059 12.082C86.7252 12.4267 87.1249 13.1017 87.125 13.8994V102.975L97.9746 105.601V115.694L96.3037 115.973C94.8959 116.207 93.0816 116.5 90.8623 116.851L90.8105 116.858L90.7598 116.864C88.5558 117.096 86.2941 117.327 83.9756 117.559C81.6495 117.907 79.5862 118.144 77.792 118.266C76.1488 118.484 74.9602 118.625 74.4502 118.625C73.9486 118.625 73.5365 118.467 73.2812 118.347C73.0052 118.217 72.7515 118.053 72.5303 117.893C72.101 117.58 71.6383 117.163 71.1553 116.683C70.1751 115.821 69.2541 114.899 68.3945 113.917L68.3457 113.86L68.2998 113.8C67.9218 113.296 67.5963 112.816 67.3564 112.376C67.1599 112.016 66.8496 111.387 66.8496 110.675V67.96L49.8496 67.252V97.375C49.8496 98.4256 49.4558 99.9907 48.8838 101.821L48.8779 101.84L48.8721 101.857C48.2422 103.747 47.2588 105.887 45.9541 108.264L42.1318 115.707L41.0488 115.814C39.9266 115.927 38.1534 116.156 35.708 116.505C33.3615 116.857 30.959 117.149 28.501 117.384C26.056 117.733 23.8965 118.026 22.0234 118.26L22.0225 118.259C21.1516 118.375 20.4598 118.464 19.9521 118.523C19.5054 118.576 19.0615 118.625 18.7998 118.625C18.002 118.625 17.3271 118.225 16.9824 118.006C16.5398 117.724 16.0594 117.344 15.5576 116.905C14.589 116.058 13.6237 115.152 12.6611 114.189L12.6133 114.142L12.5703 114.092C12.1312 113.59 11.7505 113.11 11.4688 112.667C11.2494 112.322 10.8496 111.647 10.8496 110.85V21.5977L0 18.9736V8.88086L1.6709 8.60156C3.11671 8.36059 4.95452 8.12361 7.17188 7.88965C9.38944 7.54068 11.662 7.24946 13.9893 7.01562C16.3108 6.66813 18.371 6.4319 20.1631 6.30957C21.8167 6.08948 23.0135 5.9502 23.5254 5.9502L23.6729 5.9541C24.4058 5.99873 25.0196 6.36269 25.3428 6.56836C25.7854 6.85005 26.2648 7.23084 26.7666 7.66992C27.802 8.57585 28.7096 9.60624 29.4893 10.7559C29.8924 11.2223 30.2425 11.6682 30.5059 12.082C30.7252 12.4267 31.1249 13.1017 31.125 13.8994V103.043L36.75 104.024V24.5752C36.75 22.9385 37.3168 20.6257 38.2529 17.8174L38.2646 17.7822L38.2773 17.7471C39.3262 14.95 40.4338 11.9777 41.5996 8.83008L42.083 7.52441H49.8496V54.1719Z" fill="#FBFF00"/>
</svg>
