<svg width="65" height="65" viewBox="0 0 65 65" fill="none" xmlns="http://www.w3.org/2000/svg">
<g clip-path="url(#clip0_83_8)">
<path d="M53.4901 0H11.5099C5.15315 0 0 5.28524 0 11.8049V53.1951C0 59.7148 5.15315 65 11.5099 65H53.4901C59.8468 65 65 59.7148 65 53.1951V11.8049C65 5.28524 59.8468 0 53.4901 0Z" fill="#001E36"/>
<path d="M14.6369 45.5822V17.0039C14.6369 16.7968 14.7233 16.6913 14.8986 16.6913C15.3622 16.6913 15.7877 16.6913 16.4227 16.6692C17.0578 16.647 17.7526 16.6392 18.4943 16.6249L20.8491 16.5793C21.6772 16.5645 22.4982 16.5571 23.3119 16.5571C25.5211 16.5571 27.3839 16.8402 28.9005 17.4065C30.2638 17.8805 31.5072 18.6596 32.5406 19.6875C33.4169 20.5789 34.0939 21.655 34.5246 22.8413C34.9321 23.9964 35.138 25.2161 35.133 26.4445C35.133 28.831 34.5953 30.7989 33.5199 32.3483C32.437 33.9043 30.9152 35.0826 29.1596 35.7248C27.328 36.4257 25.292 36.6627 23.0541 36.6627C22.419 36.6627 21.9643 36.6562 21.7026 36.6406C21.441 36.625 21.0485 36.6185 20.5252 36.6185V45.5405C20.5319 45.5868 20.5295 45.634 20.5182 45.6794C20.507 45.7247 20.4871 45.7674 20.4597 45.8048C20.4323 45.8422 20.398 45.8737 20.3586 45.8974C20.3193 45.9212 20.2758 45.9367 20.2306 45.9431C20.1982 45.9483 20.1652 45.9483 20.1328 45.9431H14.9418C14.7335 45.9392 14.6369 45.8206 14.6369 45.5822ZM20.5252 22.0584V31.3791C20.9029 31.4095 21.2518 31.4242 21.5718 31.4234H23.0109C24.0698 31.4196 25.1217 31.2474 26.129 30.9127C26.9926 30.6507 27.7645 30.1398 28.353 29.4407C28.9195 28.7555 29.2027 27.8002 29.2027 26.5748C29.2247 25.7095 29.0043 24.856 28.5677 24.1153C28.1101 23.3989 27.4484 22.8444 26.6727 22.5273C25.6615 22.1245 24.5816 21.9345 23.4973 21.9685C22.7988 21.9685 22.1811 21.9759 21.6442 21.9906C21.1074 22.0054 20.7365 22.028 20.5316 22.0584H20.5252Z" fill="#31A8FF"/>
<path d="M51.9926 29.6843C51.1732 29.252 50.3003 28.936 49.3978 28.7451C48.4037 28.5108 47.3873 28.3906 46.3673 28.3868C45.8157 28.3717 45.2649 28.4398 44.7326 28.5888C44.3934 28.6658 44.0918 28.8638 43.8816 29.1476C43.7396 29.3746 43.6642 29.6387 43.6644 29.9084C43.6721 30.1699 43.7641 30.4214 43.9261 30.6236C44.1806 30.9292 44.4919 31.1799 44.8418 31.3609C45.4632 31.7031 46.1036 32.0076 46.7597 32.2728C48.2232 32.7755 49.6217 33.4588 50.9245 34.3075C51.8111 34.8825 52.5451 35.6738 53.0608 36.6107C53.4954 37.4992 53.7133 38.4827 53.6959 39.4766C53.7216 40.7874 53.3565 42.075 52.6493 43.1671C51.8917 44.2749 50.8398 45.1363 49.6188 45.6487C48.2928 46.2462 46.656 46.545 44.7085 46.545C43.4719 46.5567 42.2375 46.4367 41.0251 46.1867C40.0696 46.007 39.1395 45.7064 38.2562 45.2918C38.1607 45.2415 38.0811 45.1643 38.0269 45.0692C37.9726 44.9741 37.946 44.8651 37.9501 44.7551V39.926C37.9446 39.8787 37.9519 39.8307 37.9711 39.7872C37.9904 39.7438 38.0209 39.7067 38.0594 39.6798C38.0968 39.6579 38.1398 39.6483 38.1828 39.6522C38.2257 39.6562 38.2664 39.6735 38.2994 39.702C39.3436 40.3333 40.4775 40.7935 41.6602 41.0659C42.7018 41.334 43.7705 41.4765 44.8444 41.4905C45.8605 41.4905 46.609 41.3564 47.09 41.088C47.3065 40.9863 47.4896 40.8224 47.6172 40.6162C47.7448 40.41 47.8113 40.1702 47.8088 39.926C47.8088 39.5378 47.5908 39.1648 47.1547 38.807C46.7187 38.4492 45.8313 38.0193 44.4925 37.5174C43.1234 37.0287 41.8254 36.3517 40.6339 35.5047C39.7818 34.8976 39.0798 34.0946 38.5839 33.1599C38.1542 32.2789 37.9364 31.3051 37.9489 30.32C37.9451 29.1334 38.2626 27.969 38.8659 26.9565C39.5513 25.8441 40.5359 24.9587 41.7008 24.4071C42.9794 23.7515 44.5781 23.4236 46.4968 23.4236C47.6208 23.4139 48.7437 23.4958 49.855 23.6685C50.6595 23.7746 51.4459 23.9938 52.1921 24.3199C52.2513 24.3373 52.3058 24.3686 52.3512 24.4113C52.3966 24.4541 52.4317 24.507 52.4537 24.5661C52.4832 24.6751 52.4978 24.7877 52.4969 24.9009V29.4186C52.5004 29.4708 52.4905 29.523 52.4683 29.5701C52.446 29.6172 52.4121 29.6575 52.3699 29.6869C52.3111 29.7165 52.2464 29.7316 52.181 29.7311C52.1155 29.7307 52.051 29.7147 51.9926 29.6843Z" fill="#31A8FF"/>
</g>
<defs>
<clipPath id="clip0_83_8">
<rect width="65" height="65" fill="white"/>
</clipPath>
</defs>
</svg>
